<?xml version="1.0" encoding="UTF-8"?>
<COLLADA xmlns="http://www.collada.org/2005/11/COLLADASchema" version="1.4.1">
    <asset>
        <contributor>
            <author>VCGLab</author>
            <authoring_tool>VCGLib | MeshLab</authoring_tool>
        </contributor>
        <created>Fri May 8 15:35:02 2026 GMT</created>
        <modified>Fri May 8 15:35:02 2026 GMT</modified>
        <up_axis>Y_UP</up_axis>
    </asset>
    <library_geometries>
        <geometry id="shape0-lib" name="shape0">
            <mesh>
                <source id="shape0-lib-positions" name="position">
                    <float_array id="shape0-lib-positions-array" count="1698">0.0648182 -0.00485746 -0.02 0.0648182 0.00485746 -0.02 0.0633703 -0.0144639 -0.02 0.0633703 0.0144639 -0.02 0.0605068 -0.0237472 -0.02 0.0605068 0.0237472 -0.02 0.0562917 -0.0325 -0.02 0.0562917 0.0325 -0.02 0.0508191 -0.0405268 -0.02 0.0508191 0.0405268 -0.02 0.0442112 -0.0476484 -0.02 0.0442112 0.0476484 -0.02 0.0366158 -0.0537055 -0.02 0.0366158 0.0537055 -0.02 0.0282024 -0.058563 -0.02 0.0282024 0.058563 -0.02 0.0191591 -0.0621122 -0.02 0.0191591 0.0621122 -0.02 0.00968775 -0.064274 -0.02 0.00968775 0.064274 -0.02 0 -0.065 -0.02 0 0.065 -0.02 -0.00968775 -0.064274 -0.02 -0.00968775 0.064274 -0.02 -0.0191591 -0.0621122 -0.02 -0.0191591 0.0621122 -0.02 -0.0282024 -0.058563 -0.02 -0.0282024 0.058563 -0.02 -0.0366158 -0.0537055 -0.02 -0.0366158 0.0537055 -0.02 -0.0442112 -0.0476484 -0.02 -0.0442112 0.0476484 -0.02 -0.0508191 -0.0405268 -0.02 -0.0508191 0.0405268 -0.02 -0.0562917 -0.0325 -0.02 -0.0562917 0.0325 -0.02 -0.0605068 -0.0237472 -0.02 -0.0605068 0.0237472 -0.02 -0.0633703 -0.0144639 -0.02 -0.0633703 0.0144639 -0.02 -0.0648182 -0.00485746 -0.02 -0.0648182 0.00485746 -0.02 -0.0633703 -0.0144639 0 -0.0605068 -0.0237472 0 -0.0562917 -0.0325 0 -0.0508191 -0.0405268 0 -0.0442112 -0.0476484 0 -0.0366158 -0.0537055 0 -0.0282024 -0.058563 0 -0.0191591 -0.0621122 0 -0.00968775 -0.064274 0 0 -0.065 0 -0.0648182 -0.00485746 0 -0.0648182 0.00485746 0 -0.0633703 0.0144639 0 -0.0605068 0.0237472 0 -0.0562917 0.0325 0 -0.0508191 0.0405268 0 -0.0442112 0.0476484 0 -0.0366158 0.0537055 0 -0.0282024 0.058563 0 -0.0191591 0.0621122 0 -0.00968775 0.064274 0 0 0.065 0 0.0633703 0.0144639 0 0.0605068 0.0237472 0 0.0562917 0.0325 0 0.0508191 0.0405268 0 0.0442112 0.0476484 0 0.0366158 0.0537055 0 0.0282024 0.058563 0 0.0191591 0.0621122 0 0.00968775 0.064274 0 0.0648182 0.00485746 0 0.0648182 -0.00485746 0 0.0633703 -0.0144639 0 0.0605068 -0.0237472 0 0.0562917 -0.0325 0 0.0508191 -0.0405268 0 0.0442112 -0.0476484 0 0.0366158 -0.0537055 0 0.0282024 -0.058563 0 0.0191591 -0.0621122 0 0.00968775 -0.064274 0 0 0.07574 -0.008 0 0.07574 0 0.00015 0.0759999 -0.008 0.00015 0.0759999 0 0 0.076 -0.008 -0.00015 0.0759999 -0.008 -0.00015 0.0759999 0 0.0392314 -0.00780361 -0.0365 0.0392314 0.00780361 -0.0365 0.04 0 -0.0365 0.0369552 0.0153073 -0.0365 0.0369552 -0.0153073 -0.0365 0.0332588 0.0222228 -0.0365 0.0332588 -0.0222228 -0.0365 0.0282843 0.0282843 -0.0365 0.0282843 -0.0282843 -0.0365 0.0222228 0.0332588 -0.0365 0.0222228 -0.0332588 -0.0365 0.0153073 0.0369552 -0.0365 0.0153073 -0.0369552 -0.0365 0.00780361 0.0392314 -0.0365 0.00780361 -0.0392314 -0.0365 0 0.04 -0.0365 0 -0.04 -0.0365 -0.00780361 0.0392314 -0.0365 -0.00780361 -0.0392314 -0.0365 -0.0153073 0.0369552 -0.0365 -0.0153073 -0.0369552 -0.0365 -0.0222228 0.0332588 -0.0365 -0.0222228 -0.0332588 -0.0365 -0.0282843 0.0282843 -0.0365 -0.0282843 -0.0282843 -0.0365 -0.0332588 0.0222228 -0.0365 -0.0332588 -0.0222228 -0.0365 -0.0369552 0.0153073 -0.0365 -0.0369552 -0.0153073 -0.0365 -0.0392314 0.00780361 -0.0365 -0.0392314 -0.00780361 -0.0365 -0.04 0 -0.0365 0.0625 0 -0.0269957 0.0625 -0.005 -0.03 0.06 -0.00433013 -0.03 0.0581699 -0.0025 -0.03 0.0575 0 -0.03 0.0581699 0.0025 -0.03 0.06 0.00433013 -0.03 0.0625 0.005 -0.03 0.065 0.00433013 -0.03 0.0668301 0.0025 -0.03 0.0675 0 -0.03 0.0668301 -0.0025 -0.03 0.065 -0.00433013 -0.03 0 -0.0625 -0.0214463 0 -0.06675 -0.024 -0.002125 -0.0661806 -0.024 -0.00368061 -0.064625 -0.024 -0.00425 -0.0625 -0.024 -0.00368061 -0.060375 -0.024 -0.002125 -0.0588194 -0.024 0 -0.05825 -0.024 0.002125 -0.0588194 -0.024 0.00368061 -0.060375 -0.024 0.00425 -0.0625 -0.024 0.00368061 -0.064625 -0.024 0.002125 -0.0661806 -0.024 -0.0541266 -0.03125 -0.0214463 -0.0541266 -0.0355 -0.024 -0.0562516 -0.0349306 -0.024 -0.0578072 -0.033375 -0.024 -0.0583766 -0.03125 -0.024 -0.0578072 -0.029125 -0.024 -0.0562516 -0.0275694 -0.024 -0.0541266 -0.027 -0.024 -0.0520016 -0.0275694 -0.024 -0.050446 -0.029125 -0.024 -0.0498766 -0.03125 -0.024 -0.050446 -0.033375 -0.024 -0.0520016 -0.0349306 -0.024 -0.0541266 0.03125 -0.0214463 -0.0541266 0.027 -0.024 -0.0562516 0.0275694 -0.024 -0.0578072 0.029125 -0.024 -0.0583766 0.03125 -0.024 -0.0578072 0.033375 -0.024 -0.0562516 0.0349306 -0.024 -0.0541266 0.0355 -0.024 -0.0520016 0.0349306 -0.024 -0.050446 0.033375 -0.024 -0.0498766 0.03125 -0.024 -0.050446 0.029125 -0.024 -0.0520016 0.0275694 -0.024 0 0.0625 -0.0214463 0 0.05825 -0.024 -0.002125 0.0588194 -0.024 -0.00368061 0.060375 -0.024 -0.00425 0.0625 -0.024 -0.00368061 0.064625 -0.024 -0.002125 0.0661806 -0.024 0 0.06675 -0.024 0.002125 0.0661806 -0.024 0.00368061 0.064625 -0.024 0.00425 0.0625 -0.024 0.00368061 0.060375 -0.024 0.002125 0.0588194 -0.024 0.0541266 0.03125 -0.0214463 0.0541266 0.027 -0.024 0.0520016 0.0275694 -0.024 0.050446 0.029125 -0.024 0.0498766 0.03125 -0.024 0.050446 0.033375 -0.024 0.0520016 0.0349306 -0.024 0.0541266 0.0355 -0.024 0.0562516 0.0349306 -0.024 0.0578072 0.033375 -0.024 0.0583766 0.03125 -0.024 0.0578072 0.029125 -0.024 0.0562516 0.0275694 -0.024 0.0541266 -0.03125 -0.0214463 0.0541266 -0.0355 -0.024 0.0520016 -0.0349306 -0.024 0.050446 -0.033375 -0.024 0.0498766 -0.03125 -0.024 0.050446 -0.029125 -0.024 0.0520016 -0.0275694 -0.024 0.0541266 -0.027 -0.024 0.0562516 -0.0275694 -0.024 0.0578072 -0.029125 -0.024 0.0583766 -0.03125 -0.024 0.0578072 -0.033375 -0.024 0.0562516 -0.0349306 -0.024 0.0555666 -0.0518493 0 0.0675 0.0168744 0 0.0675 0.0349249 0 0.072335 0 0 0.0745 0.00375 0 0.0745 0.00475 0 0.0675 -0.0168744 0 0.0675 -0.0349249 0 0.0621125 -0.0437955 0 -0.0729041 -0.0214706 0 -0.0691094 -0.0316212 0 -0.0752167 -0.0108834 0 -0.076 -7.5e-05 0 -0.075238 0.0107349 0 -0.0691716 0.0314847 0 -0.0729464 0.0213266 0 0.0621233 0.0437802 0 0.0555922 0.0518219 0 0.0480281 0.0589008 0 0.0395717 0.0648851 0 0.0303799 0.0696639 0 0.0206237 0.0731482 0 0.0104843 0.0752734 0 -0.0109576 0.0752059 0 -0.0215425 0.0728829 0 -0.0316893 0.0690781 0 -0.0411919 0.0638688 0 -0.049857 0.057361 0 -0.0575083 0.0496869 0 -0.0639905 0.0410026 0 0.0745 -0.00375 0 0.0745 -0.00475 0 0.0479845 -0.0589363 0 0.0395076 -0.0649242 0 0.030294 -0.0697013 0 0.0205154 -0.0731787 0 0.0103542 -0.0752914 0 0 -0.076 0 -0.0108092 -0.0752274 0 -0.0213986 -0.0729253 0 -0.0315529 -0.0691405 0 -0.0410658 -0.06395 0 -0.0497436 -0.0574593 0 -0.0574102 -0.0498003 0 -0.0639095 -0.0411289 0 0 0.076 -0.026 0.0103542 0.0752914 -0.026 0.0205154 0.0731787 -0.026 0.030294 0.0697013 -0.026 0.0395076 0.0649242 -0.026 0.0479845 0.0589363 -0.026 0.0555666 0.0518493 -0.026 0.0621125 0.0437955 -0.026 0.0675 0.0349249 -0.026 0 -0.076 -0.026 -0.0108159 -0.0752264 -0.026 -0.0214117 -0.0729215 -0.026 -0.0315715 -0.069132 -0.026 -0.0410887 -0.0639353 -0.026 -0.0497694 -0.057437 -0.026 -0.057437 -0.0497694 -0.026 -0.0639353 -0.0410887 -0.026 -0.069132 -0.0315715 -0.026 -0.0729215 -0.0214117 -0.026 -0.0752264 -0.0108159 -0.026 -0.076 0 -0.026 -0.0752264 0.0108159 -0.026 -0.0729215 0.0214117 -0.026 -0.069132 0.0315715 -0.026 -0.0639353 0.0410887 -0.026 -0.057437 0.0497694 -0.026 -0.0497694 0.057437 -0.026 -0.0410887 0.0639353 -0.026 -0.0315715 0.069132 -0.026 -0.0214117 0.0729215 -0.026 -0.0108159 0.0752264 -0.026 0.0675 -0.0349249 -0.026 0.0621125 -0.0437955 -0.026 0.0555666 -0.0518493 -0.026 0.0479845 -0.0589363 -0.026 0.0395076 -0.0649242 -0.026 0.030294 -0.0697013 -0.026 0.0205154 -0.0731787 -0.026 0.0103542 -0.0752914 -0.026 -0.04 0 -0.045 -0.0392314 -0.00780361 -0.045 -0.0369552 -0.0153073 -0.045 -0.0332588 -0.0222228 -0.045 -0.0282843 -0.0282843 -0.045 -0.0222228 -0.0332588 -0.045 -0.0153073 -0.0369552 -0.045 -0.00780361 -0.0392314 -0.045 0 -0.04 -0.045 -0.0392314 0.00780361 -0.045 -0.0369552 0.0153073 -0.045 -0.0332588 0.0222228 -0.045 -0.0282843 0.0282843 -0.045 -0.0222228 0.0332588 -0.045 -0.0153073 0.0369552 -0.045 -0.00780361 0.0392314 -0.045 0 0.04 -0.045 0.04 0 -0.045 0.0392314 0.00780361 -0.045 0.0369552 0.0153073 -0.045 0.0332588 0.0222228 -0.045 0.0282843 0.0282843 -0.045 0.0222228 0.0332588 -0.045 0.0153073 0.0369552 -0.045 0.00780361 0.0392314 -0.045 0.0392314 -0.00780361 -0.045 0.0369552 -0.0153073 -0.045 0.0332588 -0.0222228 -0.045 0.0282843 -0.0282843 -0.045 0.0222228 -0.0332588 -0.045 0.0153073 -0.0369552 -0.045 0.00780361 -0.0392314 -0.045 0.0581699 0.0025 -0.045 0.06 0.00433013 -0.045 0.0625 0.005 -0.045 0.0575 0 -0.045 0.0581699 -0.0025 -0.045 0.06 -0.00433013 -0.045 0.0625 -0.005 -0.045 0.0668301 -0.0025 -0.045 0.065 -0.00433013 -0.045 0.0675 0 -0.045 0.0668301 0.0025 -0.045 0.065 0.00433013 -0.045 -0.00368061 -0.060375 -0.045 -0.002125 -0.0588194 -0.045 0 -0.05825 -0.045 -0.00425 -0.0625 -0.045 -0.00368061 -0.064625 -0.045 -0.002125 -0.0661806 -0.045 0 -0.06675 -0.045 0.00368061 -0.064625 -0.045 0.002125 -0.0661806 -0.045 0.00425 -0.0625 -0.045 0.00368061 -0.060375 -0.045 0.002125 -0.0588194 -0.045 -0.0578072 -0.029125 -0.045 -0.0562516 -0.0275694 -0.045 -0.0541266 -0.027 -0.045 -0.0583766 -0.03125 -0.045 -0.0578072 -0.033375 -0.045 -0.0562516 -0.0349306 -0.045 -0.0541266 -0.0355 -0.045 -0.050446 -0.033375 -0.045 -0.0520016 -0.0349306 -0.045 -0.0498766 -0.03125 -0.045 -0.050446 -0.029125 -0.045 -0.0520016 -0.0275694 -0.045 -0.0578072 0.033375 -0.045 -0.0562516 0.0349306 -0.045 -0.0541266 0.0355 -0.045 -0.0583766 0.03125 -0.045 -0.0578072 0.029125 -0.045 -0.0562516 0.0275694 -0.045 -0.0541266 0.027 -0.045 -0.050446 0.029125 -0.045 -0.0520016 0.0275694 -0.045 -0.0498766 0.03125 -0.045 -0.050446 0.033375 -0.045 -0.0520016 0.0349306 -0.045 -0.00368061 0.064625 -0.045 -0.002125 0.0661806 -0.045 0 0.06675 -0.045 -0.00425 0.0625 -0.045 -0.00368061 0.060375 -0.045 -0.002125 0.0588194 -0.045 0 0.05825 -0.045 0.00368061 0.060375 -0.045 0.002125 0.0588194 -0.045 0.00425 0.0625 -0.045 0.00368061 0.064625 -0.045 0.002125 0.0661806 -0.045 0.050446 0.033375 -0.045 0.0520016 0.0349306 -0.045 0.0541266 0.0355 -0.045 0.0498766 0.03125 -0.045 0.050446 0.029125 -0.045 0.0520016 0.0275694 -0.045 0.0541266 0.027 -0.045 0.0578072 0.029125 -0.045 0.0562516 0.0275694 -0.045 0.0583766 0.03125 -0.045 0.0578072 0.033375 -0.045 0.0562516 0.0349306 -0.045 0.050446 -0.029125 -0.045 0.0520016 -0.0275694 -0.045 0.0541266 -0.027 -0.045 0.0498766 -0.03125 -0.045 0.050446 -0.033375 -0.045 0.0520016 -0.0349306 -0.045 0.0541266 -0.0355 -0.045 0.0578072 -0.033375 -0.045 0.0562516 -0.0349306 -0.045 0.0583766 -0.03125 -0.045 0.0578072 -0.029125 -0.045 0.0562516 -0.0275694 -0.045 0.0745 -0.00375 -0.045 0.0745 -0.00475 -0.045 0.072335 0 -0.045 0.0745 0.00375 -0.045 0.0745 0.00475 -0.045 0.0675 0.0168744 -0.045 0.0675 -0.0168744 -0.045 0.0675 -0.0326917 -0.045 0.0675 -0.0326917 -0.026 0.0675 0.0326917 -0.026 0.0675 0.0326917 -0.045 -0.075 0 -0.026 0.0622789 0.0417893 -0.026 0.0558396 0.0500694 -0.026 0.0483081 0.0573701 -0.026 0.0398316 0.0635487 -0.026 0.0305761 0.0684843 -0.026 0.0207225 0.0720804 -0.026 0.0104636 0.0742665 -0.026 0 0.075 -0.026 -0.0106736 0.0742366 -0.026 -0.0211299 0.071962 -0.026 -0.0311561 0.0682224 -0.026 -0.0405481 0.063094 -0.026 -0.0491146 0.0566812 -0.026 -0.0566812 0.0491146 -0.026 -0.063094 0.0405481 -0.026 -0.0682224 0.0311561 -0.026 -0.071962 0.0211299 -0.026 -0.0742366 0.0106736 -0.026 0.0622789 -0.0417893 -0.026 0.0558396 -0.0500694 -0.026 0.0483081 -0.0573701 -0.026 0.0398316 -0.0635487 -0.026 0.0305761 -0.0684843 -0.026 0.0207225 -0.0720804 -0.026 0.0104636 -0.0742665 -0.026 0 -0.075 -0.026 -0.0106736 -0.0742366 -0.026 -0.0211299 -0.071962 -0.026 -0.0311561 -0.0682224 -0.026 -0.0405481 -0.063094 -0.026 -0.0491146 -0.0566812 -0.026 -0.0566812 -0.0491146 -0.026 -0.063094 -0.0405481 -0.026 -0.0682224 -0.0311561 -0.026 -0.071962 -0.0211299 -0.026 -0.0742366 -0.0106736 -0.026 0.0622789 -0.0417893 -0.045 0.0558396 -0.0500694 -0.045 0.0483081 -0.0573701 -0.045 0.0398316 -0.0635487 -0.045 0.0305761 -0.0684843 -0.045 0.0207225 -0.0720804 -0.045 0.0104636 -0.0742665 -0.045 0 -0.075 -0.045 -0.0491146 -0.0566812 -0.045 -0.0405481 -0.063094 -0.045 0.0622789 0.0417893 -0.045 -0.0491146 0.0566812 -0.045 -0.075 0 -0.045 -0.0742366 0.0106736 -0.045 -0.071962 0.0211299 -0.045 -0.0682224 0.0311561 -0.045 -0.063094 0.0405481 -0.045 -0.063094 -0.0405481 -0.045 -0.0682224 -0.0311561 -0.045 -0.071962 -0.0211299 -0.045 -0.0742366 -0.0106736 -0.045 -0.0405481 0.063094 -0.045 -0.0311561 0.0682224 -0.045 -0.0211299 0.071962 -0.045 -0.0106736 0.0742366 -0.045 -0.0106736 -0.0742366 -0.045 -0.0211299 -0.071962 -0.045 -0.0311561 -0.0682224 -0.045 -0.0566812 -0.0491146 -0.045 0.0483081 0.0573701 -0.045 0.0558396 0.0500694 -0.045 -0.0566812 0.0491146 -0.045 0.0104636 0.0742665 -0.045 0.0207225 0.0720804 -0.045 0.0305761 0.0684843 -0.045 0.0398316 0.0635487 -0.045 0 0.075 -0.045 -0.0748959 -0.00394978 -0.0415165 -0.0749866 -0.00141626 -0.0428305 -0.0749887 0.00130471 -0.0428564 -0.0742366 -0.0106736 -0.0369274 -0.0748539 -0.00467988 -0.0332448 -0.074789 -0.00562147 -0.0349027 -0.075 4.78e-06 -0.031 -0.0749642 -0.0023173 -0.0314657 -0.0747596 -0.006 -0.037 -0.0747942 -0.00555046 -0.0392787 -0.0748919 0.00402544 -0.0414492 -0.07488 0.00424184 -0.0412434 -0.074794 0.0055543 -0.0392693 -0.0747596 0.006 -0.037 -0.0742366 0.0106736 -0.0369274 -0.0747958 0.00553092 -0.0346744 -0.0748339 0.00498925 -0.0336674 -0.0749481 0.0027892 -0.0316875 -0.0106736 -0.0742366 -0.0369274 -0.0211299 -0.071962 -0.0369274 -0.0311561 -0.0682224 -0.0369274 -0.0405481 -0.063094 -0.0369274 -0.0491146 -0.0566812 -0.0369274 -0.0566812 -0.0491146 -0.0369274 -0.063094 -0.0405481 -0.0369274 -0.0682224 -0.0311561 -0.0369274 -0.071962 -0.0211299 -0.0369274 -0.0106736 0.0742366 -0.0369274 -0.0211299 0.071962 -0.0369274 -0.0311561 0.0682224 -0.0369274 -0.0405481 0.063094 -0.0369274 -0.0491146 0.0566812 -0.0369274 -0.0566812 0.0491146 -0.0369274 -0.063094 0.0405481 -0.0369274 -0.0682224 0.0311561 -0.0369274 -0.071962 0.0211299 -0.0369274 -0.073 0.00540581 -0.0396033 -0.073 0.00374094 -0.041691 -0.073 0.00133513 -0.0428496 -0.073 -0.00133513 -0.0428496 -0.073 -0.00374094 -0.041691 -0.073 -0.00540581 -0.0396033 -0.073 -0.006 -0.037 -0.073 0.006 -0.037 -0.073 0.00374094 -0.032309 -0.073 0.00133513 -0.0311504 -0.073 -0.00133513 -0.0311504 -0.073 -0.00374094 -0.032309 -0.073 -0.00540581 -0.0343967 -0.073 0.00540581 -0.0343967 -0.0545566 0 -0.037 -0.056 -0.0025 -0.037 -0.056 -0.00176777 -0.0352322 -0.056 0 -0.0345 -0.056 0.00176777 -0.0352322 -0.056 0.0025 -0.037 -0.073 0 -0.0345 -0.073 0 -0.0395 -0.073 0.00176777 -0.0387678 -0.073 -0.00176777 -0.0352322 -0.073 0.0025 -0.037 -0.073 0.00176777 -0.0352322 -0.073 -0.0025 -0.037 -0.073 -0.00176777 -0.0387678 -0.056 0.00176777 -0.0387678 -0.056 0 -0.0395 -0.056 -0.00176777 -0.0387678</float_array>
                    <technique_common>
                        <accessor count="566" source="#shape0-lib-positions-array" stride="3">
                            <param name="X" type="float"/>
                            <param name="Y" type="float"/>
                            <param name="Z" type="float"/>
                        </accessor>
                    </technique_common>
                </source>
                <source id="shape0-lib-normals" name="normal">
                    <float_array id="shape0-lib-normals-array" count="3384">0 0 1 0 0 1 0 0 1 0 0 1 0 0 1 0 0 1 0 0 1 0 0 1 0 0 1 0 0 1 0 0 1 0 0 1 0 0 1 0 0 1 0 0 1 0 0 1 0 0 1 0 0 1 0 0 1 0 0 1 0 0 1 0 0 1 0 0 1 0 0 1 0 0 1 0 0 1 0 0 1 0 0 1 0 0 1 0 0 1 0 0 1 0 0 1 0 0 1 0 0 1 0 0 1 0 0 1 0 0 1 0 0 1 0 0 1 0 0 1 0.988831 0.149042 0 0.955573 0.294755 0 0.955573 0.294755 0 0.900969 0.433884 0 0.900969 0.433884 0 0.826239 0.56332 0 0.826239 0.56332 0 0.733052 0.680173 0 0.733052 0.680173 0 0.62349 0.781832 0 0.62349 0.781832 0 0.5 0.866025 0 0.5 0.866025 0 0.365341 0.930874 0 0.365341 0.930874 0 0.222522 0.974928 0 0.222522 0.974928 0 0.0747304 0.997204 0 0.0747304 0.997204 0 0.988831 0.149042 0 1 0 0 1 0 0 0.988831 -0.149042 0 0.988831 -0.149042 0 0.955573 -0.294755 0 0.955573 -0.294755 0 0.900969 -0.433884 0 0.900969 -0.433884 0 0.826239 -0.56332 0 0.826239 -0.56332 0 0.733052 -0.680173 0 0.733052 -0.680173 0 0.62349 -0.781832 0 0.62349 -0.781832 0 0.5 -0.866025 0 0.5 -0.866025 0 0.365341 -0.930874 0 0.365341 -0.930874 0 0.222522 -0.974928 0 0.222522 -0.974928 0 0.0747304 -0.997204 0 0.0747304 -0.997204 0 -0.988831 -0.149042 0 -0.955573 -0.294755 0 -0.955573 -0.294755 0 -0.900969 -0.433884 0 -0.900969 -0.433884 0 -0.826239 -0.56332 0 -0.826239 -0.56332 0 -0.733052 -0.680173 0 -0.733052 -0.680173 0 -0.62349 -0.781832 0 -0.62349 -0.781832 0 -0.5 -0.866025 0 -0.5 -0.866025 0 -0.365341 -0.930874 0 -0.365341 -0.930874 0 -0.222522 -0.974928 0 -0.222522 -0.974928 0 -0.0747304 -0.997204 0 -0.0747304 -0.997204 0 -0.988831 -0.149042 0 -1 0 0 -1 0 0 -0.988831 0.149042 0 -0.988831 0.149042 0 -0.955573 0.294755 0 -0.955573 0.294755 0 -0.900969 0.433884 0 -0.900969 0.433884 0 -0.826239 0.56332 0 -0.826239 0.56332 0 -0.733052 0.680173 0 -0.733052 0.680173 0 -0.62349 0.781832 0 -0.62349 0.781832 0 -0.5 0.866025 0 -0.5 0.866025 0 -0.365341 0.930874 0 -0.365341 0.930874 0 -0.222522 0.974928 0 -0.222522 0.974928 0 -0.0747304 0.997204 0 -0.0747304 0.997204 0 -0.866033 0.499987 0 -0.866033 0.499987 0 0 0 1 0 0 1 0.866033 0.499987 0 0.866033 0.499987 0 0 0 -1 0 0 -1 0 0 -1 0 0 -1 0 0 -1 0 0 -1 0 0 -1 0 0 -1 0 0 -1 0 0 -1 0 0 -1 0 0 -1 0 0 -1 0 0 -1 0 0 -1 0 0 -1 0 0 -1 0 0 -1 0 0 -1 0 0 -1 0 0 -1 0 0 -1 0 0 -1 0 0 -1 0 0 -1 0 0 -1 0 0 -1 0 0 -1 0 0 -1 0 0 -1 0.136708 0.510202 -0.84912 0.373495 0.373493 -0.84912 0.510202 0.136709 -0.84912 0.510202 -0.136709 -0.84912 0.373495 -0.373493 -0.84912 0.136708 -0.510202 -0.84912 -0.136707 -0.510202 -0.84912 -0.373495 -0.373492 -0.84912 -0.510202 -0.136708 -0.84912 -0.510202 0.136708 -0.84912 -0.373495 0.373492 -0.84912 -0.136707 0.510202 -0.84912 0.136706 0.510203 -0.84912 0.373495 0.373494 -0.84912 0.510203 0.136708 -0.849119 0.510203 -0.136708 -0.849119 0.373495 -0.373494 -0.849119 0.136708 -0.510203 -0.849119 -0.136708 -0.510203 -0.849119 -0.373495 -0.373494 -0.849119 -0.510203 -0.136708 -0.849119 -0.510203 0.136708 -0.849119 -0.373495 0.373494 -0.84912 -0.136706 0.510203 -0.84912 0.136709 0.510203 -0.849119 0.373494 0.373494 -0.849119 0.510203 0.136709 -0.849119 0.510203 -0.136708 -0.849119 0.373494 -0.373495 -0.849119 0.136708 -0.510203 -0.849119 -0.136708 -0.510203 -0.849119 -0.373494 -0.373495 -0.849119 -0.510203 -0.136708 -0.849119 -0.510203 0.136709 -0.849119 -0.373494 0.373494 -0.849119 -0.136709 0.510203 -0.849119 0.136708 0.510203 -0.849119 0.373494 0.373495 -0.849119 0.510203 0.136708 -0.849119 0.510203 -0.136709 -0.849119 0.373494 -0.373494 -0.849119 0.136709 -0.510203 -0.849119 -0.136709 -0.510203 -0.849119 -0.373494 -0.373494 -0.849119 -0.510203 -0.136709 -0.849119 -0.510203 0.136708 -0.849119 -0.373494 0.373495 -0.849119 -0.136708 0.510203 -0.849119 0.136708 0.510203 -0.849119 0.373495 0.373494 -0.849119 0.510203 0.136708 -0.849119 0.510203 -0.136708 -0.849119 0.373495 -0.373494 -0.84912 0.136706 -0.510203 -0.84912 -0.136706 -0.510203 -0.84912 -0.373495 -0.373494 -0.84912 -0.510203 -0.136708 -0.849119 -0.510203 0.136708 -0.849119 -0.373495 0.373494 -0.849119 -0.136708 0.510203 -0.849119 0.136708 0.510203 -0.849119 0.373494 0.373495 -0.849119 0.510203 0.136708 -0.849119 0.510203 -0.136709 -0.849119 0.373494 -0.373494 -0.849119 0.136709 -0.510203 -0.849119 -0.136709 -0.510203 -0.849119 -0.373494 -0.373494 -0.849119 -0.510203 -0.136709 -0.849119 -0.510203 0.136708 -0.849119 -0.373494 0.373495 -0.849119 -0.136708 0.510203 -0.849119 0.136709 0.510203 -0.849119 0.373494 0.373494 -0.849119 0.510203 0.136709 -0.849119 0.510203 -0.136708 -0.849119 0.373494 -0.373495 -0.849119 0.136708 -0.510203 -0.849119 -0.136708 -0.510203 -0.849119 -0.373494 -0.373495 -0.849119 -0.510203 -0.136708 -0.849119 -0.510203 0.136709 -0.849119 -0.373494 0.373494 -0.849119 -0.136709 0.510203 -0.849119 0 0 1 0 0 1 0 0 1 0 0 1 0 0 1 0 0 1 0 0 1 0 0 1 0 0 1 0 0 1 0 0 1 0 0 1 0 0 1 0 0 1 0 0 1 0 0 1 0 0 1 0 0 1 0 0 1 0 0 1 0 0 1 0 0 1 0 0 1 0 0 1 0 0 1 0 0 1 0 0 1 0 0 1 0 0 1 0 0 1 0 0 1 0 0 1 0 0 1 0 0 1 0 0 1 0 0 1 0 0 1 0 0 1 0 0 1 0 0 1 0 0 1 0 0 1 0 0 1 0 0 1 0 0 1 0 0 1 0 0 1 0 0 1 0 0 1 0 0 1 0 0 1 0 0 1 0 0 1 0 0 1 0 0 1 0 0 1 0 0 1 0 0 1 0 0 1 0 0 1 0 0 1 0 0 1 0 0 1 0 0 1 0 0 1 0 0 1 0 0 1 0 0 1 0 0 1 0 0 1 0 0 1 0 0 1 0 0 1 0 0 1 0 0 1 0 0 1 0 0 1 0 0 1 0 0 1 0 0 1 0 0 1 0 0 1 0 0 1 0 0 1 0 0 1 0 0 1 0 0 1 0 0 1 0 0 1 0 0 1 0.0682798 0.997666 0 0.000992621 0.999248 -0.0387681 0.0698633 0.997557 0.000341296 0.0701262 0.997538 0 0.203565 0.979061 -0.000340069 0.205134 0.978734 0.000291732 0.335054 0.942199 -0.000292268 0.336333 0.941743 0.000243851 0.460295 0.887766 -0.000243692 0.46128 0.887255 0.000195447 0.576953 0.816777 -0.000195291 0.577657 0.816279 0.000146464 0.682851 0.730558 -0.00014712 0.683302 0.730136 9.80541e-05 0.776016 0.630714 -9.79875e-05 0.776249 0.630427 4.90879e-05 0.854708 0.519109 -4.91029e-05 0.854772 0.519003 0 -0.0713399 -0.997452 0 -0.0712953 -0.997455 -1.86507e-05 -0.212565 -0.977147 1.87779e-05 -0.212434 -0.977175 -3.72678e-05 -0.349464 -0.93695 3.76518e-05 -0.349254 -0.937028 -5.62522e-05 -0.479249 -0.877679 5.61349e-05 -0.478974 -0.877829 -7.49602e-05 -0.599278 -0.800541 7.49943e-05 -0.598954 -0.800783 -9.38096e-05 -0.707107 -0.707107 9.38173e-05 -0.706758 -0.707455 -0.000112524 -0.800541 -0.599278 0.000112746 -0.800191 -0.599745 -0.000131865 -0.877679 -0.479249 0.000131132 -0.877357 -0.479839 -0.000150253 -0.93695 -0.349464 0.000150493 -0.936683 -0.350178 -0.000168825 -0.977147 -0.212565 0.000169725 -0.976965 -0.213399 -0.000188232 -0.997452 -0.0713399 0.000188138 -0.997384 -0.0722785 -0.000206781 -0.997452 0.0713399 0.000207503 -0.997525 0.0703108 -0.000225768 -0.977147 0.212565 0.000226439 -0.977385 0.211469 -0.000244967 -0.93695 0.349464 0.000245295 -0.937372 0.348329 -0.000264113 -0.877679 0.479249 0.000264136 -0.878302 0.478107 -0.000283305 -0.800541 0.599278 0.000283019 -0.801373 0.598164 -0.000302059 -0.707107 0.707107 0.000302424 -0.708153 0.706059 -0.000321267 -0.599277 0.800541 0.00032138 -0.600534 0.799599 -0.000340656 -0.479249 0.877679 0.000340235 -0.480704 0.876883 -0.000359259 -0.349464 0.93695 0.000359878 -0.351103 0.936337 -0.000378317 -0.212565 0.977147 0.000379131 -0.214362 0.976754 -0.000397718 -0.0729773 0.997334 0.00038907 -0.0732638 0.997313 0 -0.000992519 0.999103 -0.0423417 -0.0713399 0.997452 0 0.854708 -0.519109 0 0.854708 -0.519109 0 0.776016 -0.630714 0 0.776016 -0.630714 0 0.682851 -0.730558 0 0.682851 -0.730558 0 0.576953 -0.816777 0 0.576953 -0.816777 0 0.460295 -0.887766 0 0.460295 -0.887766 0 0.335054 -0.942199 0 0.335054 -0.942199 0 0.203565 -0.979061 0 0.203565 -0.979061 0 0.0682798 -0.997666 0 0.0682798 -0.997666 0 0.995185 0.0980174 0 0.956941 0.290284 0 0.956941 0.290284 0 0.881921 0.471397 0 0.881921 0.471397 0 0.77301 0.634394 0 0.77301 0.634394 0 0.634394 0.77301 0 0.634394 0.77301 0 0.471397 0.881921 0 0.471397 0.881921 0 0.290284 0.956941 0 0.290284 0.956941 0 0.0980174 0.995185 0 0.0980174 0.995185 0 0.995185 0.0980174 0 0.995185 -0.0980174 0 0.995185 -0.0980174 0 0.956941 -0.290284 0 0.956941 -0.290284 0 0.881921 -0.471397 0 0.881921 -0.471397 0 0.77301 -0.634394 0 0.77301 -0.634394 0 0.634394 -0.77301 0 0.634394 -0.77301 0 0.471397 -0.881921 0 0.471397 -0.881921 0 0.290284 -0.956941 0 0.290284 -0.956941 0 0.0980174 -0.995185 0 0.0980174 -0.995185 0 -0.995185 -0.0980174 0 -0.956941 -0.290284 0 -0.956941 -0.290284 0 -0.881921 -0.471397 0 -0.881921 -0.471397 0 -0.77301 -0.634394 0 -0.77301 -0.634394 0 -0.634394 -0.77301 0 -0.634394 -0.77301 0 -0.471397 -0.881921 0 -0.471397 -0.881921 0 -0.290284 -0.956941 0 -0.290284 -0.956941 0 -0.0980174 -0.995185 0 -0.0980174 -0.995185 0 -0.995185 -0.0980174 0 -0.995185 0.0980174 0 -0.995185 0.0980174 0 -0.956941 0.290284 0 -0.956941 0.290284 0 -0.881921 0.471397 0 -0.881921 0.471397 0 -0.77301 0.634394 0 -0.77301 0.634394 0 -0.634394 0.77301 0 -0.634394 0.77301 0 -0.471397 0.881921 0 -0.471397 0.881921 0 -0.290284 0.956941 0 -0.290284 0.956941 0 -0.0980174 0.995185 0 -0.0980174 0.995185 0 0.965925 -0.258821 0 0.707109 -0.707105 0 0.707109 -0.707105 0 0.258818 -0.965926 0 0.258818 -0.965926 0 0.965925 -0.258821 0 0.965925 0.258821 0 0.965925 0.258821 0 0.707109 0.707105 0 0.707109 0.707105 0 0.258818 0.965926 0 0.258818 0.965926 0 -0.965926 0.25882 0 -0.70711 0.707104 0 -0.70711 0.707104 0 -0.258817 0.965926 0 -0.258817 0.965926 0 -0.965926 0.25882 0 -0.965926 -0.25882 0 -0.965926 -0.25882 0 -0.70711 -0.707104 0 -0.70711 -0.707104 0 -0.258817 -0.965926 0 -0.258817 -0.965926 0 0.965926 -0.258818 0 0.707107 -0.707107 0 0.707107 -0.707107 0 0.258819 -0.965926 0 0.258819 -0.965926 0 0.965926 -0.258818 0 0.965926 0.258818 0 0.965926 0.258818 0 0.707108 0.707106 0 0.707108 0.707106 0 0.258814 0.965927 0 0.258814 0.965927 0 -0.965926 0.258818 0 -0.707108 0.707106 0 -0.707108 0.707106 0 -0.258814 0.965927 0 -0.258814 0.965927 0 -0.965926 0.258818 0 -0.965926 -0.258818 0 -0.965926 -0.258818 0 -0.707107 -0.707107 0 -0.707107 -0.707107 0 -0.258819 -0.965926 0 -0.258819 -0.965926 0 0.965926 -0.258819 0 0.707106 -0.707107 0 0.707106 -0.707107 0 0.258818 -0.965926 0 0.258818 -0.965926 0 0.965926 -0.258819 0 0.965926 0.258819 0 0.965926 0.258819 0 0.707107 0.707107 0 0.707107 0.707107 0 0.258819 0.965926 0 0.258819 0.965926 0 -0.965926 0.258819 0 -0.707107 0.707107 0 -0.707107 0.707107 0 -0.258819 0.965926 0 -0.258819 0.965926 0 -0.965926 0.258819 0 -0.965926 -0.258819 0 -0.965926 -0.258819 0 -0.707106 -0.707107 0 -0.707106 -0.707107 0 -0.258818 -0.965926 0 -0.258818 -0.965926 0 0.965926 -0.258819 0 0.707107 -0.707107 0 0.707107 -0.707107 0 0.258819 -0.965926 0 0.258819 -0.965926 0 0.965926 -0.258819 0 0.965926 0.258819 0 0.965926 0.258819 0 0.707106 0.707107 0 0.707106 0.707107 0 0.258818 0.965926 0 0.258818 0.965926 0 -0.965926 0.258819 0 -0.707106 0.707107 0 -0.707106 0.707107 0 -0.258818 0.965926 0 -0.258818 0.965926 0 -0.965926 0.258819 0 -0.965926 -0.258819 0 -0.965926 -0.258819 0 -0.707107 -0.707107 0 -0.707107 -0.707107 0 -0.258819 -0.965926 0 -0.258819 -0.965926 0 0.965926 -0.258818 0 0.707108 -0.707106 0 0.707108 -0.707106 0 0.258814 -0.965927 0 0.258814 -0.965927 0 0.965926 -0.258818 0 0.965926 0.258818 0 0.965926 0.258818 0 0.707107 0.707107 0 0.707107 0.707107 0 0.258819 0.965926 0 0.258819 0.965926 0 -0.965926 0.258818 0 -0.707107 0.707107 0 -0.707107 0.707107 0 -0.258819 0.965926 0 -0.258819 0.965926 0 -0.965926 0.258818 0 -0.965926 -0.258818 0 -0.965926 -0.258818 0 -0.707108 -0.707106 0 -0.707108 -0.707106 0 -0.258814 -0.965927 0 -0.258814 -0.965927 0 0.965926 -0.258819 0 0.707107 -0.707107 0 0.707107 -0.707107 0 0.258819 -0.965926 0 0.258819 -0.965926 0 0.965926 -0.258819 0 0.965926 0.258819 0 0.965926 0.258819 0 0.707106 0.707107 0 0.707106 0.707107 0 0.258818 0.965926 0 0.258818 0.965926 0 -0.965926 0.258819 0 -0.707106 0.707107 0 -0.707106 0.707107 0 -0.258818 0.965926 0 -0.258818 0.965926 0 -0.965926 0.258819 0 -0.965926 -0.258819 0 -0.965926 -0.258819 0 -0.707107 -0.707107 0 -0.707107 -0.707107 0 -0.258819 -0.965926 0 -0.258819 -0.965926 0 0.965926 -0.258819 0 0.707106 -0.707107 0 0.707106 -0.707107 0 0.258818 -0.965926 0 0.258818 -0.965926 0 0.965926 -0.258819 0 0.965926 0.258819 0 0.965926 0.258819 0 0.707107 0.707107 0 0.707107 0.707107 0 0.258819 0.965926 0 0.258819 0.965926 0 -0.965926 0.258819 0 -0.707107 0.707107 0 -0.707107 0.707107 0 -0.258819 0.965926 0 -0.258819 0.965926 0 -0.965926 0.258819 0 -0.965926 -0.258819 0 -0.965926 -0.258819 0 -0.707106 -0.707107 0 -0.707106 -0.707107 0 -0.258818 -0.965926 0 -0.258818 -0.965926 0 1 0 0 1 0 0 0.866027 0.499998 0 0.866027 0.499998 0 0.866027 -0.499998 0 0.866027 -0.499998 0 1 0 0 1 0 0 0.866026 0.5 0 0.866026 0.5 0 1 0 0 1 0 0 1 0 0 1 0 0 0.866026 -0.5 0 0.866026 -0.5 0 1 0 0 1 0 0 1 0 0 1 0 0 0 0 -1 0 0 -1 0 0 -1 0 0 -1 0 0 -1 0 0 -1 0 0 -1 0 0 -1 0 0 -1 0 0 -1 0 0 -1 0 0 -1 0 0 -1 0 0 -1 0 0 -1 0 0 -1 0 0 -1 0 0 -1 0 0 -1 0 0 -1 0 0 -1 0 0 -1 0 0 -1 0 0 -1 0 0 -1 0 0 -1 0 0 -1 0 0 -1 0 0 -1 0 0 -1 0 0 -1 0 0 -1 0 0 -1 0 0 -1 0 0 -1 0 0 -1 0 0 -1 0 0 -1 0 0 -1 0 0 -1 0 0 -1 0 0 -1 0 0 -1 0 0 -1 0 0 -1 0 0 -1 0 0 -1 0 0 -1 0 0 -1 0 0 -1 0 0 -1 0 0 -1 0 0 -1 0 0 -1 0 0 -1 0 0 -1 0 0 -1 0 0 -1 0 0 -1 0 0 -1 0 0 -1 0 0 -1 0 0 -1 0 0 -1 0 0 -1 0 0 -1 0 0 -1 0 0 -1 0 0 -1 0 0 -1 0 0 -1 0 0 -1 0 0 -1 0 0 -1 0 0 -1 0 0 -1 0.867316 -0.497758 0 0.867316 -0.497758 0 0.789388 -0.613894 0 0.789388 -0.613894 0 0.696022 -0.71802 0 0.696022 -0.71802 0 0.58904 -0.808104 0 0.58904 -0.808104 0 0.470536 -0.882381 0 0.470536 -0.882381 0 0.342831 -0.939397 0 0.342831 -0.939397 0 0.208418 -0.97804 0 0.208418 -0.97804 0 0.0699281 -0.997552 0 0.0699281 -0.997552 0 0 0 -1 0 0 -1 0 0 -1 0 0 -1 0 0 -1 0 0 -1 0 0 -1 0 0 -1 0 0 -1 0 0 -1 0 0 -1 0 0 -1 0 0 -1 0 0 -1 0 0 -1 0 0 -1 0 0 -1 0 0 -1 0 0 -1 0 0 -1 0 0 -1 0 0 -1 0 0 -1 0 0 -1 0 0 -1 0 0 -1 0 0 -1 0 0 -1 0 0 -1 0 0 -1 0 0 -1 0 0 -1 0 0 -1 0 0 -1 0 0 -1 0 0 -1 0 0 -1 0 0 -1 0 0 -1 0 0 -1 0 0 -1 0 0 -1 0 0 -1 0 0 -1 0 0 -1 0 0 -1 0 0 -1 0 0 -1 0 0 -1 0 0 -1 0 0 -1 0 0 -1 0 0 -1 0 0 -1 0 0 -1 0 0 -1 0 0 -1 0 0 -1 0 0 -1 0 0 -1 0 0 -1 0 0 -1 0 0 -1 0 0 -1 0 0 -1 0 0 -1 0 0 -1 0 0 -1 0 0 -1 0 0 -1 0 0 -1 0 0 -1 0 0 -1 0 0 -1 0 0 -1 0 0 -1 0 0 -1 0 0 -1 0 0 -1 0 0 -1 0 0 -1 0 0 -1 0 0 -1 0 0 -1 0 0 -1 0 0 -1 0 0 -1 0 0 -1 0 0 -1 0 0 -1 0 0 -1 0 0 -1 0 0 -1 0 0 -1 0 0 -1 0 0 -1 0 0 -1 0 0 -1 0 0 -1 0 0 -1 0 0 -1 0 0 -1 0 0 -1 0 0 -1 0 0 -1 0 0 -1 0 0 -1 0 0 -1 0 0 -1 0 0 -1 0 0 -1 0 0 -1 0 0 -1 0 0 -1 0 0 -1 0 0 -1 0 0 -1 0 0 -1 0 0 -1 0 0 -1 0 0 -1 0 0 -1 0 0 -1 0 0 -1 0 0 -1 0 0 -1 0 0 -1 0 0 -1 0 0 -1 0 0 -1 0 0 -1 0 0 -1 0 0 -1 0 0 -1 0 0 -1 0 0 -1 0 0 -1 0 0 -1 0 0 -1 0 0 -1 0 0 -1 0 0 -1 0 0 -1 0 0 -1 0 0 -1 0 0 -1 0 0 -1 0 0 -1 0 0 -1 0 0 -1 0 0 -1 0 0 -1 0 0 -1 0 0 -1 0 0 -1 0 0 -1 0 0 -1 0 0 -1 0 0 -1 0 0 -1 0 0 -1 0 0 -1 0 0 -1 0 0 -1 0 0 -1 0 0 -1 0 0 -1 0 0 -1 0 0 -1 0 0 -1 0 0 -1 0 0 -1 0 0 -1 0 0 -1 0 0 -1 0 0 -1 0.0699281 0.997552 0 0.0699281 0.997552 0 0.208418 0.97804 0 0.208418 0.97804 0 0.342831 0.939397 0 0.342831 0.939397 0 0.470536 0.882381 0 0.470536 0.882381 0 0.58904 0.808104 0 0.58904 0.808104 0 0.696022 0.71802 0 0.696022 0.71802 0 0.789388 0.613894 0 0.789388 0.613894 0 0.867316 0.497758 0 0.867316 0.497758 0 -0.998451 -0.0492041 -0.0259618 -0.999983 -0.000695727 0.00571351 -0.992292 -0.120343 0.0295512 -0.999881 -0.0154124 -1.47343e-05 -0.994075 -0.108695 0 -0.991969 -0.126171 0.0088594 -0.994714 -0.102557 -0.0051154 -0.995927 -0.0883593 -0.0179473 -0.996153 -0.0712458 -0.0510229 -0.996727 0.0712869 -0.0381167 -0.996013 0.0662939 -0.0596888 -0.996154 0.0826603 -0.0290716 -0.995807 0.0899765 -0.0164859 -0.994706 0.102639 -0.00506731 -0.993797 0.111211 0 -0.993797 0.111211 0 -0.994956 0.100198 0.00473446 -0.995877 0.090071 0.0107974 -0.997055 0.0729813 0.023559 -0.996602 0.0367684 0.0737036 -0.997452 0.0713387 6.81982e-05 -0.0713387 -0.997452 0 -0.0713387 -0.997452 0 -0.212566 -0.977147 0 -0.212566 -0.977147 0 -0.349464 -0.93695 0 -0.349464 -0.93695 0 -0.479249 -0.877679 0 -0.479249 -0.877679 0 -0.599278 -0.800541 0 -0.599278 -0.800541 0 -0.707107 -0.707107 0 -0.707107 -0.707107 0 -0.800541 -0.599278 0 -0.800541 -0.599278 0 -0.877679 -0.479249 0 -0.877679 -0.479249 0 -0.93695 -0.349464 0 -0.93695 -0.349464 0 -0.977147 -0.212566 0 -0.977147 -0.212566 0 -0.994739 -0.102439 0 -0.997116 -0.0713147 0.0259519 -0.997934 -0.0612409 0.0194281 -0.0713387 0.997452 0 -0.0713387 0.997452 0 -0.212566 0.977147 0 -0.212566 0.977147 0 -0.349464 0.93695 0 -0.349464 0.93695 0 -0.479249 0.877679 0 -0.479249 0.877679 0 -0.599278 0.800541 0 -0.599278 0.800541 0 -0.707107 0.707107 0 -0.707107 0.707107 0 -0.800541 0.599278 0 -0.800541 0.599278 0 -0.877679 0.479249 0 -0.877679 0.479249 0 -0.93695 0.349464 0 -0.93695 0.349464 0 -0.977147 0.212566 0 -0.977147 0.212566 0 -0.977147 -0.212566 0 -0.977147 -0.212566 0 -0.93695 -0.349464 0 -0.93695 -0.349464 0 -0.877679 -0.479249 0 -0.877679 -0.479249 0 -0.800541 -0.599278 0 -0.800541 -0.599278 0 -0.707107 -0.707107 0 -0.707107 -0.707107 0 -0.599278 -0.800541 0 -0.599278 -0.800541 0 -0.479249 -0.877679 0 -0.479249 -0.877679 0 -0.349464 -0.93695 0 -0.349464 -0.93695 0 -0.212566 -0.977147 0 -0.212566 -0.977147 0 -0.0713387 -0.997452 0 -0.977147 0.212566 0 -0.977147 0.212566 0 -0.93695 0.349464 0 -0.93695 0.349464 0 -0.877679 0.479249 0 -0.877679 0.479249 0 -0.800541 0.599278 0 -0.800541 0.599278 0 -0.707107 0.707107 0 -0.707107 0.707107 0 -0.599278 0.800541 0 -0.599278 0.800541 0 -0.479249 0.877679 0 -0.479249 0.877679 0 -0.349464 0.93695 0 -0.349464 0.93695 0 -0.212566 0.977147 0 -0.212566 0.977147 0 -0.0713387 0.997452 0 0.0338772 -0.832958 0.552298 -0.209754 -0.667699 0.71427 -0.0378758 -0.781272 0.623041 0.044101 -0.460189 0.886725 0.00352978 -0.433882 0.900963 -0.00359445 0.00954083 0.999948 0.0096193 0 0.999954 -0.0102478 0.460068 0.887825 0.0350815 0.433618 0.900414 -0.0358577 0.812059 0.582473 0.0497082 0.780866 0.622717 -0.0439089 0.980017 0.194005 0 0.974928 0.222522 -0.0451585 -0.980123 0.193185 0 -0.974928 0.222522 -0.0752699 -0.432654 -0.898413 -0.0721662 0.432753 -0.898619 0.0955732 0.601636 -0.793032 -0.0810051 0.779263 -0.621439 0.0871337 -0.24032 -0.966775 -0.0750084 0 -0.997183 0.0584782 0.197163 -0.978625 0.0913055 -0.668759 -0.737852 -0.234087 -0.852491 -0.4674 0.0419031 -0.781146 -0.622941 -0.0375987 -0.979452 -0.198141 0 -0.974928 -0.222522 0.0344724 0.869611 -0.492533 -0.0545077 0.973478 -0.222191 0 0.9841 -0.177613 -0.84803 0.489609 -0.202801 -0.84803 0.202802 -0.489609 -0.84803 -0.202802 -0.489609 -0.84803 -0.489609 -0.202801 -1 0 0 -1 0 0 -1 0 0 -1 0 0 -1 0 0 -1 0 0 -1 0 0 -1 0 0 -1 0 0 -1 0 0 -1 0 0 -1 0 0 -1 0 0 -1 0 0 -1 0 0 -1 0 0 -1 0 0 -1 0 0 -1 0 0 -1 0 0 -1 0 0 -1 0 0 0 -0.382682 -0.92388 0 -0.92388 -0.382682 0 -0.92388 -0.382682 0 -0.382682 -0.92388 0 0.382682 -0.92388 0 0.382682 -0.92388 0 0.92388 -0.382682 0 0.92388 -0.382682 -0.84803 -0.489609 0.202801 -0.84803 -0.202802 0.489609 -0.84803 0.202802 0.489609 -0.84803 0.489609 0.202801 0 0.382682 0.92388 0 0.92388 0.382682 0 0.92388 0.382682 0 0.382682 0.92388 0 -0.382682 0.92388 0 -0.382682 0.92388 0 -0.92388 0.382682 0 -0.92388 0.382682</float_array>
                    <technique_common>
                        <accessor count="1128" source="#shape0-lib-normals-array" stride="3">
                            <param name="X" type="float"/>
                            <param name="Y" type="float"/>
                            <param name="Z" type="float"/>
                        </accessor>
                    </technique_common>
                </source>
                <vertices id="shape0-lib-vertices">
                    <input semantic="POSITION" source="#shape0-lib-positions"/>
                </vertices>
                <triangles count="1128">
                    <input offset="0" semantic="VERTEX" source="#shape0-lib-vertices"/>
                    <input offset="1" semantic="NORMAL" source="#shape0-lib-normals"/>
                    <p>0 0 1 0 2 0 2 1 1 1 3 1 2 2 3 2 4 2 4 3 3 3 5 3 4 4 5 4 6 4 6 5 5 5 7 5 6 6 7 6 8 6 8 7 7 7 9 7 8 8 9 8 10 8 10 9 9 9 11 9 10 10 11 10 12 10 12 11 11 11 13 11 12 12 13 12 14 12 14 13 13 13 15 13 14 14 15 14 16 14 16 15 15 15 17 15 16 16 17 16 18 16 18 17 17 17 19 17 18 18 19 18 20 18 20 19 19 19 21 19 20 20 21 20 22 20 22 21 21 21 23 21 22 22 23 22 24 22 24 23 23 23 25 23 24 24 25 24 26 24 26 25 25 25 27 25 26 26 27 26 28 26 28 27 27 27 29 27 28 28 29 28 30 28 30 29 29 29 31 29 30 30 31 30 32 30 32 31 31 31 33 31 32 32 33 32 34 32 34 33 33 33 35 33 34 34 35 34 36 34 36 35 35 35 37 35 36 36 37 36 38 36 38 37 37 37 39 37 38 38 39 38 40 38 40 39 39 39 41 39 40 40 42 40 38 40 38 41 42 41 43 41 38 42 43 42 36 42 36 43 43 43 44 43 36 44 44 44 34 44 34 45 44 45 45 45 34 46 45 46 32 46 32 47 45 47 46 47 32 48 46 48 30 48 30 49 46 49 47 49 30 50 47 50 28 50 28 51 47 51 48 51 28 52 48 52 26 52 26 53 48 53 49 53 26 54 49 54 24 54 24 55 49 55 50 55 24 56 50 56 22 56 22 57 50 57 51 57 22 58 51 58 20 58 42 59 40 59 52 59 52 60 40 60 41 60 52 61 41 61 53 61 53 62 41 62 39 62 53 63 39 63 54 63 54 64 39 64 37 64 54 65 37 65 55 65 55 66 37 66 35 66 55 67 35 67 56 67 56 68 35 68 33 68 56 69 33 69 57 69 57 70 33 70 31 70 57 71 31 71 58 71 58 72 31 72 29 72 58 73 29 73 59 73 59 74 29 74 27 74 59 75 27 75 60 75 60 76 27 76 25 76 60 77 25 77 61 77 61 78 25 78 23 78 61 79 23 79 62 79 62 80 23 80 21 80 62 81 21 81 63 81 1 82 64 82 3 82 3 83 64 83 65 83 3 84 65 84 5 84 5 85 65 85 66 85 5 86 66 86 7 86 7 87 66 87 67 87 7 88 67 88 9 88 9 89 67 89 68 89 9 90 68 90 11 90 11 91 68 91 69 91 11 92 69 92 13 92 13 93 69 93 70 93 13 94 70 94 15 94 15 95 70 95 71 95 15 96 71 96 17 96 17 97 71 97 72 97 17 98 72 98 19 98 19 99 72 99 63 99 19 100 63 100 21 100 64 101 1 101 73 101 73 102 1 102 0 102 73 103 0 103 74 103 74 104 0 104 2 104 74 105 2 105 75 105 75 106 2 106 4 106 75 107 4 107 76 107 76 108 4 108 6 108 76 109 6 109 77 109 77 110 6 110 8 110 77 111 8 111 78 111 78 112 8 112 10 112 78 113 10 113 79 113 79 114 10 114 12 114 79 115 12 115 80 115 80 116 12 116 14 116 80 117 14 117 81 117 81 118 14 118 16 118 81 119 16 119 82 119 82 120 16 120 18 120 82 121 18 121 83 121 83 122 18 122 20 122 83 123 20 123 51 123 84 124 85 124 86 124 86 125 85 125 87 125 88 126 84 126 86 126 88 127 89 127 84 127 89 128 90 128 84 128 84 129 90 129 85 129 91 130 92 130 93 130 92 131 91 131 94 131 94 132 91 132 95 132 94 133 95 133 96 133 96 134 95 134 97 134 96 135 97 135 98 135 98 136 97 136 99 136 98 137 99 137 100 137 100 138 99 138 101 138 100 139 101 139 102 139 102 140 101 140 103 140 102 141 103 141 104 141 104 142 103 142 105 142 104 143 105 143 106 143 106 144 105 144 107 144 106 145 107 145 108 145 108 146 107 146 109 146 108 147 109 147 110 147 110 148 109 148 111 148 110 149 111 149 112 149 112 150 111 150 113 150 112 151 113 151 114 151 114 152 113 152 115 152 114 153 115 153 116 153 116 154 115 154 117 154 116 155 117 155 118 155 118 156 117 156 119 156 118 157 119 157 120 157 120 158 119 158 121 158 120 159 121 159 122 159 123 160 124 160 125 160 123 161 125 161 126 161 123 162 126 162 127 162 123 163 127 163 128 163 123 164 128 164 129 164 123 165 129 165 130 165 123 166 130 166 131 166 123 167 131 167 132 167 123 168 132 168 133 168 123 169 133 169 134 169 123 170 134 170 135 170 123 171 135 171 124 171 136 172 137 172 138 172 136 173 138 173 139 173 136 174 139 174 140 174 136 175 140 175 141 175 136 176 141 176 142 176 136 177 142 177 143 177 136 178 143 178 144 178 136 179 144 179 145 179 136 180 145 180 146 180 136 181 146 181 147 181 136 182 147 182 148 182 136 183 148 183 137 183 149 184 150 184 151 184 149 185 151 185 152 185 149 186 152 186 153 186 149 187 153 187 154 187 149 188 154 188 155 188 149 189 155 189 156 189 149 190 156 190 157 190 149 191 157 191 158 191 149 192 158 192 159 192 149 193 159 193 160 193 149 194 160 194 161 194 149 195 161 195 150 195 162 196 163 196 164 196 162 197 164 197 165 197 162 198 165 198 166 198 162 199 166 199 167 199 162 200 167 200 168 200 162 201 168 201 169 201 162 202 169 202 170 202 162 203 170 203 171 203 162 204 171 204 172 204 162 205 172 205 173 205 162 206 173 206 174 206 162 207 174 207 163 207 175 208 176 208 177 208 175 209 177 209 178 209 175 210 178 210 179 210 175 211 179 211 180 211 175 212 180 212 181 212 175 213 181 213 182 213 175 214 182 214 183 214 175 215 183 215 184 215 175 216 184 216 185 216 175 217 185 217 186 217 175 218 186 218 187 218 175 219 187 219 176 219 188 220 189 220 190 220 188 221 190 221 191 221 188 222 191 222 192 222 188 223 192 223 193 223 188 224 193 224 194 224 188 225 194 225 195 225 188 226 195 226 196 226 188 227 196 227 197 227 188 228 197 228 198 228 188 229 198 229 199 229 188 230 199 230 200 230 188 231 200 231 189 231 201 232 202 232 203 232 201 233 203 233 204 233 201 234 204 234 205 234 201 235 205 235 206 235 201 236 206 236 207 236 201 237 207 237 208 237 201 238 208 238 209 238 201 239 209 239 210 239 201 240 210 240 211 240 201 241 211 241 212 241 201 242 212 242 213 242 201 243 213 243 202 243 214 244 76 244 77 244 215 245 216 245 73 245 215 246 73 246 217 246 215 247 217 247 218 247 215 248 218 248 219 248 217 249 73 249 220 249 220 250 73 250 74 250 220 251 74 251 221 251 221 252 74 252 222 252 223 253 224 253 225 253 225 254 224 254 52 254 225 255 52 255 226 255 226 256 52 256 53 256 226 257 53 257 227 257 227 258 53 258 228 258 227 259 228 259 229 259 73 260 216 260 64 260 64 261 216 261 230 261 64 262 230 262 65 262 65 263 230 263 231 263 65 264 231 264 66 264 66 265 231 265 67 265 67 266 231 266 232 266 67 267 232 267 68 267 68 268 232 268 233 268 68 269 233 269 69 269 69 270 233 270 70 270 70 271 233 271 234 271 70 272 234 272 71 272 71 273 234 273 235 273 71 274 235 274 72 274 72 275 235 275 236 275 72 276 236 276 63 276 63 277 236 277 87 277 63 278 87 278 85 278 63 279 85 279 62 279 62 280 85 280 90 280 62 281 90 281 237 281 62 282 237 282 61 282 61 283 237 283 238 283 61 284 238 284 60 284 60 285 238 285 239 285 60 286 239 286 59 286 59 287 239 287 240 287 59 288 240 288 58 288 58 289 240 289 57 289 57 290 240 290 241 290 57 291 241 291 56 291 56 292 241 292 242 292 56 293 242 293 55 293 55 294 242 294 243 294 55 295 243 295 54 295 243 296 228 296 54 296 54 297 228 297 53 297 217 298 220 298 244 298 244 299 220 299 245 299 76 300 214 300 75 300 75 301 214 301 222 301 75 302 222 302 74 302 214 303 77 303 246 303 246 304 77 304 78 304 246 305 78 305 247 305 247 306 78 306 79 306 247 307 79 307 80 307 247 308 80 308 248 308 248 309 80 309 81 309 248 310 81 310 249 310 249 311 81 311 82 311 249 312 82 312 250 312 250 313 82 313 83 313 250 314 83 314 251 314 251 315 83 315 51 315 251 316 51 316 252 316 252 317 51 317 50 317 252 318 50 318 253 318 253 319 50 319 49 319 253 320 49 320 254 320 254 321 49 321 48 321 254 322 48 322 255 322 255 323 48 323 47 323 255 324 47 324 46 324 255 325 46 325 256 325 256 326 46 326 45 326 256 327 45 327 257 327 257 328 45 328 44 328 257 329 44 329 258 329 258 330 44 330 43 330 258 331 43 331 42 331 52 332 224 332 42 332 42 333 224 333 258 333 259 334 88 334 260 334 260 335 88 335 86 335 260 336 86 336 236 336 236 337 86 337 87 337 260 338 236 338 261 338 261 339 236 339 235 339 261 340 235 340 262 340 262 341 235 341 234 341 262 342 234 342 263 342 263 343 234 343 233 343 263 344 233 344 264 344 264 345 233 345 232 345 264 346 232 346 265 346 265 347 232 347 231 347 265 348 231 348 266 348 266 349 231 349 230 349 266 350 230 350 267 350 267 351 230 351 216 351 268 352 251 352 269 352 269 353 251 353 252 353 269 354 252 354 270 354 270 355 252 355 253 355 270 356 253 356 271 356 271 357 253 357 254 357 271 358 254 358 272 358 272 359 254 359 255 359 272 360 255 360 273 360 273 361 255 361 256 361 273 362 256 362 274 362 274 363 256 363 257 363 274 364 257 364 275 364 275 365 257 365 258 365 275 366 258 366 276 366 276 367 258 367 224 367 276 368 224 368 277 368 277 369 224 369 223 369 277 370 223 370 278 370 278 371 223 371 225 371 278 372 225 372 279 372 279 373 225 373 226 373 279 374 226 374 280 374 280 375 226 375 227 375 280 376 227 376 281 376 281 377 227 377 229 377 281 378 229 378 282 378 282 379 229 379 228 379 282 380 228 380 283 380 283 381 228 381 243 381 283 382 243 382 284 382 284 383 243 383 242 383 284 384 242 384 285 384 285 385 242 385 241 385 285 386 241 386 286 386 286 387 241 387 240 387 286 388 240 388 287 388 287 389 240 389 239 389 287 390 239 390 288 390 288 391 239 391 238 391 288 392 238 392 289 392 289 393 238 393 237 393 289 394 237 394 89 394 89 395 237 395 90 395 89 396 88 396 289 396 289 397 88 397 259 397 290 398 221 398 291 398 291 399 221 399 222 399 291 400 222 400 292 400 292 401 222 401 214 401 292 402 214 402 293 402 293 403 214 403 246 403 293 404 246 404 294 404 294 405 246 405 247 405 294 406 247 406 295 406 295 407 247 407 248 407 295 408 248 408 296 408 296 409 248 409 249 409 296 410 249 410 297 410 297 411 249 411 250 411 297 412 250 412 268 412 268 413 250 413 251 413 298 414 121 414 299 414 299 415 121 415 119 415 299 416 119 416 300 416 300 417 119 417 117 417 300 418 117 418 301 418 301 419 117 419 115 419 301 420 115 420 302 420 302 421 115 421 113 421 302 422 113 422 303 422 303 423 113 423 111 423 303 424 111 424 304 424 304 425 111 425 109 425 304 426 109 426 305 426 305 427 109 427 107 427 305 428 107 428 306 428 121 429 298 429 122 429 122 430 298 430 307 430 122 431 307 431 120 431 120 432 307 432 308 432 120 433 308 433 118 433 118 434 308 434 309 434 118 435 309 435 116 435 116 436 309 436 310 436 116 437 310 437 114 437 114 438 310 438 311 438 114 439 311 439 112 439 112 440 311 440 312 440 112 441 312 441 110 441 110 442 312 442 313 442 110 443 313 443 108 443 108 444 313 444 314 444 108 445 314 445 106 445 315 446 92 446 316 446 316 447 92 447 94 447 316 448 94 448 317 448 317 449 94 449 96 449 317 450 96 450 318 450 318 451 96 451 98 451 318 452 98 452 319 452 319 453 98 453 100 453 319 454 100 454 320 454 320 455 100 455 102 455 320 456 102 456 321 456 321 457 102 457 104 457 321 458 104 458 322 458 322 459 104 459 106 459 322 460 106 460 314 460 92 461 315 461 93 461 93 462 315 462 323 462 93 463 323 463 91 463 91 464 323 464 324 464 91 465 324 465 95 465 95 466 324 466 325 466 95 467 325 467 97 467 97 468 325 468 326 468 97 469 326 469 99 469 99 470 326 470 327 470 99 471 327 471 101 471 101 472 327 472 328 472 101 473 328 473 103 473 103 474 328 474 329 474 103 475 329 475 105 475 105 476 329 476 306 476 105 477 306 477 107 477 127 478 330 478 128 478 128 479 330 479 331 479 128 480 331 480 129 480 129 481 331 481 332 481 129 482 332 482 130 482 330 483 127 483 333 483 333 484 127 484 126 484 333 485 126 485 334 485 334 486 126 486 125 486 334 487 125 487 335 487 335 488 125 488 124 488 335 489 124 489 336 489 133 490 337 490 134 490 134 491 337 491 338 491 134 492 338 492 135 492 135 493 338 493 336 493 135 494 336 494 124 494 337 495 133 495 339 495 339 496 133 496 132 496 339 497 132 497 340 497 340 498 132 498 131 498 340 499 131 499 341 499 341 500 131 500 130 500 341 501 130 501 332 501 140 502 342 502 141 502 141 503 342 503 343 503 141 504 343 504 142 504 142 505 343 505 344 505 142 506 344 506 143 506 342 507 140 507 345 507 345 508 140 508 139 508 345 509 139 509 346 509 346 510 139 510 138 510 346 511 138 511 347 511 347 512 138 512 137 512 347 513 137 513 348 513 146 514 349 514 147 514 147 515 349 515 350 515 147 516 350 516 148 516 148 517 350 517 348 517 148 518 348 518 137 518 349 519 146 519 351 519 351 520 146 520 145 520 351 521 145 521 352 521 352 522 145 522 144 522 352 523 144 523 353 523 353 524 144 524 143 524 353 525 143 525 344 525 153 526 354 526 154 526 154 527 354 527 355 527 154 528 355 528 155 528 155 529 355 529 356 529 155 530 356 530 156 530 354 531 153 531 357 531 357 532 153 532 152 532 357 533 152 533 358 533 358 534 152 534 151 534 358 535 151 535 359 535 359 536 151 536 150 536 359 537 150 537 360 537 159 538 361 538 160 538 160 539 361 539 362 539 160 540 362 540 161 540 161 541 362 541 360 541 161 542 360 542 150 542 361 543 159 543 363 543 363 544 159 544 158 544 363 545 158 545 364 545 364 546 158 546 157 546 364 547 157 547 365 547 365 548 157 548 156 548 365 549 156 549 356 549 166 550 366 550 167 550 167 551 366 551 367 551 167 552 367 552 168 552 168 553 367 553 368 553 168 554 368 554 169 554 366 555 166 555 369 555 369 556 166 556 165 556 369 557 165 557 370 557 370 558 165 558 164 558 370 559 164 559 371 559 371 560 164 560 163 560 371 561 163 561 372 561 172 562 373 562 173 562 173 563 373 563 374 563 173 564 374 564 174 564 174 565 374 565 372 565 174 566 372 566 163 566 373 567 172 567 375 567 375 568 172 568 171 568 375 569 171 569 376 569 376 570 171 570 170 570 376 571 170 571 377 571 377 572 170 572 169 572 377 573 169 573 368 573 179 574 378 574 180 574 180 575 378 575 379 575 180 576 379 576 181 576 181 577 379 577 380 577 181 578 380 578 182 578 378 579 179 579 381 579 381 580 179 580 178 580 381 581 178 581 382 581 382 582 178 582 177 582 382 583 177 583 383 583 383 584 177 584 176 584 383 585 176 585 384 585 185 586 385 586 186 586 186 587 385 587 386 587 186 588 386 588 187 588 187 589 386 589 384 589 187 590 384 590 176 590 385 591 185 591 387 591 387 592 185 592 184 592 387 593 184 593 388 593 388 594 184 594 183 594 388 595 183 595 389 595 389 596 183 596 182 596 389 597 182 597 380 597 192 598 390 598 193 598 193 599 390 599 391 599 193 600 391 600 194 600 194 601 391 601 392 601 194 602 392 602 195 602 390 603 192 603 393 603 393 604 192 604 191 604 393 605 191 605 394 605 394 606 191 606 190 606 394 607 190 607 395 607 395 608 190 608 189 608 395 609 189 609 396 609 198 610 397 610 199 610 199 611 397 611 398 611 199 612 398 612 200 612 200 613 398 613 396 613 200 614 396 614 189 614 397 615 198 615 399 615 399 616 198 616 197 616 399 617 197 617 400 617 400 618 197 618 196 618 400 619 196 619 401 619 401 620 196 620 195 620 401 621 195 621 392 621 205 622 402 622 206 622 206 623 402 623 403 623 206 624 403 624 207 624 207 625 403 625 404 625 207 626 404 626 208 626 402 627 205 627 405 627 405 628 205 628 204 628 405 629 204 629 406 629 406 630 204 630 203 630 406 631 203 631 407 631 407 632 203 632 202 632 407 633 202 633 408 633 211 634 409 634 212 634 212 635 409 635 410 635 212 636 410 636 213 636 213 637 410 637 408 637 213 638 408 638 202 638 409 639 211 639 411 639 411 640 211 640 210 640 411 641 210 641 412 641 412 642 210 642 209 642 412 643 209 643 413 643 413 644 209 644 208 644 413 645 208 645 404 645 414 646 244 646 415 646 415 647 244 647 245 647 416 648 217 648 414 648 414 649 217 649 244 649 417 650 218 650 416 650 416 651 218 651 217 651 418 652 219 652 417 652 417 653 219 653 218 653 419 654 215 654 418 654 418 655 215 655 219 655 420 656 220 656 421 656 421 657 220 657 422 657 220 658 221 658 422 658 422 659 221 659 290 659 415 660 245 660 420 660 420 661 245 661 220 661 216 662 215 662 267 662 267 663 215 663 423 663 215 664 419 664 423 664 423 665 419 665 424 665 425 666 278 666 280 666 280 667 278 667 279 667 267 668 423 668 266 668 266 669 423 669 426 669 266 670 426 670 265 670 265 671 426 671 427 671 265 672 427 672 264 672 264 673 427 673 428 673 264 674 428 674 263 674 263 675 428 675 429 675 263 676 429 676 262 676 262 677 429 677 430 677 262 678 430 678 261 678 261 679 430 679 431 679 261 680 431 680 260 680 260 681 431 681 432 681 260 682 432 682 259 682 259 683 432 683 433 683 259 684 433 684 289 684 289 685 433 685 434 685 289 686 434 686 288 686 288 687 434 687 435 687 288 688 435 688 287 688 287 689 435 689 436 689 287 690 436 690 286 690 286 691 436 691 437 691 286 692 437 692 285 692 285 693 437 693 438 693 285 694 438 694 284 694 284 695 438 695 439 695 284 696 439 696 283 696 283 697 439 697 440 697 283 698 440 698 282 698 282 699 440 699 441 699 282 700 441 700 281 700 281 701 441 701 442 701 281 702 442 702 280 702 280 703 442 703 443 703 280 704 443 704 425 704 422 705 290 705 444 705 444 706 290 706 291 706 444 707 291 707 445 707 445 708 291 708 292 708 445 709 292 709 446 709 446 710 292 710 293 710 446 711 293 711 447 711 447 712 293 712 294 712 447 713 294 713 448 713 448 714 294 714 295 714 448 715 295 715 449 715 449 716 295 716 296 716 449 717 296 717 450 717 450 718 296 718 297 718 450 719 297 719 451 719 451 720 297 720 268 720 451 721 268 721 452 721 452 722 268 722 269 722 452 723 269 723 453 723 453 724 269 724 270 724 453 725 270 725 454 725 454 726 270 726 271 726 454 727 271 727 455 727 455 728 271 728 272 728 455 729 272 729 456 729 456 730 272 730 273 730 456 731 273 731 457 731 457 732 273 732 274 732 457 733 274 733 458 733 458 734 274 734 275 734 458 735 275 735 459 735 459 736 275 736 276 736 459 737 276 737 460 737 460 738 276 738 277 738 460 739 277 739 461 739 461 740 277 740 278 740 461 741 278 741 425 741 421 742 422 742 462 742 462 743 422 743 444 743 462 744 444 744 463 744 463 745 444 745 445 745 463 746 445 746 464 746 464 747 445 747 446 747 464 748 446 748 465 748 465 749 446 749 447 749 465 750 447 750 466 750 466 751 447 751 448 751 466 752 448 752 467 752 467 753 448 753 449 753 467 754 449 754 468 754 468 755 449 755 450 755 468 756 450 756 469 756 469 757 450 757 451 757 421 758 462 758 411 758 470 759 345 759 471 759 305 760 343 760 342 760 361 761 363 761 470 761 424 762 399 762 472 762 387 763 320 763 321 763 387 764 321 764 322 764 473 765 375 765 376 765 419 766 418 766 417 766 419 767 417 767 416 767 419 768 416 768 339 768 419 769 339 769 340 769 419 770 340 770 399 770 419 771 399 771 424 771 420 772 421 772 411 772 420 773 411 773 337 773 420 774 337 774 339 774 420 775 339 775 416 775 420 776 416 776 414 776 420 777 414 777 415 777 474 778 475 778 476 778 474 779 476 779 477 779 474 780 477 780 478 780 474 781 478 781 369 781 474 782 369 782 370 782 474 783 370 783 371 783 474 784 371 784 372 784 474 785 372 785 374 785 474 786 374 786 373 786 474 787 373 787 298 787 474 788 298 788 364 788 474 789 364 789 365 789 474 790 365 790 356 790 474 791 356 791 355 791 474 792 355 792 354 792 474 793 354 793 357 793 474 794 357 794 479 794 474 795 479 795 480 795 474 796 480 796 481 796 474 797 481 797 482 797 381 798 483 798 484 798 381 799 484 799 485 799 381 800 485 800 486 800 381 801 486 801 378 801 363 802 364 802 298 802 363 803 298 803 299 803 363 804 299 804 300 804 363 805 300 805 301 805 363 806 301 806 302 806 363 807 302 807 303 807 351 808 306 808 329 808 351 809 329 809 328 809 351 810 328 810 327 810 351 811 327 811 464 811 351 812 464 812 465 812 351 813 465 813 466 813 351 814 466 814 467 814 351 815 467 815 468 815 351 816 468 816 349 816 487 817 488 817 489 817 487 818 489 818 471 818 487 819 471 819 345 819 487 820 345 820 346 820 487 821 346 821 347 821 487 822 347 822 348 822 487 823 348 823 469 823 463 824 464 824 408 824 463 825 408 825 410 825 463 826 410 826 409 826 463 827 409 827 411 827 463 828 411 828 462 828 464 829 327 829 326 829 464 830 326 830 405 830 464 831 405 831 406 831 464 832 406 832 407 832 464 833 407 833 408 833 306 834 351 834 352 834 306 835 352 835 353 835 306 836 353 836 344 836 306 837 344 837 343 837 306 838 343 838 305 838 490 839 479 839 357 839 490 840 357 840 358 840 490 841 358 841 359 841 490 842 359 842 360 842 490 843 360 843 362 843 490 844 362 844 361 844 490 845 361 845 470 845 411 846 412 846 333 846 411 847 333 847 334 847 411 848 334 848 335 848 411 849 335 849 336 849 411 850 336 850 338 850 411 851 338 851 337 851 405 852 326 852 325 852 405 853 325 853 324 853 405 854 324 854 323 854 405 855 323 855 315 855 315 856 393 856 394 856 315 857 394 857 395 857 315 858 395 858 396 858 315 859 396 859 398 859 315 860 398 860 397 860 315 861 397 861 333 861 315 862 333 862 412 862 315 863 412 863 413 863 315 864 413 864 404 864 315 865 404 865 403 865 315 866 403 866 402 866 315 867 402 867 405 867 399 868 340 868 341 868 399 869 341 869 332 869 399 870 332 870 331 870 399 871 331 871 330 871 399 872 330 872 333 872 399 873 333 873 397 873 393 874 315 874 316 874 393 875 316 875 317 875 393 876 317 876 318 876 393 877 318 877 319 877 393 878 319 878 320 878 393 879 320 879 387 879 393 880 387 880 491 880 375 881 312 881 311 881 375 882 311 882 310 882 375 883 310 883 309 883 375 884 309 884 308 884 375 885 308 885 307 885 375 886 307 886 298 886 375 887 298 887 373 887 491 888 492 888 401 888 491 889 401 889 392 889 491 890 392 890 391 890 491 891 391 891 390 891 491 892 390 892 393 892 314 893 384 893 386 893 314 894 386 894 385 894 314 895 385 895 387 895 314 896 387 896 322 896 313 897 381 897 382 897 313 898 382 898 383 898 313 899 383 899 384 899 313 900 384 900 314 900 493 901 473 901 376 901 493 902 376 902 377 902 493 903 377 903 368 903 493 904 368 904 367 904 493 905 367 905 366 905 493 906 366 906 369 906 493 907 369 907 478 907 387 908 388 908 494 908 387 909 494 909 495 909 387 910 495 910 496 910 387 911 496 911 497 911 387 912 497 912 491 912 483 913 381 913 473 913 473 914 381 914 313 914 473 915 313 915 375 915 375 916 313 916 312 916 363 917 303 917 470 917 470 918 303 918 304 918 470 919 304 919 345 919 345 920 304 920 305 920 345 921 305 921 342 921 349 922 468 922 350 922 350 923 468 923 469 923 350 924 469 924 348 924 472 925 399 925 492 925 492 926 399 926 400 926 492 927 400 927 401 927 494 928 388 928 498 928 498 929 388 929 389 929 498 930 389 930 380 930 498 931 380 931 486 931 486 932 380 932 379 932 486 933 379 933 378 933 498 934 433 934 494 934 494 935 433 935 432 935 494 936 432 936 495 936 495 937 432 937 431 937 495 938 431 938 496 938 496 939 431 939 430 939 496 940 430 940 497 940 497 941 430 941 429 941 497 942 429 942 491 942 491 943 429 943 428 943 491 944 428 944 492 944 492 945 428 945 427 945 492 946 427 946 472 946 472 947 427 947 426 947 472 948 426 948 424 948 424 949 426 949 423 949 474 950 499 950 500 950 500 951 501 951 474 951 502 952 503 952 504 952 505 953 506 953 425 953 482 954 502 954 504 954 482 955 504 955 507 955 482 956 507 956 508 956 482 957 508 957 499 957 482 958 499 958 474 958 475 959 474 959 501 959 475 960 501 960 509 960 475 961 509 961 510 961 475 962 510 962 511 962 475 963 511 963 512 963 475 964 512 964 513 964 443 965 513 965 512 965 443 966 512 966 514 966 443 967 514 967 515 967 443 968 515 968 516 968 443 969 516 969 505 969 443 970 505 970 425 970 469 971 451 971 517 971 517 972 451 972 452 972 517 973 452 973 518 973 518 974 452 974 453 974 518 975 453 975 519 975 519 976 453 976 454 976 519 977 454 977 520 977 520 978 454 978 455 978 520 979 455 979 521 979 521 980 455 980 456 980 521 981 456 981 522 981 522 982 456 982 457 982 522 983 457 983 523 983 523 984 457 984 458 984 523 985 458 985 524 985 524 986 458 986 459 986 524 987 459 987 525 987 525 988 459 988 460 988 525 989 460 989 502 989 502 990 460 990 461 990 502 991 461 991 503 991 503 992 461 992 425 992 503 993 425 993 506 993 433 994 498 994 526 994 526 995 498 995 486 995 526 996 486 996 527 996 527 997 486 997 485 997 527 998 485 998 528 998 528 999 485 999 484 999 528 1000 484 1000 529 1000 529 1001 484 1001 483 1001 529 1002 483 1002 530 1002 530 1003 483 1003 473 1003 530 1004 473 1004 531 1004 531 1005 473 1005 493 1005 531 1006 493 1006 532 1006 532 1007 493 1007 478 1007 532 1008 478 1008 533 1008 533 1009 478 1009 477 1009 533 1010 477 1010 534 1010 534 1011 477 1011 476 1011 534 1012 476 1012 513 1012 513 1013 476 1013 475 1013 502 1014 482 1014 525 1014 525 1015 482 1015 481 1015 525 1016 481 1016 524 1016 524 1017 481 1017 480 1017 524 1018 480 1018 523 1018 523 1019 480 1019 479 1019 523 1020 479 1020 522 1020 522 1021 479 1021 490 1021 522 1022 490 1022 521 1022 521 1023 490 1023 470 1023 521 1024 470 1024 520 1024 520 1025 470 1025 471 1025 520 1026 471 1026 519 1026 519 1027 471 1027 489 1027 519 1028 489 1028 518 1028 518 1029 489 1029 488 1029 518 1030 488 1030 517 1030 517 1031 488 1031 487 1031 517 1032 487 1032 469 1032 513 1033 443 1033 534 1033 534 1034 443 1034 442 1034 534 1035 442 1035 533 1035 533 1036 442 1036 441 1036 533 1037 441 1037 532 1037 532 1038 441 1038 440 1038 532 1039 440 1039 531 1039 531 1040 440 1040 439 1040 531 1041 439 1041 530 1041 530 1042 439 1042 438 1042 530 1043 438 1043 529 1043 529 1044 438 1044 437 1044 529 1045 437 1045 528 1045 528 1046 437 1046 436 1046 528 1047 436 1047 527 1047 527 1048 436 1048 435 1048 527 1049 435 1049 526 1049 526 1050 435 1050 434 1050 526 1051 434 1051 433 1051 511 1052 510 1052 535 1052 535 1053 510 1053 509 1053 535 1054 509 1054 536 1054 536 1055 509 1055 501 1055 536 1056 501 1056 537 1056 537 1057 501 1057 500 1057 537 1058 500 1058 538 1058 538 1059 500 1059 499 1059 538 1060 499 1060 539 1060 539 1061 499 1061 508 1061 539 1062 508 1062 540 1062 540 1063 508 1063 507 1063 540 1064 507 1064 541 1064 511 1065 535 1065 512 1065 512 1066 535 1066 542 1066 516 1067 543 1067 544 1067 506 1068 545 1068 546 1068 546 1069 503 1069 506 1069 503 1070 546 1070 547 1070 505 1071 516 1071 544 1071 505 1072 544 1072 545 1072 505 1073 545 1073 506 1073 516 1074 515 1074 543 1074 543 1075 515 1075 514 1075 543 1076 514 1076 548 1076 548 1077 514 1077 512 1077 548 1078 512 1078 542 1078 503 1079 547 1079 504 1079 504 1080 547 1080 541 1080 504 1081 541 1081 507 1081 549 1082 550 1082 551 1082 549 1083 551 1083 552 1083 549 1084 552 1084 553 1084 549 1085 553 1085 554 1085 555 1086 543 1086 548 1086 535 1087 556 1087 557 1087 547 1088 555 1088 558 1088 539 1089 540 1089 538 1089 538 1090 540 1090 556 1090 538 1091 556 1091 537 1091 537 1092 556 1092 535 1092 537 1093 535 1093 536 1093 547 1094 546 1094 555 1094 555 1095 546 1095 545 1095 555 1096 545 1096 543 1096 543 1097 545 1097 544 1097 535 1098 557 1098 542 1098 542 1099 557 1099 559 1099 542 1100 559 1100 548 1100 548 1101 559 1101 560 1101 548 1102 560 1102 555 1102 547 1103 558 1103 541 1103 541 1104 558 1104 561 1104 541 1105 561 1105 540 1105 540 1106 561 1106 562 1106 540 1107 562 1107 556 1107 552 1108 560 1108 553 1108 553 1109 560 1109 559 1109 553 1110 559 1110 554 1110 560 1111 552 1111 555 1111 555 1112 552 1112 551 1112 555 1113 551 1113 558 1113 558 1114 551 1114 550 1114 558 1115 550 1115 561 1115 549 1116 554 1116 563 1116 549 1117 563 1117 564 1117 549 1118 564 1118 565 1118 549 1119 565 1119 550 1119 564 1120 562 1120 565 1120 565 1121 562 1121 561 1121 565 1122 561 1122 550 1122 562 1123 564 1123 556 1123 556 1124 564 1124 563 1124 556 1125 563 1125 557 1125 557 1126 563 1126 554 1126 557 1127 554 1127 559 1127</p>
                </triangles>
            </mesh>
        </geometry>
    </library_geometries>
    <library_visual_scenes>
        <visual_scene id="VisualSceneNode" name="VisualScene">
            <node id="node" name="node">
                <instance_geometry url="#shape0-lib"/>
            </node>
        </visual_scene>
    </library_visual_scenes>
    <scene>
        <instance_visual_scene url="#VisualSceneNode"/>
    </scene>
</COLLADA>
