<?xml version="1.0" encoding="UTF-8"?>
<COLLADA xmlns="http://www.collada.org/2005/11/COLLADASchema" version="1.4.1">
    <asset>
        <contributor>
            <author>VCGLab</author>
            <authoring_tool>VCGLib | MeshLab</authoring_tool>
        </contributor>
        <created>Fri May 8 15:34:55 2026 GMT</created>
        <modified>Fri May 8 15:34:55 2026 GMT</modified>
        <up_axis>Y_UP</up_axis>
    </asset>
    <library_geometries>
        <geometry id="shape0-lib" name="shape0">
            <mesh>
                <source id="shape0-lib-positions" name="position">
                    <float_array id="shape0-lib-positions-array" count="1857">0 0.185 -0.062 0 0.152 -0.062 -0.00969894 0.185 -0.0612367 -0.00969894 0.152 -0.0612367 -0.0191591 0.185 -0.0589655 -0.0191591 0.152 -0.0589655 -0.0281474 0.185 -0.0552424 -0.0281474 0.152 -0.0552424 -0.0364427 0.185 -0.0501591 -0.0364427 0.152 -0.0501591 -0.0438406 0.185 -0.0438406 -0.0438406 0.152 -0.0438406 -0.0501591 0.185 -0.0364427 -0.0501591 0.152 -0.0364427 -0.0552424 0.185 -0.0281474 -0.0552424 0.152 -0.0281474 -0.0589655 0.185 -0.0191591 -0.0589655 0.152 -0.0191591 -0.0612367 0.185 -0.00969894 -0.0612367 0.152 -0.00969894 -0.062 0.185 0 -0.062 0.152 0 -0.0612367 0.185 0.00969894 -0.0612367 0.152 0.00969894 -0.0589655 0.185 0.0191591 -0.0589655 0.152 0.0191591 -0.0552424 0.185 0.0281474 -0.0552424 0.152 0.0281474 -0.0501591 0.185 0.0364427 -0.0501591 0.152 0.0364427 -0.0438406 0.185 0.0438406 -0.0438406 0.152 0.0438406 -0.0364427 0.185 0.0501591 -0.0364427 0.152 0.0501591 -0.0281474 0.185 0.0552424 -0.0281474 0.152 0.0552424 -0.0191591 0.185 0.0589655 -0.0191591 0.152 0.0589655 -0.00969894 0.185 0.0612367 -0.00969894 0.152 0.0612367 0 0.185 0.062 0 0.152 0.062 0.0301176 0.152 -0.0659483 0.0391965 0.152 -0.0609909 0.0381671 0.112 -0.0616403 0.0459965 0.112 -0.0560408 0.0474774 0.152 -0.0547918 0.0530152 0.112 -0.0494534 0.0547918 0.152 -0.0474774 0.0590993 0.112 -0.0419944 0.0609909 0.152 -0.0391965 0.0641416 0.112 -0.033795 0.0680533 0.132 -0.025 0.0695632 0.152 -0.0204256 0.0708886 0.132 -0.0152008 0.0717621 0.152 -0.0103178 0.0723204 0.132 -0.00510058 0.0725 0.152 0 0.0723204 0.132 0.00510058 0.0717621 0.152 0.0103178 0.0708886 0.132 0.0152008 0.0695632 0.152 0.0204256 0.0637498 0.112 0.0345284 0.0659483 0.152 0.0301176 0.0609909 0.152 0.0391965 0.0581206 0.112 0.0433387 0.0547918 0.152 0.0474774 0.0512827 0.112 0.0512478 0.0474774 0.152 0.0547918 0.0433783 0.112 0.0580911 0.0391965 0.152 0.0609909 0.0345718 0.112 0.0637263 0.0301176 0.152 0.0659483 0.0250463 0.112 0.0680363 0.0204256 0.152 0.0695632 0.0680533 0.132 0.025 0.0680533 0.112 0.025 0.015 0.132 0.0709313 0.015 0.112 0.0709313 0.0103178 0.152 0.0717621 0.0075409 0.132 0.0721068 0.0659483 0.152 -0.0301176 0.0680533 0.112 -0.025 0 0.111 -0.0725 0 0.152 -0.0725 0.0104283 0.111 -0.0717461 0.0103178 0.152 -0.0717621 0.0206398 0.111 -0.0695 0.0204256 0.152 -0.0695632 0.0206398 0.112 -0.0695 0.0296649 0.112 -0.0661532 0 0.152 0.0725 0 0.132 0.0725 -0.0720616 0.112 -0.00796058 -0.0717621 0.152 -0.0103178 -0.0701274 0.112 -0.0183954 -0.0722313 0.113643 -0.00623575 -0.0246 0.112 0.0681989 -0.0204256 0.152 0.0695632 -0.0301176 0.152 0.0659483 -0.0337336 0.112 0.0641739 -0.0391965 0.152 0.0609909 -0.0422279 0.112 0.0589326 -0.0474774 0.152 0.0547918 -0.0499219 0.112 0.0525743 -0.0547918 0.152 0.0474774 -0.0566696 0.112 0.0452195 -0.0609909 0.152 0.0391965 -0.0623433 0.112 0.0370076 -0.0659483 0.152 0.0301176 -0.0668353 0.112 0.0280943 -0.0695632 0.152 0.0204256 -0.0700606 0.112 0.0186486 -0.0717621 0.152 0.0103178 -0.0719579 0.112 0.00884934 -0.0695632 0.152 -0.0204256 -0.0666906 0.112 -0.0284361 -0.0659483 0.152 -0.0301176 -0.0618248 0.112 -0.0378675 -0.0609909 0.152 -0.0391965 -0.0556342 0.112 -0.0464875 -0.0547918 0.152 -0.0474774 -0.0482515 0.112 -0.0541114 -0.0474774 0.152 -0.0547918 -0.039835 0.112 -0.0605758 -0.0391965 0.152 -0.0609909 -0.0305648 0.112 -0.0657422 -0.0301176 0.152 -0.0659483 -0.015 0.132 0.0709313 -0.0075409 0.132 0.0721068 -0.0103178 0.152 0.0717621 -0.015 0.112 0.0709313 -0.0206398 0.112 -0.0695 -0.0204256 0.152 -0.0695632 -0.0206398 0.111 -0.0695 -0.0725 0.152 0 -0.0724197 0.115206 -0.00341165 -0.0724986 0.115904 0.00044438 -0.0724096 0.115435 0.00362021 -0.0721423 0.11359 0.00719329 -0.0104283 0.111 -0.0717461 -0.0103178 0.152 -0.0717621 -0.0132666 0.108766 -0.0695 -0.00569025 0.107458 -0.0695 -3.291e-05 0.10716 -0.0695 0.0145574 0.109091 -0.0695 0 0.10716 -0.0695 0.00735222 0.107657 -0.0695 -0.015 0.132 0.0840822 0.015 0.132 0.0840822 0 0.132 0.0878349 0.00375 0.132 0.09 0.00475 0.132 0.09 -0.00375 0.132 0.09 -0.00475 0.132 0.09 0.015 0.112 0.0795 0.015 0.112 0.0840822 0.073 0.112 0.0495 0.073 0.112 0.025 0.043 0.112 0.0795 0.074 0.112 0.025 0.074 0.132 0.025 0.074 0.132 -0.025 0.074 0.112 -0.025 0.073 0.112 -0.025 0.073 0.112 -0.0395 0.043 0.112 -0.0695 -0.073 0.112 0.00884934 -0.073 0.10839 0.0108772 -0.073 0.112 0.0495 -0.073 0.104286 0.011427 -0.073 0 -0.0625 -0.073 0.01 -0.0625 -0.073 0 -0.0695 -0.073 0.112 -0.0395 -0.073 0.081 -0.0695 -0.073 0.01 0.0725 -0.073 0.0969103 -0.00711238 -0.073 0.10027 -0.00953206 -0.073 0.104286 -0.0105383 -0.073 0.10839 -0.00998849 -0.073 0.112 -0.00796058 -0.073 0 0.0725 -0.073 0 0.0795 -0.073 0.081 0.0795 -0.073 0.10027 0.0104208 -0.073 0.0969103 0.00800114 -0.073 0.094683 0.00451082 -0.073 0.0939038 0.00044438 -0.073 0.094683 -0.00362207 -0.043 0.112 -0.0695 0.073 0 -0.0695 0.073 0 -0.0625 0.072257 -0.010389 -0.0695 0.072257 -0.010389 -0.0625 0.070043 -0.0205665 -0.0695 0.070043 -0.0205665 -0.0625 0.0664031 -0.0303253 -0.0695 0.0664031 -0.0303253 -0.0625 0.0614115 -0.0394668 -0.0695 0.0614115 -0.0394668 -0.0625 0.0551697 -0.0478048 -0.0695 0.0551697 -0.0478048 -0.0625 0.0478048 -0.0551697 -0.0695 0.0478048 -0.0551697 -0.0625 0.0394668 -0.0614115 -0.0695 0.0394668 -0.0614115 -0.0625 0.0303253 -0.0664031 -0.0695 0.0303253 -0.0664031 -0.0625 0.0205665 -0.070043 -0.0695 0.0205665 -0.070043 -0.0625 0.010389 -0.072257 -0.0695 0.010389 -0.072257 -0.0625 0 -0.073 -0.0695 0 -0.073 -0.0625 -0.010389 -0.072257 -0.0695 -0.010389 -0.072257 -0.0625 -0.0205665 -0.070043 -0.0695 -0.0205665 -0.070043 -0.0625 -0.0303253 -0.0664031 -0.0695 -0.0303253 -0.0664031 -0.0625 -0.0394668 -0.0614115 -0.0695 -0.0394668 -0.0614115 -0.0625 -0.0478048 -0.0551697 -0.0695 -0.0478048 -0.0551697 -0.0625 -0.0551697 -0.0478048 -0.0695 -0.0551697 -0.0478048 -0.0625 -0.0614115 -0.0394668 -0.0695 -0.0614115 -0.0394668 -0.0625 -0.0664031 -0.0303253 -0.0695 -0.0664031 -0.0303253 -0.0625 -0.070043 -0.0205665 -0.0695 -0.070043 -0.0205665 -0.0625 -0.072257 -0.010389 -0.0695 -0.072257 -0.010389 -0.0625 0.066 0.02 0.0725 0.0664031 -0.0303253 0.0725 0.0614115 -0.0394668 0.0725 -0.0667337 0.01 0.0725 -0.0664031 -0.0303253 0.0725 -0.070043 -0.0205665 0.0725 -0.072257 -0.010389 0.0725 -0.0667337 0.087 0.0725 0.066 0.087 0.0725 0.0551697 -0.0478048 0.0725 0.0478048 -0.0551697 0.0725 0.0394668 -0.0614115 0.0725 0.0303253 -0.0664031 0.0725 0.0205665 -0.070043 0.0725 0.010389 -0.072257 0.0725 0 -0.073 0.0725 -0.010389 -0.072257 0.0725 -0.0205665 -0.070043 0.0725 -0.0303253 -0.0664031 0.0725 -0.0394668 -0.0614115 0.0725 -0.0478048 -0.0551697 0.0725 -0.0551697 -0.0478048 0.0725 -0.0614115 -0.0394668 0.0725 0.073 0.02 0.0725 0.073 0 0.0725 0.072257 -0.010389 0.0725 0.070043 -0.0205665 0.0725 0.066 0.0709315 0.005 0.073 0.0701629 0.0128036 0.066 0.0701629 0.0128036 0.073 0.0678866 0.0203073 0.066 0.0678866 0.0203073 0.073 0.0641902 0.0272228 0.066 0.0641902 0.0272228 0.073 0.0592157 0.0332843 0.066 0.0592157 0.0332843 0.073 0.0709315 0.005 0.066 0.0701629 -0.00280361 0.073 0.0701629 -0.00280361 0.066 0.0678866 -0.0103073 0.073 0.0678866 -0.0103073 0.066 0.0641902 -0.0172228 0.073 0.0641902 -0.0172228 0.066 0.0592157 -0.0232843 0.073 0.0592157 -0.0232843 0.0648182 0.00485746 -0.0805 0.0648182 -0.00485746 -0.0805 0.0633703 0.0144639 -0.0805 0.0633703 -0.0144639 -0.0805 0.0605068 0.0237472 -0.0805 0.0605068 -0.0237472 -0.0805 0.0562917 0.0325 -0.0805 0.0562917 -0.0325 -0.0805 0.0508191 0.0405268 -0.0805 0.0508191 -0.0405268 -0.0805 0.0442112 0.0476484 -0.0805 0.0442112 -0.0476484 -0.0805 0.0366158 0.0537055 -0.0805 0.0366158 -0.0537055 -0.0805 0.0282024 0.058563 -0.0805 0.0282024 -0.058563 -0.0805 0.0191591 0.0621122 -0.0805 0.0191591 -0.0621122 -0.0805 0.00968775 0.064274 -0.0805 0.00968775 -0.064274 -0.0805 0 0.065 -0.0805 0 -0.065 -0.0805 -0.00968775 0.064274 -0.0805 -0.00968775 -0.064274 -0.0805 -0.0191591 0.0621122 -0.0805 -0.0191591 -0.0621122 -0.0805 -0.0282024 0.058563 -0.0805 -0.0282024 -0.058563 -0.0805 -0.0366158 0.0537055 -0.0805 -0.0366158 -0.0537055 -0.0805 -0.0442112 0.0476484 -0.0805 -0.0442112 -0.0476484 -0.0805 -0.0508191 0.0405268 -0.0805 -0.0508191 -0.0405268 -0.0805 -0.0562917 0.0325 -0.0805 -0.0562917 -0.0325 -0.0805 -0.0605068 0.0237472 -0.0805 -0.0605068 -0.0237472 -0.0805 -0.0633703 0.0144639 -0.0805 -0.0633703 -0.0144639 -0.0805 -0.0648182 0.00485746 -0.0805 -0.0648182 -0.00485746 -0.0805 0.074 0.1155 0 0.074 0.116232 0.00176777 0.074 0.118 0.0025 0.074 0.119768 0.00176777 0.074 0.1205 0 0.074 0.119768 -0.00176777 0.074 0.118 -0.0025 0.074 0.116232 -0.00176777 -0.015 0.112 0.0795 -0.015 0.112 0.0840822 0 0.112 0.0878349 0.00375 0.112 0.09 0.00475 0.112 0.09 -0.00375 0.112 0.09 -0.00475 0.112 0.09 0.066 0.087 -0.0625 0.04 0.087 0 0.0392314 0.087 -0.00780361 0.0369552 0.087 -0.0153073 0.0332588 0.087 -0.0222228 0.0282843 0.087 -0.0282843 0.0222228 0.087 -0.0332588 0.0153073 0.087 -0.0369552 -0.0667337 0.087 -0.0625 0.00780361 0.087 -0.0392314 0 0.087 -0.04 -0.00780361 0.087 -0.0392314 -0.0153073 0.087 -0.0369552 -0.0222228 0.087 -0.0332588 -0.0282843 0.087 -0.0282843 -0.0332588 0.087 -0.0222228 -0.0369552 0.087 -0.0153073 -0.0392314 0.087 -0.00780361 -0.04 0.087 0 -0.0392314 0.087 0.00780361 -0.0369552 0.087 0.0153073 -0.0332588 0.087 0.0222228 -0.0282843 0.087 0.0282843 -0.0222228 0.087 0.0332588 -0.0153073 0.087 0.0369552 -0.00780361 0.087 0.0392314 0 0.087 0.04 0.00780361 0.087 0.0392314 0.0153073 0.087 0.0369552 0.0222228 0.087 0.0332588 0.0282843 0.087 0.0282843 0.0332588 0.087 0.0222228 0.0369552 0.087 0.0153073 0.0392314 0.087 0.00780361 -0.0667337 0.01 -0.0625 -0.0392314 0.092 0.00780361 -0.0369552 0.092 0.0153073 -0.0332588 0.092 0.0222228 -0.0282843 0.092 0.0282843 -0.0222228 0.092 0.0332588 -0.0153073 0.092 0.0369552 -0.00780361 0.092 0.0392314 0 0.092 0.04 -0.04 0.092 0 -0.0392314 0.092 -0.00780361 -0.0369552 0.092 -0.0153073 -0.0332588 0.092 -0.0222228 -0.0282843 0.092 -0.0282843 -0.0222228 0.092 -0.0332588 -0.0153073 0.092 -0.0369552 -0.00780361 0.092 -0.0392314 0 0.092 -0.04 0.0392314 0.092 -0.00780361 0.0369552 0.092 -0.0153073 0.0332588 0.092 -0.0222228 0.0282843 0.092 -0.0282843 0.0222228 0.092 -0.0332588 0.0153073 0.092 -0.0369552 0.00780361 0.092 -0.0392314 0.04 0.092 0 0.0392314 0.092 0.00780361 0.0369552 0.092 0.0153073 0.0332588 0.092 0.0222228 0.0282843 0.092 0.0282843 0.0222228 0.092 0.0332588 0.0153073 0.092 0.0369552 0.00780361 0.092 0.0392314 0.0619575 0.118807 0.00229147 0.0619569 0.117265 0.00231431 0.0619769 0.119786 0.00169338 0.0619828 0.116008 0.00146228 0.0619957 0.120382 0.00073592 0.062 0.1155 0 0.062 0.1205 0 0.0619828 0.119993 -0.00146084 0.0619905 0.115765 -0.00108491 0.0619619 0.1191 -0.00217417 0.0619696 0.116507 -0.00194208 0.0619541 0.117575 -0.00238612 0.062 0.119768 0.00176777 0.062 0.118 0.0025 0.062 0.116232 0.00176777 0.062 0.116232 -0.00176777 0.062 0.118 -0.0025 0.062 0.119768 -0.00176777 -0.077 0.106814 -0.0103885 -0.077 0.102994 -0.0103885 -0.077 0.110404 -0.0090819 -0.077 0.0994038 -0.0090819 -0.077 0.11333 -0.00662629 -0.077 0.0964773 -0.00662629 -0.077 0.11524 -0.00331784 -0.077 0.0945671 -0.00331784 -0.077 0.115904 0.00044438 -0.077 0.0939038 0.00044438 -0.077 0.11524 0.0042066 -0.077 0.0945671 0.0042066 -0.077 0.11333 0.00751504 -0.077 0.0964773 0.00751504 -0.077 0.110404 0.00997066 -0.077 0.0994038 0.00997066 -0.077 0.106814 0.0112773 -0.077 0.102994 0.0112773 0.05 0 0.0895 0.0492404 0.00868241 0.0895 0.0492404 -0.00868241 0.0895 -0.05 0 0.0895 -0.0492404 -0.00868241 0.0895 -0.0492404 0.00868241 0.0895 -0.0469846 -0.017101 0.0895 -0.0469846 0.017101 0.0895 -0.0433013 -0.025 0.0895 -0.0433013 0.025 0.0895 -0.0383022 -0.0321394 0.0895 -0.0383022 0.0321394 0.0895 -0.0321394 -0.0383022 0.0895 -0.0321394 0.0383022 0.0895 -0.025 -0.0433013 0.0895 -0.025 0.0433013 0.0895 -0.017101 -0.0469846 0.0895 -0.017101 0.0469846 0.0895 -0.00868241 -0.0492404 0.0895 -0.00868241 0.0492404 0.0895 0 -0.05 0.0895 0 0.05 0.0895 0.00868241 -0.0492404 0.0895 0.00868241 0.0492404 0.0895 0.017101 -0.0469846 0.0895 0.017101 0.0469846 0.0895 0.025 -0.0433013 0.0895 0.025 0.0433013 0.0895 0.0321394 -0.0383022 0.0895 0.0321394 0.0383022 0.0895 0.0383022 -0.0321394 0.0895 0.0383022 0.0321394 0.0895 0.0433013 -0.025 0.0895 0.0433013 0.025 0.0895 0.0469846 -0.017101 0.0895 0.0469846 0.017101 0.0895 0.066 0.02 -0.0625 0 0.05 0.0795 0.00868241 0.0492404 0.0795 0.017101 0.0469846 0.0795 0.025 0.0433013 0.0795 0.0321394 0.0383022 0.0795 0.0383022 0.0321394 0.0795 0.0433013 0.025 0.0795 0.0469846 0.017101 0.0795 0.0492404 0.00868241 0.0795 0.05 0 0.0795 0.0492404 -0.00868241 0.0795 0.0469846 -0.017101 0.0795 0.0433013 -0.025 0.0795 0.0383022 -0.0321394 0.0795 0.0321394 -0.0383022 0.0795 0.025 -0.0433013 0.0795 0.017101 -0.0469846 0.0795 0.00868241 -0.0492404 0.0795 0 -0.05 0.0795 -0.00868241 -0.0492404 0.0795 -0.017101 -0.0469846 0.0795 -0.025 -0.0433013 0.0795 -0.0321394 -0.0383022 0.0795 -0.0383022 -0.0321394 0.0795 -0.0433013 -0.025 0.0795 -0.0469846 -0.017101 0.0795 -0.0492404 -0.00868241 0.0795 -0.05 0 0.0795 -0.0492404 0.00868241 0.0795 -0.0469846 0.017101 0.0795 -0.0433013 0.025 0.0795 -0.0383022 0.0321394 0.0795 -0.0321394 0.0383022 0.0795 -0.025 0.0433013 0.0795 -0.017101 0.0469846 0.0795 -0.00868241 0.0492404 0.0795 -0.043 0.112 0.0795 0 -0.073 0.0795 -0.010389 -0.072257 0.0795 -0.0205665 -0.070043 0.0795 -0.0303253 -0.0664031 0.0795 -0.0394668 -0.0614115 0.0795 -0.0478048 -0.0551697 0.0795 -0.0551697 -0.0478048 0.0795 -0.0614115 -0.0394668 0.0795 -0.0664031 -0.0303253 0.0795 -0.070043 -0.0205665 0.0795 -0.072257 -0.010389 0.0795 0.073 0.02 -0.0625 0.073 0 0.0795 0.072257 -0.010389 0.0795 0.070043 -0.0205665 0.0795 0.0664031 -0.0303253 0.0795 0.0614115 -0.0394668 0.0795 0.0551697 -0.0478048 0.0795 0.0478048 -0.0551697 0.0795 0.0394668 -0.0614115 0.0795 0.0303253 -0.0664031 0.0795 0.0205665 -0.070043 0.0795 0.010389 -0.072257 0.0795 0.073 0.081 0.0795 0 0.065 -0.0695 0.00968775 0.064274 -0.0695 0.0191591 0.0621122 -0.0695 0.0282024 0.058563 -0.0695 0.0366158 0.0537055 -0.0695 0.0442112 0.0476484 -0.0695 0.0508191 0.0405268 -0.0695 0.0562917 0.0325 -0.0695 0.0605068 0.0237472 -0.0695 0.0633703 0.0144639 -0.0695 0.0648182 0.00485746 -0.0695 0.0648182 -0.00485746 -0.0695 0.0633703 -0.0144639 -0.0695 0.0605068 -0.0237472 -0.0695 0.0562917 -0.0325 -0.0695 0.0508191 -0.0405268 -0.0695 0.0442112 -0.0476484 -0.0695 0.0366158 -0.0537055 -0.0695 0.0282024 -0.058563 -0.0695 0.0191591 -0.0621122 -0.0695 0.00968775 -0.064274 -0.0695 0 -0.065 -0.0695 -0.00968775 -0.064274 -0.0695 -0.0191591 -0.0621122 -0.0695 -0.0282024 -0.058563 -0.0695 -0.0366158 -0.0537055 -0.0695 -0.0442112 -0.0476484 -0.0695 -0.0508191 -0.0405268 -0.0695 -0.0562917 -0.0325 -0.0695 -0.0605068 -0.0237472 -0.0695 -0.0633703 -0.0144639 -0.0695 -0.0648182 -0.00485746 -0.0695 -0.0648182 0.00485746 -0.0695 -0.0633703 0.0144639 -0.0695 -0.0605068 0.0237472 -0.0695 -0.0562917 0.0325 -0.0695 -0.0508191 0.0405268 -0.0695 -0.0442112 0.0476484 -0.0695 -0.0366158 0.0537055 -0.0695 -0.0282024 0.058563 -0.0695 -0.0191591 0.0621122 -0.0695 -0.00968775 0.064274 -0.0695 0.073 0.081 -0.0695 0.062 0.152 0 0.0612367 0.152 0.00969894 0.0612367 0.152 -0.00969894 0.0589655 0.152 -0.0191591 0.0552424 0.152 -0.0281474 0.0501591 0.152 -0.0364427 0.0438406 0.152 -0.0438406 0.0364427 0.152 -0.0501591 0.0281474 0.152 -0.0552424 0.0191591 0.152 -0.0589655 0.00969894 0.152 -0.0612367 0.0589655 0.152 0.0191591 0.0552424 0.152 0.0281474 0.0501591 0.152 0.0364427 0.0438406 0.152 0.0438406 0.0364427 0.152 0.0501591 0.0281474 0.152 0.0552424 0.0191591 0.152 0.0589655 0.00969894 0.152 0.0612367 0.0612367 0.185 -0.00969894 0.0612367 0.185 0.00969894 0.062 0.185 0 0.0589655 0.185 0.0191591 0.0589655 0.185 -0.0191591 0.0552424 0.185 0.0281474 0.0552424 0.185 -0.0281474 0.0501591 0.185 0.0364427 0.0501591 0.185 -0.0364427 0.0438406 0.185 0.0438406 0.0438406 0.185 -0.0438406 0.0364427 0.185 0.0501591 0.0364427 0.185 -0.0501591 0.0281474 0.185 0.0552424 0.0281474 0.185 -0.0552424 0.0191591 0.185 0.0589655 0.0191591 0.185 -0.0589655 0.00969894 0.185 0.0612367 0.00969894 0.185 -0.0612367</float_array>
                    <technique_common>
                        <accessor count="619" source="#shape0-lib-positions-array" stride="3">
                            <param name="X" type="float"/>
                            <param name="Y" type="float"/>
                            <param name="Z" type="float"/>
                        </accessor>
                    </technique_common>
                </source>
                <source id="shape0-lib-normals" name="normal">
                    <float_array id="shape0-lib-normals-array" count="3702">-0.0784587 0 -0.996917 -0.0784587 0 -0.996917 -0.233445 0 -0.97237 -0.233445 0 -0.97237 -0.382683 0 -0.92388 -0.382683 0 -0.92388 -0.522498 0 -0.85264 -0.522498 0 -0.85264 -0.649449 0 -0.760406 -0.649449 0 -0.760406 -0.760406 0 -0.649449 -0.760406 0 -0.649449 -0.85264 0 -0.522498 -0.85264 0 -0.522498 -0.92388 0 -0.382683 -0.92388 0 -0.382683 -0.97237 0 -0.233445 -0.97237 0 -0.233445 -0.996917 0 -0.0784587 -0.996917 0 -0.0784587 -0.996917 0 0.0784587 -0.996917 0 0.0784587 -0.97237 0 0.233445 -0.97237 0 0.233445 -0.92388 0 0.382683 -0.92388 0 0.382683 -0.85264 0 0.522498 -0.85264 0 0.522498 -0.760406 0 0.649449 -0.760406 0 0.649449 -0.649449 0 0.760406 -0.649449 0 0.760406 -0.522498 0 0.85264 -0.522498 0 0.85264 -0.382683 0 0.92388 -0.382683 0 0.92388 -0.233445 0 0.97237 -0.233445 0 0.97237 -0.0784587 0 0.996917 -0.0784587 0 0.996917 0.479248 0.001916 -0.877677 0.581722 -0.00176478 -0.813386 0.599275 0.0028092 -0.800538 0.684347 -0.00256922 -0.729152 0.707102 0.00352392 -0.707102 0.774908 -0.00319473 -0.632065 0.800535 0.00406002 -0.599272 0.85181 -0.0036413 -0.523838 0.960561 -0.00895306 -0.277924 0.977105 0.00921972 -0.212557 0.990061 -0.00897503 -0.140351 0.99741 0.00923337 -0.0713366 0.99996 -0.00898243 0 0.99741 0.00923337 0.0713366 0.990061 -0.00897503 0.140351 0.977105 0.00921973 0.212557 0.87767 0.00460757 0.479244 0.842669 -0.00471137 0.538411 0.800533 0.00461467 0.599271 0.756466 -0.00471681 0.654016 0.707099 0.00461773 0.707099 0.654531 -0.00471767 0.75602 0.599271 0.00461673 0.800533 0.538984 -0.00471417 0.842303 0.479244 0.00461128 0.87767 0.412228 -0.00470669 0.911069 0.34946 0.00460151 0.93694 0.960561 -0.00895306 0.277924 0.93691 0.0091918 0.349449 0.916121 -0.00614985 0.400855 0.911359 0 0.411612 0.276903 0 0.960898 0.265635 -0.00611693 0.964054 0.212557 0.00917471 0.977106 0.155664 -0.00458865 0.987799 0.93691 0.0091918 -0.349449 0.924822 0 -0.380399 0.913697 -0.00390908 -0.406377 0.87767 0.00441731 -0.479245 0.0721083 0 -0.997397 0.0713396 -0.000196531 -0.997452 0.214821 0.000198275 -0.976653 0.212566 -0.000396706 -0.977147 0.283176 0 -0.959068 0.347696 0.000379368 -0.937607 0.349464 0.000843648 -0.93695 0.46884 -0.000782221 -0.883283 0.0713396 0 0.997452 0.0520755 0.00998032 0.998593 -0.983246 -0.00337642 -0.182254 -0.995045 0.00159381 -0.099414 -0.34946 0.00451216 0.93694 -0.403254 -0.00413824 0.915079 -0.479245 0.00439083 0.87767 -0.525115 -0.00399427 0.851022 -0.599272 0.00422384 0.800534 -0.637022 -0.00380468 0.770836 -0.707101 0.00401143 0.707101 -0.736858 -0.0035694 0.676039 -0.800536 0.00375323 0.599273 -0.822726 -0.00328836 0.568429 -0.877674 0.00344957 0.479246 -0.893001 -0.00296179 0.450045 -0.936945 0.00310024 0.349462 -0.946351 -0.00258944 0.323131 -0.977143 0.00270536 0.212565 -0.981764 -0.00217198 0.190091 -0.977142 0.00299407 -0.212565 -0.946106 -0.00309153 -0.323843 -0.936946 0.00269688 -0.349463 -0.888693 -0.00278187 -0.458494 -0.877676 0.00237478 -0.479248 -0.812238 -0.00244713 -0.583322 -0.80054 0.00202744 -0.599276 -0.718378 -0.00208779 -0.69565 -0.707106 0.00165537 -0.707106 -0.609126 -0.00170324 -0.793072 -0.599277 0.00125852 -0.800541 -0.486821 -0.00129363 -0.873501 -0.479249 0.000836669 -0.877679 -0.155664 -0.00458865 0.987799 -0.212557 0.00917471 0.977106 -0.263267 -0.00542993 0.964708 -0.273752 0 0.9618 -0.354084 -0.00085918 -0.935213 -0.349464 0.000389869 -0.93695 -0.283176 0 -0.959068 -0.997442 0.00461099 -0.0713388 -0.997617 0.00420729 -0.0688632 -0.999792 -0.000289711 -0.0204148 -0.999606 0.000307299 0.0280787 -0.996998 0.00518304 0.0772591 -0.992201 0.0139551 0.123861 -0.99745 0.00226444 0.0713394 -0.0713377 0.00728569 0.997426 -0.0520781 0 0.998643 -0.214821 -0.000384165 -0.976653 -0.212566 0.000192005 -0.977147 -0.0721083 -0.000194438 -0.997397 -0.0713396 0 -0.997452 -0.175234 -0.578451 -0.796673 -0.109228 -0.632393 -0.766908 -0.0296286 -0.563239 -0.825762 0.177285 -0.564741 -0.806001 0 -0.504909 -0.863172 -0.056878 -0.614668 -0.786732 0.0415403 -0.615133 -0.787328 0.0580632 -0.592974 -0.803126 0.12541 -0.630172 -0.766261 0 1 0 0 1 0 0 1 0 0 1 0 0 1 0 0 1 0 0 1 0 0 1 0 0 1 0 0 1 0 1 0 0 1 0 0 1 0 0 0 1 0 0 1 0 0 1 0 0 1 0 0 1 0 0 1 0 0 1 0 0 1 0 0 1 0 0 1 0 0 0 1 0 0 1 0 0 1 0 1 0 0 1 0 0 1 0 0 1 0 0 1 0 0 1 0 0 0 -1 0 0 -1 0 0 -1 0 1 0 0 1 0 0 1 0 0 1 0 0 1 0 0 1 0 0 1 0 0 1 0 0 1 0 -1 0 0 -1 0 0 -1 0 0 -1 0 0 -1 0 0 -1 0 0 -1 0 0 -1 0 0 -1 0 0 -1 0 0 -1 0 0 -1 0 0 -1 0 0 -1 0 0 -1 0 0 -1 0 0 -1 0 0 -1 0 0 -1 0 0 -1 0 0 -1 0 0 -0.583557 0.564732 -0.583557 0 1 0 0 1 0 0 1 0 0 1 0 0 1 0 0 1 0 0 1 0 0 1 0 0 1 0 0 1 0 0.997452 -0.0713396 0 0.997452 -0.0713396 0 0.977147 -0.212565 0 0.977147 -0.212565 0 0.93695 -0.349464 0 0.93695 -0.349464 0 0.877679 -0.479249 0 0.877679 -0.479249 0 0.800541 -0.599277 0 0.800541 -0.599277 0 0.707107 -0.707107 0 0.707107 -0.707107 0 0.599277 -0.800541 0 0.599277 -0.800541 0 0.479249 -0.877679 0 0.479249 -0.877679 0 0.349464 -0.93695 0 0.349464 -0.93695 0 0.212565 -0.977147 0 0.212565 -0.977147 0 0.0713396 -0.997452 0 0.0713396 -0.997452 0 -0.0713396 -0.997452 0 -0.0713396 -0.997452 0 -0.212565 -0.977147 0 -0.212565 -0.977147 0 -0.349464 -0.93695 0 -0.349464 -0.93695 0 -0.479249 -0.877679 0 -0.479249 -0.877679 0 -0.599277 -0.800541 0 -0.599277 -0.800541 0 -0.707107 -0.707107 0 -0.707107 -0.707107 0 -0.800541 -0.599277 0 -0.800541 -0.599277 0 -0.877679 -0.479249 0 -0.877679 -0.479249 0 -0.93695 -0.349464 0 -0.93695 -0.349464 0 -0.977147 -0.212565 0 -0.977147 -0.212565 0 -0.997452 -0.0713396 0 -0.997452 -0.0713396 0 0 0 -1 0 0 -1 0 0 -1 0 0 -1 0 0 -1 0 0 -1 0 0 -1 0 0 -1 0 0 -1 0 0 -1 0 0 -1 0 0 -1 0 0 -1 0 0 -1 0 0 -1 0 0 -1 0 0 -1 0 0 -1 0 0 -1 0 0 -1 0 0 -1 0 0 -1 0 0 -1 0 0 -1 0 0 -1 0 0 -1 0 0 -1 0 -0.995185 -0.098016 0 -0.95694 -0.290285 0 -0.95694 -0.290285 0 -0.881921 -0.471398 0 -0.881921 -0.471398 0 -0.77301 -0.634393 0 -0.77301 -0.634393 0 -0.995185 -0.098016 0 -0.995185 0.098016 0 -0.995185 0.098016 0 -0.95694 0.290285 0 -0.95694 0.290285 0 -0.881921 0.471398 0 -0.881921 0.471398 0 -0.77301 0.634393 0 -0.77301 0.634393 0 0 -1 0 0 -1 0 0 -1 0 0 -1 0 0 -1 0 0 -1 0 0 -1 0 0 -1 0 0 -1 0 0 -1 0 0 -1 0 0 -1 0 0 -1 0 0 -1 0 0 -1 0 0 -1 0 0 -1 0 0 -1 0 0 -1 0 0 -1 0 0 -1 0 0 -1 0 0 -1 0 0 -1 0 0 -1 0 0 -1 0 0 -1 0 0 -1 0 0 -1 0 0 -1 0 0 -1 0 0 -1 0 0 -1 0 0 -1 0 0 -1 0 0 -1 0 0 -1 0 0 -1 0 0 -1 0 0 -1 1 0 0 1 0 0 1 0 0 1 0 0 1 0 0 1 0 0 1 0 0 1 0 0 1 0 0 1 0 0 1 0 0 1 0 0 0 -1 0 0 -1 0 0 -1 0 0 -1 0 0 -1 0 0 -1 0 0 -1 0 0 -1 0 0 -1 0 0 -1 0 0 -1 0 0 -1 0 0 -1 0 0 -1 0 0 -1 0 0 -1 0 0 -1 0 0 -1 0 0 -1 0 0 -1 0 0 -1 0 0 -1 0 0 -1 0 0 -1 0 0 -1 0 0 -1 0 0 -1 0 0 -1 0 0 -1 0 0 -1 0 0 -1 0 0 -1 0 0 -1 0 0 -1 0 0 -1 0 0 -1 0 0 -1 0 0 -1 0 0 -1 0 0 -1 0 0 -1 0 0 -1 0 0 -1 0 0 -1 0 0 -1 0 1 0 0 1 0 0 -0.5 0 0.866025 -0.5 0 0.866025 0.5 0 0.866025 0.5 0 0.866025 -0.5 0 0.866025 -0.5 0 0.866025 0.5 0 0.866025 0.5 0 0.866025 0.995185 0 -0.0980174 0.956941 0 -0.290284 0.956941 0 -0.290284 0.881921 0 -0.471397 0.881921 0 -0.471397 0.77301 0 -0.634394 0.77301 0 -0.634394 0.634394 0 -0.77301 0.634394 0 -0.77301 0.471397 0 -0.881921 0.471397 0 -0.881921 0.290284 0 -0.956941 0.290284 0 -0.956941 0.0980174 0 -0.995185 0.0980174 0 -0.995185 0.995185 0 -0.0980174 0.995185 0 0.0980174 0.995185 0 0.0980174 0.956941 0 0.290284 0.956941 0 0.290284 0.881921 0 0.471397 0.881921 0 0.471397 0.77301 0 0.634394 0.77301 0 0.634394 0.634394 0 0.77301 0.634394 0 0.77301 0.471397 0 0.881921 0.471397 0 0.881921 0.290284 0 0.956941 0.290284 0 0.956941 0.0980174 0 0.995185 0.0980174 0 0.995185 -0.995185 0 0.0980174 -0.956941 0 0.290284 -0.956941 0 0.290284 -0.881921 0 0.471397 -0.881921 0 0.471397 -0.77301 0 0.634394 -0.77301 0 0.634394 -0.634394 0 0.77301 -0.634394 0 0.77301 -0.471397 0 0.881921 -0.471397 0 0.881921 -0.290284 0 0.956941 -0.290284 0 0.956941 -0.0980174 0 0.995185 -0.0980174 0 0.995185 -0.995185 0 0.0980174 -0.995185 0 -0.0980174 -0.995185 0 -0.0980174 -0.956941 0 -0.290284 -0.956941 0 -0.290284 -0.881921 0 -0.471397 -0.881921 0 -0.471397 -0.77301 0 -0.634394 -0.77301 0 -0.634394 -0.634394 0 -0.77301 -0.634394 0 -0.77301 -0.471397 0 -0.881921 -0.471397 0 -0.881921 -0.290284 0 -0.956941 -0.290284 0 -0.956941 -0.0980174 0 -0.995185 -0.0980174 0 -0.995185 0 -1 0 0 -1 0 0 -1 0 0 -1 0 0 -1 0 0 -1 0 0 -1 0 0 -1 0 0 -1 0 0 -1 0 0 -1 0 0 -1 0 0 -1 0 0 -1 0 0 -1 0 0 -1 0 0 -1 0 0 -1 0 0 -1 0 0 -1 0 0 -1 0 0 -1 0 0 -1 0 0 -1 0 0 -1 0 0 -1 0 0 -1 0 0 -1 0 0 -1 0 0 -1 0 0.999474 7.95919e-05 0.0324338 0.999524 -0.000310244 0.0308523 0.999802 0.000360259 0.0198959 0.999927 -0.000938117 0.0120794 0.999983 0 0.00585673 0.999931 0 -0.0117807 0.999963 0.00107211 -0.00848333 0.999597 -0.000698891 -0.0283948 0.99972 0.000846173 -0.0236678 0.999375 -0.000200015 -0.035343 -0.939062 -0.131545 -0.317584 0.912716 -0.225871 -0.340487 -0.930805 0.139874 -0.337694 0.9771 -0.00354359 -0.212753 0.983441 0.11512 -0.13997 -0.982476 0.172203 -0.0713255 -0.999687 -0.023102 -0.00956868 0.6939 -0.617553 -0.370311 -0.877816 0.183301 0.442539 0.967094 0.203543 0.152639 0.968742 -0.0390146 0.244985 -0.745393 0.246678 0.619306 0.9719 -0.160332 0.172348 -0.982573 -0.171728 0.0711284 -0.998449 0.0514404 0.0213063 -0.953054 -0.115875 0.279753 0 0.382676 -0.923883 0 0.923886 -0.382667 0 0.923886 -0.382667 0 0.382676 -0.923883 0 -0.382676 -0.923883 0 -0.382676 -0.923883 0 -0.923886 -0.382667 0 -0.923886 -0.382667 0 -0.382676 0.923883 0 -0.923886 0.382667 0 -0.923886 0.382667 0 -0.382676 0.923883 0 0.382676 0.923883 0 0.382676 0.923883 0 0.923886 0.382667 0 0.923886 0.382667 0 0 1 0 0 1 0 0 1 0 0 1 -1 0 0 -1 0 0 -1 0 0 -1 0 0 -1 0 0 -1 0 0 -1 0 0 -1 0 0 -1 0 0 -1 0 0 -1 0 0 -1 0 0 -1 0 0 -1 0 0 -1 0 0 -1 0 0 -0.0407727 0.341734 -0.938912 0.0467404 0.132642 -0.990061 -0.0374188 0 -0.9993 0.042186 -0.242809 -0.969156 -0.0316598 -0.341852 -0.93922 0.0352295 -0.584043 -0.810958 -0.0234968 -0.642609 -0.765834 0.025881 -0.842699 -0.537762 0.0488971 0.489197 -0.870802 -0.0417223 0.642226 -0.765379 0.00930655 0.721947 -0.691885 0 0.724053 -0.689744 0 0.984807 -0.173653 0.00378687 0.984015 -0.178044 -0.00369829 0.866023 -0.499991 -0.0176342 0.874343 -0.484989 0 -0.98213 -0.188203 0.015315 -0.984692 -0.173629 -0.0129439 -0.865954 -0.499957 0 0 1 0 0 1 0 0 1 0 0 1 0 0 1 0 0 1 0 0 1 0 0 1 0 0 1 0 0 1 0 0 1 0 0 1 0 0 1 0 0 1 0 0 1 0 0 1 0 0 1 0 0 1 0 0 1 0 0 1 0 0 1 0 0 1 0 0 1 0 0 1 0 0 1 0 0 1 0 0 1 0 0 1 0 0 1 0 0 1 0 0 1 0 0 1 0 0 1 0 0 1 0.0258799 -0.8427 0.537761 -0.0234984 -0.64261 0.765833 0.0352295 -0.584043 0.810958 -0.0316603 -0.34185 0.939221 0.0421852 -0.242807 0.969157 -0.0374188 0 0.9993 0.0467388 0.13264 0.990062 -0.0407741 0.341732 0.938913 -0.0131457 0.865953 0.499952 0 0.72139 0.69253 0.00757187 0.719407 0.694548 -0.0417231 0.642227 0.765378 0.0488972 0.489197 0.870801 0 -0.984808 0.173649 0.0141314 -0.982032 0.188184 -0.0129427 -0.865953 0.499958 0 0.989298 0.145911 -0.0196469 0.984617 0.173619 0.0206947 0.888916 0.457603 -1 0 0 -1 0 0 -1 0 0 -1 0 0 -1 0 0 -1 0 0 -1 0 0 -1 0 0 -1 0 0 -1 0 0 -1 0 0 -1 0 0 -1 0 0 -1 0 0 0.0871553 0.996195 0 0.0871553 0.996195 0 0.258819 0.965926 0 0.258819 0.965926 0 0.422619 0.906308 0 0.422619 0.906308 0 0.573577 0.819152 0 0.573577 0.819152 0 0.707107 0.707107 0 0.707107 0.707107 0 0.819152 0.573577 0 0.819152 0.573577 0 0.906308 0.422619 0 0.906308 0.422619 0 0.965926 0.258819 0 0.965926 0.258819 0 0.996195 0.0871553 0 0.996195 0.0871553 0 0.996195 -0.0871553 0 0.996195 -0.0871553 0 0.965926 -0.258819 0 0.965926 -0.258819 0 0.906308 -0.422619 0 0.906308 -0.422619 0 0.819152 -0.573577 0 0.819152 -0.573577 0 0.707107 -0.707107 0 0.707107 -0.707107 0 0.573577 -0.819152 0 0.573577 -0.819152 0 0.422619 -0.906308 0 0.422619 -0.906308 0 0.258819 -0.965926 0 0.258819 -0.965926 0 0.0871553 -0.996195 0 0.0871553 -0.996195 0 -0.0871553 -0.996195 0 -0.0871553 -0.996195 0 -0.258819 -0.965926 0 -0.258819 -0.965926 0 -0.422619 -0.906308 0 -0.422619 -0.906308 0 -0.573577 -0.819152 0 -0.573577 -0.819152 0 -0.707107 -0.707107 0 -0.707107 -0.707107 0 -0.819152 -0.573577 0 -0.819152 -0.573577 0 -0.906308 -0.422619 0 -0.906308 -0.422619 0 -0.965926 -0.258819 0 -0.965926 -0.258819 0 -0.996195 -0.0871553 0 -0.996195 -0.0871553 0 -0.996195 0.0871553 0 -0.996195 0.0871553 0 -0.965926 0.258819 0 -0.965926 0.258819 0 -0.906308 0.422619 0 -0.906308 0.422619 0 -0.819152 0.573577 0 -0.819152 0.573577 0 -0.707107 0.707107 0 -0.707107 0.707107 0 -0.573577 0.819152 0 -0.573577 0.819152 0 -0.422619 0.906308 0 -0.422619 0.906308 0 -0.258819 0.965926 0 -0.258819 0.965926 0 -0.0871553 0.996195 0 -0.0871553 0.996195 0 -0.583557 0.564732 0.583557 -0.0713396 -0.997452 0 -0.0713396 -0.997452 0 -0.212565 -0.977147 0 -0.212565 -0.977147 0 -0.349464 -0.93695 0 -0.349464 -0.93695 0 -0.479249 -0.877679 0 -0.479249 -0.877679 0 -0.599277 -0.800541 0 -0.599277 -0.800541 0 -0.707107 -0.707107 0 -0.707107 -0.707107 0 -0.800541 -0.599277 0 -0.800541 -0.599277 0 -0.877679 -0.479249 0 -0.877679 -0.479249 0 -0.93695 -0.349464 0 -0.93695 -0.349464 0 -0.977147 -0.212565 0 -0.977147 -0.212565 0 -0.997452 -0.0713396 0 -0.997452 -0.0713396 0 0 1 0 0 1 0 0 1 0 0 1 0 0 1 0 0 1 0 0 1 0 0 1 0 0 1 0 0 1 0 0 1 0 0 1 0 0 0 1 0 0 1 0 0 1 0 0 1 0 0 1 0 0 1 0 0 1 0 0 1 0 0 1 0 0 1 0 0 1 0 0 1 0 0 1 0 0 1 0 0 1 0 0 1 0 0 1 0 0 1 0 0 1 0 0 1 0 0 1 0 0 1 0 0 1 0 0 1 0 0 1 0 0 1 0 0 1 0 -0.707107 0.707107 0 -0.707107 0.707107 0 -0.707107 -0.707107 0 -0.707107 -0.707107 0.997452 -0.0713396 0 0.997452 -0.0713396 0 0.977147 -0.212565 0 0.977147 -0.212565 0 0.93695 -0.349464 0 0.93695 -0.349464 0 0.877679 -0.479249 0 0.877679 -0.479249 0 0.800541 -0.599277 0 0.800541 -0.599277 0 0.707107 -0.707107 0 0.707107 -0.707107 0 0.599277 -0.800541 0 0.599277 -0.800541 0 0.479249 -0.877679 0 0.479249 -0.877679 0 0.349464 -0.93695 0 0.349464 -0.93695 0 0.212565 -0.977147 0 0.212565 -0.977147 0 0.0713396 -0.997452 0 0.0713396 -0.997452 0 0 0 1 0 0 1 0 0 1 0 0 1 0 0 1 0 0 1 0 0 1 0 0 1 0 0 1 0 0 1 0 0 1 0 0 1 0 0 1 0 0 1 0 0 1 0 0 1 0 0 1 0 0 1 0 0 1 0 0 1 0 0 1 0 0 1 0 0 1 0 0 1 0 0 1 0 0 1 0 0 1 0 0 1 0 0 1 0 0 1 0 0 1 0 0 1 0 0 1 0 0 1 0 0 1 0 0 1 0 0 1 0 0 1 0 0 1 0 0 1 0 0 1 0 0 1 0 0 1 0 0 1 0 0 1 0 0 1 0 0 1 0 0 1 0 0 1 0 0 1 0 0 1 0 0 1 0 0 1 0 0 1 0 0 1 0 0 1 0 0 1 0 0 1 0 0 1 0 0 1 0 0 1 0 0 1 0 0 1 0 0 1 0 0 1 0.583557 0.564732 0.583557 0 -1 0 0 -1 0 0.0747304 0.997204 0 0.0747304 0.997204 0 0.222522 0.974928 0 0.222522 0.974928 0 0.365341 0.930874 0 0.365341 0.930874 0 0.5 0.866025 0 0.5 0.866025 0 0.62349 0.781832 0 0.62349 0.781832 0 0.733052 0.680173 0 0.733052 0.680173 0 0.826239 0.56332 0 0.826239 0.56332 0 0.900969 0.433884 0 0.900969 0.433884 0 0.955573 0.294755 0 0.955573 0.294755 0 0.988831 0.149042 0 0.988831 0.149042 0 1 0 0 1 0 0 0.988831 -0.149042 0 0.988831 -0.149042 0 0.955573 -0.294755 0 0.955573 -0.294755 0 0.900969 -0.433884 0 0.900969 -0.433884 0 0.826239 -0.56332 0 0.826239 -0.56332 0 0.733052 -0.680173 0 0.733052 -0.680173 0 0.62349 -0.781832 0 0.62349 -0.781832 0 0.5 -0.866025 0 0.5 -0.866025 0 0.365341 -0.930874 0 0.365341 -0.930874 0 0.222522 -0.974928 0 0.222522 -0.974928 0 0.0747304 -0.997204 0 0.0747304 -0.997204 0 -0.0747304 -0.997204 0 -0.0747304 -0.997204 0 -0.222522 -0.974928 0 -0.222522 -0.974928 0 -0.365341 -0.930874 0 -0.365341 -0.930874 0 -0.5 -0.866025 0 -0.5 -0.866025 0 -0.62349 -0.781832 0 -0.62349 -0.781832 0 -0.733052 -0.680173 0 -0.733052 -0.680173 0 -0.826239 -0.56332 0 -0.826239 -0.56332 0 -0.900969 -0.433884 0 -0.900969 -0.433884 0 -0.955573 -0.294755 0 -0.955573 -0.294755 0 -0.988831 -0.149042 0 -0.988831 -0.149042 0 -1 0 0 -1 0 0 -0.988831 0.149042 0 -0.988831 0.149042 0 -0.955573 0.294755 0 -0.955573 0.294755 0 -0.900969 0.433884 0 -0.900969 0.433884 0 -0.826239 0.56332 0 -0.826239 0.56332 0 -0.733052 0.680173 0 -0.733052 0.680173 0 -0.62349 0.781832 0 -0.62349 0.781832 0 -0.5 0.866025 0 -0.5 0.866025 0 -0.365341 0.930874 0 -0.365341 0.930874 0 -0.222522 0.974928 0 -0.222522 0.974928 0 -0.0747304 0.997204 0 -0.0747304 0.997204 0 1 0 0 1 0 0 1 0 0 1 0 0 1 0 0 1 0 0 1 0 0 1 0 0 1 0 0 1 0 0 1 0 0 1 0 0 1 0 0 1 0 0 1 0 0 1 0 0 1 0 0 1 0 0 1 0 0 0.583557 0.564732 -0.583557 0 0 -1 0 0 -1 0 0 -1 0 0 -1 0 0 -1 0 0 -1 0 0 -1 0 0 -1 0 0 -1 0 0 -1 0 0 -1 0 0 -1 0 0 -1 0 0 -1 0 0 -1 0 0 -1 0 0 -1 0 0 -1 0 0 -1 0 0 -1 0 0 -1 0 0 -1 0 0 -1 0 0 -1 0 0 -1 0 0 -1 0 0 -1 0 0 -1 0 0 -1 0 0 -1 0 0 -1 0 0 -1 0 0 -1 0 0 -1 0 0 -1 0 0 -1 0 0 -1 0 0 -1 0 0 -1 0 0 -1 0 0 -1 0 0 -1 0 0 -1 0 0 -1 0 0 -1 0 0 -1 0 0 -1 0 0 -1 0 0 -1 0 0 -1 0 0 -1 0 0 -1 0 0 -1 0 0 -1 0 0 -1 0 0 -1 0 0 -1 0 0 -1 0 0 -1 0 0 -1 0 0 -1 0 0 -1 0 0 -1 0 0 -1 0 0 -1 0 0 -1 0 0 -1 0 0 -1 0 0 -1 0 0 -1 0 0 -1 0 0 -1 0 0 -1 0 0 -1 0 0 -1 0 0 -1 0 0 -1 0 0 -1 0 0 -1 0 1 0 0 1 0 0 1 0 0 1 0 0 1 0 0 1 0 0 1 0 0 1 0 0 1 0 0 1 0 0 1 0 0 1 0 0 1 0 0 1 0 0 1 0 0 1 0 0 1 0 0 1 0 0 1 0 0 1 0 0 1 0 0 1 0 0 1 0 0 1 0 0 1 0 0 1 0 0 1 0 0 1 0 0 1 0 0 1 0 0 1 0 0 1 0 0 1 0 0 1 0 0 1 0 0 1 0 0 1 0 0 1 0 0 1 0 0 1 0 0 1 0 0 1 0 0 1 0 0 1 0 0 1 0 0 1 0 0 1 0 0 1 0 0 1 0 0 1 0 0 1 0 0 1 0 0 1 0 0 1 0 0 1 0 0 1 0 0 1 0 0 1 0 0 1 0 0 1 0 0 1 0 0 1 0 0 1 0 0 1 0 0 1 0 0 1 0 0 1 0 0 1 0 0 1 0 0 1 0 0 1 0 0 1 0 0 1 0 0 1 0 0 1 0 0 1 0 0 1 0 0 1 0 0 1 0 0 1 0 0 1 0 0 1 0 0 1 0 0 1 0 0 1 0 0 1 0 0 1 0 0 1 0 0 1 0 0 1 0 0 1 0 0 1 0 0 1 0 0 1 0 0 1 0 0 1 0 0 1 0 0 1 0 0 1 0 0 1 0 0 1 0 0 1 0 0 1 0 0 1 0 0 1 0 0 1 0 0 1 0 0 1 0 0 1 0 0 1 0 0 1 0 0 1 0 0 1 0 0 1 0 0 1 0 0 1 0 0 1 0 0 1 0 0 1 0 0 1 0 0 1 0 0 1 0 0.0784587 0 0.996917 0.0784587 0 0.996917 0.233445 0 0.97237 0.233445 0 0.97237 0.382683 0 0.92388 0.382683 0 0.92388 0.522498 0 0.85264 0.522498 0 0.85264 0.649449 0 0.760406 0.649449 0 0.760406 0.760406 0 0.649449 0.760406 0 0.649449 0.85264 0 0.522498 0.85264 0 0.522498 0.92388 0 0.382683 0.92388 0 0.382683 0.97237 0 0.233445 0.97237 0 0.233445 0.996917 0 0.0784587 0.996917 0 0.0784587 0.996917 0 -0.0784587 0.996917 0 -0.0784587 0.97237 0 -0.233445 0.97237 0 -0.233445 0.92388 0 -0.382683 0.92388 0 -0.382683 0.85264 0 -0.522498 0.85264 0 -0.522498 0.760406 0 -0.649449 0.760406 0 -0.649449 0.649449 0 -0.760406 0.649449 0 -0.760406 0.522498 0 -0.85264 0.522498 0 -0.85264 0.382683 0 -0.92388 0.382683 0 -0.92388 0.233445 0 -0.97237 0.233445 0 -0.97237 0.0784587 0 -0.996917 0.0784587 0 -0.996917</float_array>
                    <technique_common>
                        <accessor count="1234" source="#shape0-lib-normals-array" stride="3">
                            <param name="X" type="float"/>
                            <param name="Y" type="float"/>
                            <param name="Z" type="float"/>
                        </accessor>
                    </technique_common>
                </source>
                <vertices id="shape0-lib-vertices">
                    <input semantic="POSITION" source="#shape0-lib-positions"/>
                </vertices>
                <triangles count="1234">
                    <input offset="0" semantic="VERTEX" source="#shape0-lib-vertices"/>
                    <input offset="1" semantic="NORMAL" source="#shape0-lib-normals"/>
                    <p>0 0 1 0 2 0 2 1 1 1 3 1 2 2 3 2 4 2 4 3 3 3 5 3 4 4 5 4 6 4 6 5 5 5 7 5 6 6 7 6 8 6 8 7 7 7 9 7 8 8 9 8 10 8 10 9 9 9 11 9 10 10 11 10 12 10 12 11 11 11 13 11 12 12 13 12 14 12 14 13 13 13 15 13 14 14 15 14 16 14 16 15 15 15 17 15 16 16 17 16 18 16 18 17 17 17 19 17 18 18 19 18 20 18 20 19 19 19 21 19 20 20 21 20 22 20 22 21 21 21 23 21 22 22 23 22 24 22 24 23 23 23 25 23 24 24 25 24 26 24 26 25 25 25 27 25 26 26 27 26 28 26 28 27 27 27 29 27 28 28 29 28 30 28 30 29 29 29 31 29 30 30 31 30 32 30 32 31 31 31 33 31 32 32 33 32 34 32 34 33 33 33 35 33 34 34 35 34 36 34 36 35 35 35 37 35 36 36 37 36 38 36 38 37 37 37 39 37 38 38 39 38 40 38 40 39 39 39 41 39 42 40 43 40 44 40 45 41 44 41 43 41 43 42 46 42 45 42 47 43 45 43 46 43 46 44 48 44 47 44 49 45 47 45 48 45 48 46 50 46 49 46 51 47 49 47 50 47 52 48 53 48 54 48 53 49 55 49 54 49 56 50 54 50 55 50 55 51 57 51 56 51 56 52 57 52 58 52 58 53 57 53 59 53 58 54 59 54 60 54 60 55 59 55 61 55 62 56 63 56 64 56 62 57 64 57 65 57 65 58 64 58 66 58 65 59 66 59 67 59 67 60 66 60 68 60 67 61 68 61 69 61 68 62 70 62 69 62 71 63 69 63 70 63 70 64 72 64 71 64 73 65 71 65 72 65 72 66 74 66 73 66 75 67 60 67 61 67 75 68 61 68 63 68 75 69 63 69 62 69 75 70 62 70 76 70 77 71 78 71 73 71 77 72 73 72 74 72 77 73 74 73 79 73 77 74 79 74 80 74 81 75 53 75 52 75 81 76 52 76 82 76 81 77 82 77 51 77 81 78 51 78 50 78 83 79 84 79 85 79 85 80 84 80 86 80 85 81 86 81 87 81 87 82 86 82 88 82 87 83 88 83 89 83 89 84 88 84 90 84 90 85 88 85 42 85 90 86 42 86 44 86 91 87 92 87 79 87 79 88 92 88 80 88 93 89 94 89 95 89 93 90 96 90 94 90 97 91 98 91 99 91 97 92 99 92 100 92 100 93 99 93 101 93 100 94 101 94 102 94 102 95 101 95 103 95 102 96 103 96 104 96 104 97 103 97 105 97 104 98 105 98 106 98 106 99 105 99 107 99 106 100 107 100 108 100 108 101 107 101 109 101 108 102 109 102 110 102 110 103 109 103 111 103 110 104 111 104 112 104 112 105 111 105 113 105 114 106 112 106 113 106 94 107 115 107 95 107 116 108 95 108 115 108 115 109 117 109 116 109 118 110 116 110 117 110 117 111 119 111 118 111 120 112 118 112 119 112 119 113 121 113 120 113 122 114 120 114 121 114 121 115 123 115 122 115 124 116 122 116 123 116 123 117 125 117 124 117 126 118 124 118 125 118 125 119 127 119 126 119 128 120 129 120 130 120 128 121 130 121 98 121 128 122 98 122 97 122 128 123 97 123 131 123 132 124 126 124 127 124 132 125 127 125 133 125 132 126 133 126 134 126 135 127 94 127 96 127 135 128 96 128 136 128 135 129 136 129 137 129 135 130 137 130 138 130 135 131 138 131 139 131 135 132 139 132 114 132 135 133 114 133 113 133 130 134 129 134 91 134 91 135 129 135 92 135 134 136 133 136 140 136 140 137 133 137 141 137 140 138 141 138 83 138 83 139 141 139 84 139 134 140 140 140 142 140 142 141 140 141 143 141 144 142 143 142 140 142 87 143 145 143 85 143 144 144 140 144 146 144 146 145 140 145 83 145 146 146 83 146 147 146 147 147 83 147 85 147 147 148 85 148 145 148 148 149 129 149 128 149 149 150 77 150 80 150 149 151 80 151 92 151 149 152 92 152 129 152 149 153 129 153 148 153 149 154 148 154 150 154 149 155 150 155 151 155 149 156 151 156 152 156 153 157 150 157 154 157 154 158 150 158 148 158 78 159 77 159 155 159 155 160 77 160 149 160 155 161 149 161 156 161 157 162 158 162 76 162 157 163 76 163 62 163 157 164 62 164 65 164 157 165 65 165 67 165 159 166 157 166 67 166 159 167 67 167 69 167 159 168 69 168 71 168 159 169 71 169 73 169 159 170 73 170 78 170 159 171 78 171 155 171 160 172 161 172 158 172 158 173 161 173 75 173 158 174 75 174 76 174 161 175 60 175 75 175 161 176 58 176 60 176 162 177 52 177 54 177 162 178 54 178 56 178 162 179 56 179 58 179 162 180 58 180 161 180 162 181 163 181 52 181 52 182 163 182 164 182 52 183 164 183 82 183 51 184 82 184 164 184 165 185 44 185 45 185 165 186 45 186 47 186 165 187 47 187 49 187 165 188 49 188 51 188 165 189 51 189 164 189 166 190 89 190 90 190 166 191 90 191 44 191 166 192 44 192 165 192 167 193 168 193 169 193 168 194 170 194 169 194 171 195 172 195 173 195 174 196 175 196 173 196 174 197 173 197 172 197 174 198 172 198 176 198 174 199 176 199 177 199 174 200 177 200 178 200 174 201 178 201 179 201 174 202 179 202 180 202 174 203 180 203 181 203 176 204 182 204 183 204 176 205 183 205 184 205 176 206 184 206 169 206 176 207 169 207 170 207 176 208 170 208 185 208 176 209 185 209 186 209 176 210 186 210 187 210 176 211 187 211 188 211 176 212 188 212 189 212 176 213 189 213 177 213 175 214 174 214 190 214 190 215 174 215 122 215 190 216 122 216 124 216 190 217 124 217 126 217 190 218 126 218 132 218 174 219 181 219 93 219 174 220 93 220 95 220 174 221 95 221 116 221 174 222 116 222 118 222 174 223 118 223 120 223 174 224 120 224 122 224 191 225 192 225 193 225 193 226 192 226 194 226 193 227 194 227 195 227 195 228 194 228 196 228 195 229 196 229 197 229 197 230 196 230 198 230 197 231 198 231 199 231 199 232 198 232 200 232 199 233 200 233 201 233 201 234 200 234 202 234 201 235 202 235 203 235 203 236 202 236 204 236 203 237 204 237 205 237 205 238 204 238 206 238 205 239 206 239 207 239 207 240 206 240 208 240 207 241 208 241 209 241 209 242 208 242 210 242 209 243 210 243 211 243 211 244 210 244 212 244 211 245 212 245 213 245 213 246 212 246 214 246 213 247 214 247 215 247 215 248 214 248 216 248 215 249 216 249 217 249 217 250 216 250 218 250 217 251 218 251 219 251 219 252 218 252 220 252 219 253 220 253 221 253 221 254 220 254 222 254 221 255 222 255 223 255 223 256 222 256 224 256 223 257 224 257 225 257 225 258 224 258 226 258 225 259 226 259 227 259 227 260 226 260 228 260 227 261 228 261 229 261 229 262 228 262 230 262 229 263 230 263 231 263 231 264 230 264 232 264 231 265 232 265 233 265 233 266 232 266 234 266 233 267 234 267 173 267 173 268 234 268 171 268 235 269 236 269 237 269 176 270 238 270 239 270 176 271 239 271 240 271 176 272 240 272 241 272 176 273 241 273 182 273 242 274 243 274 235 274 242 275 235 275 237 275 242 276 237 276 244 276 242 277 244 277 245 277 242 278 245 278 246 278 242 279 246 279 247 279 242 280 247 280 248 280 242 281 248 281 249 281 242 282 249 282 250 282 242 283 250 283 251 283 242 284 251 284 252 284 242 285 252 285 253 285 242 286 253 286 254 286 242 287 254 287 255 287 242 288 255 288 256 288 242 289 256 289 257 289 242 290 257 290 239 290 242 291 239 291 238 291 258 292 259 292 235 292 235 293 259 293 260 293 235 294 260 294 236 294 236 295 260 295 261 295 262 296 263 296 264 296 264 297 263 297 265 297 264 298 265 298 266 298 266 299 265 299 267 299 266 300 267 300 268 300 268 301 267 301 269 301 268 302 269 302 270 302 263 303 262 303 271 303 271 304 262 304 272 304 271 305 272 305 273 305 273 306 272 306 274 306 273 307 274 307 275 307 275 308 274 308 276 308 275 309 276 309 277 309 277 310 276 310 278 310 277 311 278 311 279 311 280 312 281 312 282 312 282 313 281 313 283 313 282 314 283 314 284 314 284 315 283 315 285 315 284 316 285 316 286 316 286 317 285 317 287 317 286 318 287 318 288 318 288 319 287 319 289 319 288 320 289 320 290 320 290 321 289 321 291 321 290 322 291 322 292 322 292 323 291 323 293 323 292 324 293 324 294 324 294 325 293 325 295 325 294 326 295 326 296 326 296 327 295 327 297 327 296 328 297 328 298 328 298 329 297 329 299 329 298 330 299 330 300 330 300 331 299 331 301 331 300 332 301 332 302 332 302 333 301 333 303 333 302 334 303 334 304 334 304 335 303 335 305 335 304 336 305 336 306 336 306 337 305 337 307 337 306 338 307 338 308 338 308 339 307 339 309 339 308 340 309 340 310 340 310 341 309 341 311 341 310 342 311 342 312 342 312 343 311 343 313 343 312 344 313 344 314 344 314 345 313 345 315 345 314 346 315 346 316 346 316 347 315 347 317 347 316 348 317 348 318 348 318 349 317 349 319 349 318 350 319 350 320 350 320 351 319 351 321 351 160 352 322 352 323 352 160 353 323 353 324 353 160 354 324 354 161 354 161 355 324 355 325 355 161 356 325 356 326 356 161 357 326 357 327 357 161 358 327 358 162 358 163 359 162 359 327 359 163 360 327 360 328 360 163 361 328 361 329 361 163 362 329 362 322 362 163 363 322 363 160 363 330 364 155 364 331 364 331 365 155 365 156 365 331 366 156 366 332 366 333 367 332 367 334 367 334 368 332 368 156 368 332 369 335 369 331 369 331 370 335 370 336 370 337 371 243 371 338 371 337 372 338 372 339 372 337 373 339 373 340 373 337 374 340 374 341 374 337 375 341 375 342 375 337 376 342 376 343 376 337 377 343 377 344 377 337 378 344 378 345 378 345 379 344 379 346 379 345 380 346 380 347 380 345 381 347 381 348 381 345 382 348 382 349 382 345 383 349 383 350 383 345 384 350 384 351 384 345 385 351 385 352 385 345 386 352 386 353 386 345 387 353 387 354 387 345 388 354 388 355 388 345 389 355 389 242 389 242 390 355 390 356 390 242 391 356 391 357 391 242 392 357 392 358 392 242 393 358 393 359 393 242 394 359 394 360 394 242 395 360 395 361 395 242 396 361 396 362 396 242 397 362 397 363 397 242 398 363 398 364 398 242 399 364 399 365 399 243 400 242 400 365 400 243 401 365 401 366 401 243 402 366 402 367 402 243 403 367 403 368 403 243 404 368 404 369 404 243 405 369 405 370 405 243 406 370 406 338 406 176 407 172 407 238 407 238 408 172 408 371 408 345 409 242 409 371 409 371 410 242 410 238 410 148 411 331 411 154 411 154 412 331 412 336 412 153 413 335 413 150 413 150 414 335 414 332 414 150 415 332 415 151 415 151 416 332 416 333 416 152 417 334 417 149 417 149 418 334 418 156 418 355 419 372 419 356 419 356 420 372 420 373 420 356 421 373 421 357 421 357 422 373 422 374 422 357 423 374 423 358 423 358 424 374 424 375 424 358 425 375 425 359 425 359 426 375 426 376 426 359 427 376 427 360 427 360 428 376 428 377 428 360 429 377 429 361 429 361 430 377 430 378 430 361 431 378 431 362 431 362 432 378 432 379 432 362 433 379 433 363 433 372 434 355 434 380 434 380 435 355 435 354 435 380 436 354 436 381 436 381 437 354 437 353 437 381 438 353 438 382 438 382 439 353 439 352 439 382 440 352 440 383 440 383 441 352 441 351 441 383 442 351 442 384 442 384 443 351 443 350 443 384 444 350 444 385 444 385 445 350 445 349 445 385 446 349 446 386 446 386 447 349 447 348 447 386 448 348 448 387 448 387 449 348 449 347 449 387 450 347 450 388 450 338 451 389 451 339 451 339 452 389 452 390 452 339 453 390 453 340 453 340 454 390 454 391 454 340 455 391 455 341 455 341 456 391 456 392 456 341 457 392 457 342 457 342 458 392 458 393 458 342 459 393 459 343 459 343 460 393 460 394 460 343 461 394 461 344 461 344 462 394 462 395 462 344 463 395 463 346 463 346 464 395 464 388 464 346 465 388 465 347 465 389 466 338 466 396 466 396 467 338 467 370 467 396 468 370 468 397 468 397 469 370 469 369 469 397 470 369 470 398 470 398 471 369 471 368 471 398 472 368 472 399 472 399 473 368 473 367 473 399 474 367 474 400 474 400 475 367 475 366 475 400 476 366 476 401 476 401 477 366 477 365 477 401 478 365 478 402 478 402 479 365 479 364 479 402 480 364 480 403 480 403 481 364 481 363 481 403 482 363 482 379 482 396 483 397 483 389 483 380 484 381 484 372 484 372 485 381 485 382 485 372 486 382 486 373 486 373 487 382 487 383 487 373 488 383 488 374 488 374 489 383 489 384 489 374 490 384 490 375 490 375 491 384 491 385 491 375 492 385 492 376 492 376 493 385 493 386 493 376 494 386 494 377 494 377 495 386 495 387 495 377 496 387 496 378 496 378 497 387 497 388 497 378 498 388 498 379 498 379 499 388 499 395 499 379 500 395 500 403 500 403 501 395 501 394 501 403 502 394 502 402 502 402 503 394 503 393 503 402 504 393 504 401 504 401 505 393 505 392 505 401 506 392 506 400 506 400 507 392 507 391 507 400 508 391 508 399 508 399 509 391 509 390 509 399 510 390 510 398 510 398 511 390 511 389 511 398 512 389 512 397 512 404 513 405 513 406 513 406 514 405 514 407 514 406 515 407 515 408 515 408 516 407 516 409 516 408 517 409 517 410 517 410 518 409 518 411 518 411 519 409 519 412 519 411 520 412 520 413 520 413 521 412 521 414 521 413 522 414 522 415 522 416 523 417 523 404 523 406 524 416 524 404 524 417 525 418 525 405 525 404 526 417 526 405 526 407 527 405 527 418 527 407 528 418 528 409 528 416 529 408 529 410 529 406 530 408 530 416 530 419 531 420 531 414 531 412 532 419 532 414 532 420 533 413 533 415 533 415 534 414 534 420 534 421 535 411 535 413 535 411 536 421 536 410 536 419 537 412 537 409 537 421 538 413 538 420 538 417 539 323 539 418 539 418 540 323 540 322 540 418 541 322 541 409 541 323 542 417 542 324 542 324 543 417 543 416 543 324 544 416 544 325 544 325 545 416 545 410 545 325 546 410 546 326 546 420 547 327 547 421 547 421 548 327 548 326 548 421 549 326 549 410 549 327 550 420 550 328 550 328 551 420 551 419 551 328 552 419 552 329 552 329 553 419 553 409 553 329 554 409 554 322 554 151 555 333 555 152 555 152 556 333 556 334 556 154 557 336 557 153 557 153 558 336 558 335 558 422 559 423 559 424 559 424 560 423 560 425 560 424 561 425 561 426 561 426 562 425 562 427 562 426 563 427 563 428 563 428 564 427 564 429 564 428 565 429 565 430 565 430 566 429 566 431 566 430 567 431 567 432 567 432 568 431 568 433 568 432 569 433 569 434 569 434 570 433 570 435 570 434 571 435 571 436 571 436 572 435 572 437 572 436 573 437 573 438 573 438 574 437 574 439 574 424 575 180 575 422 575 422 576 180 576 179 576 422 577 179 577 423 577 423 578 179 578 178 578 423 579 178 579 425 579 425 580 178 580 177 580 425 581 177 581 427 581 427 582 177 582 189 582 181 583 180 583 424 583 181 584 424 584 426 584 181 585 426 585 96 585 181 586 96 586 93 586 430 587 137 587 428 587 428 588 137 588 136 588 428 589 136 589 426 589 426 590 136 590 96 590 188 591 431 591 189 591 189 592 431 592 429 592 189 593 429 593 427 593 440 594 441 594 442 594 443 595 444 595 445 595 445 596 444 596 446 596 445 597 446 597 447 597 447 598 446 598 448 598 447 599 448 599 449 599 449 600 448 600 450 600 449 601 450 601 451 601 451 602 450 602 452 602 451 603 452 603 453 603 453 604 452 604 454 604 453 605 454 605 455 605 455 606 454 606 456 606 455 607 456 607 457 607 457 608 456 608 458 608 457 609 458 609 459 609 459 610 458 610 460 610 459 611 460 611 461 611 461 612 460 612 462 612 461 613 462 613 463 613 463 614 462 614 464 614 463 615 464 615 465 615 465 616 464 616 466 616 465 617 466 617 467 617 467 618 466 618 468 618 467 619 468 619 469 619 469 620 468 620 470 620 469 621 470 621 471 621 471 622 470 622 472 622 471 623 472 623 473 623 473 624 472 624 474 624 473 625 474 625 475 625 475 626 474 626 442 626 475 627 442 627 441 627 187 628 186 628 435 628 437 629 435 629 186 629 186 630 185 630 437 630 439 631 437 631 185 631 185 632 170 632 439 632 438 633 439 633 170 633 170 634 168 634 438 634 436 635 438 635 168 635 432 636 434 636 139 636 167 637 114 637 139 637 167 638 139 638 434 638 167 639 434 639 436 639 167 640 436 640 168 640 431 641 188 641 433 641 433 642 188 642 187 642 433 643 187 643 435 643 137 644 430 644 138 644 138 645 430 645 432 645 138 646 432 646 139 646 128 647 131 647 148 647 148 648 131 648 330 648 148 649 330 649 331 649 243 650 272 650 262 650 243 651 262 651 264 651 243 652 264 652 266 652 243 653 266 653 268 653 243 654 268 654 270 654 243 655 270 655 235 655 337 656 476 656 278 656 337 657 278 657 276 657 337 658 276 658 274 658 337 659 274 659 272 659 337 660 272 660 243 660 477 661 461 661 478 661 478 662 461 662 463 662 478 663 463 663 479 663 479 664 463 664 465 664 479 665 465 665 480 665 480 666 465 666 467 666 480 667 467 667 481 667 481 668 467 668 469 668 481 669 469 669 482 669 482 670 469 670 471 670 482 671 471 671 483 671 483 672 471 672 473 672 483 673 473 673 484 673 484 674 473 674 475 674 484 675 475 675 485 675 485 676 475 676 441 676 485 677 441 677 486 677 486 678 441 678 440 678 486 679 440 679 487 679 487 680 440 680 442 680 487 681 442 681 488 681 488 682 442 682 474 682 488 683 474 683 489 683 489 684 474 684 472 684 489 685 472 685 490 685 490 686 472 686 470 686 490 687 470 687 491 687 491 688 470 688 468 688 491 689 468 689 492 689 492 690 468 690 466 690 492 691 466 691 493 691 493 692 466 692 464 692 493 693 464 693 494 693 494 694 464 694 462 694 494 695 462 695 495 695 495 696 462 696 460 696 495 697 460 697 496 697 496 698 460 698 458 698 496 699 458 699 497 699 497 700 458 700 456 700 497 701 456 701 498 701 498 702 456 702 454 702 498 703 454 703 499 703 499 704 454 704 452 704 499 705 452 705 500 705 500 706 452 706 450 706 500 707 450 707 501 707 501 708 450 708 448 708 501 709 448 709 502 709 502 710 448 710 446 710 502 711 446 711 503 711 503 712 446 712 444 712 503 713 444 713 504 713 504 714 444 714 443 714 504 715 443 715 505 715 505 716 443 716 445 716 505 717 445 717 506 717 506 718 445 718 447 718 506 719 447 719 507 719 507 720 447 720 449 720 507 721 449 721 508 721 508 722 449 722 451 722 508 723 451 723 509 723 509 724 451 724 453 724 509 725 453 725 510 725 510 726 453 726 455 726 510 727 455 727 511 727 511 728 455 728 457 728 511 729 457 729 512 729 512 730 457 730 459 730 512 731 459 731 477 731 477 732 459 732 461 732 184 733 513 733 169 733 250 734 514 734 251 734 251 735 514 735 515 735 251 736 515 736 252 736 252 737 515 737 516 737 252 738 516 738 253 738 253 739 516 739 517 739 253 740 517 740 254 740 254 741 517 741 518 741 254 742 518 742 255 742 255 743 518 743 519 743 255 744 519 744 256 744 256 745 519 745 520 745 256 746 520 746 257 746 257 747 520 747 521 747 257 748 521 748 239 748 239 749 521 749 522 749 239 750 522 750 240 750 240 751 522 751 523 751 240 752 523 752 241 752 241 753 523 753 524 753 241 754 524 754 182 754 182 755 524 755 183 755 169 756 513 756 104 756 169 757 104 757 106 757 169 758 106 758 108 758 169 759 108 759 110 759 169 760 110 760 112 760 169 761 112 761 114 761 169 762 114 762 167 762 513 763 330 763 131 763 513 764 131 764 97 764 513 765 97 765 100 765 513 766 100 766 102 766 513 767 102 767 104 767 200 768 198 768 476 768 172 769 171 769 234 769 172 770 234 770 232 770 172 771 232 771 230 771 172 772 230 772 371 772 345 773 371 773 230 773 345 774 230 774 228 774 345 775 228 775 226 775 345 776 226 776 224 776 345 777 224 777 222 777 345 778 222 778 220 778 345 779 220 779 218 779 345 780 218 780 216 780 345 781 216 781 214 781 345 782 214 782 212 782 345 783 212 783 210 783 345 784 210 784 208 784 345 785 208 785 206 785 345 786 206 786 204 786 345 787 204 787 202 787 345 788 202 788 200 788 345 789 200 789 476 789 345 790 476 790 337 790 525 791 476 791 192 791 192 792 476 792 194 792 476 793 198 793 194 793 194 794 198 794 196 794 476 795 525 795 278 795 278 796 525 796 279 796 270 797 269 797 235 797 235 798 269 798 258 798 259 799 526 799 260 799 260 800 526 800 527 800 260 801 527 801 261 801 261 802 527 802 528 802 261 803 528 803 236 803 236 804 528 804 529 804 236 805 529 805 237 805 237 806 529 806 530 806 237 807 530 807 244 807 244 808 530 808 531 808 244 809 531 809 245 809 245 810 531 810 532 810 245 811 532 811 246 811 246 812 532 812 533 812 246 813 533 813 247 813 247 814 533 814 534 814 247 815 534 815 248 815 248 816 534 816 535 816 248 817 535 817 249 817 249 818 535 818 536 818 249 819 536 819 250 819 250 820 536 820 514 820 490 821 533 821 489 821 513 822 184 822 507 822 513 823 507 823 508 823 513 824 508 824 509 824 513 825 509 825 510 825 513 826 510 826 511 826 330 827 513 827 511 827 330 828 511 828 512 828 330 829 512 829 477 829 330 830 477 830 478 830 330 831 478 831 479 831 330 832 479 832 155 832 486 833 487 833 532 833 486 834 532 834 531 834 486 835 531 835 530 835 486 836 530 836 529 836 486 837 529 837 528 837 486 838 528 838 527 838 486 839 527 839 526 839 486 840 526 840 537 840 486 841 537 841 159 841 183 842 524 842 523 842 183 843 523 843 522 843 183 844 522 844 521 844 183 845 521 845 520 845 159 846 155 846 482 846 159 847 482 847 483 847 159 848 483 848 484 848 159 849 484 849 485 849 159 850 485 850 486 850 155 851 479 851 480 851 155 852 480 852 481 852 155 853 481 853 482 853 184 854 183 854 504 854 184 855 504 855 505 855 184 856 505 856 506 856 184 857 506 857 507 857 487 858 488 858 532 858 532 859 488 859 489 859 532 860 489 860 533 860 493 861 535 861 492 861 492 862 535 862 534 862 492 863 534 863 491 863 491 864 534 864 533 864 491 865 533 865 490 865 499 866 517 866 498 866 498 867 517 867 516 867 498 868 516 868 497 868 497 869 516 869 515 869 497 870 515 870 496 870 496 871 515 871 514 871 496 872 514 872 495 872 495 873 514 873 536 873 495 874 536 874 494 874 494 875 536 875 535 875 494 876 535 876 493 876 502 877 519 877 501 877 501 878 519 878 518 878 501 879 518 879 500 879 500 880 518 880 517 880 500 881 517 881 499 881 502 882 503 882 519 882 519 883 503 883 520 883 503 884 504 884 520 884 520 885 504 885 183 885 157 886 159 886 537 886 160 887 158 887 163 887 163 888 158 888 164 888 300 889 538 889 298 889 298 890 538 890 539 890 298 891 539 891 296 891 296 892 539 892 540 892 296 893 540 893 294 893 294 894 540 894 541 894 294 895 541 895 292 895 292 896 541 896 542 896 292 897 542 897 290 897 290 898 542 898 543 898 290 899 543 899 288 899 288 900 543 900 544 900 288 901 544 901 286 901 286 902 544 902 545 902 286 903 545 903 284 903 284 904 545 904 546 904 284 905 546 905 282 905 282 906 546 906 547 906 282 907 547 907 280 907 280 908 547 908 548 908 280 909 548 909 281 909 281 910 548 910 549 910 281 911 549 911 283 911 283 912 549 912 550 912 283 913 550 913 285 913 285 914 550 914 551 914 285 915 551 915 287 915 287 916 551 916 552 916 287 917 552 917 289 917 289 918 552 918 553 918 289 919 553 919 291 919 291 920 553 920 554 920 291 921 554 921 293 921 293 922 554 922 555 922 293 923 555 923 295 923 295 924 555 924 556 924 295 925 556 925 297 925 297 926 556 926 557 926 297 927 557 927 299 927 299 928 557 928 558 928 299 929 558 929 301 929 301 930 558 930 559 930 301 931 559 931 303 931 303 932 559 932 560 932 303 933 560 933 305 933 305 934 560 934 561 934 305 935 561 935 307 935 307 936 561 936 562 936 307 937 562 937 309 937 309 938 562 938 563 938 309 939 563 939 311 939 311 940 563 940 564 940 311 941 564 941 313 941 313 942 564 942 565 942 313 943 565 943 315 943 315 944 565 944 566 944 315 945 566 945 317 945 317 946 566 946 567 946 317 947 567 947 319 947 319 948 567 948 568 948 319 949 568 949 321 949 321 950 568 950 569 950 321 951 569 951 320 951 320 952 569 952 570 952 320 953 570 953 318 953 318 954 570 954 571 954 318 955 571 955 316 955 316 956 571 956 572 956 316 957 572 957 314 957 314 958 572 958 573 958 314 959 573 959 312 959 312 960 573 960 574 960 312 961 574 961 310 961 310 962 574 962 575 962 310 963 575 963 308 963 308 964 575 964 576 964 308 965 576 965 306 965 306 966 576 966 577 966 306 967 577 967 304 967 304 968 577 968 578 968 304 969 578 969 302 969 302 970 578 970 579 970 302 971 579 971 300 971 300 972 579 972 538 972 158 973 157 973 258 973 158 974 258 974 269 974 158 975 269 975 267 975 158 976 267 976 265 976 158 977 265 977 263 977 158 978 263 978 271 978 158 979 271 979 273 979 158 980 273 980 275 980 158 981 275 981 277 981 158 982 277 982 279 982 158 983 279 983 164 983 580 984 165 984 525 984 580 985 525 985 192 985 580 986 192 986 191 986 164 987 279 987 165 987 165 988 279 988 525 988 526 989 259 989 537 989 537 990 259 990 258 990 537 991 258 991 157 991 166 992 165 992 580 992 580 993 548 993 547 993 89 994 542 994 541 994 134 995 578 995 577 995 87 996 89 996 541 996 87 997 541 997 540 997 87 998 540 998 539 998 87 999 539 999 145 999 190 1000 132 1000 134 1000 190 1001 134 1001 577 1001 190 1002 577 1002 576 1002 190 1003 576 1003 575 1003 190 1004 575 1004 175 1004 166 1005 580 1005 547 1005 166 1006 547 1006 546 1006 166 1007 546 1007 545 1007 166 1008 545 1008 544 1008 166 1009 544 1009 543 1009 166 1010 543 1010 542 1010 166 1011 542 1011 89 1011 579 1012 578 1012 134 1012 579 1013 134 1013 142 1013 579 1014 142 1014 143 1014 579 1015 143 1015 144 1015 579 1016 144 1016 146 1016 579 1017 146 1017 538 1017 175 1018 575 1018 574 1018 175 1019 574 1019 573 1019 175 1020 573 1020 572 1020 175 1021 572 1021 571 1021 175 1022 571 1022 570 1022 175 1023 570 1023 569 1023 175 1024 569 1024 173 1024 548 1025 580 1025 549 1025 549 1026 580 1026 191 1026 549 1027 191 1027 197 1027 197 1028 191 1028 193 1028 197 1029 193 1029 195 1029 549 1030 197 1030 550 1030 550 1031 197 1031 199 1031 550 1032 199 1032 551 1032 551 1033 199 1033 552 1033 552 1034 199 1034 201 1034 552 1035 201 1035 553 1035 553 1036 201 1036 203 1036 553 1037 203 1037 554 1037 554 1038 203 1038 205 1038 554 1039 205 1039 555 1039 555 1040 205 1040 556 1040 556 1041 205 1041 207 1041 556 1042 207 1042 557 1042 557 1043 207 1043 209 1043 557 1044 209 1044 558 1044 558 1045 209 1045 211 1045 558 1046 211 1046 559 1046 559 1047 211 1047 213 1047 559 1048 213 1048 560 1048 560 1049 213 1049 215 1049 560 1050 215 1050 561 1050 561 1051 215 1051 217 1051 561 1052 217 1052 562 1052 562 1053 217 1053 219 1053 562 1054 219 1054 563 1054 563 1055 219 1055 221 1055 563 1056 221 1056 564 1056 564 1057 221 1057 223 1057 564 1058 223 1058 565 1058 565 1059 223 1059 566 1059 566 1060 223 1060 225 1060 566 1061 225 1061 567 1061 567 1062 225 1062 227 1062 567 1063 227 1063 568 1063 568 1064 227 1064 229 1064 568 1065 229 1065 569 1065 569 1066 229 1066 173 1066 231 1067 233 1067 229 1067 229 1068 233 1068 173 1068 538 1069 146 1069 539 1069 539 1070 146 1070 147 1070 539 1071 147 1071 145 1071 581 1072 582 1072 64 1072 581 1073 64 1073 63 1073 581 1074 63 1074 61 1074 581 1075 61 1075 59 1075 581 1076 59 1076 57 1076 581 1077 57 1077 55 1077 581 1078 55 1078 53 1078 581 1079 53 1079 81 1079 581 1080 81 1080 50 1080 581 1081 50 1081 583 1081 583 1082 50 1082 584 1082 584 1083 50 1083 48 1083 584 1084 48 1084 585 1084 585 1085 48 1085 586 1085 586 1086 48 1086 46 1086 586 1087 46 1087 587 1087 587 1088 46 1088 43 1088 587 1089 43 1089 588 1089 588 1090 43 1090 589 1090 589 1091 43 1091 42 1091 589 1092 42 1092 590 1092 590 1093 42 1093 88 1093 590 1094 88 1094 591 1094 591 1095 88 1095 86 1095 591 1096 86 1096 1 1096 1 1097 86 1097 84 1097 1 1098 84 1098 3 1098 3 1099 84 1099 141 1099 3 1100 141 1100 5 1100 5 1101 141 1101 133 1101 5 1102 133 1102 7 1102 7 1103 133 1103 127 1103 7 1104 127 1104 9 1104 9 1105 127 1105 125 1105 9 1106 125 1106 11 1106 11 1107 125 1107 123 1107 11 1108 123 1108 13 1108 13 1109 123 1109 15 1109 15 1110 123 1110 121 1110 15 1111 121 1111 17 1111 17 1112 121 1112 119 1112 17 1113 119 1113 19 1113 19 1114 119 1114 21 1114 21 1115 119 1115 117 1115 21 1116 117 1116 135 1116 135 1117 117 1117 115 1117 135 1118 115 1118 94 1118 64 1119 582 1119 66 1119 66 1120 582 1120 592 1120 66 1121 592 1121 593 1121 66 1122 593 1122 68 1122 68 1123 593 1123 594 1123 68 1124 594 1124 70 1124 70 1125 594 1125 595 1125 70 1126 595 1126 596 1126 70 1127 596 1127 72 1127 72 1128 596 1128 597 1128 72 1129 597 1129 74 1129 74 1130 597 1130 598 1130 74 1131 598 1131 79 1131 79 1132 598 1132 599 1132 79 1133 599 1133 91 1133 91 1134 599 1134 41 1134 91 1135 41 1135 130 1135 130 1136 41 1136 39 1136 130 1137 39 1137 98 1137 98 1138 39 1138 37 1138 98 1139 37 1139 99 1139 99 1140 37 1140 35 1140 99 1141 35 1141 101 1141 101 1142 35 1142 33 1142 101 1143 33 1143 103 1143 103 1144 33 1144 31 1144 103 1145 31 1145 29 1145 103 1146 29 1146 105 1146 105 1147 29 1147 27 1147 105 1148 27 1148 107 1148 107 1149 27 1149 25 1149 107 1150 25 1150 23 1150 107 1151 23 1151 109 1151 109 1152 23 1152 21 1152 109 1153 21 1153 111 1153 111 1154 21 1154 135 1154 111 1155 135 1155 113 1155 600 1156 601 1156 602 1156 601 1157 600 1157 603 1157 603 1158 600 1158 604 1158 603 1159 604 1159 605 1159 605 1160 604 1160 606 1160 605 1161 606 1161 607 1161 607 1162 606 1162 608 1162 607 1163 608 1163 609 1163 609 1164 608 1164 610 1164 609 1165 610 1165 611 1165 611 1166 610 1166 612 1166 611 1167 612 1167 613 1167 613 1168 612 1168 614 1168 613 1169 614 1169 615 1169 615 1170 614 1170 616 1170 615 1171 616 1171 617 1171 617 1172 616 1172 618 1172 617 1173 618 1173 40 1173 40 1174 618 1174 0 1174 40 1175 0 1175 38 1175 38 1176 0 1176 2 1176 38 1177 2 1177 36 1177 36 1178 2 1178 4 1178 36 1179 4 1179 34 1179 34 1180 4 1180 6 1180 34 1181 6 1181 32 1181 32 1182 6 1182 8 1182 32 1183 8 1183 30 1183 30 1184 8 1184 10 1184 30 1185 10 1185 28 1185 28 1186 10 1186 12 1186 28 1187 12 1187 26 1187 26 1188 12 1188 14 1188 26 1189 14 1189 24 1189 24 1190 14 1190 16 1190 24 1191 16 1191 22 1191 22 1192 16 1192 18 1192 22 1193 18 1193 20 1193 40 1194 41 1194 617 1194 617 1195 41 1195 599 1195 617 1196 599 1196 615 1196 615 1197 599 1197 598 1197 615 1198 598 1198 613 1198 613 1199 598 1199 597 1199 613 1200 597 1200 611 1200 611 1201 597 1201 596 1201 611 1202 596 1202 609 1202 609 1203 596 1203 595 1203 609 1204 595 1204 607 1204 607 1205 595 1205 594 1205 607 1206 594 1206 605 1206 605 1207 594 1207 593 1207 605 1208 593 1208 603 1208 603 1209 593 1209 592 1209 603 1210 592 1210 601 1210 601 1211 592 1211 582 1211 601 1212 582 1212 602 1212 602 1213 582 1213 581 1213 602 1214 581 1214 600 1214 600 1215 581 1215 583 1215 600 1216 583 1216 604 1216 604 1217 583 1217 584 1217 604 1218 584 1218 606 1218 606 1219 584 1219 585 1219 606 1220 585 1220 608 1220 608 1221 585 1221 586 1221 608 1222 586 1222 610 1222 610 1223 586 1223 587 1223 610 1224 587 1224 612 1224 612 1225 587 1225 588 1225 612 1226 588 1226 614 1226 614 1227 588 1227 589 1227 614 1228 589 1228 616 1228 616 1229 589 1229 590 1229 616 1230 590 1230 618 1230 618 1231 590 1231 591 1231 618 1232 591 1232 0 1232 0 1233 591 1233 1 1233</p>
                </triangles>
            </mesh>
        </geometry>
    </library_geometries>
    <library_visual_scenes>
        <visual_scene id="VisualSceneNode" name="VisualScene">
            <node id="node" name="node">
                <instance_geometry url="#shape0-lib"/>
            </node>
        </visual_scene>
    </library_visual_scenes>
    <scene>
        <instance_visual_scene url="#VisualSceneNode"/>
    </scene>
</COLLADA>
