<?xml version="1.0" encoding="UTF-8"?>
<COLLADA xmlns="http://www.collada.org/2005/11/COLLADASchema" version="1.4.1">
    <asset>
        <contributor>
            <author>VCGLab</author>
            <authoring_tool>VCGLib | MeshLab</authoring_tool>
        </contributor>
        <created>Fri May 8 15:35:20 2026 GMT</created>
        <modified>Fri May 8 15:35:20 2026 GMT</modified>
        <up_axis>Y_UP</up_axis>
    </asset>
    <library_geometries>
        <geometry id="shape0-lib" name="shape0">
            <mesh>
                <source id="shape0-lib-positions" name="position">
                    <float_array id="shape0-lib-positions-array" count="1455">0.00249051 1.17732 0.07 -0.00249051 1.17732 0.07 0.00726976 1.17592 0.07 -0.00726976 1.17592 0.07 0.0114601 1.17323 0.07 -0.0114601 1.17323 0.07 0.0147219 1.16946 0.07 -0.0147219 1.16946 0.07 0.0167911 1.16493 0.07 -0.0167911 1.16493 0.07 0.0175 1.16 0.07 -0.0175 1.16 0.07 0.0167911 1.15507 0.07 -0.0167911 1.15507 0.07 0.0147219 1.15054 0.07 -0.0147219 1.15054 0.07 0.0114601 1.14677 0.07 -0.0114601 1.14677 0.07 0.00726976 1.14408 0.07 -0.00726976 1.14408 0.07 0.00249051 1.14268 0.07 -0.00249051 1.14268 0.07 0.00249051 0.0173219 0.035 0.00726976 0.0159186 -0.005 0.00726976 0.0159186 0.035 0.0114601 0.0132256 -0.005 0.0114601 0.0132256 0.035 0.0147219 0.00946122 -0.005 0.0147219 0.00946122 0.035 0.0167911 0.00493032 -0.005 0.0167911 0.00493032 0.035 0.0175 0 -0.005 0.0175 0 0.035 0.00249051 0.0173219 -0.005 -0.00249051 0.0173219 0.035 -0.00249051 0.0173219 -0.005 -0.00726976 0.0159186 0.035 -0.00726976 0.0159186 -0.005 -0.0114601 0.0132256 0.035 -0.0114601 0.0132256 -0.005 -0.0147219 0.00946122 0.035 -0.0147219 0.00946122 -0.005 -0.0167911 0.00493032 0.035 -0.0167911 0.00493032 -0.005 -0.0175 0 0.035 -0.0175 0 -0.005 -0.00249051 -0.0173219 0.035 -0.00726976 -0.0159186 -0.005 -0.00726976 -0.0159186 0.035 -0.0114601 -0.0132256 -0.005 -0.0114601 -0.0132256 0.035 -0.0147219 -0.00946122 -0.005 -0.0147219 -0.00946122 0.035 -0.0167911 -0.00493032 -0.005 -0.0167911 -0.00493032 0.035 -0.00249051 -0.0173219 -0.005 0.00249051 -0.0173219 0.035 0.00249051 -0.0173219 -0.005 0.00726976 -0.0159186 0.035 0.00726976 -0.0159186 -0.005 0.0114601 -0.0132256 0.035 0.0114601 -0.0132256 -0.005 0.0147219 -0.00946122 0.035 0.0147219 -0.00946122 -0.005 0.0167911 -0.00493032 0.035 0.0167911 -0.00493032 -0.005 0.0175 1.16 0.035 0.0167911 1.16493 0.035 0.0147219 1.16946 0.035 0.0114601 1.17323 0.035 0.00726976 1.17592 0.035 0.00249051 1.17732 0.035 -0.00249051 1.17732 0.035 -0.00726976 1.17592 0.035 -0.0114601 1.17323 0.035 -0.0147219 1.16946 0.035 -0.0167911 1.16493 0.035 -0.0175 1.16 0.035 -0.0167911 1.15507 0.035 -0.0147219 1.15054 0.035 -0.0114601 1.14677 0.035 -0.00726976 1.14408 0.035 -0.00249051 1.14268 0.035 0.00249051 1.14268 0.035 0.00726976 1.14408 0.035 0.0114601 1.14677 0.035 0.0147219 1.15054 0.035 0.0167911 1.15507 0.035 -0.0296902 0.0132189 0.035 0.0317898 0.00675713 0.035 -0.0262931 -0.019103 0.035 -0.0217468 -0.0241522 0.035 -0.01625 -0.0281458 0.035 -0.0100431 -0.0309093 0.035 -0.00339718 -0.032322 0.035 -0.0296902 -0.0132189 0.035 0.00339718 -0.032322 0.035 0.0100431 -0.0309093 0.035 0.01625 -0.0281458 0.035 0.0217468 -0.0241522 0.035 0.0262931 -0.019103 0.035 -0.0262931 0.019103 0.035 -0.00339718 0.032322 0.035 -0.0100431 0.0309093 0.035 -0.01625 0.0281458 0.035 -0.0217468 0.0241522 0.035 0.0296902 0.0132189 0.035 0.0262931 0.019103 0.035 0.0217468 0.0241522 0.035 0.01625 0.0281458 0.035 0.0100431 0.0309093 0.035 0.00339718 0.032322 0.035 -0.0317898 0.00675713 0.035 -0.0325 0 0.035 -0.0317898 -0.00675713 0.035 0.0325 0 0.035 0.0317898 -0.00675713 0.035 0.0296902 -0.0132189 0.035 -0.0296902 0.0132189 -0.005 0.0317898 0.00675713 -0.005 -0.0262931 -0.019103 -0.005 -0.0296902 -0.0132189 -0.005 -0.00339718 -0.032322 -0.005 -0.0100431 -0.0309093 -0.005 -0.01625 -0.0281458 -0.005 -0.0217468 -0.0241522 -0.005 0.0262931 -0.019103 -0.005 0.0217468 -0.0241522 -0.005 0.01625 -0.0281458 -0.005 0.0100431 -0.0309093 -0.005 0.00339718 -0.032322 -0.005 -0.0262931 0.019103 -0.005 -0.0217468 0.0241522 -0.005 -0.01625 0.0281458 -0.005 -0.0100431 0.0309093 -0.005 -0.00339718 0.032322 -0.005 0.00339718 0.032322 -0.005 0.0100431 0.0309093 -0.005 0.01625 0.0281458 -0.005 0.0217468 0.0241522 -0.005 0.0262931 0.019103 -0.005 0.0296902 0.0132189 -0.005 -0.0317898 0.00675713 -0.005 -0.0317898 -0.00675713 -0.005 -0.0325 0 -0.005 0.0296902 -0.0132189 -0.005 0.0317898 -0.00675713 -0.005 0.0325 0 -0.005 -0.0296902 1.17322 0.035 0.0317898 1.16676 0.035 -0.0262931 1.1409 0.035 -0.0217468 1.13585 0.035 -0.01625 1.13185 0.035 -0.0100431 1.12909 0.035 -0.00339718 1.12768 0.035 -0.0296902 1.14678 0.035 0.00339718 1.12768 0.035 0.0100431 1.12909 0.035 0.01625 1.13185 0.035 0.0217468 1.13585 0.035 0.0262931 1.1409 0.035 -0.0262931 1.1791 0.035 -0.00339718 1.19232 0.035 -0.0100431 1.19091 0.035 -0.01625 1.18815 0.035 -0.0217468 1.18415 0.035 0.0296902 1.17322 0.035 0.0262931 1.1791 0.035 0.0217468 1.18415 0.035 0.01625 1.18815 0.035 0.0100431 1.19091 0.035 0.00339718 1.19232 0.035 -0.0317898 1.16676 0.035 -0.0325 1.16 0.035 -0.0317898 1.15324 0.035 0.0325 1.16 0.035 0.0317898 1.15324 0.035 0.0296902 1.14678 0.035 0.0325 0 0.03 0.0317898 0.00675713 0.03 0.0296902 0.0132189 0.03 0.0262931 0.019103 0.03 0.0217468 0.0241522 0.03 0.01625 0.0281458 0.03 0.0100431 0.0309093 0.03 0.00339718 0.032322 0.03 -0.00339718 0.032322 0.03 -0.0100431 0.0309093 0.03 -0.01625 0.0281458 0.03 -0.0217468 0.0241522 0.03 -0.0262931 0.019103 0.03 -0.0296902 0.0132189 0.03 -0.0317898 0.00675713 0.03 -0.0325 0 0.03 -0.0317898 -0.00675713 0.03 -0.0296902 -0.0132189 0.03 -0.0262931 -0.019103 0.03 -0.0217468 -0.0241522 0.03 -0.01625 -0.0281458 0.03 -0.0100431 -0.0309093 0.03 -0.00339718 -0.032322 0.03 0.00339718 -0.032322 0.03 0.0100431 -0.0309093 0.03 0.01625 -0.0281458 0.03 0.0217468 -0.0241522 0.03 0.0262931 -0.019103 0.03 0.0296902 -0.0132189 0.03 0.0317898 -0.00675713 0.03 0.0325 0 0 0.0317898 0.00675713 0 0.0296902 0.0132189 0 0.0262931 0.019103 0 0.0217468 0.0241522 0 0.01625 0.0281458 0 0.0100431 0.0309093 0 0.00339718 0.032322 0 -0.00339718 0.032322 0 -0.0100431 0.0309093 0 -0.01625 0.0281458 0 -0.0217468 0.0241522 0 -0.0262931 0.019103 0 -0.0296902 0.0132189 0 -0.0317898 0.00675713 0 -0.0325 0 0 -0.0317898 -0.00675713 0 -0.0296902 -0.0132189 0 -0.0262931 -0.019103 0 -0.0217468 -0.0241522 0 -0.01625 -0.0281458 0 -0.0100431 -0.0309093 0 -0.00339718 -0.032322 0 0.00339718 -0.032322 0 0.0100431 -0.0309093 0 0.01625 -0.0281458 0 0.0217468 -0.0241522 0 0.0262931 -0.019103 0 0.0296902 -0.0132189 0 0.0317898 -0.00675713 0 -0.045 0 0.03 -0.045 0 0 -0.044285 -0.00798985 0.03 -0.044285 -0.00798985 0 -0.0421628 -0.0157258 0.03 -0.0421628 -0.0157258 0 -0.0387007 -0.022962 0.03 -0.0387007 -0.022962 0 -0.0340088 -0.0294686 0.03 -0.0340088 -0.0294686 0 -0.0282363 -0.0350387 0.03 -0.0282363 -0.0350387 0 -0.0215664 -0.0394954 0.03 -0.0215664 -0.0394954 0 -0.0142113 -0.0426971 0.03 -0.0142113 -0.0426971 0 -0.0064045 -0.0445419 0.03 -0.0064045 -0.0445419 0 0.00160578 -0.0449713 0.03 0.00160578 -0.0449713 0 0.00956503 -0.0439717 0.03 0.00956503 -0.0439717 0 0.0172203 -0.0415748 0.03 0.0172203 -0.0415748 0 0.0243284 -0.0378567 0.03 0.0243284 -0.0378567 0 0.0306634 -0.0329356 0.03 0.0306634 -0.0329356 0 0.036024 -0.026968 0.03 0.036024 -0.026968 0 0.0402399 -0.0201433 0.03 0.0402399 -0.0201433 0 0.043177 -0.0126786 0.03 0.043177 -0.0126786 0 0.0325 1.16 0.03 0.0317898 1.16676 0.03 0.0296902 1.17322 0.03 0.0262931 1.1791 0.03 0.0217468 1.18415 0.03 0.01625 1.18815 0.03 0.0100431 1.19091 0.03 0.00339718 1.19232 0.03 -0.00339718 1.19232 0.03 -0.0100431 1.19091 0.03 -0.01625 1.18815 0.03 -0.0217468 1.18415 0.03 -0.0262931 1.1791 0.03 -0.0296902 1.17322 0.03 -0.0317898 1.16676 0.03 -0.0325 1.16 0.03 -0.0317898 1.15324 0.03 -0.0296902 1.14678 0.03 -0.0262931 1.1409 0.03 -0.0217468 1.13585 0.03 -0.01625 1.13185 0.03 -0.0100431 1.12909 0.03 -0.00339718 1.12768 0.03 0.00339718 1.12768 0.03 0.0100431 1.12909 0.03 0.01625 1.13185 0.03 0.0217468 1.13585 0.03 0.0262931 1.1409 0.03 0.0296902 1.14678 0.03 0.0317898 1.15324 0.03 -0.0433634 0.0120257 0.03 -0.0433634 0.0120257 0 -0.044589 0.00606829 0.03 -0.044589 0.00606829 0 0.00599326 0.19 0.03 0.0601139 0.045 0.03 0.00599326 0.19 0 0.0601139 0.045 0 0.15 0.351107 -0.029 0.15 0.351107 0.058 0.0711562 0.0826045 0.058 0.0715505 0.0839475 -0.029 -0.0433781 1.18487 0.03 0.138407 0.71 0.03 0.0490814 1.16954 0.03 0.00611253 0.792536 0.03 0.0113932 0.490006 0.03 -0.0494151 1.15237 0.03 -0.05 1.16 0.03 0.0378363 1.19269 0.03 0.0316253 1.19873 0.03 0.0244647 1.20361 0.03 0.0165693 1.20718 0.03 0.00817643 1.20933 0.03 -0.00046199 1.21 0.03 -0.00908654 1.20917 0.03 0.0429111 1.18566 0.03 0.0466974 1.17787 0.03 -0.0174382 1.20686 0.03 -0.0252663 1.20315 0.03 -0.0323356 1.19814 0.03 -0.0384339 1.19198 0.03 -0.0492493 1.16863 0.03 -0.0470196 1.17701 0.03 0.0159213 0.23059 0.058 0.016 0.226083 0.0562098 0.016 0.226083 -0.0262098 0.0158774 0.233107 -0.029 0.0490814 1.16954 0 0.0466974 1.17787 0 0.0429111 1.18566 0 0.0378363 1.19269 0 0.0316253 1.19873 0 0.0244647 1.20361 0 0.0165693 1.20718 0 0.00817643 1.20933 0 -0.00046199 1.21 0 -0.00908654 1.20917 0 -0.0174382 1.20686 0 -0.0252663 1.20315 0 -0.0323356 1.19814 0 -0.0384339 1.19198 0 -0.0433781 1.18487 0 -0.0470196 1.17701 0 -0.0492493 1.16863 0 -0.05 1.16 0 -0.0494151 1.15237 0 0.00611253 0.792536 0 -0.0100431 1.19091 0 -0.01625 1.18815 0 -0.0217468 1.18415 0 -0.0325 1.16 0 -0.0317898 1.15324 0 -0.0296902 1.14678 0 -0.0262931 1.1409 0 -0.0217468 1.13585 0 -0.01625 1.13185 0 -0.0100431 1.12909 0 -0.00339718 1.12768 0 0.00339718 1.12768 0 0.138407 0.71 0 0.0113932 0.490006 0 0.00339718 1.19232 0 -0.00339718 1.19232 0 0.0262931 1.1791 0 0.0217468 1.18415 0 0.01625 1.18815 0 0.0100431 1.19091 0 0.0100431 1.12909 0 0.01625 1.13185 0 0.0217468 1.13585 0 0.0262931 1.1409 0 0.0296902 1.14678 0 0.0317898 1.15324 0 0.0325 1.16 0 0.0317898 1.16676 0 0.0296902 1.17322 0 -0.0262931 1.1791 0 -0.0296902 1.17322 0 -0.0317898 1.16676 0 0.0325 1.16 -0.005 0.0317898 1.16676 -0.005 0.0296902 1.17322 -0.005 0.0262931 1.1791 -0.005 0.0217468 1.18415 -0.005 0.01625 1.18815 -0.005 0.0100431 1.19091 -0.005 0.00339718 1.19232 -0.005 -0.00339718 1.19232 -0.005 -0.0100431 1.19091 -0.005 -0.01625 1.18815 -0.005 -0.0217468 1.18415 -0.005 -0.0262931 1.1791 -0.005 -0.0296902 1.17322 -0.005 -0.0317898 1.16676 -0.005 -0.0325 1.16 -0.005 -0.0317898 1.15324 -0.005 -0.0296902 1.14678 -0.005 -0.0262931 1.1409 -0.005 -0.0217468 1.13585 -0.005 -0.01625 1.13185 -0.005 -0.0100431 1.12909 -0.005 -0.00339718 1.12768 -0.005 0.00339718 1.12768 -0.005 0.0100431 1.12909 -0.005 0.01625 1.13185 -0.005 0.0217468 1.13585 -0.005 0.0262931 1.1409 -0.005 0.0296902 1.14678 -0.005 0.0317898 1.15324 -0.005 0.0175 1.16 -0.04 -0.0167911 1.16493 -0.04 0.0167911 1.16493 -0.04 -0.0147219 1.16946 -0.04 0.0147219 1.16946 -0.04 -0.0114601 1.17323 -0.04 0.0114601 1.17323 -0.04 -0.00726976 1.17592 -0.04 0.00726976 1.17592 -0.04 -0.00249051 1.17732 -0.04 0.00249051 1.17732 -0.04 -0.0175 1.16 -0.04 0.0167911 1.15507 -0.04 -0.0167911 1.15507 -0.04 0.0147219 1.15054 -0.04 -0.0147219 1.15054 -0.04 0.0114601 1.14677 -0.04 -0.0114601 1.14677 -0.04 0.00726976 1.14408 -0.04 -0.00726976 1.14408 -0.04 0.00249051 1.14268 -0.04 -0.00249051 1.14268 -0.04 -0.0175 1.16 -0.005 -0.0167911 1.15507 -0.005 -0.0147219 1.15054 -0.005 -0.0114601 1.14677 -0.005 -0.00726976 1.14408 -0.005 -0.00249051 1.14268 -0.005 0.00249051 1.14268 -0.005 0.00726976 1.14408 -0.005 0.0114601 1.14677 -0.005 0.0147219 1.15054 -0.005 0.0167911 1.15507 -0.005 0.0175 1.16 -0.005 -0.00726976 1.17592 -0.005 -0.0114601 1.17323 -0.005 0.0167911 1.16493 -0.005 0.0147219 1.16946 -0.005 -0.00249051 1.17732 -0.005 0.00249051 1.17732 -0.005 0.00726976 1.17592 -0.005 -0.0167911 1.16493 -0.005 -0.0147219 1.16946 -0.005 0.0114601 1.17323 -0.005 -8.449e-05 0.256396 -0.012 -8.449e-05 0.256396 0.028 -0.0105373 0.355848 -0.012 -0.0105373 0.355848 0.028 0.0297512 0.259532 -0.012 0.0297512 0.259532 0.028 0.0192983 0.358984 -0.012 0.0192983 0.358984 0.028 0.0304829 0.25257 0.034 0.0158774 0.233107 0.034 0.0125614 0.423081 0.034 0.0304829 0.25257 -0.029 0.15 0.650359 -0.029 0.15 0.650359 0.058 0.14524 0.674846 0.058 0.0121894 0.444395 0.058 0.145484 0.67359 -0.029 0.0122178 0.442766 -0.029 0.0125614 0.423081 -0.029</float_array>
                    <technique_common>
                        <accessor count="485" source="#shape0-lib-positions-array" stride="3">
                            <param name="X" type="float"/>
                            <param name="Y" type="float"/>
                            <param name="Z" type="float"/>
                        </accessor>
                    </technique_common>
                </source>
                <source id="shape0-lib-normals" name="normal">
                    <float_array id="shape0-lib-normals-array" count="2910">0 0 1 0 0 1 0 0 1 0 0 1 0 0 1 0 0 1 0 0 1 0 0 1 0 0 1 0 0 1 0 0 1 0 0 1 0 0 1 0 0 1 0 0 1 0 0 1 0 0 1 0 0 1 0 0 1 0 0 1 -0.281734 -0.959493 0 -0.540641 -0.841254 0 -0.540641 -0.841254 0 -0.755749 -0.654862 0 -0.755749 -0.654862 0 -0.909632 -0.415414 0 -0.909632 -0.415414 0 -0.989822 -0.142314 0 -0.989822 -0.142314 0 -0.281734 -0.959493 0 0 -1 0 0 -1 0 0.281734 -0.959493 0 0.281734 -0.959493 0 0.540641 -0.841254 0 0.540641 -0.841254 0 0.755749 -0.654862 0 0.755749 -0.654862 0 0.909632 -0.415414 0 0.909632 -0.415414 0 0.989822 -0.142314 0 0.989822 -0.142314 0 0.281734 0.959493 0 0.540641 0.841254 0 0.540641 0.841254 0 0.755749 0.654862 0 0.755749 0.654862 0 0.909632 0.415414 0 0.909632 0.415414 0 0.989822 0.142314 0 0.989822 0.142314 0 0.281734 0.959493 0 0 1 0 0 1 0 -0.281734 0.959493 0 -0.281734 0.959493 0 -0.540641 0.841254 0 -0.540641 0.841254 0 -0.755749 0.654862 0 -0.755749 0.654862 0 -0.909632 0.415414 0 -0.909632 0.415414 0 -0.989822 0.142314 0 -0.989822 0.142314 0 0.98982 0.142323 0 0.98982 0.142323 0 0.909637 0.415405 0 0.909637 0.415405 0 0.755799 0.654803 0 0.755799 0.654803 0 0.540657 0.841243 0 0.540657 0.841243 0 0.28167 0.959511 0 0.28167 0.959511 0 0 1 0 0 1 0 -0.28167 0.959511 0 -0.28167 0.959511 0 -0.540657 0.841243 0 -0.540657 0.841243 0 -0.755799 0.654803 0 -0.755799 0.654803 0 -0.909637 0.415405 0 -0.909637 0.415405 0 -0.98982 0.142323 0 -0.98982 0.142323 0 -0.98982 -0.142323 0 -0.98982 -0.142323 0 -0.909633 -0.415414 0 -0.909633 -0.415414 0 -0.755799 -0.654803 0 -0.755799 -0.654803 0 -0.540657 -0.841243 0 -0.540657 -0.841243 0 -0.28167 -0.959511 0 -0.28167 -0.959511 0 0 -1 0 0 -1 0 0.28167 -0.959511 0 0.28167 -0.959511 0 0.540657 -0.841243 0 0.540657 -0.841243 0 0.755799 -0.654803 0 0.755799 -0.654803 0 0.909633 -0.415414 0 0.909633 -0.415414 0 0.98982 -0.142323 0 0.98982 -0.142323 0 0 0 1 0 0 1 0 0 1 0 0 1 0 0 1 0 0 1 0 0 1 0 0 1 0 0 1 0 0 1 0 0 1 0 0 1 0 0 1 0 0 1 0 0 1 0 0 1 0 0 1 0 0 1 0 0 1 0 0 1 0 0 1 0 0 1 0 0 1 0 0 1 0 0 1 0 0 1 0 0 1 0 0 1 0 0 1 0 0 1 0 0 1 0 0 1 0 0 1 0 0 1 0 0 1 0 0 1 0 0 1 0 0 1 0 0 1 0 0 1 0 0 1 0 0 1 0 0 1 0 0 1 0 0 1 0 0 1 0 0 1 0 0 1 0 0 1 0 0 1 0 0 1 0 0 1 0 0 -1 0 0 -1 0 0 -1 0 0 -1 0 0 -1 0 0 -1 0 0 -1 0 0 -1 0 0 -1 0 0 -1 0 0 -1 0 0 -1 0 0 -1 0 0 -1 0 0 -1 0 0 -1 0 0 -1 0 0 -1 0 0 -1 0 0 -1 0 0 -1 0 0 -1 0 0 -1 0 0 -1 0 0 -1 0 0 -1 0 0 -1 0 0 -1 0 0 -1 0 0 -1 0 0 -1 0 0 -1 0 0 -1 0 0 -1 0 0 -1 0 0 -1 0 0 -1 0 0 -1 0 0 -1 0 0 -1 0 0 -1 0 0 -1 0 0 -1 0 0 -1 0 0 -1 0 0 -1 0 0 -1 0 0 -1 0 0 -1 0 0 -1 0 0 -1 0 0 -1 0 0 1 0 0 1 0 0 1 0 0 1 0 0 1 0 0 1 0 0 1 0 0 1 0 0 1 0 0 1 0 0 1 0 0 1 0 0 1 0 0 1 0 0 1 0 0 1 0 0 1 0 0 1 0 0 1 0 0 1 0 0 1 0 0 1 0 0 1 0 0 1 0 0 1 0 0 1 0 0 1 0 0 1 0 0 1 0 0 1 0 0 1 0 0 1 0 0 1 0 0 1 0 0 1 0 0 1 0 0 1 0 0 1 0 0 1 0 0 1 0 0 1 0 0 1 0 0 1 0 0 1 0 0 1 0 0 1 0 0 1 0 0 1 0 0 1 0 0 1 0 0 1 0 0 1 0.994522 0.104528 0 0.994522 0.104528 0 0.951057 0.309017 0 0.951057 0.309017 0 0.866025 0.500001 0 0.866025 0.500001 0 0.743146 0.66913 0 0.743146 0.66913 0 0.587785 0.809017 0 0.587785 0.809017 0 0.406737 0.913545 0 0.406737 0.913545 0 0.207911 0.978148 0 0.207911 0.978148 0 0 1 0 0 1 0 -0.207911 0.978148 0 -0.207911 0.978148 0 -0.406737 0.913545 0 -0.406737 0.913545 0 -0.587785 0.809017 0 -0.587785 0.809017 0 -0.743146 0.66913 0 -0.743146 0.66913 0 -0.866025 0.500001 0 -0.866025 0.500001 0 -0.951057 0.309017 0 -0.951057 0.309017 0 -0.994522 0.104528 0 -0.994522 0.104528 0 -0.994522 -0.104528 0 -0.994522 -0.104528 0 -0.951057 -0.309017 0 -0.951057 -0.309017 0 -0.866025 -0.500001 0 -0.866025 -0.500001 0 -0.743146 -0.66913 0 -0.743146 -0.66913 0 -0.587785 -0.809017 0 -0.587785 -0.809017 0 -0.406737 -0.913545 0 -0.406737 -0.913545 0 -0.207911 -0.978148 0 -0.207911 -0.978148 0 0 -1 0 0 -1 0 0.207911 -0.978148 0 0.207911 -0.978148 0 0.406737 -0.913545 0 0.406737 -0.913545 0 0.587785 -0.809017 0 0.587785 -0.809017 0 0.743146 -0.66913 0 0.743146 -0.66913 0 0.866025 -0.500001 0 0.866025 -0.500001 0 0.951057 -0.309017 0 0.951057 -0.309017 0 0.994522 -0.104528 0 0.994522 -0.104528 0 0.994522 0.104528 0 0.994522 0.104528 0 0.951057 0.309017 0 0.951057 0.309017 0 0.866025 0.5 0 0.866025 0.5 0 0.743146 0.66913 0 0.743146 0.66913 0 0.587785 0.809017 0 0.587785 0.809017 0 0.406737 0.913545 0 0.406737 0.913545 0 0.207911 0.978148 0 0.207911 0.978148 0 0 1 0 0 1 0 -0.207911 0.978148 0 -0.207911 0.978148 0 -0.406737 0.913545 0 -0.406737 0.913545 0 -0.587785 0.809017 0 -0.587785 0.809017 0 -0.743146 0.66913 0 -0.743146 0.66913 0 -0.866025 0.5 0 -0.866025 0.5 0 -0.951057 0.309017 0 -0.951057 0.309017 0 -0.994522 0.104528 0 -0.994522 0.104528 0 -0.994522 -0.104528 0 -0.994522 -0.104528 0 -0.951057 -0.309017 0 -0.951057 -0.309017 0 -0.866025 -0.5 0 -0.866025 -0.5 0 -0.743146 -0.66913 0 -0.743146 -0.66913 0 -0.587785 -0.809017 0 -0.587785 -0.809017 0 -0.406737 -0.913545 0 -0.406737 -0.913545 0 -0.207911 -0.978148 0 -0.207911 -0.978148 0 0 -1 0 0 -1 0 0.207911 -0.978148 0 0.207911 -0.978148 0 0.406737 -0.913545 0 0.406737 -0.913545 0 0.587785 -0.809017 0 0.587785 -0.809017 0 0.743146 -0.66913 0 0.743146 -0.66913 0 0.866025 -0.5 0 0.866025 -0.5 0 0.951057 -0.309017 0 0.951057 -0.309017 0 0.994522 -0.104528 0 0.994522 -0.104528 0 -0.99602 -0.0891313 0 -0.99602 -0.0891313 0 -0.964369 -0.26456 0 -0.964369 -0.26456 0 -0.902074 -0.431583 0 -0.902074 -0.431583 0 -0.811112 -0.584891 0 -0.811112 -0.584891 0 -0.694376 -0.719612 0 -0.694376 -0.719612 0 -0.555574 -0.831467 0 -0.555574 -0.831467 0 -0.399119 -0.916899 0 -0.399119 -0.916899 0 -0.229979 -0.973196 0 -0.229979 -0.973196 0 -0.0535315 -0.998566 0 -0.0535315 -0.998566 0 0.124616 -0.992205 0 0.124616 -0.992205 0 0.298804 -0.954315 0 0.298804 -0.954315 0 0.463498 -0.886098 0 0.463498 -0.886098 0 0.613463 -0.789724 0 0.613463 -0.789724 0 0.743932 -0.668256 0 0.743932 -0.668256 0 0.850762 -0.525551 0 0.850762 -0.525551 0 0.930557 -0.366146 0 0.930557 -0.366146 0 0.994522 0.10453 0 0.994522 0.10453 0 0.951059 0.30901 0 0.951059 0.30901 0 0.866024 0.500002 0 0.866024 0.500002 0 0.743133 0.669144 0 0.743133 0.669144 0 0.58782 0.808991 0 0.58782 0.808991 0 0.406678 0.913572 0 0.406678 0.913572 0 0.207963 0.978137 0 0.207963 0.978137 0 0 1 0 0 1 0 -0.207963 0.978137 0 -0.207963 0.978137 0 -0.406678 0.913572 0 -0.406678 0.913572 0 -0.58782 0.808991 0 -0.58782 0.808991 0 -0.743133 0.669144 0 -0.743133 0.669144 0 -0.866024 0.500002 0 -0.866024 0.500002 0 -0.951059 0.30901 0 -0.951059 0.30901 0 -0.994522 0.10453 0 -0.994522 0.10453 0 -0.994522 -0.10453 0 -0.994522 -0.10453 0 -0.951059 -0.30901 0 -0.951059 -0.30901 0 -0.86602 -0.50001 0 -0.86602 -0.50001 0 -0.743133 -0.669144 0 -0.743133 -0.669144 0 -0.58782 -0.808991 0 -0.58782 -0.808991 0 -0.406678 -0.913572 0 -0.406678 -0.913572 0 -0.207963 -0.978137 0 -0.207963 -0.978137 0 0 -1 0 0 -1 0 0.207963 -0.978137 0 0.207963 -0.978137 0 0.406678 -0.913572 0 0.406678 -0.913572 0 0.58782 -0.808991 0 0.58782 -0.808991 0 0.743133 -0.669144 0 0.743133 -0.669144 0 0.86602 -0.50001 0 0.86602 -0.50001 0 0.951059 -0.30901 0 0.951059 -0.30901 0 0.994522 -0.10453 0 0.994522 -0.10453 0 -0.979487 0.201506 0 -0.979487 0.201506 0 -0.997714 0.0675798 0 -0.997714 0.0675798 0 0 0 1 0 0 1 0 0 1 0 0 1 0 0 1 0 0 1 0 0 1 0 0 1 0 0 1 0 0 1 0 0 1 0 0 1 0 0 1 0 0 1 0 0 1 0 0 1 0 0 1 0 0 1 0 0 1 0 0 1 0 0 1 0 0 1 0 0 1 0 0 1 0 0 1 0 0 1 0 0 1 0 0 1 0 0 1 0 0 1 0 0 1 0 0 1 0 0 1 0 0 1 0 0 1 0 0 1 0 0 1 0 0 1 0 0 1 0 0 1 0 0 1 0 0 1 0 0 1 0 0 1 0 0 1 0 0 1 0 0 1 0 0 1 0 0 1 0 0 1 0 0 1 0 0 -1 0 0 -1 0 0 -1 0 0 -1 0 0 -1 0 0 -1 0 0 -1 0 0 -1 0 0 -1 0 0 -1 0 0 -1 0 0 -1 0 0 -1 0 0 -1 0 0 -1 0 0 -1 0 0 -1 0 0 -1 0 0 -1 0 0 -1 0 0 -1 0 0 -1 0 0 -1 0 0 -1 0 0 -1 0 0 -1 0 0 -1 0 0 -1 0 0 -1 0 0 -1 0 0 -1 0 0 -1 0 0 -1 0 0 -1 0 0 -1 0 0 -1 0 0 -1 0 0 -1 0 0 -1 0 0 -1 0 0 -1 0 0 -1 0 0 -1 0 0 -1 0 0 -1 0 0 -1 0 0 -1 0 0 -1 0 0 -1 0 0 -1 0 0 -1 0.959489 -0.281747 0 0.959489 -0.281747 0 0.959489 -0.281747 4.96916e-07 0.959489 -0.281747 -1.05035e-06 0.959489 -0.281747 4.75915e-07 0.959489 -0.281747 0 0 0 1 0 0 1 0 0 1 0 0 1 0 0 1 0 0 1 0 0 1 0 0 1 0 0 1 0 0 1 0 0 1 0 0 1 0 0 1 0 0 1 0 0 1 0 0 1 0 0 1 0 0 1 0 0 1 0 0 1 0 0 1 0 0 1 0 0 1 0 0 1 0 0 1 0 0 1 0 0 1 0 0 1 0 0 1 0 0 1 0 0 1 0 0 1 0 0 1 0 0 1 0 0 1 0 0 1 0 0 1 0 0 1 0 0 1 0 0 1 0 0 1 0 0 1 0 0 1 0 0 1 0 0 1 0 0 1 0 0 1 0 0 1 0 0 1 0 0 1 0 0 1 0 0 1 -0.717681 -0.267871 0.64279 -0.717683 -0.267872 0.642788 -0.717683 -0.267872 0.642787 -0.96363 0.267239 0 -0.96363 0.267239 0 -0.96363 0.267238 0 -0.96363 0.267238 0 -0.717683 -0.267872 -0.642788 -0.717683 -0.267872 -0.642788 -0.717683 -0.267872 -0.642787 0.961411 0.275116 0 0.961411 0.275116 0 0.899461 0.437001 0 0.899461 0.437001 0 0.810534 0.585692 0 0.810534 0.585692 0 0.697224 0.716854 0 0.697224 0.716854 0 0.563003 0.826455 0 0.563003 0.826455 0 0.41191 0.911224 0 0.41191 0.911224 0 0.248369 0.968665 0 0.248369 0.968665 0 0.0774463 0.996997 0 0.0774463 0.996997 0 -0.0959096 0.99539 0 -0.0959096 0.99539 0 -0.266151 0.963931 0 -0.266151 0.963931 0 -0.428647 0.903472 0 -0.428647 0.903472 0 -0.578215 0.815884 0 -0.578215 0.815884 0 -0.710371 0.703827 0 -0.710371 0.703827 0 -0.821197 0.570645 0 -0.821197 0.570645 0 -0.907389 0.420293 0 -0.907389 0.420293 0 -0.966326 0.257321 0 -0.966326 0.257321 0 -0.99624 0.0866418 0 -0.99624 0.0866418 0 -0.997071 -0.0764813 0 -0.997071 -0.0764813 0 -0.988302 -0.152507 0 -0.988302 -0.152507 0 0 0 -1 0 0 -1 0 0 -1 0 0 -1 0 0 -1 0 0 -1 0 0 -1 0 0 -1 0 0 -1 0 0 -1 0 0 -1 0 0 -1 0 0 -1 0 0 -1 0 0 -1 0 0 -1 0 0 -1 0 0 -1 0 0 -1 0 0 -1 0 0 -1 0 0 -1 0 0 -1 0 0 -1 0 0 -1 0 0 -1 0 0 -1 0 0 -1 0 0 -1 0 0 -1 0 0 -1 0 0 -1 0 0 -1 0 0 -1 0 0 -1 0 0 -1 0 0 -1 0 0 -1 0 0 -1 0 0 -1 0 0 -1 0 0 -1 0 0 -1 0 0 -1 0 0 -1 0 0 -1 0 0 -1 0 0 -1 0 0 -1 0 0 -1 0 0 -1 0 0 -1 0.994522 0.10453 0 0.994522 0.10453 0 0.951059 0.30901 0 0.951059 0.30901 0 0.866024 0.500002 0 0.866024 0.500002 0 0.743133 0.669144 0 0.743133 0.669144 0 0.58782 0.808991 0 0.58782 0.808991 0 0.406678 0.913572 0 0.406678 0.913572 0 0.207963 0.978137 0 0.207963 0.978137 0 0 1 0 0 1 0 -0.207963 0.978137 0 -0.207963 0.978137 0 -0.406678 0.913572 0 -0.406678 0.913572 0 -0.58782 0.808991 0 -0.58782 0.808991 0 -0.743133 0.669144 0 -0.743133 0.669144 0 -0.866024 0.500002 0 -0.866024 0.500002 0 -0.951059 0.30901 0 -0.951059 0.30901 0 -0.994522 0.10453 0 -0.994522 0.10453 0 -0.994522 -0.10453 0 -0.994522 -0.10453 0 -0.951059 -0.30901 0 -0.951059 -0.30901 0 -0.86602 -0.50001 0 -0.86602 -0.50001 0 -0.743133 -0.669144 0 -0.743133 -0.669144 0 -0.58782 -0.808991 0 -0.58782 -0.808991 0 -0.406678 -0.913572 0 -0.406678 -0.913572 0 -0.207963 -0.978137 0 -0.207963 -0.978137 0 0 -1 0 0 -1 0 0.207963 -0.978137 0 0.207963 -0.978137 0 0.406678 -0.913572 0 0.406678 -0.913572 0 0.58782 -0.808991 0 0.58782 -0.808991 0 0.743133 -0.669144 0 0.743133 -0.669144 0 0.86602 -0.50001 0 0.86602 -0.50001 0 0.951059 -0.30901 0 0.951059 -0.30901 0 0.994522 -0.10453 0 0.994522 -0.10453 0 0 0 -1 0 0 -1 0 0 -1 0 0 -1 0 0 -1 0 0 -1 0 0 -1 0 0 -1 0 0 -1 0 0 -1 0 0 -1 0 0 -1 0 0 -1 0 0 -1 0 0 -1 0 0 -1 0 0 -1 0 0 -1 0 0 -1 0 0 -1 -0.98982 -0.142323 0 -0.98982 -0.142323 0 -0.909633 -0.415414 0 -0.909633 -0.415414 0 -0.755799 -0.654803 0 -0.755799 -0.654803 0 -0.540657 -0.841243 0 -0.540657 -0.841243 0 -0.28167 -0.959511 0 -0.28167 -0.959511 0 0 -1 0 0 -1 0 0.28167 -0.959511 0 0.28167 -0.959511 0 0.540657 -0.841243 0 0.540657 -0.841243 0 0.755799 -0.654803 0 0.755799 -0.654803 0 0.909633 -0.415414 0 0.909633 -0.415414 0 0.98982 -0.142323 0 0.98982 -0.142323 0 0 0 -1 0 0 -1 0 0 -1 0 0 -1 0 0 -1 0 0 -1 0 0 -1 0 0 -1 0 0 -1 0 0 -1 0 0 -1 0 0 -1 0 0 -1 0 0 -1 0 0 -1 0 0 -1 0 0 -1 0 0 -1 0 0 -1 0 0 -1 0 0 -1 0 0 -1 0 0 -1 0 0 -1 0 0 -1 0 0 -1 0 0 -1 0 0 -1 0 0 -1 0 0 -1 0 0 -1 0 0 -1 0 0 -1 0 0 -1 0 0 -1 0 0 -1 0 0 -1 0 0 -1 0 0 -1 0 0 -1 0 0 -1 0 0 -1 0 0 -1 0 0 -1 0 0 -1 0 0 -1 0 0 -1 0 0 -1 0 0 -1 0 0 -1 0 0 -1 0 0 -1 0.98982 0.142323 0 0.98982 0.142323 0 0.909637 0.415405 0 0.909637 0.415405 0 0.755799 0.654803 0 0.755799 0.654803 0 0.540657 0.841243 0 0.540657 0.841243 0 0.28167 0.959511 0 0.28167 0.959511 0 0 1 0 0 1 0 -0.28167 0.959511 0 -0.28167 0.959511 0 -0.540657 0.841243 0 -0.540657 0.841243 0 -0.755799 0.654803 0 -0.755799 0.654803 0 -0.909637 0.415405 0 -0.909637 0.415405 0 -0.98982 0.142323 0 -0.98982 0.142323 0 -0.994522 -0.104528 0 -0.994522 -0.104528 0 0.10453 -0.994522 0 0.10453 -0.994522 0 0 0 -1 0 0 -1 -0.104527 0.994522 0 -0.104527 0.994522 0 0 0 1 0 0 1 0 0 -1 -0.799837 0.600218 0 -0.799837 0.600218 0 1 0 0 1 0 0 -0.663415 0.383023 0.642786 -0.663414 0.383022 0.642788 -0.663414 0.383022 -0.642787 -0.663414 0.383023 -0.642787 0 0 1 0 0 1 0 0 1 0 0 1 0.981627 0.190809 0 0.981627 0.190809 0 0.981627 0.190809 0 0.981627 0.190808 9.7533e-07 0.981627 0.190808 6.02816e-07 0.981627 0.19081 0 0 0 -1 0 0 -1 0 0 -1 0 0 -1 0 0 -1 0 0 -1 -0.999848 -0.0174525 1.72041e-07 -0.999848 -0.0174524 9.64574e-07 -0.999848 -0.0174524 1.31536e-07 -0.999848 -0.0174525 -9.16677e-07 -0.999848 -0.0174524 -7.11227e-08 -0.999848 -0.0174522 0 -0.999848 -0.0174522 0 -0.999848 -0.0174525 0 -0.999848 -0.0174525 0 -0.999848 -0.0174524 0 -0.999848 -0.0174524 0 -0.994522 -0.104528 1.29809e-07 -0.994522 -0.104528 2.73918e-07 -0.994522 -0.104529 0 -0.994522 -0.104529 0 -0.994522 -0.104528 -5.65834e-07 -0.994522 -0.104528 -3.63798e-07 -0.994522 -0.104528 0 -0.994522 -0.104528 0</float_array>
                    <technique_common>
                        <accessor count="970" source="#shape0-lib-normals-array" stride="3">
                            <param name="X" type="float"/>
                            <param name="Y" type="float"/>
                            <param name="Z" type="float"/>
                        </accessor>
                    </technique_common>
                </source>
                <vertices id="shape0-lib-vertices">
                    <input semantic="POSITION" source="#shape0-lib-positions"/>
                </vertices>
                <triangles count="970">
                    <input offset="0" semantic="VERTEX" source="#shape0-lib-vertices"/>
                    <input offset="1" semantic="NORMAL" source="#shape0-lib-normals"/>
                    <p>0 0 1 0 2 0 2 1 1 1 3 1 2 2 3 2 4 2 4 3 3 3 5 3 4 4 5 4 6 4 6 5 5 5 7 5 6 6 7 6 8 6 8 7 7 7 9 7 8 8 9 8 10 8 10 9 9 9 11 9 10 10 11 10 12 10 12 11 11 11 13 11 12 12 13 12 14 12 14 13 13 13 15 13 14 14 15 14 16 14 16 15 15 15 17 15 16 16 17 16 18 16 18 17 17 17 19 17 18 18 19 18 20 18 20 19 19 19 21 19 22 20 23 20 24 20 24 21 23 21 25 21 24 22 25 22 26 22 26 23 25 23 27 23 26 24 27 24 28 24 28 25 27 25 29 25 28 26 29 26 30 26 30 27 29 27 31 27 30 28 31 28 32 28 23 29 22 29 33 29 33 30 22 30 34 30 33 31 34 31 35 31 35 32 34 32 36 32 35 33 36 33 37 33 37 34 36 34 38 34 37 35 38 35 39 35 39 36 38 36 40 36 39 37 40 37 41 37 41 38 40 38 42 38 41 39 42 39 43 39 43 40 42 40 44 40 43 41 44 41 45 41 46 42 47 42 48 42 48 43 47 43 49 43 48 44 49 44 50 44 50 45 49 45 51 45 50 46 51 46 52 46 52 47 51 47 53 47 52 48 53 48 54 48 54 49 53 49 45 49 54 50 45 50 44 50 47 51 46 51 55 51 55 52 46 52 56 52 55 53 56 53 57 53 57 54 56 54 58 54 57 55 58 55 59 55 59 56 58 56 60 56 59 57 60 57 61 57 61 58 60 58 62 58 61 59 62 59 63 59 63 60 62 60 64 60 63 61 64 61 65 61 65 62 64 62 32 62 65 63 32 63 31 63 10 64 66 64 8 64 8 65 66 65 67 65 8 66 67 66 6 66 6 67 67 67 68 67 6 68 68 68 4 68 4 69 68 69 69 69 4 70 69 70 2 70 2 71 69 71 70 71 2 72 70 72 0 72 0 73 70 73 71 73 0 74 71 74 1 74 1 75 71 75 72 75 1 76 72 76 3 76 3 77 72 77 73 77 3 78 73 78 5 78 5 79 73 79 74 79 5 80 74 80 7 80 7 81 74 81 75 81 7 82 75 82 9 82 9 83 75 83 76 83 9 84 76 84 11 84 11 85 76 85 77 85 11 86 77 86 13 86 13 87 77 87 78 87 13 88 78 88 15 88 15 89 78 89 79 89 15 90 79 90 17 90 17 91 79 91 80 91 17 92 80 92 19 92 19 93 80 93 81 93 19 94 81 94 21 94 21 95 81 95 82 95 21 96 82 96 20 96 20 97 82 97 83 97 20 98 83 98 18 98 18 99 83 99 84 99 18 100 84 100 16 100 16 101 84 101 85 101 16 102 85 102 14 102 14 103 85 103 86 103 14 104 86 104 12 104 12 105 86 105 87 105 12 106 87 106 10 106 10 107 87 107 66 107 88 108 38 108 36 108 28 109 30 109 89 109 90 110 91 110 92 110 90 111 92 111 93 111 90 112 93 112 94 112 90 113 94 113 46 113 90 114 46 114 48 114 90 115 48 115 50 115 90 116 50 116 95 116 56 117 46 117 94 117 56 118 94 118 96 118 56 119 96 119 97 119 56 120 97 120 98 120 56 121 98 121 99 121 56 122 99 122 100 122 56 123 100 123 58 123 101 124 88 124 36 124 101 125 36 125 34 125 101 126 34 126 102 126 101 127 102 127 103 127 101 128 103 128 104 128 101 129 104 129 105 129 22 130 24 130 106 130 22 131 106 131 107 131 22 132 107 132 108 132 22 133 108 133 109 133 22 134 109 134 110 134 22 135 110 135 111 135 22 136 111 136 102 136 22 137 102 137 34 137 38 138 88 138 40 138 40 139 88 139 112 139 40 140 112 140 42 140 42 141 112 141 44 141 44 142 112 142 113 142 44 143 113 143 54 143 54 144 113 144 114 144 54 145 114 145 52 145 52 146 114 146 95 146 52 147 95 147 50 147 28 148 89 148 26 148 26 149 89 149 106 149 26 150 106 150 24 150 89 151 30 151 115 151 115 152 30 152 32 152 115 153 32 153 116 153 116 154 32 154 64 154 116 155 64 155 117 155 117 156 64 156 62 156 117 157 62 157 60 157 60 158 58 158 117 158 117 159 58 159 100 159 37 160 39 160 118 160 119 161 29 161 27 161 120 162 121 162 49 162 120 163 49 163 47 163 120 164 47 164 55 164 120 165 55 165 122 165 120 166 122 166 123 166 120 167 123 167 124 167 120 168 124 168 125 168 57 169 59 169 126 169 57 170 126 170 127 170 57 171 127 171 128 171 57 172 128 172 129 172 57 173 129 173 130 173 57 174 130 174 122 174 57 175 122 175 55 175 131 176 132 176 133 176 131 177 133 177 134 177 131 178 134 178 135 178 131 179 135 179 35 179 131 180 35 180 37 180 131 181 37 181 118 181 33 182 35 182 135 182 33 183 135 183 136 183 33 184 136 184 137 184 33 185 137 185 138 185 33 186 138 186 139 186 33 187 139 187 140 187 33 188 140 188 141 188 33 189 141 189 23 189 43 190 142 190 41 190 41 191 142 191 118 191 41 192 118 192 39 192 49 193 121 193 51 193 51 194 121 194 143 194 51 195 143 195 53 195 53 196 143 196 144 196 53 197 144 197 45 197 45 198 144 198 142 198 45 199 142 199 43 199 23 200 141 200 25 200 25 201 141 201 119 201 25 202 119 202 27 202 61 203 63 203 145 203 145 204 63 204 65 204 145 205 65 205 146 205 146 206 65 206 31 206 146 207 31 207 147 207 147 208 31 208 29 208 147 209 29 209 119 209 61 210 145 210 59 210 59 211 145 211 126 211 148 212 74 212 73 212 68 213 67 213 149 213 150 214 151 214 152 214 150 215 152 215 153 215 150 216 153 216 154 216 150 217 154 217 82 217 150 218 82 218 81 218 150 219 81 219 80 219 150 220 80 220 155 220 83 221 82 221 154 221 83 222 154 222 156 222 83 223 156 223 157 223 83 224 157 224 158 224 83 225 158 225 159 225 83 226 159 226 160 226 83 227 160 227 84 227 161 228 148 228 73 228 161 229 73 229 72 229 161 230 72 230 162 230 161 231 162 231 163 231 161 232 163 232 164 232 161 233 164 233 165 233 71 234 70 234 166 234 71 235 166 235 167 235 71 236 167 236 168 236 71 237 168 237 169 237 71 238 169 238 170 238 71 239 170 239 171 239 71 240 171 240 162 240 71 241 162 241 72 241 74 242 148 242 75 242 75 243 148 243 172 243 75 244 172 244 76 244 76 245 172 245 77 245 77 246 172 246 173 246 77 247 173 247 78 247 78 248 173 248 174 248 78 249 174 249 79 249 79 250 174 250 155 250 79 251 155 251 80 251 68 252 149 252 69 252 69 253 149 253 166 253 69 254 166 254 70 254 149 255 67 255 175 255 175 256 67 256 66 256 175 257 66 257 176 257 176 258 66 258 87 258 176 259 87 259 177 259 177 260 87 260 86 260 177 261 86 261 85 261 85 262 84 262 177 262 177 263 84 263 160 263 115 264 178 264 89 264 89 265 178 265 179 265 89 266 179 266 106 266 106 267 179 267 180 267 106 268 180 268 107 268 107 269 180 269 181 269 107 270 181 270 108 270 108 271 181 271 182 271 108 272 182 272 109 272 109 273 182 273 183 273 109 274 183 274 110 274 110 275 183 275 184 275 110 276 184 276 111 276 111 277 184 277 185 277 111 278 185 278 102 278 102 279 185 279 186 279 102 280 186 280 103 280 103 281 186 281 187 281 103 282 187 282 104 282 104 283 187 283 188 283 104 284 188 284 105 284 105 285 188 285 189 285 105 286 189 286 101 286 101 287 189 287 190 287 101 288 190 288 88 288 88 289 190 289 191 289 88 290 191 290 112 290 112 291 191 291 192 291 112 292 192 292 113 292 113 293 192 293 193 293 113 294 193 294 114 294 114 295 193 295 194 295 114 296 194 296 95 296 95 297 194 297 195 297 95 298 195 298 90 298 90 299 195 299 196 299 90 300 196 300 91 300 91 301 196 301 197 301 91 302 197 302 92 302 92 303 197 303 198 303 92 304 198 304 93 304 93 305 198 305 199 305 93 306 199 306 94 306 94 307 199 307 200 307 94 308 200 308 96 308 96 309 200 309 201 309 96 310 201 310 97 310 97 311 201 311 202 311 97 312 202 312 98 312 98 313 202 313 203 313 98 314 203 314 99 314 99 315 203 315 204 315 99 316 204 316 100 316 100 317 204 317 205 317 100 318 205 318 117 318 117 319 205 319 206 319 117 320 206 320 116 320 116 321 206 321 207 321 116 322 207 322 115 322 115 323 207 323 178 323 208 324 147 324 209 324 209 325 147 325 119 325 209 326 119 326 210 326 210 327 119 327 141 327 210 328 141 328 211 328 211 329 141 329 140 329 211 330 140 330 212 330 212 331 140 331 139 331 212 332 139 332 213 332 213 333 139 333 138 333 213 334 138 334 214 334 214 335 138 335 137 335 214 336 137 336 215 336 215 337 137 337 136 337 215 338 136 338 216 338 216 339 136 339 135 339 216 340 135 340 217 340 217 341 135 341 134 341 217 342 134 342 218 342 218 343 134 343 133 343 218 344 133 344 219 344 219 345 133 345 132 345 219 346 132 346 220 346 220 347 132 347 131 347 220 348 131 348 221 348 221 349 131 349 118 349 221 350 118 350 222 350 222 351 118 351 142 351 222 352 142 352 223 352 223 353 142 353 144 353 223 354 144 354 224 354 224 355 144 355 143 355 224 356 143 356 225 356 225 357 143 357 121 357 225 358 121 358 226 358 226 359 121 359 120 359 226 360 120 360 227 360 227 361 120 361 125 361 227 362 125 362 228 362 228 363 125 363 124 363 228 364 124 364 229 364 229 365 124 365 123 365 229 366 123 366 230 366 230 367 123 367 122 367 230 368 122 368 231 368 231 369 122 369 130 369 231 370 130 370 232 370 232 371 130 371 129 371 232 372 129 372 233 372 233 373 129 373 128 373 233 374 128 374 234 374 234 375 128 375 127 375 234 376 127 376 235 376 235 377 127 377 126 377 235 378 126 378 236 378 236 379 126 379 145 379 236 380 145 380 237 380 237 381 145 381 146 381 237 382 146 382 208 382 208 383 146 383 147 383 238 384 239 384 240 384 240 385 239 385 241 385 240 386 241 386 242 386 242 387 241 387 243 387 242 388 243 388 244 388 244 389 243 389 245 389 244 390 245 390 246 390 246 391 245 391 247 391 246 392 247 392 248 392 248 393 247 393 249 393 248 394 249 394 250 394 250 395 249 395 251 395 250 396 251 396 252 396 252 397 251 397 253 397 252 398 253 398 254 398 254 399 253 399 255 399 254 400 255 400 256 400 256 401 255 401 257 401 256 402 257 402 258 402 258 403 257 403 259 403 258 404 259 404 260 404 260 405 259 405 261 405 260 406 261 406 262 406 262 407 261 407 263 407 262 408 263 408 264 408 264 409 263 409 265 409 264 410 265 410 266 410 266 411 265 411 267 411 266 412 267 412 268 412 268 413 267 413 269 413 268 414 269 414 270 414 270 415 269 415 271 415 175 416 272 416 149 416 149 417 272 417 273 417 149 418 273 418 166 418 166 419 273 419 274 419 166 420 274 420 167 420 167 421 274 421 275 421 167 422 275 422 168 422 168 423 275 423 276 423 168 424 276 424 169 424 169 425 276 425 277 425 169 426 277 426 170 426 170 427 277 427 278 427 170 428 278 428 171 428 171 429 278 429 279 429 171 430 279 430 162 430 162 431 279 431 280 431 162 432 280 432 163 432 163 433 280 433 281 433 163 434 281 434 164 434 164 435 281 435 282 435 164 436 282 436 165 436 165 437 282 437 283 437 165 438 283 438 161 438 161 439 283 439 284 439 161 440 284 440 148 440 148 441 284 441 285 441 148 442 285 442 172 442 172 443 285 443 286 443 172 444 286 444 173 444 173 445 286 445 287 445 173 446 287 446 174 446 174 447 287 447 288 447 174 448 288 448 155 448 155 449 288 449 289 449 155 450 289 450 150 450 150 451 289 451 290 451 150 452 290 452 151 452 151 453 290 453 291 453 151 454 291 454 152 454 152 455 291 455 292 455 152 456 292 456 153 456 153 457 292 457 293 457 153 458 293 458 154 458 154 459 293 459 294 459 154 460 294 460 156 460 156 461 294 461 295 461 156 462 295 462 157 462 157 463 295 463 296 463 157 464 296 464 158 464 158 465 296 465 297 465 158 466 297 466 159 466 159 467 297 467 298 467 159 468 298 468 160 468 160 469 298 469 299 469 160 470 299 470 177 470 177 471 299 471 300 471 177 472 300 472 176 472 176 473 300 473 301 473 176 474 301 474 175 474 175 475 301 475 272 475 302 476 303 476 304 476 304 477 303 477 305 477 304 478 305 478 238 478 238 479 305 479 239 479 200 480 199 480 248 480 200 481 248 481 250 481 200 482 250 482 252 482 200 483 252 483 254 483 306 484 302 484 188 484 306 485 188 485 187 485 306 486 187 486 186 486 306 487 186 487 185 487 306 488 185 488 307 488 270 489 180 489 179 489 270 490 179 490 178 490 270 491 178 491 207 491 270 492 207 492 206 492 270 493 206 493 205 493 270 494 205 494 268 494 307 495 185 495 184 495 307 496 184 496 183 496 307 497 183 497 182 497 307 498 182 498 181 498 307 499 181 499 180 499 307 500 180 500 270 500 264 501 266 501 203 501 264 502 203 502 202 502 264 503 202 503 201 503 302 504 304 504 192 504 302 505 192 505 191 505 302 506 191 506 190 506 302 507 190 507 189 507 302 508 189 508 188 508 256 509 200 509 254 509 200 510 256 510 201 510 201 511 256 511 258 511 201 512 258 512 264 512 264 513 258 513 260 513 264 514 260 514 262 514 203 515 266 515 204 515 204 516 266 516 268 516 204 517 268 517 205 517 197 518 196 518 244 518 244 519 196 519 195 519 244 520 195 520 242 520 242 521 195 521 194 521 242 522 194 522 240 522 240 523 194 523 193 523 240 524 193 524 238 524 238 525 193 525 192 525 238 526 192 526 304 526 244 527 246 527 197 527 197 528 246 528 198 528 246 529 248 529 198 529 198 530 248 530 199 530 230 531 255 531 253 531 230 532 253 532 251 532 230 533 251 533 249 533 230 534 249 534 229 534 308 535 309 535 215 535 308 536 215 536 216 536 308 537 216 537 217 537 308 538 217 538 218 538 308 539 218 539 303 539 271 540 269 540 235 540 271 541 235 541 236 541 271 542 236 542 237 542 271 543 237 543 208 543 271 544 208 544 209 544 271 545 209 545 210 545 309 546 271 546 210 546 309 547 210 547 211 547 309 548 211 548 212 548 309 549 212 549 213 549 309 550 213 550 214 550 309 551 214 551 215 551 265 552 231 552 232 552 265 553 232 553 233 553 265 554 233 554 267 554 303 555 218 555 219 555 303 556 219 556 220 556 303 557 220 557 221 557 303 558 221 558 222 558 303 559 222 559 305 559 255 560 230 560 257 560 257 561 230 561 231 561 257 562 231 562 259 562 259 563 231 563 265 563 259 564 265 564 261 564 261 565 265 565 263 565 235 566 269 566 234 566 234 567 269 567 267 567 234 568 267 568 233 568 305 569 222 569 239 569 239 570 222 570 223 570 239 571 223 571 241 571 241 572 223 572 224 572 241 573 224 573 243 573 243 574 224 574 225 574 243 575 225 575 245 575 245 576 225 576 226 576 245 577 226 577 227 577 245 578 227 578 247 578 247 579 227 579 228 579 247 580 228 580 249 580 249 581 228 581 229 581 271 582 309 582 270 582 310 583 311 583 312 583 310 584 312 584 307 584 310 585 307 585 270 585 310 586 270 586 309 586 310 587 309 587 313 587 282 588 281 588 314 588 314 589 283 589 282 589 315 590 316 590 273 590 315 591 273 591 272 591 315 592 272 592 301 592 315 593 301 593 300 593 315 594 300 594 299 594 315 595 299 595 298 595 315 596 298 596 297 596 315 597 297 597 296 597 315 598 296 598 295 598 315 599 295 599 317 599 315 600 317 600 318 600 319 601 317 601 289 601 319 602 289 602 288 602 319 603 288 603 287 603 319 604 287 604 320 604 317 605 295 605 294 605 317 606 294 606 293 606 317 607 293 607 292 607 317 608 292 608 291 608 317 609 291 609 290 609 317 610 290 610 289 610 279 611 321 611 322 611 279 612 322 612 323 612 279 613 323 613 324 613 279 614 324 614 325 614 279 615 325 615 326 615 279 616 326 616 327 616 279 617 327 617 280 617 328 618 321 618 279 618 328 619 279 619 278 619 328 620 278 620 277 620 328 621 277 621 276 621 328 622 276 622 275 622 328 623 275 623 329 623 327 624 330 624 280 624 280 625 330 625 331 625 280 626 331 626 332 626 273 627 316 627 274 627 274 628 316 628 329 628 274 629 329 629 275 629 332 630 333 630 280 630 280 631 333 631 314 631 280 632 314 632 281 632 286 633 285 633 334 633 334 634 285 634 284 634 334 635 284 635 335 635 335 636 284 636 283 636 335 637 283 637 314 637 286 638 334 638 287 638 287 639 334 639 320 639 336 640 337 640 312 640 312 641 337 641 306 641 312 642 306 642 307 642 338 643 308 643 337 643 337 644 308 644 306 644 308 645 303 645 306 645 306 646 303 646 302 646 309 647 308 647 313 647 313 648 308 648 338 648 313 649 338 649 339 649 316 650 340 650 329 650 329 651 340 651 341 651 329 652 341 652 328 652 328 653 341 653 342 653 328 654 342 654 321 654 321 655 342 655 343 655 321 656 343 656 322 656 322 657 343 657 344 657 322 658 344 658 323 658 323 659 344 659 345 659 323 660 345 660 324 660 324 661 345 661 346 661 324 662 346 662 325 662 325 663 346 663 347 663 325 664 347 664 326 664 326 665 347 665 348 665 326 666 348 666 327 666 327 667 348 667 349 667 327 668 349 668 330 668 330 669 349 669 350 669 330 670 350 670 331 670 331 671 350 671 351 671 331 672 351 672 332 672 332 673 351 673 352 673 332 674 352 674 333 674 333 675 352 675 353 675 333 676 353 676 314 676 314 677 353 677 354 677 314 678 354 678 335 678 335 679 354 679 355 679 335 680 355 680 334 680 334 681 355 681 356 681 334 682 356 682 320 682 320 683 356 683 357 683 358 684 319 684 357 684 357 685 319 685 320 685 359 686 317 686 358 686 358 687 317 687 319 687 354 688 360 688 361 688 361 689 362 689 354 689 358 690 357 690 363 690 358 691 363 691 364 691 358 692 364 692 365 692 358 693 365 693 359 693 359 694 365 694 366 694 359 695 366 695 367 695 359 696 367 696 368 696 359 697 368 697 369 697 359 698 369 698 370 698 359 699 370 699 371 699 359 700 371 700 372 700 359 701 372 701 373 701 374 702 375 702 349 702 374 703 349 703 348 703 374 704 348 704 347 704 374 705 347 705 346 705 374 706 346 706 345 706 374 707 345 707 344 707 374 708 344 708 343 708 342 709 341 709 376 709 342 710 376 710 377 710 342 711 377 711 378 711 342 712 378 712 379 712 342 713 379 713 374 713 342 714 374 714 343 714 372 715 371 715 380 715 372 716 380 716 381 716 372 717 381 717 382 717 372 718 382 718 383 718 372 719 383 719 384 719 372 720 384 720 385 720 372 721 385 721 386 721 372 722 386 722 387 722 372 723 387 723 340 723 352 724 351 724 375 724 375 725 351 725 350 725 375 726 350 726 349 726 376 727 341 727 388 727 388 728 341 728 340 728 388 729 340 729 387 729 360 730 354 730 375 730 375 731 354 731 353 731 375 732 353 732 352 732 354 733 362 733 355 733 355 734 362 734 389 734 355 735 389 735 356 735 356 736 389 736 390 736 356 737 390 737 391 737 391 738 363 738 356 738 356 739 363 739 357 739 386 740 392 740 387 740 387 741 392 741 393 741 387 742 393 742 388 742 388 743 393 743 394 743 388 744 394 744 376 744 376 745 394 745 395 745 376 746 395 746 377 746 377 747 395 747 396 747 377 748 396 748 378 748 378 749 396 749 397 749 378 750 397 750 379 750 379 751 397 751 398 751 379 752 398 752 374 752 374 753 398 753 399 753 374 754 399 754 375 754 375 755 399 755 400 755 375 756 400 756 360 756 360 757 400 757 401 757 360 758 401 758 361 758 361 759 401 759 402 759 361 760 402 760 362 760 362 761 402 761 403 761 362 762 403 762 389 762 389 763 403 763 404 763 389 764 404 764 390 764 390 765 404 765 405 765 390 766 405 766 391 766 391 767 405 767 406 767 391 768 406 768 363 768 363 769 406 769 407 769 363 770 407 770 364 770 364 771 407 771 408 771 364 772 408 772 365 772 365 773 408 773 409 773 365 774 409 774 366 774 366 775 409 775 410 775 366 776 410 776 367 776 367 777 410 777 411 777 367 778 411 778 368 778 368 779 411 779 412 779 368 780 412 780 369 780 369 781 412 781 413 781 369 782 413 782 370 782 370 783 413 783 414 783 370 784 414 784 371 784 371 785 414 785 415 785 371 786 415 786 380 786 380 787 415 787 416 787 380 788 416 788 381 788 381 789 416 789 417 789 381 790 417 790 382 790 382 791 417 791 418 791 382 792 418 792 383 792 383 793 418 793 419 793 383 794 419 794 384 794 384 795 419 795 420 795 384 796 420 796 385 796 385 797 420 797 421 797 385 798 421 798 386 798 386 799 421 799 392 799 422 800 423 800 424 800 424 801 423 801 425 801 424 802 425 802 426 802 426 803 425 803 427 803 426 804 427 804 428 804 428 805 427 805 429 805 428 806 429 806 430 806 430 807 429 807 431 807 430 808 431 808 432 808 423 809 422 809 433 809 433 810 422 810 434 810 433 811 434 811 435 811 435 812 434 812 436 812 435 813 436 813 437 813 437 814 436 814 438 814 437 815 438 815 439 815 439 816 438 816 440 816 439 817 440 817 441 817 441 818 440 818 442 818 441 819 442 819 443 819 444 820 433 820 445 820 445 821 433 821 435 821 445 822 435 822 446 822 446 823 435 823 437 823 446 824 437 824 447 824 447 825 437 825 439 825 447 826 439 826 448 826 448 827 439 827 441 827 448 828 441 828 449 828 449 829 441 829 443 829 449 830 443 830 450 830 450 831 443 831 442 831 450 832 442 832 451 832 451 833 442 833 440 833 451 834 440 834 452 834 452 835 440 835 438 835 452 836 438 836 453 836 453 837 438 837 436 837 453 838 436 838 454 838 454 839 436 839 434 839 454 840 434 840 455 840 455 841 434 841 422 841 456 842 457 842 405 842 393 843 458 843 459 843 410 844 409 844 447 844 410 845 447 845 448 845 410 846 448 846 449 846 410 847 449 847 414 847 410 848 414 848 413 848 410 849 413 849 412 849 410 850 412 850 411 850 450 851 451 851 419 851 450 852 419 852 418 852 450 853 418 853 417 853 450 854 417 854 416 854 450 855 416 855 415 855 450 856 415 856 414 856 450 857 414 857 449 857 404 858 403 858 402 858 404 859 402 859 401 859 404 860 401 860 400 860 404 861 400 861 460 861 404 862 460 862 456 862 404 863 456 863 405 863 461 864 460 864 400 864 461 865 400 865 399 865 461 866 399 866 398 866 461 867 398 867 397 867 461 868 397 868 396 868 461 869 396 869 395 869 461 870 395 870 394 870 461 871 394 871 462 871 463 872 406 872 464 872 464 873 406 873 405 873 464 874 405 874 457 874 447 875 409 875 446 875 446 876 409 876 408 876 446 877 408 877 445 877 445 878 408 878 407 878 445 879 407 879 444 879 444 880 407 880 406 880 444 881 406 881 463 881 462 882 394 882 465 882 465 883 394 883 393 883 465 884 393 884 459 884 452 885 453 885 420 885 420 886 453 886 454 886 420 887 454 887 421 887 421 888 454 888 455 888 421 889 455 889 392 889 392 890 455 890 458 890 392 891 458 891 393 891 452 892 420 892 451 892 451 893 420 893 419 893 455 894 422 894 458 894 458 895 422 895 424 895 458 896 424 896 459 896 459 897 424 897 426 897 459 898 426 898 465 898 465 899 426 899 428 899 465 900 428 900 462 900 462 901 428 901 430 901 462 902 430 902 461 902 461 903 430 903 432 903 461 904 432 904 460 904 460 905 432 905 431 905 460 906 431 906 456 906 456 907 431 907 429 907 456 908 429 908 457 908 457 909 429 909 427 909 457 910 427 910 464 910 464 911 427 911 425 911 464 912 425 912 463 912 463 913 425 913 423 913 463 914 423 914 444 914 444 915 423 915 433 915 466 916 467 916 468 916 468 917 467 917 469 917 470 918 471 918 466 918 466 919 471 919 467 919 472 920 470 920 468 920 468 921 470 921 466 921 468 922 469 922 472 922 472 923 469 923 473 923 467 924 471 924 469 924 469 925 471 925 473 925 474 926 475 926 476 926 477 927 339 927 474 927 474 928 339 928 475 928 478 929 479 929 310 929 310 930 479 930 311 930 480 931 315 931 481 931 481 932 315 932 318 932 482 933 483 933 372 933 372 934 483 934 373 934 479 935 480 935 311 935 311 936 480 936 481 936 311 937 481 937 312 937 312 938 481 938 336 938 372 939 340 939 316 939 372 940 316 940 315 940 372 941 315 941 478 941 372 942 478 942 482 942 315 943 480 943 478 943 478 944 480 944 479 944 484 945 483 945 310 945 310 946 483 946 482 946 310 947 482 947 478 947 339 948 477 948 313 948 313 949 477 949 484 949 313 950 484 950 310 950 373 951 483 951 484 951 337 952 336 952 481 952 337 953 481 953 318 953 337 954 318 954 476 954 337 955 476 955 475 955 337 956 475 956 339 956 337 957 339 957 338 957 476 958 318 958 484 958 484 959 318 959 373 959 318 960 317 960 373 960 373 961 317 961 359 961 477 962 470 962 484 962 484 963 470 963 472 963 484 964 472 964 476 964 476 965 472 965 473 965 476 966 473 966 474 966 474 967 473 967 471 967 474 968 471 968 477 968 477 969 471 969 470 969</p>
                </triangles>
            </mesh>
        </geometry>
    </library_geometries>
    <library_visual_scenes>
        <visual_scene id="VisualSceneNode" name="VisualScene">
            <node id="node" name="node">
                <instance_geometry url="#shape0-lib"/>
            </node>
        </visual_scene>
    </library_visual_scenes>
    <scene>
        <instance_visual_scene url="#VisualSceneNode"/>
    </scene>
</COLLADA>
