<?xml version="1.0" encoding="UTF-8"?>
<COLLADA xmlns="http://www.collada.org/2005/11/COLLADASchema" version="1.4.1">
    <asset>
        <contributor>
            <author>VCGLab</author>
            <authoring_tool>VCGLib | MeshLab</authoring_tool>
        </contributor>
        <created>Fri May 8 15:35:51 2026 GMT</created>
        <modified>Fri May 8 15:35:51 2026 GMT</modified>
        <up_axis>Y_UP</up_axis>
    </asset>
    <library_geometries>
        <geometry id="shape0-lib" name="shape0">
            <mesh>
                <source id="shape0-lib-positions" name="position">
                    <float_array id="shape0-lib-positions-array" count="2289">0.100544 -0.0164927 -0.1381 0.1025 -0.015 -0.1381 0.102451 -0.015 -0.1381 0.101212 -0.0146712 -0.1381 0.100298 -0.0137712 -0.1381 0.0989323 -0.0133286 -0.1381 0.1025 -0.025 -0.1381 0.1011 -0.02 -0.1381 0.100415 -0.0238819 -0.1381 0.102451 -0.025 -0.1381 0.0943545 -0.0313517 -0.1381 0.0917209 -0.0311776 -0.1381 0.0904762 -0.0322285 -0.1381 0.0877791 -0.0311776 -0.1381 0.0865214 -0.0318169 -0.1381 0.084075 -0.0298294 -0.1381 0.0829068 -0.0301604 -0.1381 0.0810554 -0.0272956 -0.1381 0.0800132 -0.0274335 -0.1381 0.0790845 -0.0238819 -0.1381 0.0781453 -0.0239234 -0.1381 0.0784 -0.02 -0.1381 0.0775 -0.02 -0.1381 0.0784977 -0.0185142 -0.1381 0.0797417 -0.0146468 -0.1381 0.0781453 -0.0160766 -0.1381 0.0822681 -0.0114652 -0.1381 0.0800132 -0.0125665 -0.1381 0.085753 -0.00937708 -0.1381 0.0829068 -0.00983961 -0.1381 0.08975 -0.00865 -0.1381 0.0865214 -0.00818311 -0.1381 0.0943545 -0.00864828 -0.1381 0.0904762 -0.00777154 -0.1381 0.0932574 -0.00920551 -0.1381 0.0964214 -0.0108177 -0.1381 0.0977476 -0.0107209 -0.1381 0.101212 -0.0253288 -0.1381 0.0984446 -0.0272956 -0.1381 0.100298 -0.0262288 -0.1381 0.095425 -0.0298294 -0.1381 0.0977476 -0.029279 -0.1381 0.1025 -0.025 -0.174087 0.1025 -0.0225508 -0.174844 0.1025 -0.02 -0.1751 0.1025 -0.0174492 -0.174844 0.1025 -0.015 -0.174087 0.101704 -0.0148858 -0.174038 0.100755 -0.0143373 -0.173785 0.100298 -0.0137712 -0.173489 0.102451 -0.015 -0.174087 0.0636298 0.042 -0.18525 0.0636298 0.042 0.00075 0.071 0.042 -0.18525 0.071 0.042 0.00075 0.071 0.059 0.00075 0.0643363 0.0583363 0.00075 0.0637421 0.0609396 0.00075 0.0620773 0.0630273 0.00075 0.0704127 0.0627082 0.00075 0.0596714 0.0524867 0.00075 0.0620773 0.0536453 0.00075 0.0637421 0.055733 0.00075 0.0596714 0.0641859 0.00075 0.0660534 0.0687082 0.00075 0.0687082 0.0660534 0.00075 0.0627082 0.0704127 0.00075 0.0570012 0.0641859 0.00075 0.059 0.071 0.00075 0.042 0.0636298 0.00075 0.042 0.071 0.00075 0.0529305 0.055733 0.00075 0.0545954 0.0536453 0.00075 0.047707 0.0522377 0.00075 0.0570012 0.0524867 0.00075 0.0522377 0.047707 0.00075 0.0576273 0.0442417 0.00075 0.0545954 0.0630273 0.00075 0.0529305 0.0609396 0.00075 0.0442417 0.0576273 0.00075 0.0523363 0.0583363 0.00075 0.059 0.071 0.01275 0.0627082 0.0704127 0.01275 0.0660534 0.0687082 0.01275 0.0687082 0.0660534 0.01275 0.0704127 0.0627082 0.01275 0.071 0.059 0.01275 0.0476484 -0.0442112 0.01275 0.0405268 -0.0508191 0.01275 0.0570012 -0.0524867 0.01275 0.058563 -0.0282024 0.01275 0.0596714 -0.0524867 0.01275 0.0620773 -0.0536453 0.01275 0.0570012 0.0524867 0.01275 0.0405268 0.0508191 0.01275 0.0476484 0.0442112 0.01275 0.0537055 0.0366158 0.01275 -0.0620773 -0.0536453 0.01275 -0.0596714 -0.0524867 0.01275 -0.058563 -0.0282024 0.01275 -0.0570012 0.0524867 0.01275 -0.0537055 0.0366158 0.01275 -0.0476484 0.0442112 0.01275 0.0637421 0.0609396 0.01275 0.0643363 0.0583363 0.01275 -0.0545954 -0.0536453 0.01275 -0.0529305 -0.055733 0.01275 -0.0325 -0.0562917 0.01275 -0.071 0.059 0.01275 -0.071 -0.059 0.01275 -0.0643363 0.0583363 0.01275 -0.0637421 0.0609396 0.01275 -0.0620773 0.0630273 0.01275 -0.0704127 0.0627082 0.01275 -0.0704127 -0.0627082 0.01275 -0.0637421 -0.0609396 0.01275 -0.0643363 -0.0583363 0.01275 -0.0637421 -0.055733 0.01275 -0.0621122 -0.0191591 0.01275 -0.064274 -0.00968775 0.01275 -0.065 0 0.01275 -0.064274 0.00968775 0.01275 -0.0620773 0.0536453 0.01275 -0.0637421 0.055733 0.01275 0.071 -0.059 0.01275 0.0637421 0.055733 0.01275 0.0620773 0.0536453 0.01275 0.064274 0.00968775 0.01275 0.065 0 0.01275 0.064274 -0.00968775 0.01275 0.0621122 -0.0191591 0.01275 0.0637421 -0.055733 0.01275 0.0643363 -0.0583363 0.01275 0.0637421 -0.0609396 0.01275 0.0704127 -0.0627082 0.01275 -0.059 0.071 0.01275 -0.0596714 0.0641859 0.01275 -0.0570012 0.0641859 0.01275 -0.00485746 0.0648182 0.01275 0.00485746 0.0648182 0.01275 0.0570012 0.0641859 0.01275 0.0596714 0.0641859 0.01275 0.059 -0.071 0.01275 0.0627082 -0.0704127 0.01275 0.0596714 -0.0641859 0.01275 0.0570012 -0.0641859 0.01275 0.00485746 -0.0648182 0.01275 -0.00485746 -0.0648182 0.01275 -0.0570012 -0.0641859 0.01275 -0.059 -0.071 0.01275 -0.0405268 0.0508191 0.01275 -0.0325 0.0562917 0.01275 -0.0529305 0.055733 0.01275 -0.0545954 0.0536453 0.01275 -0.0627082 0.0704127 0.01275 -0.0660534 0.0687082 0.01275 -0.0687082 0.0660534 0.01275 -0.058563 0.0282024 0.01275 -0.0596714 0.0524867 0.01275 -0.0621122 0.0191591 0.01275 0.0537055 -0.0366158 0.01275 0.0621122 0.0191591 0.01275 0.0596714 0.0524867 0.01275 0.058563 0.0282024 0.01275 0.0620773 -0.0630273 0.01275 0.0687082 -0.0660534 0.01275 0.0660534 -0.0687082 0.01275 -0.0660534 -0.0687082 0.01275 -0.0627082 -0.0704127 0.01275 -0.0687082 -0.0660534 0.01275 -0.0596714 -0.0641859 0.01275 -0.0476484 -0.0442112 0.01275 -0.0537055 -0.0366158 0.01275 -0.0570012 -0.0524867 0.01275 0.0620773 0.0630273 0.01275 0.0529305 0.055733 0.01275 0.0523363 0.0583363 0.01275 0.0325 0.0562917 0.01275 0.0529305 0.0609396 0.01275 0.0237472 0.0605068 0.01275 0.0545954 0.0630273 0.01275 0.0144639 0.0633703 0.01275 0.0545954 0.0536453 0.01275 -0.0523363 0.0583363 0.01275 -0.0237472 0.0605068 0.01275 -0.0529305 0.0609396 0.01275 -0.0144639 0.0633703 0.01275 -0.0545954 0.0630273 0.01275 -0.0405268 -0.0508191 0.01275 -0.0529305 -0.0609396 0.01275 -0.0237472 -0.0605068 0.01275 -0.0523363 -0.0583363 0.01275 -0.0545954 -0.0630273 0.01275 -0.0144639 -0.0633703 0.01275 0.0529305 -0.055733 0.01275 0.0545954 -0.0536453 0.01275 0.0325 -0.0562917 0.01275 0.0529305 -0.0609396 0.01275 0.0523363 -0.0583363 0.01275 0.0237472 -0.0605068 0.01275 0.0144639 -0.0633703 0.01275 0.0545954 -0.0630273 0.01275 -0.0620773 -0.0630273 0.01275 0.0442417 -0.0576273 0.00075 0.0529305 -0.055733 0.00075 0.0523363 -0.0583363 0.00075 0.071 -0.059 0.00075 0.0704127 -0.0627082 0.00075 0.0637421 -0.0609396 0.00075 0.0643363 -0.0583363 0.00075 0.0637421 -0.055733 0.00075 0.0620773 -0.0536453 0.00075 0.042 -0.0636298 0.00075 0.0529305 -0.0609396 0.00075 0.0545954 -0.0630273 0.00075 0.0570012 -0.0641859 0.00075 0.042 -0.071 0.00075 0.059 -0.071 0.00075 0.0596714 -0.0641859 0.00075 0.0627082 -0.0704127 0.00075 0.0687082 -0.0660534 0.00075 0.0660534 -0.0687082 0.00075 0.047707 -0.0522377 0.00075 0.0522377 -0.047707 0.00075 0.0570012 -0.0524867 0.00075 0.0576273 -0.0442417 0.00075 0.0596714 -0.0524867 0.00075 0.0636298 -0.042 0.00075 0.071 -0.042 0.00075 0.0545954 -0.0536453 0.00075 0.0620773 -0.0630273 0.00075 0.0735 0.03285 -0.1519 0.071 0.03285 -0.1519 0.0735 0.0321178 -0.150132 0.071 0.0321178 -0.150132 0.0735 0.03035 -0.1494 0.071 0.03035 -0.1494 0.071 0.03285 -0.1726 0.0735 0.03285 -0.1726 0.0735 0.03035 -0.1751 0.071 0.03035 -0.1751 0.0735 0.0321178 -0.174368 0.071 0.0321178 -0.174368 0.0735 0.00965 -0.1751 0.071 0.00965 -0.1751 0.0735 0.00715 -0.1726 0.071 0.00715 -0.1726 0.0735 0.00788223 -0.174368 0.071 0.00788223 -0.174368 0.071 0.00715 -0.1519 0.0735 0.00715 -0.1519 0.0735 0.00965 -0.1494 0.071 0.00965 -0.1494 0.0735 0.00788223 -0.150132 0.071 0.00788223 -0.150132 0.0576273 -0.0442417 -0.18525 0.0636298 -0.042 -0.18525 0.0522377 -0.047707 -0.18525 0.047707 -0.0522377 -0.18525 0.0442417 -0.0576273 -0.18525 0.042 -0.0636298 -0.18525 -0.042 -0.071 -0.18525 -0.042 -0.071 0.00075 -0.042 -0.0636298 -0.18525 -0.042 -0.0636298 0.00075 -0.047707 -0.0522377 0.00075 -0.0442417 -0.0576273 -0.18525 -0.0442417 -0.0576273 0.00075 -0.047707 -0.0522377 -0.18525 -0.0522377 -0.047707 0.00075 -0.0522377 -0.047707 -0.18525 -0.0576273 -0.0442417 0.00075 -0.0576273 -0.0442417 -0.18525 -0.0636298 -0.042 0.00075 -0.0636298 -0.042 -0.18525 -0.071 -0.042 0.00075 -0.071 -0.042 -0.18525 -0.071 0.059 0.00075 -0.071 0.042 0.00075 -0.071 -0.059 0.00075 -0.071 0.042 -0.18525 0.042 0.071 -0.18525 -0.042 0.071 -0.18525 -0.042 0.071 0.00075 -0.059 0.071 0.00075 0.042 0.0636298 -0.18525 0.0442417 0.0576273 -0.18525 0.047707 0.0522377 -0.18525 0.0522377 0.047707 -0.18525 0.0576273 0.0442417 -0.18525 0.042 -0.071 -0.18525 -0.059 -0.071 0.00075 -0.0627082 -0.0704127 0.00075 -0.0660534 -0.0687082 0.00075 -0.0687082 -0.0660534 0.00075 -0.0704127 -0.0627082 0.00075 -0.0596714 -0.0524867 0.00075 -0.0570012 -0.0524867 0.00075 -0.0529305 -0.055733 0.00075 -0.0523363 -0.0583363 0.00075 -0.0620773 -0.0536453 0.00075 -0.0637421 -0.055733 0.00075 -0.0643363 -0.0583363 0.00075 -0.0637421 -0.0609396 0.00075 -0.0570012 -0.0641859 0.00075 -0.0545954 -0.0630273 0.00075 -0.0529305 -0.0609396 0.00075 -0.0620773 -0.0630273 0.00075 -0.0596714 -0.0641859 0.00075 -0.0545954 -0.0536453 0.00075 0.095425 -0.0298294 -0.1219 0.0984446 -0.0272956 -0.1219 0.0956816 -0.0274207 -0.1219 0.0928928 -0.0289651 -0.1219 0.08975 -0.0295 -0.1219 0.0917209 -0.0311776 -0.1219 0.0861145 -0.0287769 -0.1219 0.084075 -0.0298294 -0.1219 0.0877791 -0.0311776 -0.1219 0.0933855 -0.0112231 -0.1219 0.095425 -0.0101706 -0.1219 0.08975 -0.0105 -0.1219 0.0917209 -0.00882243 -0.1219 0.0877791 -0.00882243 -0.1219 0.0978025 -0.0250406 -0.1219 0.100415 -0.0238819 -0.1219 0.0990166 -0.0220929 -0.1219 0.1011 -0.02 -0.1219 0.09925 -0.02 -0.1219 0.100415 -0.0161181 -0.1219 0.0985269 -0.0163645 -0.1219 0.0984446 -0.0127044 -0.1219 0.0964675 -0.0132825 -0.1219 0.0790845 -0.0161181 -0.1219 0.0830325 -0.0132825 -0.1219 0.0810554 -0.0127044 -0.1219 0.0861145 -0.0112231 -0.1219 0.084075 -0.0101706 -0.1219 0.0809731 -0.0163645 -0.1219 0.0784 -0.02 -0.1219 0.08025 -0.02 -0.1219 0.0790845 -0.0238819 -0.1219 0.0809731 -0.0236355 -0.1219 0.0810554 -0.0272956 -0.1219 0.0830325 -0.0267175 -0.1219 -0.065 0 0.01625 -0.064274 0.00968775 0.01625 -0.0621122 0.0191591 0.01625 -0.058563 0.0282024 0.01625 -0.0537055 0.0366158 0.01625 -0.0476484 0.0442112 0.01625 -0.0405268 0.0508191 0.01625 -0.0325 0.0562917 0.01625 -0.0237472 0.0605068 0.01625 -0.0144639 0.0633703 0.01625 -0.00485746 0.0648182 0.01625 0.00485746 0.0648182 0.01625 0.0144639 0.0633703 0.01625 0.0237472 0.0605068 0.01625 0.0325 0.0562917 0.01625 0.0405268 0.0508191 0.01625 0.0476484 0.0442112 0.01625 0.0537055 0.0366158 0.01625 0.058563 0.0282024 0.01625 0.0621122 0.0191591 0.01625 0.064274 0.00968775 0.01625 0.065 0 0.01625 0.064274 -0.00968775 0.01625 0.0621122 -0.0191591 0.01625 0.058563 -0.0282024 0.01625 0.0537055 -0.0366158 0.01625 0.0476484 -0.0442112 0.01625 0.0405268 -0.0508191 0.01625 0.0325 -0.0562917 0.01625 0.0237472 -0.0605068 0.01625 0.0144639 -0.0633703 0.01625 0.00485746 -0.0648182 0.01625 -0.00485746 -0.0648182 0.01625 -0.0144639 -0.0633703 0.01625 -0.0237472 -0.0605068 0.01625 -0.0325 -0.0562917 0.01625 -0.0405268 -0.0508191 0.01625 -0.0476484 -0.0442112 0.01625 -0.0537055 -0.0366158 0.01625 -0.058563 -0.0282024 0.01625 -0.0621122 -0.0191591 0.01625 -0.064274 -0.00968775 0.01625 -0.0545954 0.0536453 0.00075 -0.0529305 0.055733 0.00075 -0.047707 0.0522377 0.00075 -0.0570012 0.0524867 0.00075 -0.042 0.0636298 0.00075 -0.0442417 0.0576273 0.00075 -0.0529305 0.0609396 0.00075 -0.0545954 0.0630273 0.00075 -0.0570012 0.0641859 0.00075 -0.0643363 0.0583363 0.00075 -0.0637421 0.055733 0.00075 -0.0620773 0.0536453 0.00075 -0.0596714 0.0524867 0.00075 -0.0636298 0.042 0.00075 -0.0522377 0.047707 0.00075 -0.0576273 0.0442417 0.00075 -0.0660534 0.0687082 0.00075 -0.0627082 0.0704127 0.00075 -0.0687082 0.0660534 0.00075 -0.0596714 0.0641859 0.00075 -0.0637421 0.0609396 0.00075 -0.0704127 0.0627082 0.00075 -0.0620773 0.0630273 0.00075 -0.0523363 0.0583363 0.00075 0.0735 0.00818231 -0.160166 0.0735 0.0096077 -0.15625 0.0735 0.0122866 -0.153058 0.0735 0.0158958 -0.150974 0.0735 0.02 -0.15025 0.0735 0.02 -0.17425 0.0735 0.0158958 -0.173526 0.0735 0.0122866 -0.171442 0.0735 0.0096077 -0.16825 0.0735 0.00818231 -0.164334 0.0735 0.0241042 -0.150974 0.0735 0.0277134 -0.153058 0.0735 0.0303923 -0.15625 0.0735 0.0318177 -0.160166 0.0735 0.0318177 -0.164334 0.0735 0.0303923 -0.16825 0.0735 0.0277134 -0.171442 0.0735 0.0241042 -0.173526 0.08975 -0.0105 -0.1299 0.0861145 -0.0112231 -0.1299 0.0933855 -0.0112231 -0.1299 0.08975 -0.0295 -0.1299 0.0933855 -0.0287769 -0.1299 0.0861145 -0.0287769 -0.1299 0.0964675 -0.0267175 -0.1299 0.0830325 -0.0267175 -0.1299 0.0985269 -0.0236355 -0.1299 0.0809731 -0.0236355 -0.1299 0.09925 -0.02 -0.1299 0.08025 -0.02 -0.1299 0.0985269 -0.0163645 -0.1299 0.0809731 -0.0163645 -0.1299 0.0964675 -0.0132825 -0.1299 0.0830325 -0.0132825 -0.1299 0.0869913 0.00806461 -0.161006 0.0864344 0.00820726 -0.160029 0.0775 0.02 -0.17425 0.0778345 0.0171569 -0.173908 0.0788392 0.0144303 -0.172879 0.0799542 0.0126445 -0.171731 0.0815 0.0109446 -0.170124 0.0819048 0.0105918 -0.169699 0.084528 0.00891891 -0.166855 0.0865953 0.00816331 -0.164223 0.0871928 0.00801989 -0.162941 0.0841207 0.00912025 -0.157187 0.0819048 0.0105918 -0.154801 0.0815 0.0109446 -0.154376 0.079968 0.0126261 -0.152783 0.078792 0.014524 -0.151572 0.0778098 0.0172627 -0.150566 0.0775 0.02 -0.15025 0.0869924 0.0319356 -0.163491 0.0864371 0.0317935 -0.164467 0.0778345 0.0228431 -0.150592 0.0788393 0.0255698 -0.151621 0.0800338 0.0274602 -0.152851 0.0815 0.0290554 -0.154376 0.0819048 0.0294082 -0.154801 0.0845276 0.0310809 -0.157644 0.086595 0.0318366 -0.160277 0.0872682 0.031996 -0.161941 0.0841258 0.0308824 -0.167307 0.0819048 0.0294082 -0.169699 0.0815 0.0290554 -0.170124 0.0799653 0.0273703 -0.17172 0.07879 0.025472 -0.17293 0.0778088 0.0227332 -0.173935 0.100298 0.0137712 -0.173489 0.0975441 0.0105493 -0.16225 0.099216 0.0122246 -0.172481 0.0962807 0.00963598 -0.169847 0.0938568 0.00845891 -0.16225 0.0932034 0.00824675 -0.167445 0.0866415 0.00815103 -0.167222 0.0929033 0.0318371 -0.16725 0.0938568 0.0315411 -0.16225 0.0935054 0.0316605 -0.16765 0.0964499 0.0302555 -0.169993 0.0975441 0.0294507 -0.16225 0.098375 0.0286991 -0.171708 0.0943545 0.00864828 -0.1381 0.0904762 0.00777154 -0.1381 0.0781453 0.0160766 -0.1381 0.0943545 0.0313517 -0.1381 0.0977476 0.029279 -0.1381 0.0865214 0.00818311 -0.1381 0.0829068 0.00983961 -0.1381 0.0896779 0.00775021 -0.16225 0.100298 0.0262288 -0.173489 0.100298 0.0262288 -0.1381 0.0829068 0.0301604 -0.1381 0.0865214 0.0318169 -0.1381 0.0800132 0.0274335 -0.1381 0.0904762 0.0322285 -0.1381 0.0896779 0.0322498 -0.16225 0.100298 0.0137712 -0.1381 0.0977476 0.0107209 -0.1381 0.0886171 0.0321975 -0.166293 0.0863599 0.0317716 -0.167403 0.0833696 0.0304573 -0.169718 0.0909285 0.00780686 -0.166306 0.0887838 0.00778814 -0.166249 0.0843995 0.00898031 -0.16886 0.0815917 0.010862 -0.171284 0.0799725 0.0126201 -0.17277 0.0784529 0.0152631 -0.174195 0.0779639 0.016661 -0.174659 0.0775001 0.02 -0.1751 0.0775363 0.0209416 -0.175066 0.0781049 0.0238021 -0.174525 0.0789947 0.025864 -0.173684 0.0808204 0.0283861 -0.171986 0.0907503 0.0322091 -0.166258 0.0800132 0.0125665 -0.1381 0.0775 0.02 -0.1381 0.0781453 0.0239234 -0.1381 0.100497 0.0234919 -0.1381 0.1025 0.025 -0.1381 0.102451 0.025 -0.1381 0.101212 0.0253288 -0.1381 0.0988919 0.026642 -0.1381 0.1025 0.015 -0.1381 0.10105 0.02 -0.1381 0.100368 0.0161352 -0.1381 0.102451 0.015 -0.1381 0.0917122 0.00887167 -0.1381 0.0877878 0.00887167 -0.1381 0.0841 0.0102139 -0.1381 0.0810937 0.0127365 -0.1381 0.0791315 0.0161352 -0.1381 0.07845 0.02 -0.1381 0.0785426 0.0214436 -0.1381 0.0797731 0.0253059 -0.1381 0.0822875 0.0284854 -0.1381 0.0857622 0.030573 -0.1381 0.08975 0.0313 -0.1381 0.0932419 0.0307469 -0.1381 0.096392 0.0291419 -0.1381 0.101212 0.0146712 -0.1381 0.0984063 0.0127365 -0.1381 0.0954 0.0102139 -0.1381 0.0954 0.0297861 -0.127 0.0917122 0.0311283 -0.127 0.0916167 0.0305867 -0.127 0.095125 0.0293098 -0.127 0.097985 0.02691 -0.127 0.0984063 0.0272635 -0.127 0.0998517 0.0236767 -0.127 0.100368 0.0238648 -0.127 0.1005 0.02 -0.127 0.10105 0.02 -0.127 0.0998517 0.0163233 -0.127 0.100368 0.0161352 -0.127 0.097985 0.01309 -0.127 0.0984063 0.0127365 -0.127 0.095125 0.0106902 -0.127 0.0954 0.0102139 -0.127 0.0916167 0.00941332 -0.127 0.0917122 0.00887167 -0.127 0.0878833 0.00941332 -0.127 0.0877878 0.00887167 -0.127 0.084375 0.0106902 -0.127 0.0841 0.0102139 -0.127 0.081515 0.01309 -0.127 0.0810937 0.0127365 -0.127 0.0796483 0.0163233 -0.127 0.0791315 0.0161352 -0.127 0.079 0.02 -0.127 0.07845 0.02 -0.127 0.0796483 0.0236767 -0.127 0.0791315 0.0238648 -0.127 0.081515 0.02691 -0.127 0.0810937 0.0272635 -0.127 0.084375 0.0293098 -0.127 0.0841 0.0297861 -0.127 0.0878833 0.0305867 -0.127 0.0877878 0.0311283 -0.127 0.0862676 0.0115927 -0.1215 0.084375 0.0106902 -0.1215 0.08975 0.0109 -0.1215 0.0878833 0.00941332 -0.1215 0.0916167 0.00941332 -0.1215 0.0932324 0.0284073 -0.1215 0.095125 0.0293098 -0.1215 0.08975 0.0291 -0.1215 0.0916167 0.0305867 -0.1215 0.0878833 0.0305867 -0.1215 0.0998517 0.0163233 -0.1215 0.0961847 0.0135653 -0.1215 0.097985 0.01309 -0.1215 0.0932324 0.0115927 -0.1215 0.095125 0.0106902 -0.1215 0.0981573 0.0165176 -0.1215 0.1005 0.02 -0.1215 0.09885 0.02 -0.1215 0.0998517 0.0236767 -0.1215 0.0981573 0.0234824 -0.1215 0.097985 0.02691 -0.1215 0.0961847 0.0264347 -0.1215 0.0796483 0.0236767 -0.1215 0.0833153 0.0264347 -0.1215 0.081515 0.02691 -0.1215 0.0862676 0.0284073 -0.1215 0.084375 0.0293098 -0.1215 0.0813427 0.0234824 -0.1215 0.079 0.02 -0.1215 0.08065 0.02 -0.1215 0.0796483 0.0163233 -0.1215 0.0813427 0.0165176 -0.1215 0.081515 0.01309 -0.1215 0.0833153 0.0135653 -0.1215 0.08975 0.0291 -0.1305 0.0862676 0.0284073 -0.1305 0.0932324 0.0284073 -0.1305 0.08975 0.0109 -0.1305 0.0932324 0.0115927 -0.1305 0.0862676 0.0115927 -0.1305 0.0961847 0.0135653 -0.1305 0.0833153 0.0135653 -0.1305 0.0981573 0.0165176 -0.1305 0.0813427 0.0165176 -0.1305 0.09885 0.02 -0.1305 0.08065 0.02 -0.1305 0.0981573 0.0234824 -0.1305 0.0813427 0.0234824 -0.1305 0.0961847 0.0264347 -0.1305 0.0833153 0.0264347 -0.1305 0.071 -0.042 -0.18525 -0.0636298 0.042 -0.18525 -0.042 0.0636298 -0.18525 -0.0442417 0.0576273 -0.18525 -0.047707 0.0522377 -0.18525 -0.0522377 0.047707 -0.18525 -0.0576273 0.0442417 -0.18525 0.071 -0.00965 -0.1751 0.071 -0.03035 -0.1751 0.071 -0.0321178 -0.174368 0.071 -0.03285 -0.1726 0.071 -0.03285 -0.1519 0.071 -0.0321178 -0.150132 0.071 -0.03035 -0.1494 0.071 -0.00965 -0.1494 0.071 -0.00788223 -0.150132 0.071 -0.00715 -0.1519 0.071 -0.00788223 -0.174368 0.071 -0.00715 -0.1726 0.0735 -0.03035 -0.1751 0.0735 -0.02 -0.17425 0.0735 -0.0241042 -0.173526 0.0735 -0.0277134 -0.171442 0.0735 -0.0303923 -0.16825 0.0735 -0.0318177 -0.164334 0.0735 -0.0321178 -0.174368 0.0735 -0.03035 -0.1494 0.0735 -0.0321178 -0.150132 0.0735 -0.0318177 -0.160166 0.0735 -0.0303923 -0.15625 0.0735 -0.0277134 -0.153058 0.0735 -0.0241042 -0.150974 0.0735 -0.02 -0.15025 0.0735 -0.00965 -0.1494 0.0735 -0.0158958 -0.150974 0.0735 -0.0122866 -0.153058 0.0735 -0.0096077 -0.15625 0.0735 -0.00818231 -0.160166 0.0735 -0.00788223 -0.150132 0.0735 -0.00965 -0.1751 0.0735 -0.00788223 -0.174368 0.0735 -0.00818231 -0.164334 0.0735 -0.0096077 -0.16825 0.0735 -0.0122866 -0.171442 0.0735 -0.0158958 -0.173526 0.0735 -0.00715 -0.1519 0.0735 -0.00715 -0.1726 0.0735 -0.03285 -0.1726 0.0735 -0.03285 -0.1519 0.0788396 -0.0255705 -0.172879 0.080522 -0.0280565 -0.171144 0.0854746 -0.0314797 -0.165745 0.0851247 -0.0313432 -0.158334 0.0830831 -0.0302768 -0.156054 0.0775 -0.02 -0.17425 0.0778347 -0.0228442 -0.173908 0.0822056 -0.0296512 -0.169381 0.0872049 -0.0319827 -0.161606 0.0869725 -0.031931 -0.163535 0.0862302 -0.0317334 -0.159735 0.080696 -0.0282516 -0.153537 0.0797366 -0.0270565 -0.152544 0.0786254 -0.0251287 -0.151401 0.0776216 -0.0217218 -0.150374 0.0775 -0.02 -0.15025 0.0788397 -0.0144294 -0.151621 0.0805223 -0.0119432 -0.153357 0.0854794 -0.00851857 -0.158761 0.0869727 -0.00806892 -0.160966 0.0867867 -0.00811401 -0.1639 0.0855257 -0.00850144 -0.165683 0.0822441 -0.0103189 -0.169341 0.0800659 -0.0124981 -0.171616 0.0778347 -0.0171558 -0.150592 0.0822091 -0.0103461 -0.155122 0.0872876 -0.00800003 -0.162276 0.07848 -0.0151996 -0.173248 0.07759 -0.0185174 -0.174158 0.102451 -0.025 -0.174087 0.0876464 -0.032068 -0.166664 0.0872245 -0.0319869 -0.16688 0.0885193 -0.00781191 -0.166321 0.0896779 -0.00775021 -0.16225 0.0904149 -0.00776811 -0.166187 0.0957288 -0.009308 -0.169378 0.0975441 -0.0105493 -0.16225 0.0983772 -0.0113031 -0.17171 0.0975441 -0.0294507 -0.16225 0.0938568 -0.0315411 -0.16225 0.0896779 -0.0322498 -0.16225 0.0938568 -0.00845891 -0.16225 0.0928508 -0.008149 -0.167217 0.091905 -0.00794106 -0.166689 0.100298 -0.0262288 -0.173489 0.0997434 -0.0270848 -0.172971 0.0975751 -0.029425 -0.170985 0.0891306 -0.0322343 -0.16618 0.0875302 -0.00795286 -0.166721 0.094669 -0.031219 -0.168515 0.0920042 -0.0320408 -0.166738 0.0910271 -0.0321833 -0.166335 0.0844692 -0.0310534 -0.168803 0.0822593 -0.029693 -0.170686 0.0804945 -0.0280248 -0.172286 0.0787825 -0.0254568 -0.173884 0.0777944 -0.0226688 -0.17482 0.0775002 -0.02 -0.1751 0.0775373 -0.0190451 -0.175065 0.0781075 -0.01619 -0.174522 0.0789965 -0.0141327 -0.173682 0.0808173 -0.0116173 -0.171989 0.0820024 -0.0105112 -0.170915 0.084875 -0.00876179 -0.168481 0.101057 -0.0254245 -0.173899 0.1025 0.0174492 -0.174844 0.1025 0.015 -0.174087 0.102451 0.015 -0.174087 0.101057 0.0145756 -0.173899 0.1025 0.02 -0.1751 0.1025 0.0225508 -0.174844 0.1025 0.025 -0.174087 0.102451 0.025 -0.174087 0.101704 0.0251142 -0.174038 0.100755 0.0256627 -0.173785</float_array>
                    <technique_common>
                        <accessor count="763" source="#shape0-lib-positions-array" stride="3">
                            <param name="X" type="float"/>
                            <param name="Y" type="float"/>
                            <param name="Z" type="float"/>
                        </accessor>
                    </technique_common>
                </source>
                <source id="shape0-lib-normals" name="normal">
                    <float_array id="shape0-lib-normals-array" count="4614">0 0 1 0 0 1 0 0 1 0 0 1 0 0 1 0 0 1 0 0 1 0 0 1 0 0 1 0 0 1 0 0 1 0 0 1 0 0 1 0 0 1 0 0 1 0 0 1 0 0 1 0 0 1 0 0 1 0 0 1 0 0 1 0 0 1 0 0 1 0 0 1 0 0 1 0 0 1 0 0 1 0 0 1 0 0 1 0 0 1 0 0 1 0 0 1 0 0 1 0 0 1 0 0 1 0 0 1 0 0 1 0 0 1 0 0 1 0 0 1 0 0 1 0 0 1 1 0 0 1 0 0 1 0 0 1 0 0 1 0 0 0.501004 0.865443 0.00169572 0.776852 0.62967 -0.00403536 0.701894 0.712282 0 0.150875 0.988545 -0.0038366 0.256442 0.96656 0 0 1 0 0 1 0 0 0 -1 0 0 -1 0 0 -1 0 0 -1 0 0 -1 0 0 -1 0 0 -1 0 0 -1 0 0 -1 0 0 -1 0 0 -1 0 0 -1 0 0 -1 0 0 -1 0 0 -1 0 0 -1 0 0 -1 0 0 -1 0 0 -1 0 0 -1 0 0 -1 0 0 -1 0 0 -1 0 0 -1 0 0 -1 0 0 -1 0 0 -1 0 0 -1 0.156432 0.987689 0 0.156432 0.987689 0 0.453991 0.891006 0 0.453991 0.891006 0 0.707107 0.707107 0 0.707107 0.707107 0 0.891006 0.453991 0 0.891006 0.453991 0 0.987689 0.156432 0 0.987689 0.156432 0 0 0 1 0 0 1 0 0 1 0 0 1 0 0 1 0 0 1 0 0 1 0 0 1 0 0 1 0 0 1 0 0 1 0 0 1 0 0 1 0 0 1 0 0 1 0 0 1 0 0 1 0 0 1 0 0 1 0 0 1 0 0 1 0 0 1 0 0 1 0 0 1 0 0 1 0 0 1 0 0 1 0 0 1 0 0 1 0 0 1 0 0 1 0 0 1 0 0 1 0 0 1 0 0 1 0 0 1 0 0 1 0 0 1 0 0 1 0 0 1 0 0 1 0 0 1 0 0 1 0 0 1 0 0 1 0 0 1 0 0 1 0 0 1 0 0 1 0 0 1 0 0 1 0 0 1 0 0 1 0 0 1 0 0 1 0 0 1 0 0 1 0 0 1 0 0 1 0 0 1 0 0 1 0 0 1 0 0 1 0 0 1 0 0 1 0 0 1 0 0 1 0 0 1 0 0 1 0 0 1 0 0 1 0 0 1 0 0 1 0 0 1 0 0 1 0 0 1 0 0 1 0 0 1 0 0 1 0 0 1 0 0 1 0 0 1 0 0 1 0 0 1 0 0 1 0 0 1 0 0 1 0 0 1 0 0 1 0 0 1 0 0 1 0 0 1 0 0 1 0 0 1 0 0 1 0 0 1 0 0 1 0 0 1 0 0 1 0 0 1 0 0 1 0 0 1 0 0 1 0 0 1 0 0 1 0 0 1 0 0 1 0 0 1 0 0 1 0 0 1 0 0 1 0 0 1 0 0 1 0 0 1 0 0 1 0 0 1 0 0 1 0 0 1 0 0 1 0 0 1 0 0 1 0 0 1 0 0 1 0 0 1 0 0 1 0 0 1 0 0 1 0 0 1 0 0 1 0 0 1 0 0 -1 0 0 -1 0 0 -1 0 0 -1 0 0 -1 0 0 -1 0 0 -1 0 0 -1 0 0 -1 0 0 -1 0 0 -1 0 0 -1 0 0 -1 0 0 -1 0 0 -1 0 0 -1 0 0 -1 0 0 -1 0 0 -1 0 0 -1 0 0 -1 0 0 -1 0 0 -1 0 0 -1 0 0 -1 0 0 -1 0 0 -1 0 0 -1 0 0.923882 0.382677 0 0.923882 0.382677 0 0.382667 0.923886 0 0.382667 0.923886 0 1 0 0 1 0 0 0.382667 -0.923886 0 0.382667 -0.923886 0 0.923882 -0.382677 0 0.923882 -0.382677 0 0 -1 0 0 -1 0 -0.923883 -0.382676 0 -0.923883 -0.382676 0 -0.382667 -0.923886 0 -0.382667 -0.923886 0 -1 0 0 -1 0 0 -0.382667 0.923886 0 -0.382667 0.923886 0 -0.923883 0.382676 0 -0.923883 0.382676 0 0 1 0 0 1 0.540818 -0.84114 0 0.349856 -0.936804 0 0.349856 -0.936804 0 0.540818 -0.84114 0 0.707107 -0.707107 0 0.707107 -0.707107 0 0.84114 -0.540818 0 0.84114 -0.540818 0 0.936804 -0.349856 0 0.936804 -0.349856 0 -1 0 0 -1 0 0 -0.84114 -0.540818 0 -0.936804 -0.349856 0 -0.936804 -0.349856 0 -0.84114 -0.540818 0 -0.707107 -0.707107 0 -0.707107 -0.707107 0 -0.540818 -0.84114 0 -0.540818 -0.84114 0 -0.349856 -0.936804 0 -0.349856 -0.936804 0 0 -1 0 0 -1 0 -1 0 0 -1 0 0 -1 0 0 -1 0 0 -1 0 0 -1 0 0 0 1 0 0 1 0 0 1 0 0 1 0 0 1 0 0 1 0 1 0 0 1 0 0 0.84114 0.540818 0 0.936804 0.349856 0 0.936804 0.349856 0 0.84114 0.540818 0 0.707107 0.707107 0 0.707107 0.707107 0 0.540818 0.84114 0 0.540818 0.84114 0 0.349856 0.936804 0 0.349856 0.936804 0 1 0 0 1 0 0 -0.156432 -0.987689 0 -0.156432 -0.987689 0 -0.453991 -0.891006 0 -0.453991 -0.891006 0 -0.707107 -0.707107 0 -0.707107 -0.707107 0 -0.891006 -0.453991 0 -0.891006 -0.453991 0 -0.987689 -0.156432 0 -0.987689 -0.156432 0 0 0 -1 0 0 -1 0 0 -1 0 0 -1 0 0 -1 0 0 -1 0 0 -1 0 0 -1 0 0 -1 0 0 -1 0 0 -1 0 0 -1 0 0 -1 0 0 -1 0 0 -1 0 0 -1 0 0 -1 0 0 -1 0 0 -1 0 0 -1 0 0 -1 0 0 -1 0 0 -1 0 0 -1 0 0 -1 0 0 -1 0 0 -1 0 0 -1 0 0 1 0 0 1 0 0 1 0 0 1 0 0 1 0 0 1 0 0 1 0 0 1 0 0 1 0 0 1 0 0 1 0 0 1 0 0 1 0 0 1 0 0 1 0 0 1 0 0 1 0 0 1 0 0 1 0 0 1 0 0 1 0 0 1 0 0 1 0 0 1 0 0 1 0 0 1 0 0 1 0 0 1 0 0 1 0 0 1 0 0 1 0 0 1 0 0 1 0 0 1 0 0 1 -0.433885 0.900968 0 -0.781832 0.623489 0 -0.781832 0.623489 0 -0.974928 0.22252 0 -0.974928 0.22252 0 -0.433885 0.900968 0 0 1 0 0 1 0 0.433885 0.900968 0 0.433885 0.900968 0 0.781833 0.623488 0 0.781833 0.623488 0 0.974927 0.222523 0 0.974927 0.222523 0 0.433885 -0.900968 0 0.781831 -0.62349 0 0.781831 -0.62349 0 0.974928 -0.222522 0 0.974928 -0.222522 0 0.433885 -0.900968 0 0 -1 0 0 -1 0 -0.433885 -0.900968 0 -0.433885 -0.900968 0 -0.781831 -0.623491 0 -0.781831 -0.623491 0 -0.974928 -0.222519 0 -0.974928 -0.222519 0 -0.997204 0.0747304 0 -0.997204 0.0747304 0 -0.974928 0.222522 0 -0.974928 0.222522 0 -0.930874 0.365341 0 -0.930874 0.365341 0 -0.866025 0.5 0 -0.866025 0.5 0 -0.781832 0.62349 0 -0.781832 0.62349 0 -0.680173 0.733052 0 -0.680173 0.733052 0 -0.56332 0.826239 0 -0.56332 0.826239 0 -0.433884 0.900969 0 -0.433884 0.900969 0 -0.294755 0.955573 0 -0.294755 0.955573 0 -0.149042 0.988831 0 -0.149042 0.988831 0 0 1 0 0 1 0 0.149042 0.988831 0 0.149042 0.988831 0 0.294755 0.955573 0 0.294755 0.955573 0 0.433884 0.900969 0 0.433884 0.900969 0 0.56332 0.826239 0 0.56332 0.826239 0 0.680173 0.733052 0 0.680173 0.733052 0 0.781832 0.62349 0 0.781832 0.62349 0 0.866025 0.5 0 0.866025 0.5 0 0.930874 0.365341 0 0.930874 0.365341 0 0.974928 0.222522 0 0.974928 0.222522 0 0.997204 0.0747304 0 0.997204 0.0747304 0 0.997204 -0.0747304 0 0.997204 -0.0747304 0 0.974928 -0.222522 0 0.974928 -0.222522 0 0.930874 -0.365341 0 0.930874 -0.365341 0 0.866025 -0.5 0 0.866025 -0.5 0 0.781832 -0.62349 0 0.781832 -0.62349 0 0.680173 -0.733052 0 0.680173 -0.733052 0 0.56332 -0.826239 0 0.56332 -0.826239 0 0.433884 -0.900969 0 0.433884 -0.900969 0 0.294755 -0.955573 0 0.294755 -0.955573 0 0.149042 -0.988831 0 0.149042 -0.988831 0 0 -1 0 0 -1 0 -0.149042 -0.988831 0 -0.149042 -0.988831 0 -0.294755 -0.955573 0 -0.294755 -0.955573 0 -0.433884 -0.900969 0 -0.433884 -0.900969 0 -0.56332 -0.826239 0 -0.56332 -0.826239 0 -0.680173 -0.733052 0 -0.680173 -0.733052 0 -0.781832 -0.62349 0 -0.781832 -0.62349 0 -0.866025 -0.5 0 -0.866025 -0.5 0 -0.930874 -0.365341 0 -0.930874 -0.365341 0 -0.974928 -0.222522 0 -0.974928 -0.222522 0 -0.997204 -0.0747304 0 -0.997204 -0.0747304 0 0 0 -1 0 0 -1 0 0 -1 0 0 -1 0 0 -1 0 0 -1 0 0 -1 0 0 -1 0 0 -1 0 0 -1 0 0 -1 0 0 -1 0 0 -1 0 0 -1 0 0 -1 0 0 -1 0 0 -1 0 0 -1 0 0 -1 0 0 -1 0 0 -1 0 0 -1 0 0 -1 0 0 -1 0 0 -1 0 0 -1 0 0 -1 0 0 -1 1 0 0 1 0 0 1 0 0 1 0 0 1 0 0 1 0 0 1 0 0 1 0 0 1 0 0 1 0 0 1 0 0 1 0 0 1 0 0 1 0 0 1 0 0 1 0 0 1 0 0 1 0 0 1 0 0 1 0 0 1 0 0 1 0 0 1 0 0 1 0 0 1 0 0 1 0 0 1 0 0 1 0 0 1 0 0 1 0 0 0 0 1 0 0 1 0 0 1 0 0 1 0 0 1 0 0 1 0 0 1 0 0 1 0 0 1 0 0 1 0 0 1 0 0 1 0 0 1 0 0 1 0.000378331 -0.989478 0.144686 0 -0.173652 -0.984807 -0.0509597 -0.125051 -0.990841 0.0183649 -0.347182 -0.937618 -0.0322418 -0.499745 -0.865572 -0.0073942 -0.543902 -0.839116 0.00533204 -0.684488 -0.729004 -0.0225511 -0.765847 -0.642628 -0.0173633 -0.777422 -0.62874 0.0115858 -0.857139 -0.514955 -0.0154374 -0.93958 -0.341982 0.000946007 -0.960989 -0.276585 -0.00145089 -0.999999 0 -0.0313808 -0.994825 -0.0966376 -0.00732972 -0.999723 0.0223509 -0.00180493 -0.93969 0.342021 -0.0180749 -0.956117 0.292427 0.00787756 -0.847843 0.53019 -0.0211055 -0.765871 0.642648 -0.0287515 -0.782513 0.62197 0.00505952 -0.685334 0.728212 -0.0105194 -0.499975 0.865976 -0.0514723 -0.559536 0.827206 0.0185679 -0.338842 0.94066 -0.0553484 -0.120824 0.99113 0 -0.173652 0.984807 0.000368602 0.989518 -0.144408 0 0.173652 0.984807 -0.0509315 0.125078 0.990839 0.0183701 0.34714 0.937633 -0.0322503 0.499743 0.865573 -0.00524119 0.547656 0.836687 0.00379496 0.689242 0.724522 -0.0225517 0.765845 0.642629 -0.0173349 0.777485 0.628663 0.0115851 0.857122 0.514984 -0.0154344 0.93958 0.341981 0.000944175 0.960979 0.27662 -0.0014463 0.999999 0 -0.0275408 0.996065 0.0842429 -0.00637392 0.999265 -0.0377942 -0.00175312 0.93969 -0.342023 -0.018202 0.95627 -0.291917 0.00792083 0.847969 -0.529986 -0.0211139 0.76587 -0.642649 -0.0287201 0.782427 -0.622079 0.00511633 0.685155 -0.728379 -0.0106166 0.499977 -0.865974 -0.0512442 0.559122 -0.8275 0.018571 0.338518 -0.940777 -0.0555254 0.120654 -0.991141 0 0.173652 -0.984807 0.832179 -0.552637 0.0455024 0.652482 -0.757604 -0.0174273 0.493061 -0.869702 0.0225636 0.402799 -0.915192 -0.0132844 -0.234162 -0.972198 0.000375005 0.283217 0.959052 0.00277338 0.425631 0.904864 -0.00769411 0.493079 0.869738 0.0207277 0.624835 0.780724 -0.00714416 0.493183 -0.869919 -0.00334152 0.220501 -0.975382 0.00310458 -0.942037 -0.335446 -0.00656325 0.493182 0.86992 -0.00334145 0.52128 0.853384 0.00167121 -0.416601 -0.909056 0.00776705 -0.366597 -0.93038 0.000430801 -0.248247 -0.968697 -8.12503e-05 -0.209785 -0.977747 0.000754575 -0.108872 -0.994049 0.00358908 -0.10351 -0.994619 0.00430018 0.796489 0.604255 0.0219605 0.757119 0.653274 -0.00173872 0.767139 0.64148 0 -0.416613 0.909084 -0.00057293 -0.323255 0.946145 0.0177547 -0.541802 0.840489 -0.0053448 -0.653997 0.756479 0.00517027 -0.728265 0.685098 0.0164359 -0.685829 0.727763 0.000360428 0.220499 0.975382 0.00310466 0.1672 0.985912 -0.00465597 -0.104183 0.994549 0.00432271 -0.192083 0.981244 0.0162803 -0.103509 0.994628 0.000542348 0.760124 -0.649778 0 0.767139 -0.641478 -0.00190729 0.52128 -0.853384 0.00167085 -0.107203 0.994043 -0.0196521 -0.1253 0.991917 0.0200387 -0.203686 0.978673 -0.0266566 -0.184216 0.982883 -0.00248464 -0.36969 0.929151 0.00278926 -0.371127 0.927386 -0.0471241 -0.581472 0.812627 0.0390985 0.214922 -0.975211 0.0526484 0.167171 -0.98574 0.0192336 0.1672 -0.985912 -0.00465631 -0.103152 -0.994517 -0.0171776 -0.180635 -0.98306 0.0310608 0.00842726 -0.9999 -0.0113678 -0.345959 -0.938248 -0.00148522 -0.334964 -0.942202 -0.00738879 -0.563079 -0.826333 0.0107839 -0.498755 -0.865358 -0.0489838 -0.658076 -0.752949 0.00164058 -0.731648 -0.681619 -0.00925034 -0.741102 -0.671387 0.00268839 -0.866084 -0.499886 -0.0035451 -0.798496 -0.586302 -0.136579 -0.948973 -0.303189 0.0867613 -0.94337 -0.327366 0.053698 -0.986472 -0.146698 -0.073164 -0.99315 -0.116848 -6.96434e-05 -0.99926 0.0384605 -7.00719e-05 -0.991792 0.103388 0.0752317 -0.971757 0.212548 -0.102524 -0.928558 0.339726 0.149554 -0.931315 0.358072 -0.0666039 -0.828426 0.556388 0.0643624 -0.775019 0.602113 -0.191848 -0.758677 0.650031 0.0432224 -0.579188 0.806607 -0.118009 -0.587739 0.805562 -0.07505 0.167143 0.985577 0.0264762 0.188183 0.981303 0.0404 -0.00527725 0.999919 -0.0115577 -0.685796 -0.727727 0.00987031 -0.653998 -0.756478 0.00516997 -0.556227 -0.831021 -0.00405339 -0.882726 -0.469742 0.0117608 -0.849905 -0.526936 0.000475895 -0.739417 -0.673248 -0.000457046 -0.993325 -0.114254 0.0158613 -0.986743 -0.162291 0 -0.993151 0.116839 0 -0.986688 0.162282 0.0105157 -0.93907 0.343667 -0.00635625 -0.845449 0.534055 -0.000213898 -0.882724 0.469741 0.0118872 0 0 1 0 0 1 0 0 1 0 0 1 0 0 1 0 0 1 0 0 1 0 0 1 0 0 1 0 0 1 0 0 1 0 0 1 0 0 1 0 0 1 0 0 1 0 0 1 0 0 1 0 0 1 0 0 1 0 0 1 0 0 1 0 0 1 0 0 1 0 0 1 0 0 1 0 0 1 0 0 1 0 0 1 0 0 1 0 0 1 0 0 1 0 0 1 0 0 1 0 0 1 0 0 1 0 0 1 0 0 1 0 0 1 0 0 1 0 0 1 0 0 1 0 0 1 0 0 1 0 0 1 0 0 1 0 0 1 0 0 1 0 0 1 0 0 1 0 0 1 0 0 1 0 0 1 0 0 1 0 0 1 0 0 1 0 0 1 0 0 1 0 0 1 0 0 1 0 0 1 0 0 1 0 0 1 0 0 1 0 0 1 0 0 1 0 0 1 0 0 1 0 0 1 0 0 1 0 0 1 0 0 1 0 0 1 0 0 1 0 0 1 0 0 1 0 0 1 0 0 1 0 0 1 0 0 1 0 0 1 0 0 1 0 0 1 0 0 1 0 0 1 0 0 1 0 0 1 0 0 1 0 0 1 0 0 1 0 0 1 0 0 1 0 0 1 0 0 1 0 0 1 0 0 1 0 0 1 0 0 1 0 0 1 0 0 1 0 0 1 0 0 1 0 0 1 0 0 1 0 0 1 0 0 1 0 0 1 0 0 1 0 0 1 0 0 1 0 0 1 0 0 1 0 0 1 0 0 1 0 0 1 0 0 1 0 0 1 0 0 1 0 0 1 0 0 1 0 0 1 0 0 1 0 0 1 0 0 1 0 0 1 0 0 1 0 0 1 0.195091 0.980785 0 0.555571 0.831469 0 0.555571 0.831469 0 0.831468 0.555573 0 0.831468 0.555573 0 0.980785 0.19509 0 0.980785 0.19509 0 0.195091 0.980785 0 -0.195092 0.980785 0 -0.195092 0.980785 0 -0.55557 0.83147 0 -0.55557 0.83147 0 -0.831469 0.555572 0 -0.831469 0.555572 0 -0.980786 0.195088 0 -0.980786 0.195088 0 -0.195092 -0.980785 0 -0.555571 -0.831469 0 -0.555571 -0.831469 0 -0.831469 -0.555572 0 -0.831469 -0.555572 0 -0.980786 -0.195088 0 -0.980786 -0.195088 0 -0.195092 -0.980785 0 0.195091 -0.980785 0 0.195091 -0.980785 0 0.555572 -0.831469 0 0.555572 -0.831469 0 0.831468 -0.555573 0 0.831468 -0.555573 0 0.980785 -0.19509 0 0.980785 -0.19509 0 -0.984808 0.173648 0 -0.984808 0.173648 0 -0.866025 0.500001 0 -0.866025 0.500001 0 -0.642787 0.766045 0 -0.642787 0.766045 0 -0.342019 0.939693 0 -0.342019 0.939693 0 0 1 0 0 1 0 0.342021 0.939692 0 0.342021 0.939692 0 0.642786 0.766046 0 0.642786 0.766046 0 0.866025 0.500001 0 0.866025 0.500001 0 0.984808 0.173648 0 0.984808 0.173648 0 0.984808 -0.173649 0 0.984808 -0.173649 0 0.866026 -0.499999 0 0.866026 -0.499999 0 0.642786 -0.766046 0 0.642786 -0.766046 0 0.342021 -0.939692 0 0.342021 -0.939692 0 0 -1 0 0 -1 0 -0.342019 -0.939693 0 -0.342019 -0.939693 0 -0.642787 -0.766045 0 -0.642787 -0.766045 0 -0.866026 -0.499999 0 -0.866026 -0.499999 0 -0.984808 -0.173649 0 -0.984808 -0.173649 0 -0.86593 0.499945 0.0148471 -0.784271 0.62021 -0.0160782 -0.642714 0.765956 0.01519 -0.514932 0.857075 -0.0163526 -0.34198 0.939581 0.0153952 -0.179337 0.98365 -0.0164897 0 0.99988 0.015464 0.156422 0.987613 -0.0123776 0.341982 0.939589 0.0148439 0.453962 0.890951 -0.0111382 0.642735 0.765979 0.0129848 0.707081 0.70708 -0.00865932 0.865986 0.49997 0.00988919 -0.997949 0.0640103 0 -0.984706 0.173631 0.0143671 -0.952692 0.303535 -0.0156671 0.984807 0.173654 0 0.987668 0.156441 0.00616908 0.891001 0.453975 -0.00494581 0.984807 -0.173654 0 0.984807 -0.173654 0 0.866029 -0.499994 0 0.866029 -0.499994 0 0.642789 -0.766043 0 0.642789 -0.766043 0 0.342019 -0.939693 0 0.342019 -0.939693 0 0 -1 0 0 -1 0 -0.34202 -0.939693 0 -0.34202 -0.939693 0 -0.642788 -0.766044 0 -0.642788 -0.766044 0 -0.866025 -0.5 0 -0.866025 -0.5 0 -0.984808 -0.173648 0 -0.984808 -0.173648 0 0 0 1 0 0 1 0 0 1 0 0 1 0 0 1 0 0 1 0 0 1 0 0 1 0 0 1 0 0 1 0 0 1 0 0 1 0 0 1 0 0 1 0 0 1 0 0 1 0 0 1 0 0 1 0 0 1 0 0 1 0 0 1 0 0 1 0 0 1 0 0 1 0 0 1 0 0 1 0 0 1 0 0 1 0 0 1 0 0 1 0 0 1 0 0 1 0 0 1 0 0 1 0 0 1 0 0 1 0 0 1 0 0 1 0 0 1 0 0 1 0.195089 -0.980786 0 0.555572 -0.831469 0 0.555572 -0.831469 0 0.83147 -0.55557 0 0.83147 -0.55557 0 0.980785 -0.195091 0 0.980785 -0.195091 0 0.195089 -0.980786 0 -0.195089 -0.980786 0 -0.195089 -0.980786 0 -0.555573 -0.831468 0 -0.555573 -0.831468 0 -0.83147 -0.55557 0 -0.83147 -0.55557 0 -0.980785 -0.195091 0 -0.980785 -0.195091 0 -0.831264 0.555431 0.0222871 -0.746505 0.665213 -0.0148691 -0.555476 0.831327 0.0184978 -0.924508 0.38079 -0.0168291 -0.993066 0.110746 0.0394394 -0.980785 0.195091 0 -0.484445 0.874773 -0.00925435 -0.195077 0.980726 0.0110621 -0.167786 0.985824 0 0.195089 0.980786 0 0.195089 0.980786 0 0.55557 0.83147 0 0.55557 0.83147 0 0.83147 0.555569 0 0.83147 0.555569 0 0.980785 0.195091 0 0.980785 0.195091 0 0.433885 -0.900968 0 0.781833 -0.623488 0 0.781833 -0.623488 0 0.974927 -0.222523 0 0.974927 -0.222523 0 0.433885 -0.900968 0 0 -1 0 0 -1 0 -0.433885 -0.900968 0 -0.433885 -0.900968 0 -0.781832 -0.623489 0 -0.781832 -0.623489 0 -0.974928 -0.22252 0 -0.974928 -0.22252 0 -0.433885 0.900968 0 -0.781831 0.623491 0 -0.781831 0.623491 0 -0.974928 0.222519 0 -0.974928 0.222519 0 -0.433885 0.900968 0 0 1 0 0 1 0 0.433885 0.900968 0 0.433885 0.900968 0 0.781831 0.62349 0 0.781831 0.62349 0 0.974928 0.222522 0 0.974928 0.222522 0 0.433885 -0.900968 0 0.781831 -0.623491 0 0.781831 -0.623491 0 0.974928 -0.222519 0 0.974928 -0.222519 0 0.433885 -0.900968 0 0 -1 0 0 -1 0 -0.433885 -0.900968 0 -0.433885 -0.900968 0 -0.781831 -0.62349 0 -0.781831 -0.62349 0 -0.974928 -0.222522 0 -0.974928 -0.222522 0 -0.433885 0.900968 0 -0.781833 0.623488 0 -0.781833 0.623488 0 -0.974927 0.222523 0 -0.974927 0.222523 0 -0.433885 0.900968 0 0 1 0 0 1 0 0.433885 0.900968 0 0.433885 0.900968 0 0.781832 0.623489 0 0.781832 0.623489 0 0.974928 0.22252 0 0.974928 0.22252 0 0.433885 -0.900968 0 0.781832 -0.623489 0 0.781832 -0.623489 0 0.974928 -0.22252 0 0.974928 -0.22252 0 0.433885 -0.900968 0 0 -1 0 0 -1 0 -0.433885 -0.900968 0 -0.433885 -0.900968 0 -0.781833 -0.623488 0 -0.781833 -0.623488 0 -0.974927 -0.222523 0 -0.974927 -0.222523 0 -0.433885 0.900968 0 -0.781831 0.62349 0 -0.781831 0.62349 0 -0.974928 0.222522 0 -0.974928 0.222522 0 -0.433885 0.900968 0 0 1 0 0 1 0 0.433885 0.900968 0 0.433885 0.900968 0 0.781831 0.623491 0 0.781831 0.623491 0 0.974928 0.222519 0 0.974928 0.222519 0 -0.865979 0.499974 0.0102751 -0.78309 0.621811 -0.0110549 -0.642754 0.766001 0.0104796 -0.513947 0.857749 -0.0112191 -0.342 0.93964 0.0106024 -0.178957 0.983792 -0.0113008 0 0.999943 0.0106432 0.156429 0.987652 -0.00851894 0.342002 0.939644 0.0102164 0.453978 0.89098 -0.00766568 0.642763 0.766013 0.0089366 0.707094 0.707094 -0.00595977 0.866007 0.499985 0.0068058 -0.997846 0.0655938 0 -0.984759 0.173639 0.00998834 -0.951904 0.306204 -0.0108095 0.984807 0.173651 0 0.98768 0.156431 0.0042477 0.891001 0.453988 -0.00340249 0.984807 -0.173651 0 0.984807 -0.173651 0 0.866027 -0.499996 0 0.866027 -0.499996 0 0.642788 -0.766044 0 0.642788 -0.766044 0 0.34202 -0.939693 0 0.34202 -0.939693 0 0 -1 0 0 -1 0 -0.342019 -0.939693 0 -0.342019 -0.939693 0 -0.642789 -0.766043 0 -0.642789 -0.766043 0 -0.866025 -0.500001 0 -0.866025 -0.500001 0 -0.984808 -0.173647 0 -0.984808 -0.173647 0 0 -1 0 0 -1 0 0 -1 0 0 -1 0 0 -1 0 0 -1 0 0 0 -1 0 0 -1 0 0 -1 0 0 -1 0 0 -1 0 0 -1 0 0 -1 0 0 -1 0 0 -1 0 0 -1 0 0 -1 0 0 -1 0 0 -1 0 0 -1 0 0 -1 0 0 -1 0 0 -1 0 0 -1 0 0 -1 0 0 -1 0 0 -1 0 0 -1 0 0 -1 0 0 -1 0 0 -1 0 0 -1 0 0 -1 0 0 -1 0 0 -1 0 0 -1 0 -1 0 0 -1 0 0.987689 -0.156432 0 0.987689 -0.156432 0 0.891006 -0.453991 0 0.891006 -0.453991 0 0.707107 -0.707107 0 0.707107 -0.707107 0 0.453991 -0.891006 0 0.453991 -0.891006 0 0.156432 -0.987689 0 0.156432 -0.987689 0 1 0 0 1 0 0 1 0 0 1 0 0 1 0 0 1 0 0 1 0 0 1 0 0 1 0 0 1 0 0 1 0 0 1 0 0 1 0 0 1 0 0 1 0 0 1 0 0 1 0 0 1 0 0 1 0 0 1 0 0 1 0 0 1 0 0 1 0 0 1 0 0 1 0 0 1 0 0 1 0 0 1 0 0 1 0 0 1 0 0 1 0 0 1 0 0 1 0 0 1 0 0 1 0 0 1 0 0 1 0 0 1 0 0 1 0 0 1 0 0 1 0 0 1 0 0 1 0 0 1 0 0 1 0 0 1 0 0 1 0 0 1 0 0 1 0 0 1 0 0 1 0 0 1 0 0 1 0 0 1 0 0 1 0 0 1 0 0 1 0 0 1 0 0 1 0 0 1 0 0 1 0 0 1 0 0 1 0 0 1 0 0 -0.0322474 -0.499745 -0.865572 0.00721475 -0.569052 -0.82227 -0.0137871 -0.939602 -0.341991 0.00221995 -0.905063 0.425272 0 -0.173652 -0.984807 -0.0509077 -0.125101 -0.990837 0.0183593 -0.347258 -0.93759 -0.0100493 -0.766002 -0.64276 -0.021706 -0.751517 -0.659356 0.0157205 -0.88754 -0.460462 -0.0146587 -0.99958 -0.0250033 -0.00841008 -0.999965 0 0.00377311 -0.979272 -0.202517 -0.0359535 -0.969651 0.241834 -0.00537138 -0.939678 0.342017 0.00204849 -0.991099 0.133109 -0.00389702 -0.766034 0.642788 -0.0177579 -0.787141 0.616518 0.00370755 -0.63741 0.770516 -0.0186281 -0.499916 0.865874 -0.0337452 -0.523975 0.851065 0.0235973 -0.282161 0.959077 0 -0.0719471 0.997408 -0.0428281 -0.173493 0.983903 -0.0322579 0.499743 0.865573 0.00722749 0.569091 0.822242 -0.0137556 0.939603 0.34199 0.00375872 0.97933 0.202236 0.00195274 0.976895 -0.213711 -0.0134258 0.939607 -0.341992 0.0154968 0.889833 -0.456024 -0.0178606 0.765919 -0.642689 0.00485555 0.719876 -0.694085 0 0.173652 0.984807 -0.0509104 0.125098 0.990837 0.0183554 0.347241 0.937596 -0.0100537 0.766003 0.642759 -0.0216253 0.751623 0.659238 0.0157041 0.887746 0.460066 -0.00841595 0.999965 0 -0.0203082 0.998659 0.0476137 -0.0028719 0.997603 -0.0691351 -0.00677297 0.499994 -0.866002 -0.0264044 0.528207 -0.848705 0.0175941 0.260109 -0.965419 0 0.0618731 -0.998084 -0.0407837 0.173508 -0.983988 0 1 0 0 1 0 0 -1 0 0 -1 0 -0.189767 -0.981827 0.00210903 -0.0224827 0.999709 -0.00875331 0.595113 0.803558 -0.0116166 0.52128 -0.853384 0.00167121 0.493182 -0.86992 -0.00334145 0.220499 -0.975382 0.00310466 0.1672 -0.985912 -0.00465597 -0.248427 -0.968651 -0.000390926 -0.939042 0.343743 -0.00634931 -0.882724 0.469741 0.0118919 -0.492645 0.870212 -0.00570059 -0.416605 0.909066 0.00625197 -0.289592 0.95715 -0.000934936 0.52128 0.853384 0.00167085 0.796583 0.604128 0.0220197 0.757119 0.653275 -0.001739 0.767141 0.641479 0 0.223031 0.974686 0.0156414 0.133872 0.989383 0.0565585 0.167142 0.985568 0.0268073 0.1672 0.985912 -0.00465631 0.220501 0.975382 0.00310458 0.493183 0.869919 -0.00334152 0.493021 0.869632 0.025891 0.363482 0.931472 -0.0154977 -0.685806 -0.727738 0.00823332 -0.64782 -0.761792 -0.00141753 -0.461885 -0.886939 0.00121933 -0.308125 -0.951096 0.0218227 -0.416612 -0.909082 0.00210328 0.767139 -0.64148 0 0.757119 -0.653274 -0.00173872 0.854127 -0.516445 0.0612557 0.733791 -0.679375 0.000611574 -0.103508 -0.994619 0.00430047 -0.106375 -0.994318 0.0039203 -0.104637 -0.994453 0.0106449 -0.149343 -0.988749 -0.00848866 -0.11719 -0.992942 0.0182256 -0.15224 0.987937 0.0283525 -0.104 0.994565 0.00487889 -0.103994 0.994569 0.00431615 -0.164355 0.986324 0.0123551 -0.10351 0.994624 0.00292438 0.524913 -0.851156 -0.000636063 0.493093 -0.869764 0.0192169 0.287347 -0.957752 -0.0119785 0.161566 -0.985921 0.0430781 0.167074 -0.985167 0.0391445 0.0262426 -0.999627 -0.00760211 -0.315889 -0.948763 -0.00794859 -0.182113 -0.980277 -0.0767614 -0.56657 -0.820874 0.0718615 -0.494487 -0.869152 0.00749509 -0.684604 -0.728899 -0.0048135 -0.685653 -0.72792 -0.00364777 -0.833415 -0.552628 0.00476033 -0.822302 -0.568779 -0.017616 -0.944139 -0.329139 0.016393 -0.934616 -0.354643 -0.0268582 -0.993972 -0.107113 0.0233936 -0.993144 -0.116896 -0.000182813 -0.999245 0.038865 -0.000183936 -0.99797 0.0591367 0.0236406 -0.976247 0.20707 -0.0637516 -0.967425 0.231212 0.103097 -0.907604 0.41582 -0.0578778 -0.881622 0.46334 0.0897677 -0.776414 0.623557 -0.0914213 -0.731319 0.672358 0.114486 -0.720467 0.693003 0.0259648 -0.50221 0.864277 -0.0284613 -0.518819 0.853891 0.0411964 -0.276018 0.960822 -0.0252109 -0.271983 0.962157 -0.0167154 -0.217277 0.976109 -0.00149973 -0.882736 -0.469747 0.0107062 -0.865459 -0.500967 0.00349397 -0.780391 -0.625291 -0.00137978 -0.986688 0.162282 0.0105127 -0.993147 0.116869 0 -0.986743 -0.162291 0 -0.996929 -0.0725282 0.0295266 -0.959945 -0.280035 -0.00927124 -0.685815 0.727748 0.00645659 -0.683636 0.729789 0.0070039 -0.829736 0.558135 -0.0048854 0 -0.104417 -0.994534 -0.000510014 -0.0997462 -0.995013 0.000463625 -0.295291 -0.955407 0 -0.29977 -0.954012 -0.00863096 -0.381701 -0.924246 -0.000184115 -0.318324 -0.947982 -0.00247385 -0.940791 -0.338978 0.000395292 -0.945434 -0.325813 -0.0014632 -0.90685 -0.421452 0.0133155 -0.927068 -0.374657 -0.00238626 -0.90097 -0.433876 0.00334737 -0.810862 -0.585228 0.00270791 -0.809058 -0.587723 -0.00359551 -0.645107 -0.764084 0.00779139 -0.687888 -0.725775 -0.00526052 -0.515888 -0.85664 -0.00346796 -0.529901 -0.848053 5.16355e-05 -0.453802 -0.891103 0 0.0997462 -0.995013 0.00645673 0.0368938 -0.999298 -0.0104491 0.295275 -0.955355 0.00849754 0.184961 -0.982709 0 0.343253 -0.939243 -0.0021496 0.381751 -0.924263 -0.00195409 0.378682 -0.925525 -0.000346971 0.418873 -0.908045 0.000170099 0.46298 -0.886369 -0.00198563 0.559362 -0.828921 0.0024094 0.5861 -0.810235 -0.00318389 0.758077 -0.652158 0.0216318 0.684448 -0.728741 -0.00672633 0.815771 -0.578335 0.00596233 0.884455 -0.466587 -0.00481833 0.911359 -0.411584 0.000158049 0.930659 -0.365888 0.00195676 0.941604 -0.336718 -0.000168642 0.945207 -0.326471 0.727279 -0.686342 0 0.701898 -0.712277 -0.00112091 0.291517 -0.956565 0.00129931 0.256442 -0.96656 0 0.00289449 -0.313801 -0.949485 0.00105185 -0.295291 -0.955407 0 -0.379108 -0.925352 -0.000328594 -0.404629 -0.914481 -0.00207167 -0.452213 -0.891908 -0.00982284 -0.54147 -0.840663 0.00349994 -0.473171 -0.880964 -0.00145928 -0.931842 -0.36286 0.00170812 -0.935753 -0.352651 -0.00450884 -0.863131 -0.50496 0.0104373 -0.886228 -0.463131 -0.0067204 -0.793728 -0.608236 -0.00182845 -0.646299 -0.763082 0.00823342 -0.71776 -0.696242 -0.00432633 -0.0997453 -0.995004 0 -0.131057 -0.991375 0 0.0997462 -0.995013 0.00651144 0.0363593 -0.999318 -0.0105676 0.295274 -0.955354 0.00857583 0.18415 -0.982861 0 0.342913 -0.939367 -0.0021746 0.381615 -0.924319 -0.00195803 0.378234 -0.925708 -0.000340533 0.418875 -0.908044 0.000167962 0.462978 -0.88637 -0.00200802 0.55939 -0.828902 0.00240805 0.586204 -0.81016 -0.00248843 0.739147 -0.673539 -0.00271403 0.740015 -0.672584 0.00249572 0.859001 -0.511967 -0.00338442 0.871484 -0.490412 0.000257179 0.914588 -0.404386 0.00086755 0.933047 -0.359753 -0.00114935 0.935621 -0.353004 0.727274 -0.686347 0 0.701893 -0.712281 -0.0011209 0.291517 -0.956565 0.00129929 0.256442 -0.96656 0 0 1 0 0 1 0 1 0 0 1 0 0 1 0 0 1 0 0 1 0 0 0 -1 0 0 -1 0 0.501011 0.865439 0.00169583 0.776853 0.629669 -0.00403519 0.701898 0.712277 0 0.150874 0.988546 -0.00383665 0.256442 0.96656 0 -0.987689 0.156432 0 -0.987689 0.156432 0 -0.891006 0.453991 0 -0.891006 0.453991 0 -0.707107 0.707107 0 -0.707107 0.707107 0 -0.453991 0.891006 0 -0.453991 0.891006 0 -0.156432 0.987689 0 -0.156432 0.987689 0 0 -0.382667 0.923886 0 -0.382667 0.923886 0 -0.923882 0.382677 0 -0.923882 0.382677 0 -1 0 0 -1 0 0 -0.923882 -0.382677 0 -0.923882 -0.382677 0 -0.382667 -0.923886 0 -0.382667 -0.923886 0 0 -1 0 0 -1 0 0.382667 -0.923886 0 0.382667 -0.923886 0 0.923883 -0.382676 0 0.923883 -0.382676 0 1 0 0 1 0 0 0.923883 0.382676 0 0.923883 0.382676 0 0.382667 0.923886 0 0.382667 0.923886 0 0 1 0 0 1 -0.540818 0.84114 0 -0.349856 0.936804 0 -0.349856 0.936804 0 -0.540818 0.84114 0 -0.707107 0.707107 0 -0.707107 0.707107 0 -0.84114 0.540818 0 -0.84114 0.540818 0 -0.936804 0.349856 0 -0.936804 0.349856 0 -1 0 0 -1 0 0 0 1 0 0 1 0</float_array>
                    <technique_common>
                        <accessor count="1538" source="#shape0-lib-normals-array" stride="3">
                            <param name="X" type="float"/>
                            <param name="Y" type="float"/>
                            <param name="Z" type="float"/>
                        </accessor>
                    </technique_common>
                </source>
                <vertices id="shape0-lib-vertices">
                    <input semantic="POSITION" source="#shape0-lib-positions"/>
                </vertices>
                <triangles count="1538">
                    <input offset="0" semantic="VERTEX" source="#shape0-lib-vertices"/>
                    <input offset="1" semantic="NORMAL" source="#shape0-lib-normals"/>
                    <p>0 0 1 0 2 0 0 1 2 1 3 1 0 2 3 2 4 2 0 3 4 3 5 3 6 4 1 4 0 4 6 5 0 5 7 5 6 6 7 6 8 6 6 7 8 7 9 7 10 8 11 8 12 8 12 9 11 9 13 9 12 10 13 10 14 10 14 11 13 11 15 11 14 12 15 12 16 12 16 13 15 13 17 13 16 14 17 14 18 14 18 15 17 15 19 15 18 16 19 16 20 16 20 17 19 17 21 17 20 18 21 18 22 18 21 19 23 19 22 19 22 20 23 20 24 20 22 21 24 21 25 21 25 22 24 22 26 22 25 23 26 23 27 23 27 24 26 24 28 24 27 25 28 25 29 25 29 26 28 26 30 26 29 27 30 27 31 27 31 28 30 28 32 28 31 29 32 29 33 29 30 30 34 30 32 30 32 31 34 31 35 31 32 32 35 32 36 32 36 33 35 33 5 33 36 34 5 34 4 34 9 35 8 35 37 35 37 36 8 36 38 36 37 37 38 37 39 37 39 38 38 38 40 38 39 39 40 39 41 39 41 40 40 40 11 40 41 41 11 41 10 41 6 42 42 42 43 42 6 43 43 43 44 43 6 44 44 44 45 44 6 45 45 45 46 45 6 46 46 46 1 46 47 47 48 47 3 47 3 48 48 48 49 48 3 49 49 49 4 49 47 50 3 50 50 50 50 51 3 51 2 51 51 52 52 52 53 52 53 53 52 53 54 53 55 54 54 54 56 54 55 55 56 55 57 55 55 56 57 56 58 56 55 57 58 57 59 57 54 58 60 58 61 58 54 59 61 59 62 59 54 60 62 60 56 60 63 61 64 61 65 61 64 62 63 62 66 62 66 63 63 63 67 63 66 64 67 64 68 64 68 65 67 65 69 65 68 66 69 66 70 66 71 67 72 67 73 67 73 68 72 68 74 68 73 69 74 69 75 69 75 70 74 70 60 70 75 71 60 71 76 71 76 72 60 72 54 72 76 73 54 73 52 73 67 74 77 74 69 74 69 75 77 75 78 75 69 76 78 76 79 76 78 77 80 77 79 77 79 78 80 78 71 78 79 79 71 79 73 79 58 80 63 80 59 80 59 81 63 81 65 81 68 82 81 82 66 82 66 83 81 83 82 83 66 84 82 84 64 84 64 85 82 85 83 85 64 86 83 86 65 86 65 87 83 87 84 87 65 88 84 88 59 88 59 89 84 89 85 89 59 90 85 90 55 90 55 91 85 91 86 91 87 92 88 92 89 92 90 93 91 93 92 93 93 94 94 94 95 94 95 95 96 95 93 95 83 96 82 96 84 96 97 97 98 97 99 97 100 98 101 98 102 98 86 99 103 99 104 99 105 100 106 100 107 100 108 101 109 101 110 101 108 102 110 102 111 102 108 103 111 103 112 103 108 104 112 104 113 104 109 105 114 105 115 105 109 106 115 106 116 106 109 107 116 107 117 107 109 108 117 108 97 108 109 109 97 109 99 109 109 110 99 110 118 110 109 111 118 111 119 111 109 112 119 112 120 112 109 113 120 113 121 113 109 114 121 114 122 114 109 115 122 115 123 115 109 116 123 116 110 116 124 117 86 117 104 117 124 118 104 118 125 118 124 119 125 119 126 119 124 120 126 120 127 120 124 121 127 121 128 121 124 122 128 122 129 122 124 123 129 123 130 123 124 124 130 124 90 124 124 125 90 125 92 125 124 126 92 126 131 126 124 127 131 127 132 127 124 128 132 128 133 128 124 129 133 129 134 129 81 130 135 130 136 130 81 131 136 131 137 131 81 132 137 132 138 132 81 133 138 133 139 133 81 134 139 134 140 134 81 135 140 135 141 135 81 136 141 136 82 136 142 137 143 137 144 137 142 138 144 138 145 138 142 139 145 139 146 139 142 140 146 140 147 140 142 141 147 141 148 141 142 142 148 142 149 142 150 143 151 143 152 143 150 144 152 144 153 144 150 145 153 145 100 145 150 146 100 146 102 146 136 147 135 147 154 147 136 148 154 148 155 148 136 149 155 149 156 149 136 150 156 150 113 150 136 151 113 151 112 151 101 152 100 152 157 152 157 153 100 153 158 153 157 154 158 154 159 154 159 155 158 155 122 155 159 156 122 156 121 156 87 157 89 157 160 157 160 158 89 158 91 158 160 159 91 159 90 159 161 160 162 160 163 160 163 161 162 161 93 161 163 162 93 162 96 162 133 163 164 163 134 163 134 164 164 164 144 164 134 165 144 165 165 165 165 166 144 166 143 166 165 167 143 167 166 167 167 168 168 168 169 168 169 169 168 169 170 169 168 170 149 170 170 170 170 171 149 171 148 171 171 172 172 172 173 172 173 173 172 173 99 173 173 174 99 174 98 174 82 175 141 175 84 175 84 176 141 176 174 176 84 177 174 177 85 177 85 178 174 178 103 178 85 179 103 179 86 179 161 180 127 180 162 180 162 181 127 181 126 181 175 182 176 182 177 182 177 183 176 183 178 183 177 184 178 184 179 184 179 185 178 185 180 185 179 186 180 186 181 186 181 187 180 187 140 187 181 188 140 188 139 188 93 189 182 189 94 189 94 190 182 190 175 190 94 191 175 191 177 191 152 192 151 192 183 192 183 193 151 193 184 193 183 194 184 194 185 194 185 195 184 195 186 195 185 196 186 196 187 196 187 197 186 197 138 197 187 198 138 198 137 198 171 199 173 199 188 199 188 200 173 200 105 200 188 201 105 201 107 201 189 202 190 202 191 202 191 203 190 203 107 203 191 204 107 204 106 204 189 205 192 205 190 205 190 206 192 206 193 206 192 207 148 207 193 207 193 208 148 208 147 208 194 209 195 209 196 209 196 210 195 210 89 210 196 211 89 211 88 211 197 212 198 212 199 212 199 213 198 213 194 213 199 214 194 214 196 214 199 215 200 215 197 215 197 216 200 216 201 216 200 217 146 217 201 217 201 218 146 218 145 218 115 219 114 219 202 219 202 220 114 220 169 220 202 221 169 221 170 221 203 222 204 222 205 222 206 223 207 223 208 223 206 224 208 224 209 224 206 225 209 225 210 225 206 226 210 226 211 226 212 227 203 227 205 227 212 228 205 228 213 228 212 229 213 229 214 229 212 230 214 230 215 230 212 231 215 231 216 231 216 232 215 232 217 232 217 233 215 233 218 233 217 234 218 234 219 234 219 235 218 235 220 235 219 236 220 236 221 236 222 237 223 237 224 237 224 238 223 238 225 238 224 239 225 239 226 239 226 240 225 240 227 240 226 241 227 241 211 241 211 242 227 242 228 242 211 243 228 243 206 243 204 244 203 244 229 244 229 245 203 245 222 245 229 246 222 246 224 246 208 247 207 247 230 247 230 248 207 248 220 248 230 249 220 249 218 249 231 250 232 250 233 250 233 251 232 251 234 251 233 252 234 252 235 252 235 253 234 253 236 253 237 254 232 254 238 254 238 255 232 255 231 255 239 256 240 256 241 256 241 257 240 257 242 257 241 258 242 258 238 258 238 259 242 259 237 259 243 260 244 260 239 260 239 261 244 261 240 261 245 262 246 262 247 262 247 263 246 263 248 263 247 264 248 264 243 264 243 265 248 265 244 265 249 266 246 266 250 266 250 267 246 267 245 267 251 268 252 268 253 268 253 269 252 269 254 269 253 270 254 270 250 270 250 271 254 271 249 271 252 272 251 272 236 272 236 273 251 273 235 273 223 274 255 274 225 274 225 275 255 275 256 275 225 276 256 276 227 276 255 277 223 277 257 277 257 278 223 278 222 278 257 279 222 279 258 279 258 280 222 280 203 280 258 281 203 281 259 281 259 282 203 282 212 282 259 283 212 283 260 283 261 284 262 284 263 284 263 285 262 285 264 285 265 286 266 286 267 286 267 287 266 287 263 287 267 288 263 288 264 288 266 289 265 289 268 289 268 290 265 290 269 290 268 291 269 291 270 291 270 292 269 292 271 292 270 293 271 293 272 293 272 294 271 294 273 294 272 295 273 295 274 295 275 296 276 296 273 296 273 297 276 297 274 297 108 298 277 298 278 298 108 299 278 299 275 299 108 300 275 300 279 300 108 301 279 301 109 301 280 302 276 302 278 302 278 303 276 303 275 303 70 304 281 304 282 304 70 305 282 305 283 305 70 306 283 306 81 306 70 307 81 307 68 307 283 308 284 308 81 308 81 309 284 309 135 309 69 310 285 310 70 310 70 311 285 311 281 311 73 312 286 312 79 312 79 313 286 313 285 313 79 314 285 314 69 314 286 315 73 315 287 315 287 316 73 316 75 316 287 317 75 317 288 317 288 318 75 318 76 318 288 319 76 319 289 319 289 320 76 320 52 320 289 321 52 321 51 321 216 322 290 322 212 322 212 323 290 323 260 323 291 324 149 324 292 324 292 325 149 325 168 325 292 326 168 326 293 326 293 327 168 327 167 327 293 328 167 328 294 328 294 329 167 329 169 329 294 330 169 330 295 330 295 331 169 331 114 331 295 332 114 332 279 332 279 333 114 333 109 333 275 334 273 334 279 334 296 335 271 335 297 335 298 336 267 336 299 336 279 337 300 337 301 337 279 338 301 338 302 338 279 339 302 339 303 339 279 340 303 340 295 340 273 341 271 341 296 341 273 342 296 342 300 342 273 343 300 343 279 343 264 344 262 344 304 344 264 345 304 345 305 345 264 346 305 346 306 346 264 347 306 347 299 347 264 348 299 348 267 348 303 349 307 349 295 349 295 350 307 350 308 350 295 351 308 351 294 351 294 352 308 352 292 352 294 353 292 353 293 353 292 354 308 354 291 354 291 355 308 355 304 355 291 356 304 356 262 356 298 357 309 357 267 357 267 358 309 358 297 358 267 359 297 359 265 359 265 360 297 360 271 360 265 361 271 361 269 361 310 362 311 362 312 362 310 363 312 363 313 363 310 364 313 364 314 364 310 365 314 365 315 365 316 366 317 366 314 366 314 367 317 367 318 367 314 368 318 368 315 368 319 369 320 369 321 369 321 370 320 370 322 370 321 371 322 371 323 371 324 372 325 372 326 372 326 373 325 373 327 373 326 374 327 374 328 374 328 375 327 375 329 375 328 376 329 376 330 376 330 377 329 377 331 377 330 378 331 378 332 378 332 379 331 379 320 379 332 380 320 380 319 380 311 381 325 381 312 381 312 382 325 382 324 382 333 383 334 383 335 383 335 384 334 384 336 384 335 385 336 385 337 385 337 386 336 386 321 386 337 387 321 387 323 387 334 388 333 388 338 388 338 389 333 389 339 389 338 390 339 390 340 390 340 391 339 391 341 391 340 392 341 392 342 392 342 393 341 393 343 393 342 394 343 394 344 394 344 395 343 395 317 395 344 396 317 396 316 396 60 397 126 397 61 397 61 398 126 398 125 398 61 399 125 399 62 399 62 400 125 400 104 400 62 401 104 401 56 401 126 402 60 402 162 402 162 403 60 403 74 403 162 404 74 404 93 404 93 405 74 405 72 405 93 406 72 406 182 406 182 407 72 407 71 407 182 408 71 408 175 408 175 409 71 409 80 409 175 410 80 410 176 410 67 411 180 411 77 411 77 412 180 412 178 412 77 413 178 413 78 413 78 414 178 414 176 414 78 415 176 415 80 415 180 416 67 416 140 416 140 417 67 417 63 417 140 418 63 418 141 418 141 419 63 419 58 419 141 420 58 420 174 420 174 421 58 421 57 421 174 422 57 422 103 422 103 423 57 423 56 423 103 424 56 424 104 424 120 425 345 425 121 425 121 426 345 426 346 426 121 427 346 427 159 427 159 428 346 428 347 428 159 429 347 429 157 429 157 430 347 430 348 430 157 431 348 431 101 431 101 432 348 432 349 432 101 433 349 433 102 433 102 434 349 434 350 434 102 435 350 435 150 435 150 436 350 436 351 436 150 437 351 437 151 437 151 438 351 438 352 438 151 439 352 439 184 439 184 440 352 440 353 440 184 441 353 441 186 441 186 442 353 442 354 442 186 443 354 443 138 443 138 444 354 444 355 444 138 445 355 445 139 445 139 446 355 446 356 446 139 447 356 447 181 447 181 448 356 448 357 448 181 449 357 449 179 449 179 450 357 450 358 450 179 451 358 451 177 451 177 452 358 452 359 452 177 453 359 453 94 453 94 454 359 454 360 454 94 455 360 455 95 455 95 456 360 456 361 456 95 457 361 457 96 457 96 458 361 458 362 458 96 459 362 459 163 459 163 460 362 460 363 460 163 461 363 461 161 461 161 462 363 462 364 462 161 463 364 463 127 463 127 464 364 464 365 464 127 465 365 465 128 465 128 466 365 466 366 466 128 467 366 467 129 467 129 468 366 468 367 468 129 469 367 469 130 469 130 470 367 470 368 470 130 471 368 471 90 471 90 472 368 472 369 472 90 473 369 473 160 473 160 474 369 474 370 474 160 475 370 475 87 475 87 476 370 476 371 476 87 477 371 477 88 477 88 478 371 478 372 478 88 479 372 479 196 479 196 480 372 480 373 480 196 481 373 481 199 481 199 482 373 482 374 482 199 483 374 483 200 483 200 484 374 484 375 484 200 485 375 485 146 485 146 486 375 486 376 486 146 487 376 487 147 487 147 488 376 488 377 488 147 489 377 489 193 489 193 490 377 490 378 490 193 491 378 491 190 491 190 492 378 492 379 492 190 493 379 493 107 493 107 494 379 494 380 494 107 495 380 495 188 495 188 496 380 496 381 496 188 497 381 497 171 497 171 498 381 498 382 498 171 499 382 499 172 499 172 500 382 500 383 500 172 501 383 501 99 501 99 502 383 502 384 502 99 503 384 503 118 503 118 504 384 504 385 504 118 505 385 505 119 505 119 506 385 506 386 506 119 507 386 507 120 507 120 508 386 508 345 508 387 509 388 509 389 509 390 510 387 510 389 510 391 511 392 511 393 511 391 512 393 512 394 512 391 513 394 513 395 513 391 514 395 514 283 514 278 515 277 515 396 515 278 516 396 516 397 516 278 517 397 517 398 517 278 518 398 518 399 518 278 519 399 519 400 519 401 520 402 520 389 520 389 521 402 521 390 521 402 522 400 522 390 522 390 523 400 523 399 523 403 524 404 524 405 524 405 525 404 525 284 525 405 526 284 526 406 526 406 527 284 527 283 527 406 528 283 528 395 528 396 529 277 529 407 529 407 530 277 530 408 530 407 531 408 531 409 531 409 532 408 532 405 532 409 533 405 533 406 533 393 534 392 534 410 534 410 535 392 535 389 535 410 536 389 536 388 536 251 537 253 537 411 537 251 538 411 538 412 538 251 539 412 539 413 539 251 540 413 540 414 540 251 541 414 541 415 541 243 542 416 542 417 542 243 543 417 543 418 543 243 544 418 544 419 544 243 545 419 545 420 545 243 546 420 546 247 546 235 547 251 547 415 547 235 548 415 548 421 548 235 549 421 549 422 549 235 550 422 550 423 550 235 551 423 551 424 551 235 552 424 552 233 552 239 553 241 553 425 553 239 554 425 554 426 554 239 555 426 555 427 555 239 556 427 556 428 556 239 557 428 557 416 557 239 558 416 558 243 558 233 559 424 559 231 559 231 560 424 560 425 560 231 561 425 561 238 561 238 562 425 562 241 562 245 563 247 563 250 563 250 564 247 564 420 564 250 565 420 565 253 565 253 566 420 566 411 566 429 567 430 567 431 567 432 568 433 568 434 568 434 569 433 569 435 569 434 570 435 570 436 570 436 571 435 571 437 571 436 572 437 572 438 572 438 573 437 573 439 573 438 574 439 574 440 574 440 575 439 575 441 575 440 576 441 576 442 576 442 577 441 577 443 577 442 578 443 578 444 578 444 579 443 579 431 579 444 580 431 580 430 580 445 581 446 581 411 581 416 582 447 582 417 582 417 583 447 583 448 583 417 584 448 584 449 584 417 585 449 585 418 585 418 586 449 586 450 586 418 587 450 587 451 587 418 588 451 588 419 588 419 589 451 589 452 589 419 590 452 590 453 590 419 591 453 591 420 591 420 592 453 592 454 592 420 593 454 593 411 593 411 594 454 594 455 594 411 595 455 595 445 595 411 596 446 596 412 596 412 597 446 597 456 597 412 598 456 598 457 598 412 599 457 599 413 599 413 600 457 600 458 600 413 601 458 601 459 601 413 602 459 602 414 602 414 603 459 603 460 603 414 604 460 604 461 604 461 605 462 605 414 605 414 606 462 606 415 606 463 607 464 607 425 607 415 608 462 608 421 608 421 609 462 609 465 609 421 610 465 610 466 610 421 611 466 611 422 611 422 612 466 612 467 612 422 613 467 613 468 613 422 614 468 614 423 614 423 615 468 615 469 615 423 616 469 616 470 616 423 617 470 617 424 617 424 618 470 618 471 618 424 619 471 619 425 619 425 620 471 620 472 620 425 621 472 621 463 621 425 622 464 622 426 622 426 623 464 623 473 623 426 624 473 624 474 624 426 625 474 625 427 625 427 626 474 626 475 626 427 627 475 627 476 627 427 628 476 628 428 628 428 629 476 629 477 629 428 630 477 630 478 630 478 631 447 631 428 631 428 632 447 632 416 632 479 633 480 633 481 633 481 634 480 634 482 634 482 635 480 635 483 635 482 636 483 636 484 636 485 637 455 637 454 637 486 638 487 638 488 638 489 639 488 639 487 639 487 640 490 640 489 640 489 641 490 641 491 641 480 642 492 642 483 642 483 643 492 643 493 643 460 644 494 644 461 644 490 645 487 645 495 645 495 646 496 646 490 646 497 647 498 647 456 647 497 648 456 648 446 648 497 649 446 649 445 649 497 650 445 650 455 650 497 651 455 651 499 651 497 652 499 652 493 652 500 653 491 653 490 653 500 654 490 654 496 654 500 655 496 655 501 655 502 656 503 656 471 656 502 657 471 657 470 657 502 658 470 658 469 658 502 659 469 659 468 659 502 660 468 660 467 660 502 661 467 661 504 661 505 662 495 662 487 662 505 663 487 663 506 663 505 664 506 664 472 664 505 665 472 665 471 665 505 666 471 666 503 666 479 667 507 667 480 667 480 668 507 668 508 668 480 669 508 669 492 669 472 670 506 670 463 670 463 671 506 671 509 671 463 672 509 672 464 672 464 673 509 673 510 673 464 674 510 674 473 674 473 675 510 675 511 675 473 676 511 676 474 676 512 677 484 677 499 677 499 678 484 678 483 678 499 679 483 679 493 679 455 680 485 680 499 680 499 681 485 681 513 681 499 682 513 682 512 682 485 683 454 683 514 683 514 684 454 684 453 684 514 685 453 685 515 685 515 686 453 686 452 686 515 687 452 687 451 687 515 688 451 688 516 688 516 689 451 689 450 689 516 690 450 690 517 690 517 691 450 691 449 691 517 692 449 692 518 692 518 693 449 693 448 693 518 694 448 694 519 694 519 695 448 695 447 695 519 696 447 696 520 696 520 697 447 697 478 697 520 698 478 698 521 698 521 699 478 699 522 699 522 700 478 700 477 700 522 701 477 701 523 701 523 702 477 702 476 702 523 703 476 703 475 703 474 704 511 704 475 704 475 705 511 705 523 705 487 706 486 706 506 706 506 707 486 707 524 707 506 708 524 708 509 708 525 709 458 709 498 709 498 710 458 710 457 710 498 711 457 711 456 711 494 712 460 712 525 712 525 713 460 713 459 713 525 714 459 714 458 714 461 715 494 715 462 715 462 716 494 716 526 716 462 717 526 717 465 717 465 718 526 718 527 718 465 719 527 719 466 719 467 720 466 720 504 720 504 721 466 721 527 721 528 722 529 722 530 722 528 723 530 723 531 723 528 724 531 724 501 724 528 725 501 725 532 725 533 726 529 726 528 726 533 727 528 727 534 727 533 728 534 728 535 728 533 729 535 729 536 729 492 730 537 730 493 730 493 731 537 731 538 731 493 732 538 732 497 732 497 733 538 733 539 733 497 734 539 734 498 734 498 735 539 735 540 735 498 736 540 736 525 736 525 737 540 737 541 737 525 738 541 738 494 738 494 739 541 739 542 739 494 740 542 740 526 740 542 741 543 741 526 741 526 742 543 742 544 742 526 743 544 743 527 743 527 744 544 744 545 744 527 745 545 745 504 745 504 746 545 746 546 746 504 747 546 747 502 747 502 748 546 748 547 748 502 749 547 749 503 749 503 750 547 750 495 750 503 751 495 751 505 751 547 752 548 752 495 752 495 753 548 753 549 753 495 754 549 754 496 754 496 755 549 755 532 755 496 756 532 756 501 756 536 757 535 757 550 757 550 758 535 758 551 758 550 759 551 759 507 759 507 760 551 760 552 760 507 761 552 761 508 761 508 762 552 762 537 762 508 763 537 763 492 763 553 764 554 764 555 764 555 765 556 765 553 765 553 766 556 766 557 766 553 767 557 767 558 767 558 768 557 768 559 768 558 769 559 769 560 769 560 770 559 770 561 770 560 771 561 771 562 771 562 772 561 772 563 772 562 773 563 773 564 773 564 774 563 774 565 774 564 775 565 775 566 775 566 776 565 776 567 776 566 777 567 777 568 777 568 778 567 778 569 778 568 779 569 779 570 779 570 780 569 780 571 780 570 781 571 781 572 781 572 782 571 782 573 782 572 783 573 783 574 783 574 784 573 784 575 784 574 785 575 785 576 785 576 786 575 786 577 786 576 787 577 787 578 787 578 788 577 788 579 788 578 789 579 789 580 789 580 790 579 790 581 790 580 791 581 791 582 791 582 792 581 792 583 792 582 793 583 793 584 793 584 794 583 794 585 794 584 795 585 795 586 795 586 796 585 796 587 796 586 797 587 797 588 797 588 798 587 798 555 798 588 799 555 799 554 799 589 800 590 800 591 800 591 801 590 801 592 801 591 802 592 802 593 802 594 803 595 803 596 803 596 804 595 804 597 804 596 805 597 805 598 805 599 806 600 806 601 806 601 807 600 807 602 807 601 808 602 808 603 808 603 809 602 809 591 809 603 810 591 810 593 810 600 811 599 811 604 811 604 812 599 812 605 812 604 813 605 813 606 813 606 814 605 814 607 814 606 815 607 815 608 815 608 816 607 816 609 816 608 817 609 817 610 817 610 818 609 818 595 818 610 819 595 819 594 819 611 820 612 820 613 820 613 821 612 821 614 821 613 822 614 822 615 822 615 823 614 823 596 823 615 824 596 824 598 824 612 825 611 825 616 825 616 826 611 826 617 826 616 827 617 827 618 827 618 828 617 828 619 828 618 829 619 829 620 829 620 830 619 830 621 830 620 831 621 831 622 831 622 832 621 832 590 832 622 833 590 833 589 833 623 834 624 834 625 834 626 835 627 835 628 835 628 836 627 836 629 836 628 837 629 837 630 837 630 838 629 838 631 838 630 839 631 839 632 839 632 840 631 840 633 840 632 841 633 841 634 841 634 842 633 842 635 842 634 843 635 843 636 843 636 844 635 844 637 844 636 845 637 845 638 845 638 846 637 846 625 846 638 847 625 847 624 847 591 848 628 848 589 848 589 849 628 849 630 849 589 850 630 850 622 850 622 851 630 851 632 851 622 852 632 852 620 852 620 853 632 853 634 853 620 854 634 854 618 854 628 855 591 855 626 855 626 856 591 856 602 856 626 857 602 857 627 857 627 858 602 858 600 858 627 859 600 859 629 859 629 860 600 860 604 860 629 861 604 861 631 861 631 862 604 862 606 862 631 863 606 863 633 863 596 864 625 864 594 864 594 865 625 865 637 865 594 866 637 866 610 866 610 867 637 867 635 867 610 868 635 868 608 868 608 869 635 869 633 869 608 870 633 870 606 870 625 871 596 871 623 871 623 872 596 872 614 872 623 873 614 873 624 873 624 874 614 874 612 874 624 875 612 875 638 875 638 876 612 876 616 876 638 877 616 877 636 877 636 878 616 878 618 878 636 879 618 879 634 879 579 880 617 880 581 880 581 881 617 881 611 881 581 882 611 882 583 882 583 883 611 883 613 883 583 884 613 884 585 884 585 885 613 885 615 885 585 886 615 886 587 886 587 887 615 887 598 887 587 888 598 888 555 888 555 889 598 889 597 889 555 890 597 890 556 890 556 891 597 891 595 891 556 892 595 892 557 892 557 893 595 893 609 893 557 894 609 894 559 894 559 895 609 895 607 895 559 896 607 896 561 896 561 897 607 897 605 897 561 898 605 898 563 898 563 899 605 899 599 899 563 900 599 900 565 900 565 901 599 901 601 901 565 902 601 902 567 902 567 903 601 903 603 903 567 904 603 904 569 904 569 905 603 905 593 905 569 906 593 906 571 906 571 907 593 907 592 907 571 908 592 908 573 908 573 909 592 909 590 909 573 910 590 910 575 910 575 911 590 911 621 911 575 912 621 912 577 912 577 913 621 913 619 913 577 914 619 914 579 914 579 915 619 915 617 915 544 916 582 916 584 916 544 917 584 917 545 917 545 918 584 918 586 918 545 919 586 919 546 919 546 920 586 920 588 920 546 921 588 921 547 921 547 922 588 922 554 922 547 923 554 923 548 923 548 924 554 924 553 924 548 925 553 925 549 925 549 926 553 926 558 926 549 927 558 927 532 927 532 928 558 928 560 928 542 929 580 929 543 929 543 930 580 930 582 930 543 931 582 931 544 931 562 932 534 932 560 932 560 933 534 933 528 933 560 934 528 934 532 934 534 935 562 935 535 935 535 936 562 936 564 936 535 937 564 937 551 937 551 938 564 938 566 938 551 939 566 939 552 939 552 940 566 940 568 940 552 941 568 941 537 941 537 942 568 942 570 942 537 943 570 943 538 943 538 944 570 944 572 944 538 945 572 945 539 945 539 946 572 946 574 946 539 947 574 947 540 947 540 948 574 948 576 948 540 949 576 949 541 949 541 950 576 950 578 950 541 951 578 951 542 951 542 952 578 952 580 952 356 953 355 953 357 953 357 954 355 954 354 954 357 955 354 955 358 955 358 956 354 956 353 956 358 957 353 957 359 957 359 958 353 958 352 958 359 959 352 959 360 959 360 960 352 960 351 960 360 961 351 961 361 961 361 962 351 962 350 962 361 963 350 963 362 963 362 964 350 964 349 964 362 965 349 965 363 965 363 966 349 966 348 966 363 967 348 967 364 967 364 968 348 968 347 968 364 969 347 969 365 969 365 970 347 970 346 970 365 971 346 971 366 971 366 972 346 972 345 972 366 973 345 973 367 973 367 974 345 974 386 974 367 975 386 975 368 975 368 976 386 976 385 976 368 977 385 977 369 977 369 978 385 978 384 978 369 979 384 979 370 979 370 980 384 980 383 980 370 981 383 981 371 981 371 982 383 982 382 982 371 983 382 983 372 983 372 984 382 984 381 984 372 985 381 985 373 985 373 986 381 986 380 986 373 987 380 987 374 987 374 988 380 988 379 988 374 989 379 989 375 989 375 990 379 990 378 990 375 991 378 991 376 991 376 992 378 992 377 992 429 993 336 993 430 993 430 994 336 994 334 994 430 995 334 995 444 995 444 996 334 996 338 996 444 997 338 997 442 997 442 998 338 998 340 998 442 999 340 999 440 999 336 1000 429 1000 321 1000 321 1001 429 1001 431 1001 321 1002 431 1002 319 1002 319 1003 431 1003 443 1003 319 1004 443 1004 332 1004 332 1005 443 1005 441 1005 332 1006 441 1006 330 1006 330 1007 441 1007 439 1007 330 1008 439 1008 328 1008 324 1009 437 1009 435 1009 435 1010 312 1010 324 1010 312 1011 435 1011 433 1011 324 1012 326 1012 437 1012 437 1013 326 1013 328 1013 437 1014 328 1014 439 1014 312 1015 433 1015 313 1015 313 1016 433 1016 432 1016 313 1017 432 1017 314 1017 314 1018 432 1018 434 1018 314 1019 434 1019 316 1019 316 1020 434 1020 436 1020 316 1021 436 1021 344 1021 344 1022 436 1022 438 1022 344 1023 438 1023 342 1023 342 1024 438 1024 440 1024 342 1025 440 1025 340 1025 224 1026 195 1026 229 1026 229 1027 195 1027 194 1027 229 1028 194 1028 204 1028 204 1029 194 1029 198 1029 204 1030 198 1030 205 1030 195 1031 224 1031 89 1031 89 1032 224 1032 226 1032 89 1033 226 1033 91 1033 91 1034 226 1034 211 1034 91 1035 211 1035 92 1035 92 1036 211 1036 210 1036 92 1037 210 1037 131 1037 131 1038 210 1038 209 1038 131 1039 209 1039 132 1039 218 1040 164 1040 230 1040 230 1041 164 1041 133 1041 230 1042 133 1042 208 1042 208 1043 133 1043 132 1043 208 1044 132 1044 209 1044 164 1045 218 1045 144 1045 144 1046 218 1046 215 1046 144 1047 215 1047 145 1047 145 1048 215 1048 214 1048 145 1049 214 1049 201 1049 201 1050 214 1050 213 1050 201 1051 213 1051 197 1051 197 1052 213 1052 205 1052 197 1053 205 1053 198 1053 406 1054 112 1054 409 1054 409 1055 112 1055 111 1055 409 1056 111 1056 407 1056 407 1057 111 1057 110 1057 407 1058 110 1058 396 1058 112 1059 406 1059 136 1059 136 1060 406 1060 395 1060 136 1061 395 1061 137 1061 137 1062 395 1062 394 1062 137 1063 394 1063 187 1063 187 1064 394 1064 393 1064 187 1065 393 1065 185 1065 185 1066 393 1066 410 1066 185 1067 410 1067 183 1067 390 1068 153 1068 387 1068 387 1069 153 1069 152 1069 387 1070 152 1070 388 1070 388 1071 152 1071 183 1071 388 1072 183 1072 410 1072 153 1073 390 1073 100 1073 100 1074 390 1074 399 1074 100 1075 399 1075 158 1075 158 1076 399 1076 398 1076 158 1077 398 1077 122 1077 122 1078 398 1078 397 1078 122 1079 397 1079 123 1079 123 1080 397 1080 396 1080 123 1081 396 1081 110 1081 296 1082 97 1082 300 1082 300 1083 97 1083 117 1083 300 1084 117 1084 301 1084 301 1085 117 1085 116 1085 301 1086 116 1086 302 1086 97 1087 296 1087 98 1087 98 1088 296 1088 297 1088 98 1089 297 1089 173 1089 173 1090 297 1090 309 1090 173 1091 309 1091 105 1091 105 1092 309 1092 298 1092 105 1093 298 1093 106 1093 106 1094 298 1094 299 1094 106 1095 299 1095 191 1095 304 1096 192 1096 305 1096 305 1097 192 1097 189 1097 305 1098 189 1098 306 1098 306 1099 189 1099 191 1099 306 1100 191 1100 299 1100 192 1101 304 1101 148 1101 148 1102 304 1102 308 1102 148 1103 308 1103 170 1103 170 1104 308 1104 307 1104 170 1105 307 1105 202 1105 202 1106 307 1106 303 1106 202 1107 303 1107 115 1107 115 1108 303 1108 302 1108 115 1109 302 1109 116 1109 24 1110 333 1110 335 1110 24 1111 335 1111 26 1111 26 1112 335 1112 337 1112 26 1113 337 1113 28 1113 28 1114 337 1114 323 1114 28 1115 323 1115 30 1115 30 1116 323 1116 322 1116 30 1117 322 1117 34 1117 34 1118 322 1118 320 1118 34 1119 320 1119 35 1119 35 1120 320 1120 331 1120 35 1121 331 1121 5 1121 5 1122 331 1122 329 1122 21 1123 339 1123 23 1123 23 1124 339 1124 333 1124 23 1125 333 1125 24 1125 327 1126 7 1126 329 1126 329 1127 7 1127 0 1127 329 1128 0 1128 5 1128 7 1129 327 1129 8 1129 8 1130 327 1130 325 1130 8 1131 325 1131 38 1131 38 1132 325 1132 311 1132 38 1133 311 1133 40 1133 40 1134 311 1134 310 1134 40 1135 310 1135 11 1135 11 1136 310 1136 315 1136 11 1137 315 1137 13 1137 13 1138 315 1138 318 1138 13 1139 318 1139 15 1139 15 1140 318 1140 317 1140 15 1141 317 1141 17 1141 17 1142 317 1142 343 1142 17 1143 343 1143 19 1143 19 1144 343 1144 341 1144 19 1145 341 1145 21 1145 21 1146 341 1146 339 1146 216 1147 217 1147 142 1147 216 1148 142 1148 262 1148 216 1149 262 1149 261 1149 216 1150 261 1150 290 1150 149 1151 291 1151 142 1151 142 1152 291 1152 262 1152 280 1153 639 1153 256 1153 280 1154 256 1154 274 1154 280 1155 274 1155 276 1155 639 1156 280 1156 640 1156 639 1157 640 1157 51 1157 639 1158 51 1158 53 1158 282 1159 281 1159 641 1159 641 1160 281 1160 285 1160 641 1161 285 1161 642 1161 642 1162 285 1162 286 1162 642 1163 286 1163 643 1163 643 1164 286 1164 287 1164 643 1165 287 1165 644 1165 644 1166 287 1166 288 1166 644 1167 288 1167 645 1167 645 1168 288 1168 289 1168 645 1169 289 1169 640 1169 640 1170 289 1170 51 1170 274 1171 256 1171 272 1171 272 1172 256 1172 255 1172 272 1173 255 1173 270 1173 270 1174 255 1174 257 1174 270 1175 257 1175 268 1175 268 1176 257 1176 258 1176 268 1177 258 1177 266 1177 266 1178 258 1178 259 1178 266 1179 259 1179 263 1179 263 1180 259 1180 260 1180 263 1181 260 1181 261 1181 261 1182 260 1182 290 1182 227 1183 256 1183 228 1183 228 1184 256 1184 639 1184 206 1185 124 1185 207 1185 207 1186 124 1186 134 1186 207 1187 134 1187 220 1187 220 1188 134 1188 165 1188 220 1189 165 1189 221 1189 221 1190 165 1190 166 1190 221 1191 166 1191 219 1191 219 1192 166 1192 143 1192 219 1193 143 1193 217 1193 217 1194 143 1194 142 1194 639 1195 53 1195 646 1195 639 1196 646 1196 647 1196 639 1197 647 1197 648 1197 639 1198 648 1198 649 1198 639 1199 649 1199 650 1199 639 1200 650 1200 228 1200 54 1201 55 1201 86 1201 54 1202 86 1202 228 1202 54 1203 228 1203 234 1203 54 1204 234 1204 232 1204 54 1205 232 1205 237 1205 54 1206 237 1206 53 1206 228 1207 650 1207 651 1207 228 1208 651 1208 652 1208 228 1209 652 1209 653 1209 228 1210 653 1210 654 1210 228 1211 654 1211 655 1211 228 1212 655 1212 249 1212 228 1213 249 1213 254 1213 228 1214 254 1214 252 1214 228 1215 252 1215 236 1215 228 1216 236 1216 234 1216 646 1217 244 1217 248 1217 646 1218 248 1218 246 1218 646 1219 246 1219 656 1219 53 1220 237 1220 242 1220 53 1221 242 1221 240 1221 53 1222 240 1222 244 1222 53 1223 244 1223 646 1223 249 1224 655 1224 246 1224 246 1225 655 1225 657 1225 246 1226 657 1226 656 1226 124 1227 206 1227 86 1227 86 1228 206 1228 228 1228 658 1229 659 1229 660 1229 658 1230 660 1230 661 1230 658 1231 661 1231 662 1231 658 1232 662 1232 663 1232 658 1233 663 1233 664 1233 665 1234 666 1234 667 1234 665 1235 667 1235 668 1235 665 1236 668 1236 669 1236 665 1237 669 1237 670 1237 665 1238 670 1238 671 1238 672 1239 665 1239 671 1239 672 1240 671 1240 673 1240 672 1241 673 1241 674 1241 672 1242 674 1242 675 1242 672 1243 675 1243 676 1243 672 1244 676 1244 677 1244 678 1245 679 1245 680 1245 678 1246 680 1246 681 1246 678 1247 681 1247 682 1247 678 1248 682 1248 683 1248 678 1249 683 1249 659 1249 678 1250 659 1250 658 1250 677 1251 676 1251 684 1251 684 1252 676 1252 680 1252 684 1253 680 1253 685 1253 685 1254 680 1254 679 1254 686 1255 664 1255 687 1255 687 1256 664 1256 663 1256 687 1257 663 1257 666 1257 666 1258 663 1258 667 1258 660 1259 688 1259 661 1259 688 1260 689 1260 661 1260 662 1261 690 1261 663 1261 691 1262 692 1262 668 1262 659 1263 693 1263 660 1263 660 1264 693 1264 694 1264 660 1265 694 1265 688 1265 661 1266 689 1266 662 1266 662 1267 689 1267 695 1267 662 1268 695 1268 690 1268 696 1269 667 1269 697 1269 697 1270 667 1270 663 1270 697 1271 663 1271 690 1271 691 1272 668 1272 698 1272 698 1273 668 1273 667 1273 698 1274 667 1274 696 1274 668 1275 692 1275 669 1275 669 1276 692 1276 699 1276 669 1277 699 1277 700 1277 669 1278 700 1278 670 1278 670 1279 700 1279 701 1279 670 1280 701 1280 702 1280 703 1281 671 1281 702 1281 702 1282 671 1282 670 1282 673 1283 704 1283 674 1283 704 1284 705 1284 674 1284 675 1285 706 1285 676 1285 706 1286 707 1286 676 1286 680 1287 708 1287 709 1287 680 1288 709 1288 681 1288 709 1289 710 1289 681 1289 682 1290 681 1290 710 1290 710 1291 711 1291 682 1291 671 1292 703 1292 673 1292 673 1293 703 1293 712 1293 673 1294 712 1294 704 1294 674 1295 705 1295 675 1295 675 1296 705 1296 713 1296 675 1297 713 1297 706 1297 676 1298 707 1298 680 1298 680 1299 707 1299 714 1299 680 1300 714 1300 708 1300 682 1301 711 1301 683 1301 683 1302 711 1302 715 1302 683 1303 715 1303 716 1303 693 1304 659 1304 716 1304 716 1305 659 1305 683 1305 50 1306 2 1306 46 1306 46 1307 2 1307 1 1307 9 1308 717 1308 6 1308 6 1309 717 1309 42 1309 718 1310 697 1310 719 1310 720 1311 721 1311 722 1311 723 1312 724 1312 725 1312 726 1313 41 1313 10 1313 726 1314 10 1314 727 1314 727 1315 10 1315 12 1315 727 1316 12 1316 728 1316 696 1317 14 1317 698 1317 704 1318 712 1318 25 1318 25 1319 27 1319 704 1319 706 1320 713 1320 29 1320 29 1321 31 1321 706 1321 706 1322 31 1322 707 1322 32 1323 36 1323 724 1323 49 1324 725 1324 724 1324 49 1325 724 1325 36 1325 49 1326 36 1326 4 1326 729 1327 730 1327 731 1327 729 1328 731 1328 722 1328 729 1329 722 1329 721 1329 729 1330 721 1330 33 1330 729 1331 33 1331 32 1331 729 1332 32 1332 724 1332 729 1333 724 1333 723 1333 729 1334 723 1334 730 1334 16 1335 18 1335 699 1335 16 1336 699 1336 692 1336 16 1337 692 1337 691 1337 16 1338 691 1338 698 1338 16 1339 698 1339 14 1339 39 1340 41 1340 732 1340 732 1341 41 1341 726 1341 732 1342 726 1342 733 1342 733 1343 726 1343 734 1343 12 1344 14 1344 728 1344 728 1345 14 1345 696 1345 728 1346 696 1346 735 1346 735 1347 696 1347 697 1347 735 1348 697 1348 718 1348 720 1349 736 1349 721 1349 721 1350 736 1350 714 1350 721 1351 714 1351 33 1351 33 1352 714 1352 707 1352 33 1353 707 1353 31 1353 734 1354 726 1354 737 1354 737 1355 726 1355 727 1355 737 1356 727 1356 738 1356 738 1357 727 1357 739 1357 739 1358 727 1358 728 1358 739 1359 728 1359 735 1359 719 1360 697 1360 740 1360 740 1361 697 1361 690 1361 740 1362 690 1362 741 1362 741 1363 690 1363 695 1363 741 1364 695 1364 742 1364 742 1365 695 1365 689 1365 742 1366 689 1366 743 1366 743 1367 689 1367 688 1367 743 1368 688 1368 744 1368 744 1369 688 1369 694 1369 744 1370 694 1370 745 1370 745 1371 694 1371 693 1371 745 1372 693 1372 746 1372 746 1373 693 1373 716 1373 746 1374 716 1374 747 1374 747 1375 716 1375 715 1375 747 1376 715 1376 748 1376 748 1377 715 1377 711 1377 748 1378 711 1378 749 1378 749 1379 711 1379 750 1379 750 1380 711 1380 710 1380 750 1381 710 1381 751 1381 751 1382 710 1382 709 1382 751 1383 709 1383 736 1383 736 1384 709 1384 708 1384 736 1385 708 1385 714 1385 20 1386 701 1386 18 1386 18 1387 701 1387 700 1387 18 1388 700 1388 699 1388 25 1389 712 1389 22 1389 22 1390 712 1390 703 1390 22 1391 703 1391 20 1391 20 1392 703 1392 702 1392 20 1393 702 1393 701 1393 29 1394 713 1394 27 1394 27 1395 713 1395 705 1395 27 1396 705 1396 704 1396 744 1397 745 1397 44 1397 744 1398 44 1398 43 1398 744 1399 43 1399 42 1399 744 1400 42 1400 717 1400 744 1401 717 1401 752 1401 744 1402 752 1402 743 1402 739 1403 735 1403 738 1403 738 1404 735 1404 718 1404 738 1405 718 1405 737 1405 737 1406 718 1406 719 1406 737 1407 719 1407 740 1407 737 1408 740 1408 734 1408 734 1409 740 1409 741 1409 734 1410 741 1410 733 1410 733 1411 741 1411 742 1411 733 1412 742 1412 732 1412 732 1413 742 1413 743 1413 732 1414 743 1414 752 1414 44 1415 745 1415 45 1415 45 1416 745 1416 746 1416 45 1417 746 1417 46 1417 46 1418 746 1418 747 1418 46 1419 747 1419 50 1419 50 1420 747 1420 47 1420 47 1421 747 1421 748 1421 47 1422 748 1422 48 1422 48 1423 748 1423 49 1423 49 1424 748 1424 749 1424 49 1425 749 1425 725 1425 725 1426 749 1426 723 1426 723 1427 749 1427 750 1427 723 1428 750 1428 751 1428 723 1429 751 1429 730 1429 730 1430 751 1430 736 1430 730 1431 736 1431 731 1431 720 1432 722 1432 736 1432 736 1433 722 1433 731 1433 732 1434 752 1434 39 1434 39 1435 752 1435 37 1435 752 1436 717 1436 37 1436 37 1437 717 1437 9 1437 517 1438 518 1438 753 1438 517 1439 753 1439 754 1439 517 1440 754 1440 755 1440 517 1441 755 1441 756 1441 517 1442 756 1442 479 1442 517 1443 479 1443 481 1443 517 1444 481 1444 516 1444 512 1445 513 1445 484 1445 484 1446 513 1446 485 1446 484 1447 485 1447 482 1447 482 1448 485 1448 514 1448 482 1449 514 1449 515 1449 516 1450 481 1450 515 1450 515 1451 481 1451 482 1451 753 1452 518 1452 757 1452 757 1453 518 1453 519 1453 757 1454 519 1454 758 1454 758 1455 519 1455 520 1455 758 1456 520 1456 759 1456 759 1457 520 1457 521 1457 759 1458 521 1458 760 1458 760 1459 521 1459 761 1459 761 1460 521 1460 522 1460 761 1461 522 1461 762 1461 762 1462 522 1462 500 1462 500 1463 522 1463 523 1463 500 1464 523 1464 491 1464 491 1465 523 1465 489 1465 489 1466 523 1466 511 1466 489 1467 511 1467 488 1467 488 1468 511 1468 510 1468 488 1469 510 1469 486 1469 509 1470 524 1470 510 1470 510 1471 524 1471 486 1471 479 1472 756 1472 507 1472 507 1473 756 1473 550 1473 756 1474 755 1474 550 1474 550 1475 755 1475 536 1475 760 1476 530 1476 759 1476 759 1477 530 1477 529 1477 533 1478 754 1478 753 1478 533 1479 753 1479 757 1479 533 1480 757 1480 758 1480 533 1481 758 1481 759 1481 533 1482 759 1482 529 1482 536 1483 755 1483 533 1483 533 1484 755 1484 754 1484 761 1485 762 1485 531 1485 531 1486 762 1486 500 1486 531 1487 500 1487 501 1487 761 1488 531 1488 760 1488 760 1489 531 1489 530 1489 277 1490 108 1490 408 1490 408 1491 108 1491 113 1491 408 1492 113 1492 405 1492 405 1493 113 1493 156 1493 405 1494 156 1494 403 1494 403 1495 156 1495 155 1495 403 1496 155 1496 404 1496 404 1497 155 1497 154 1497 404 1498 154 1498 284 1498 284 1499 154 1499 135 1499 665 1500 652 1500 666 1500 666 1501 652 1501 651 1501 666 1502 651 1502 687 1502 687 1503 651 1503 650 1503 650 1504 649 1504 687 1504 687 1505 649 1505 686 1505 686 1506 649 1506 664 1506 664 1507 649 1507 648 1507 664 1508 648 1508 658 1508 658 1509 648 1509 647 1509 658 1510 647 1510 678 1510 678 1511 647 1511 646 1511 678 1512 646 1512 679 1512 679 1513 646 1513 656 1513 679 1514 656 1514 685 1514 685 1515 656 1515 657 1515 657 1516 655 1516 685 1516 685 1517 655 1517 684 1517 684 1518 655 1518 677 1518 677 1519 655 1519 654 1519 677 1520 654 1520 672 1520 672 1521 654 1521 653 1521 652 1522 665 1522 653 1522 653 1523 665 1523 672 1523 401 1524 645 1524 402 1524 402 1525 645 1525 640 1525 402 1526 640 1526 400 1526 645 1527 401 1527 644 1527 644 1528 401 1528 389 1528 644 1529 389 1529 643 1529 643 1530 389 1530 392 1530 643 1531 392 1531 642 1531 642 1532 392 1532 391 1532 642 1533 391 1533 641 1533 641 1534 391 1534 282 1534 282 1535 391 1535 283 1535 280 1536 278 1536 640 1536 640 1537 278 1537 400 1537</p>
                </triangles>
            </mesh>
        </geometry>
    </library_geometries>
    <library_visual_scenes>
        <visual_scene id="VisualSceneNode" name="VisualScene">
            <node id="node" name="node">
                <instance_geometry url="#shape0-lib"/>
            </node>
        </visual_scene>
    </library_visual_scenes>
    <scene>
        <instance_visual_scene url="#VisualSceneNode"/>
    </scene>
</COLLADA>
