<?xml version="1.0" encoding="UTF-8"?>
<COLLADA xmlns="http://www.collada.org/2005/11/COLLADASchema" version="1.4.1">
    <asset>
        <contributor>
            <author>VCGLab</author>
            <authoring_tool>VCGLib | MeshLab</authoring_tool>
        </contributor>
        <created>Fri May 8 15:35:37 2026 GMT</created>
        <modified>Fri May 8 15:35:37 2026 GMT</modified>
        <up_axis>Y_UP</up_axis>
    </asset>
    <library_geometries>
        <geometry id="shape0-lib" name="shape0">
            <mesh>
                <source id="shape0-lib-positions" name="position">
                    <float_array id="shape0-lib-positions-array" count="2445">-0.025 0.12285 -0.2285 -0.0284824 0.122157 -0.2285 -0.0215176 0.122157 -0.2285 -0.025 0.10465 -0.2285 -0.0215176 0.105343 -0.2285 -0.0284824 0.105343 -0.2285 -0.0185653 0.107315 -0.2285 -0.0314347 0.107315 -0.2285 -0.0165927 0.110268 -0.2285 -0.0334073 0.110268 -0.2285 -0.0159 0.11375 -0.2285 -0.0341 0.11375 -0.2285 -0.0165927 0.117232 -0.2285 -0.0334073 0.117232 -0.2285 -0.0185653 0.120185 -0.2285 -0.0314347 0.120185 -0.2285 -0.025 0.12285 -0.2195 -0.0215176 0.122157 -0.2195 -0.0185653 0.120185 -0.2195 -0.0165927 0.117232 -0.2195 -0.0159 0.11375 -0.2195 -0.0284824 0.122157 -0.2195 -0.0314347 0.120185 -0.2195 -0.0334073 0.117232 -0.2195 -0.0341 0.11375 -0.2195 -0.025 0.10465 -0.2195 -0.0284824 0.105343 -0.2195 -0.0314347 0.107315 -0.2195 -0.0334073 0.110268 -0.2195 -0.0215176 0.105343 -0.2195 -0.0185653 0.107315 -0.2195 -0.0165927 0.110268 -0.2195 -0.030375 0.10444 -0.2195 -0.0268667 0.103163 -0.2195 -0.0231333 0.103163 -0.2195 -0.019625 0.12306 -0.2195 -0.0231333 0.124337 -0.2195 -0.0268667 0.124337 -0.2195 -0.0148983 0.110073 -0.2195 -0.016765 0.10684 -0.2195 -0.019625 0.10444 -0.2195 -0.01425 0.11375 -0.2195 -0.0148983 0.117427 -0.2195 -0.016765 0.12066 -0.2195 -0.0351017 0.117427 -0.2195 -0.033235 0.12066 -0.2195 -0.030375 0.12306 -0.2195 -0.03575 0.11375 -0.2195 -0.0351017 0.110073 -0.2195 -0.033235 0.10684 -0.2195 0.025 0.12335 -0.2279 0.0213262 0.122619 -0.2279 0.0286738 0.122619 -0.2279 0.025 0.10415 -0.2279 0.0286738 0.104881 -0.2279 0.0213262 0.104881 -0.2279 0.0317882 0.106962 -0.2279 0.0182118 0.106962 -0.2279 0.0338692 0.110076 -0.2279 0.0161308 0.110076 -0.2279 0.0346 0.11375 -0.2279 0.0154 0.11375 -0.2279 0.0338692 0.117424 -0.2279 0.0161308 0.117424 -0.2279 0.0317882 0.120538 -0.2279 0.0182118 0.120538 -0.2279 -0.01425 0.11375 -0.225 -0.0148983 0.110073 -0.225 -0.016765 0.10684 -0.225 -0.019625 0.10444 -0.225 -0.0231333 0.103163 -0.225 -0.0268667 0.103163 -0.225 -0.030375 0.10444 -0.225 -0.033235 0.10684 -0.225 -0.0351017 0.110073 -0.225 -0.03575 0.11375 -0.225 -0.0351017 0.117427 -0.225 -0.033235 0.12066 -0.225 -0.030375 0.12306 -0.225 -0.0268667 0.124337 -0.225 -0.0231333 0.124337 -0.225 -0.019625 0.12306 -0.225 -0.016765 0.12066 -0.225 -0.0148983 0.117427 -0.225 0.025 0.12335 -0.2199 0.0286738 0.122619 -0.2199 0.0317882 0.120538 -0.2199 0.0338692 0.117424 -0.2199 0.0346 0.11375 -0.2199 0.0213262 0.122619 -0.2199 0.0182118 0.120538 -0.2199 0.0161308 0.117424 -0.2199 0.0154 0.11375 -0.2199 0.025 0.10415 -0.2199 0.0213262 0.104881 -0.2199 0.0182118 0.106962 -0.2199 0.0161308 0.110076 -0.2199 0.0286738 0.104881 -0.2199 0.0317882 0.106962 -0.2199 0.0338692 0.110076 -0.2199 -0.01935 0.123536 -0.225 -0.0230378 0.124878 -0.225 -0.0163437 0.121013 -0.225 -0.0143815 0.117615 -0.225 -0.0137 0.11375 -0.225 -0.0143815 0.109885 -0.225 -0.0163437 0.106486 -0.225 -0.01935 0.103964 -0.225 -0.0230378 0.102622 -0.225 -0.0269622 0.102622 -0.225 -0.03065 0.103964 -0.225 -0.0336563 0.106486 -0.225 -0.0356185 0.109885 -0.225 -0.0363 0.11375 -0.225 -0.0356185 0.117615 -0.225 -0.0336563 0.121013 -0.225 -0.03065 0.123536 -0.225 -0.0269622 0.124878 -0.225 0.019325 0.103921 -0.2199 0.0230291 0.102572 -0.2199 0.0269709 0.102572 -0.2199 0.030675 0.123579 -0.2199 0.0269709 0.124928 -0.2199 0.0230291 0.124928 -0.2199 0.0356655 0.109868 -0.2199 0.0336946 0.106454 -0.2199 0.030675 0.103921 -0.2199 0.03635 0.11375 -0.2199 0.0356655 0.117632 -0.2199 0.0336946 0.121046 -0.2199 0.0143345 0.117632 -0.2199 0.0163054 0.121046 -0.2199 0.019325 0.123579 -0.2199 0.01365 0.11375 -0.2199 0.0143345 0.109868 -0.2199 0.0163054 0.106454 -0.2199 -0.0175104 0.105289 -0.2361 -0.0254583 0.102459 -0.2361 -0.022595 0.102709 -0.2361 -0.0282919 0.10294 -0.2361 -0.0348616 0.108233 -0.2361 -0.0137 0.11375 -0.2361 -0.0143325 0.110022 -0.2361 -0.015618 0.107452 -0.2361 -0.0198874 0.103673 -0.2361 -0.0309126 0.10412 -0.2361 -0.0331507 0.105923 -0.2361 -0.0363 0.11375 -0.2361 -0.0359345 0.110899 -0.2361 -0.0356185 0.117615 -0.2361 -0.0336563 0.121013 -0.2361 -0.03065 0.123536 -0.2361 -0.0269622 0.124878 -0.2361 -0.0230378 0.124878 -0.2361 -0.01935 0.123536 -0.2361 -0.0163437 0.121013 -0.2361 -0.0143815 0.117615 -0.2361 -0.0187712 0.124298 -0.271489 -0.0195755 0.125057 -0.271899 -0.0187712 0.124298 -0.2361 -0.0196712 0.125212 -0.2361 -0.02 0.126451 -0.272087 -0.02 0.126451 -0.2361 -0.02 0.1265 -0.2361 -0.02 0.1265 -0.272087 -0.0232932 0.1265 -0.272986 -0.03 0.1265 -0.2361 -0.0267068 0.1265 -0.272986 -0.03 0.1265 -0.272087 -0.03 0.126451 -0.272087 -0.03 0.126451 -0.2361 -0.0301142 0.125704 -0.272038 -0.0306627 0.124756 -0.271785 -0.0303288 0.125212 -0.2361 -0.0312288 0.124298 -0.271489 -0.0312288 0.124298 -0.2361 0.0324796 0.105213 -0.2361 0.0245014 0.102411 -0.2361 0.0273719 0.102651 -0.2361 0.021663 0.102902 -0.2361 0.0150885 0.10822 -0.2361 0.0167999 0.105903 -0.2361 0.03635 0.11375 -0.2361 0.0356913 0.10994 -0.2361 0.0343878 0.107371 -0.2361 0.0300897 0.103605 -0.2361 0.0190395 0.104091 -0.2361 0.01365 0.11375 -0.2361 0.0140155 0.110893 -0.2361 0.0143345 0.117632 -0.2361 0.0163054 0.121046 -0.2361 0.019325 0.123579 -0.2361 0.0230291 0.124928 -0.2361 0.0269709 0.124928 -0.2361 0.030675 0.123579 -0.2361 0.0336946 0.121046 -0.2361 0.0356655 0.117632 -0.2361 0.0312288 0.124298 -0.271489 0.0304245 0.125057 -0.271899 0.0312288 0.124298 -0.2361 0.0303288 0.125212 -0.2361 0.03 0.126451 -0.272087 0.03 0.126451 -0.2361 0.0198858 0.125704 -0.272038 0.0193373 0.124756 -0.271785 0.0196712 0.125212 -0.2361 0.0187712 0.124298 -0.271489 0.0187712 0.124298 -0.2361 0.02 0.126451 -0.272087 0.02 0.126451 -0.2361 -0.031125 0.103141 -0.2361 -0.0271272 0.101686 -0.2361 -0.0228728 0.101686 -0.2361 -0.018875 0.103141 -0.2361 -0.015616 0.105876 -0.2361 -0.0134888 0.10956 -0.2361 -0.01275 0.11375 -0.2361 -0.0134751 0.117902 -0.2361 -0.0155646 0.121563 -0.2361 -0.0344354 0.121563 -0.2361 -0.0365112 0.10956 -0.2361 -0.03725 0.11375 -0.2361 -0.0365249 0.117902 -0.2361 -0.034384 0.105876 -0.2361 -0.0147742 0.120495 -0.268032 -0.01275 0.11375 -0.264131 -0.0128339 0.115181 -0.264386 -0.0169171 0.122955 -0.27024 -0.0133518 0.117542 -0.265676 -0.0128275 0.112374 -0.264367 -0.0207122 0.102275 -0.272364 -0.0228445 0.101691 -0.272918 -0.019349 0.102881 -0.271791 -0.0283804 0.101976 -0.272648 -0.0305105 0.102809 -0.271859 -0.0133106 0.110087 -0.265587 -0.014694 0.107128 -0.267925 -0.015902 0.105547 -0.269325 -0.0174059 0.104138 -0.270616 -0.02502 0.1015 -0.2731 -0.0330678 0.104532 -0.270252 -0.033111 0.12293 -0.270217 -0.0352498 0.120458 -0.268 -0.0351939 0.106957 -0.268073 -0.0366571 0.117515 -0.265657 -0.0366421 0.109939 -0.265689 -0.0371642 0.115198 -0.264392 -0.0371649 0.112309 -0.26439 -0.03725 0.11375 -0.264131 0.034384 0.105876 -0.2361 0.031125 0.103141 -0.2361 0.0271272 0.101686 -0.2361 0.0228728 0.101686 -0.2361 0.018875 0.103141 -0.2361 0.03 0.1265 -0.2361 0.02 0.1265 -0.2361 0.0344354 0.121563 -0.2361 0.0365249 0.117902 -0.2361 0.03725 0.11375 -0.2361 0.0365112 0.10956 -0.2361 0.0155646 0.121563 -0.2361 0.015616 0.105876 -0.2361 0.0134888 0.10956 -0.2361 0.01275 0.11375 -0.2361 0.0134751 0.117902 -0.2361 0.0325873 0.123368 -0.270621 0.0347316 0.12119 -0.268641 0.0363883 0.118263 -0.266202 0.0370943 0.115697 -0.264592 0.03725 0.11375 -0.264131 0.0250015 0.1015 -0.2731 0.0215436 0.101998 -0.272626 0.0232932 0.1265 -0.272986 0.0267068 0.1265 -0.272986 0.0286063 0.102043 -0.272583 0.03 0.1265 -0.272087 0.0313377 0.103267 -0.271428 0.02 0.1265 -0.272087 0.0194648 0.102822 -0.271847 0.0368757 0.110745 -0.265158 0.0371738 0.112386 -0.264363 0.0326119 0.104152 -0.270603 0.0343408 0.105825 -0.269074 0.0361382 0.108651 -0.266658 0.0181557 0.10359 -0.271126 0.0163013 0.122375 -0.269708 0.0157781 0.105687 -0.269199 0.0142937 0.119703 -0.267356 0.01433 0.107732 -0.26741 0.0131448 0.116835 -0.265208 0.0131526 0.110635 -0.265226 0.012786 0.114689 -0.264243 0.0127857 0.112815 -0.264242 0.01275 0.11375 -0.264131 -0.0344082 0.105905 -0.267699 -0.0362617 0.108929 -0.264394 -0.0176236 0.10397 -0.250785 -0.0159446 0.1055 -0.252376 -0.0131103 0.110802 -0.258627 -0.0134903 0.109556 -0.256855 -0.0258038 0.101526 -0.248277 -0.0222592 0.101811 -0.248567 -0.0360811 0.108528 -0.255645 -0.0368367 0.110596 -0.258277 -0.013 0.111288 -0.26025 -0.0130198 0.111193 -0.26094 -0.0155918 0.105905 -0.252801 -0.0140707 0.108217 -0.255295 -0.037 0.111288 -0.26025 -0.036996 0.111268 -0.259941 -0.0132616 0.110247 -0.262742 -0.0139075 0.108552 -0.264828 -0.0155918 0.105905 -0.267699 -0.0159446 0.1055 -0.268124 -0.0176502 0.10395 -0.269736 -0.0193453 0.102883 -0.270834 -0.0213749 0.102049 -0.27169 -0.0241943 0.101526 -0.272223 -0.0277392 0.10181 -0.271933 -0.0304772 0.102793 -0.270927 -0.0323748 0.103969 -0.269716 -0.0340554 0.1055 -0.268124 -0.0366876 0.110081 -0.26297 -0.0368894 0.110799 -0.261878 -0.0195211 0.102793 -0.249574 -0.0306529 0.102882 -0.249665 -0.0286232 0.102048 -0.24881 -0.0340554 0.1055 -0.252376 -0.032361 0.103958 -0.250773 -0.0344082 0.105905 -0.252801 0.037 0.111288 -0.26025 0.0368913 0.110808 -0.258638 0.0366947 0.110103 -0.25756 0.0355242 0.107481 -0.254485 0.0331356 0.104592 -0.251429 0.0305422 0.102825 -0.249607 0.0369785 0.111185 -0.260968 0.0274089 0.101739 -0.272006 0.023843 0.101555 -0.272194 0.0210399 0.102158 -0.271578 0.013 0.111288 -0.26025 0.0130642 0.110993 -0.259011 0.0134484 0.109673 -0.257001 0.0131081 0.11081 -0.261858 0.0367293 0.110216 -0.262784 0.0301609 0.10264 -0.271084 0.0320847 0.103757 -0.269935 0.0338449 0.105275 -0.26836 0.0356961 0.107779 -0.265691 0.0196859 0.102713 -0.271009 0.0177754 0.103857 -0.269832 0.0152864 0.106286 -0.267296 0.0144121 0.107589 -0.265898 0.0133048 0.110105 -0.262937 0.0272426 0.101707 -0.248461 0.0236721 0.101572 -0.248324 0.0214244 0.102033 -0.248795 0.019892 0.102616 -0.249391 0.0179576 0.103727 -0.250534 0.0156921 0.105786 -0.252676 0.014836 0.106912 -0.253871 -0.019 0.0975 -0.249858 -0.0229162 0.0975 -0.248432 -0.0270838 0.0975 -0.248432 -0.037 0.0975 -0.26025 -0.013 0.0975 -0.26025 -0.0137237 0.0975 -0.256146 -0.0158075 0.0975 -0.252537 -0.031 0.0975 -0.249858 -0.0341925 0.0975 -0.252537 -0.0362763 0.0975 -0.256146 -0.0270838 0.0975 -0.272068 -0.0229162 0.0975 -0.272068 -0.0362763 0.0975 -0.264354 -0.0341925 0.0975 -0.267963 -0.031 0.0975 -0.270642 -0.019 0.0975 -0.270642 -0.0158075 0.0975 -0.267963 -0.0137237 0.0975 -0.264354 0.0362763 0.0975 -0.256146 0.0341925 0.0975 -0.252537 0.031 0.0975 -0.249858 0.037 0.0975 -0.26025 0.0270838 0.0975 -0.248432 0.0229162 0.0975 -0.248432 0.019 0.0975 -0.249858 0.0158075 0.0975 -0.252537 0.0137237 0.0975 -0.256146 0.013 0.0975 -0.26025 0.0270838 0.0975 -0.272068 0.0229162 0.0975 -0.272068 0.0341925 0.0975 -0.267963 0.0362763 0.0975 -0.264354 0.019 0.0975 -0.270642 0.0158075 0.0975 -0.267963 0.0137237 0.0975 -0.264354 0.031 0.0975 -0.270642 -0.0794587 -0.00929022 0.02075 0.08 0 0.02075 -0.08 0 0.02075 0.0792549 0.0108933 0.02075 -0.0792549 0.0108933 0.02075 0.0770334 0.0215837 0.02075 -0.0770334 0.0215837 0.02075 0.0733769 0.0318721 0.02075 -0.0733769 0.0318721 0.02075 0.0683536 0.0415667 0.02075 -0.0683536 0.0415667 0.02075 0.0620569 0.050487 0.02075 -0.0620569 0.050487 0.02075 0.0546043 0.0584669 0.02075 -0.0546043 0.0584669 0.02075 0.0461344 0.0653576 0.02075 -0.0461344 0.0653576 0.02075 0.0368052 0.0710308 0.02075 -0.0368052 0.0710308 0.02075 0.0267904 0.0753809 0.02075 -0.0267904 0.0753809 0.02075 0.0162765 0.0783267 0.02075 -0.0162765 0.0783267 0.02075 0.00545939 0.0798135 0.02075 -0.00545939 0.0798135 0.02075 0.0794617 -0.00926469 0.02075 -0.0778422 -0.0184548 0.02075 0.0778541 -0.0184047 0.02075 -0.0751724 -0.0273697 0.02075 0.0751989 -0.0272971 0.02075 -0.0714855 -0.0359142 0.02075 0.0715201 -0.0358451 0.02075 -0.0668312 -0.0439726 0.02075 0.0668736 -0.0439081 0.02075 -0.0612725 -0.0514361 0.02075 0.0613221 -0.051377 0.02075 -0.0548847 -0.0582037 0.02075 0.0549409 -0.0581506 0.02075 -0.0477543 -0.0641835 0.02075 0.0478163 -0.0641373 0.02075 -0.0399777 -0.0692949 0.02075 0.0400446 -0.0692563 0.02075 -0.0316601 -0.0734686 0.02075 0.031731 -0.073438 0.02075 -0.0229141 -0.0766482 0.02075 0.0229881 -0.076626 0.02075 -0.0138581 -0.0787906 0.02075 0.0139342 -0.0787771 0.02075 -0.00461451 -0.0798668 0.02075 0.00469157 -0.0798623 0.02075 -0.0744563 -0.0691895 0.00075 -0.0775716 -0.0691895 0.00075 -0.080642 -0.0572949 0.00075 -0.0744563 -0.0828385 0.00075 -0.0716496 -0.0814868 0.00075 -0.054 -0.0883423 0.00075 -0.095 -0.075 0.00075 -0.095 -0.054 0.00075 -0.0883423 -0.054 0.00075 -0.0803784 -0.0705412 0.00075 -0.0823208 -0.0729768 0.00075 -0.083014 -0.076014 0.00075 -0.0823208 -0.0790512 0.00075 -0.0943185 -0.0801764 0.00075 -0.0891421 -0.0891421 0.00075 -0.0923205 -0.085 0.00075 -0.085 -0.0923205 0.00075 -0.0775716 -0.0828385 0.00075 -0.0801764 -0.0943185 0.00075 -0.075 -0.095 0.00075 -0.054 -0.095 0.00075 -0.0697072 -0.0729768 0.00075 -0.0716496 -0.0705412 0.00075 -0.0617208 -0.0735313 0.00075 -0.0671751 -0.0671751 0.00075 -0.0735313 -0.0617208 0.00075 -0.0803784 -0.0814868 0.00075 -0.069014 -0.076014 0.00075 -0.0572949 -0.080642 0.00075 -0.0697072 -0.0790512 0.00075 0.0716496 -0.0814868 0.00075 0.0744563 -0.0828385 0.00075 0.054 -0.0883423 0.00075 0.095 -0.075 0.00075 0.0943185 -0.0801764 0.00075 0.0823208 -0.0790512 0.00075 0.083014 -0.076014 0.00075 0.0823208 -0.0729768 0.00075 0.0803784 -0.0705412 0.00075 0.0775716 -0.0691895 0.00075 0.0735313 -0.0617208 0.00075 0.080642 -0.0572949 0.00075 0.0883423 -0.054 0.00075 0.095 -0.054 0.00075 0.0775716 -0.0828385 0.00075 0.0803784 -0.0814868 0.00075 0.0923205 -0.085 0.00075 0.0891421 -0.0891421 0.00075 0.085 -0.0923205 0.00075 0.0801764 -0.0943185 0.00075 0.075 -0.095 0.00075 0.054 -0.095 0.00075 0.0697072 -0.0729768 0.00075 0.0617208 -0.0735313 0.00075 0.0716496 -0.0705412 0.00075 0.0671751 -0.0671751 0.00075 0.0744563 -0.0691895 0.00075 0.069014 -0.076014 0.00075 0.0697072 -0.0790512 0.00075 0.0572949 -0.080642 0.00075 -0.0128822 0.0975 -0.272368 -0.03535 0.0975 -0.2731 -0.0371178 0.0975 -0.272368 -0.01465 0.0975 -0.2731 -0.03535 0.0975 -0.2474 -0.0371178 0.0975 -0.248132 -0.01465 0.0975 -0.2474 -0.0128822 0.0975 -0.248132 -0.03785 0.0975 -0.2499 -0.03785 0.0975 -0.2706 -0.01215 0.0975 -0.2499 -0.01215 0.0975 -0.2706 0.0371178 0.0975 -0.272368 0.01465 0.0975 -0.2731 0.0128822 0.0975 -0.272368 0.03535 0.0975 -0.2731 0.01465 0.0975 -0.2474 0.0128822 0.0975 -0.248132 0.03535 0.0975 -0.2474 0.0371178 0.0975 -0.248132 0.01215 0.0975 -0.2499 0.01215 0.0975 -0.2706 0.03785 0.0975 -0.2499 0.03785 0.0975 -0.2706 0.0475 0.0764979 -0.16425 0.0475 0.078 -0.16675 0.0457322 0.078 -0.166018 0.045 0.078 -0.16425 0.0457322 0.078 -0.162482 0.0475 0.078 -0.16175 0.0492678 0.078 -0.162482 0.05 0.078 -0.16425 0.0492678 0.078 -0.166018 0.0775716 0.0691895 0.00075 0.0803784 0.0705412 0.01575 0.0803784 0.0705412 0.00075 0.0823208 0.0729768 0.01575 0.0823208 0.0729768 0.00075 0.083014 0.076014 0.01575 0.083014 0.076014 0.00075 0.0775716 0.0691895 0.01575 0.0744563 0.0691895 0.00075 0.0744563 0.0691895 0.01575 0.0716496 0.0705412 0.00075 0.0716496 0.0705412 0.01575 0.0697072 0.0729768 0.00075 0.0697072 0.0729768 0.01575 0.069014 0.076014 0.00075 0.069014 0.076014 0.01575 0.0744563 0.0828385 0.00075 0.0716496 0.0814868 0.01575 0.0716496 0.0814868 0.00075 0.0697072 0.0790512 0.01575 0.0697072 0.0790512 0.00075 0.0744563 0.0828385 0.01575 0.0775716 0.0828385 0.00075 0.0775716 0.0828385 0.01575 0.0803784 0.0814868 0.00075 0.0803784 0.0814868 0.01575 0.0823208 0.0790512 0.00075 0.0823208 0.0790512 0.01575 -0.0716496 -0.0814868 0.01575 -0.0697072 -0.0790512 0.01575 -0.069014 -0.076014 0.01575 -0.0744563 -0.0828385 0.01575 -0.0775716 -0.0828385 0.01575 -0.0803784 -0.0814868 0.01575 -0.0823208 -0.0790512 0.01575 -0.083014 -0.076014 0.01575 -0.0803784 -0.0705412 0.01575 -0.0823208 -0.0729768 0.01575 -0.0775716 -0.0691895 0.01575 -0.0744563 -0.0691895 0.01575 -0.0716496 -0.0705412 0.01575 -0.0697072 -0.0729768 0.01575 -0.08 0 0.01575 -0.0792549 0.0108933 0.01575 -0.0770334 0.0215837 0.01575 -0.0733769 0.0318721 0.01575 -0.0683536 0.0415667 0.01575 -0.0620569 0.050487 0.01575 -0.0546043 0.0584669 0.01575 -0.0461344 0.0653576 0.01575 -0.0368052 0.0710308 0.01575 -0.0267904 0.0753809 0.01575 -0.0162765 0.0783267 0.01575 -0.00545939 0.0798135 0.01575 0.00545939 0.0798135 0.01575 0.0162765 0.0783267 0.01575 0.0267904 0.0753809 0.01575 0.0368052 0.0710308 0.01575 0.0461344 0.0653576 0.01575 0.0546043 0.0584669 0.01575 0.0620569 0.050487 0.01575 0.0683536 0.0415667 0.01575 0.0733769 0.0318721 0.01575 0.0770334 0.0215837 0.01575 0.0792549 0.0108933 0.01575 0.08 0 0.01575 0.0792549 -0.0108933 0.01575 0.0770334 -0.0215837 0.01575 0.0733769 -0.0318721 0.01575 0.0683536 -0.0415667 0.01575 0.0620569 -0.050487 0.01575 0.0546043 -0.0584669 0.01575 0.0461344 -0.0653576 0.01575 0.0368052 -0.0710308 0.01575 0.0267904 -0.0753809 0.01575 0.0162765 -0.0783267 0.01575 0.00545939 -0.0798135 0.01575 -0.00545939 -0.0798135 0.01575 -0.0162765 -0.0783267 0.01575 -0.0267904 -0.0753809 0.01575 -0.0368052 -0.0710308 0.01575 -0.0461344 -0.0653576 0.01575 -0.0620569 -0.050487 0.01575 -0.0683536 -0.0415667 0.01575 -0.0733769 -0.0318721 0.01575 -0.0770334 -0.0215837 0.01575 -0.0792549 -0.0108933 0.01575 -0.0546043 -0.0584669 0.01575 0.0803784 -0.0814868 0.01575 0.0823208 -0.0790512 0.01575 0.083014 -0.076014 0.01575 0.0775716 -0.0828385 0.01575 0.0744563 -0.0828385 0.01575 0.0716496 -0.0814868 0.01575 0.0697072 -0.0790512 0.01575 0.069014 -0.076014 0.01575 0.0716496 -0.0705412 0.01575 0.0697072 -0.0729768 0.01575 0.0744563 -0.0691895 0.01575 0.0775716 -0.0691895 0.01575 0.0803784 -0.0705412 0.01575 0.0823208 -0.0729768 0.01575 0.095 -0.075 0.01575 0.0943185 -0.0801764 0.01575 0.0923205 -0.085 0.01575 0.0891421 -0.0891421 0.01575 0.085 -0.0923205 0.01575 0.0801764 -0.0943185 0.01575 0.075 -0.095 0.01575 -0.075 -0.095 0.01575 -0.0801764 -0.0943185 0.01575 -0.085 -0.0923205 0.01575 -0.0891421 -0.0891421 0.01575 -0.0923205 -0.085 0.01575 -0.0943185 -0.0801764 0.01575 -0.095 -0.075 0.01575 -0.0744563 0.0691895 0.00075 -0.0716496 0.0705412 0.01575 -0.0716496 0.0705412 0.00075 -0.0697072 0.0729768 0.01575 -0.0697072 0.0729768 0.00075 -0.069014 0.076014 0.01575 -0.069014 0.076014 0.00075 -0.0744563 0.0691895 0.01575 -0.0775716 0.0691895 0.00075 -0.0775716 0.0691895 0.01575 -0.0803784 0.0705412 0.00075 -0.0803784 0.0705412 0.01575 -0.0823208 0.0729768 0.00075 -0.0823208 0.0729768 0.01575 -0.083014 0.076014 0.00075 -0.083014 0.076014 0.01575 -0.0775716 0.0828385 0.00075 -0.0803784 0.0814868 0.01575 -0.0803784 0.0814868 0.00075 -0.0823208 0.0790512 0.01575 -0.0823208 0.0790512 0.00075 -0.0775716 0.0828385 0.01575 -0.0744563 0.0828385 0.00075 -0.0744563 0.0828385 0.01575 -0.0716496 0.0814868 0.00075 -0.0716496 0.0814868 0.01575 -0.0697072 0.0790512 0.00075 -0.0697072 0.0790512 0.01575 -0.0671751 0.0671751 0.00075 -0.0735313 0.0617208 -0.28225 -0.0735313 0.0617208 0.00075 -0.080642 0.0572949 -0.28225 -0.080642 0.0572949 0.00075 -0.0883423 0.054 -0.28225 -0.0883423 0.054 0.00075 -0.0671751 0.0671751 -0.28225 -0.0617208 0.0735313 0.00075 -0.0617208 0.0735313 -0.28225 -0.0572949 0.080642 0.00075 -0.0572949 0.080642 -0.28225 -0.054 0.0883423 0.00075 -0.054 0.0883423 -0.28225 -0.095 0.054 -0.28225 -0.095 0.054 0.00075 -0.095 0.075 0.01575 -0.095 0.075 0.00075 -0.095 -0.054 -0.28225 -0.0883423 -0.054 -0.28225 -0.0617208 -0.0735313 -0.28225 -0.0572949 -0.080642 -0.28225 -0.054 -0.0883423 -0.28225 -0.0671751 -0.0671751 -0.28225 -0.0735313 -0.0617208 -0.28225 -0.080642 -0.0572949 -0.28225 -0.054 -0.095 -0.28225 0.054 -0.095 -0.28225 0.054 -0.0883423 -0.28225 0.0735313 -0.0617208 -0.28225 0.080642 -0.0572949 -0.28225 0.0883423 -0.054 -0.28225 0.0671751 -0.0671751 -0.28225 0.0617208 -0.0735313 -0.28225 0.0572949 -0.080642 -0.28225 0.095 -0.054 -0.28225 0.095 0.054 0.00075 0.095 0.075 0.00075 0.095 0.075 0.01575 0.095 0.054 -0.28225 0.0883423 0.054 -0.28225 0.0883423 0.054 0.00075 0.0671751 0.0671751 0.00075 0.0617208 0.0735313 -0.28225 0.0617208 0.0735313 0.00075 0.0572949 0.080642 -0.28225 0.0572949 0.080642 0.00075 0.054 0.0883423 -0.28225 0.054 0.0883423 0.00075 0.0671751 0.0671751 -0.28225 0.0735313 0.0617208 0.00075 0.0735313 0.0617208 -0.28225 0.080642 0.0572949 0.00075 0.080642 0.0572949 -0.28225 -0.03535 0.095 -0.2474 -0.01465 0.095 -0.2474 -0.0128822 0.095 -0.248132 -0.01215 0.095 -0.2499 -0.01215 0.095 -0.2706 -0.0128822 0.095 -0.272368 -0.01465 0.095 -0.2731 -0.03535 0.095 -0.2731 -0.0371178 0.095 -0.272368 -0.03785 0.095 -0.2706 -0.03785 0.095 -0.2499 -0.0371178 0.095 -0.248132 0.0457322 0.095 -0.162482 0.0475 0.095 -0.16175 0.045 0.095 -0.16425 0.0457322 0.095 -0.166018 0.0475 0.095 -0.16675 0.0492678 0.095 -0.166018 0.05 0.095 -0.16425 0.0492678 0.095 -0.162482 0.054 0.095 0.00075 0.054 0.095 -0.28225 0.085 0.0923205 0.00075 0.0801764 0.0943185 0.00075 0.075 0.095 0.00075 0.0943185 0.0801764 0.00075 0.0923205 0.085 0.00075 0.0891421 0.0891421 0.00075 0.075 0.095 0.01575 0.0801764 0.0943185 0.01575 0.085 0.0923205 0.01575 0.0891421 0.0891421 0.01575 0.0923205 0.085 0.01575 0.0943185 0.0801764 0.01575 -0.085 0.0923205 0.01575 -0.0801764 0.0943185 0.01575 -0.075 0.095 0.01575 -0.0943185 0.0801764 0.01575 -0.0923205 0.085 0.01575 -0.0891421 0.0891421 0.01575 -0.054 0.095 0.00075 -0.075 0.095 0.00075 -0.0923205 0.085 0.00075 -0.0801764 0.0943185 0.00075 -0.0891421 0.0891421 0.00075 -0.085 0.0923205 0.00075 -0.0943185 0.0801764 0.00075 -0.054 0.095 -0.28225 0.03535 0.095 -0.2474 0.0371178 0.095 -0.248132 0.01465 0.095 -0.2474 0.01215 0.095 -0.2706 0.0128822 0.095 -0.248132 0.01215 0.095 -0.2499 0.03785 0.095 -0.2499 -0.05 0.095 -0.02525 -0.0492678 0.095 -0.0270178 -0.0475 0.095 -0.02775 0.01465 0.095 -0.2731 0.03535 0.095 -0.2731 0.0371178 0.095 -0.272368 0.03785 0.095 -0.2706 -0.045 0.095 -0.02525 -0.0457322 0.095 -0.0234822 -0.0475 0.095 -0.02275 -0.0492678 0.095 -0.0234822 0.0128822 0.095 -0.272368 -0.0457322 0.095 -0.0270178 -0.045 0.078 -0.02525 -0.0457322 0.078 -0.0270178 -0.0475 0.078 -0.02775 -0.0457322 0.078 -0.0234822 -0.0475 0.078 -0.02275 -0.05 0.078 -0.02525 -0.0492678 0.078 -0.0234822 -0.0492678 0.078 -0.0270178 -0.0475 0.0764979 -0.02525</float_array>
                    <technique_common>
                        <accessor count="815" source="#shape0-lib-positions-array" stride="3">
                            <param name="X" type="float"/>
                            <param name="Y" type="float"/>
                            <param name="Z" type="float"/>
                        </accessor>
                    </technique_common>
                </source>
                <source id="shape0-lib-normals" name="normal">
                    <float_array id="shape0-lib-normals-array" count="4926">0 0 1 0 0 1 0 0 1 0 0 1 0 0 1 0 0 1 0 0 1 0 0 1 0 0 1 0 0 1 0 0 1 0 0 1 0 0 1 0 0 1 -0.195092 -0.980785 0 -0.555565 -0.831473 0 -0.555565 -0.831473 0 -0.831474 -0.555564 0 -0.831474 -0.555564 0 -0.980785 -0.195092 0 -0.980785 -0.195092 0 -0.195092 -0.980785 0 0.195092 -0.980785 0 0.195092 -0.980785 0 0.555565 -0.831473 0 0.555565 -0.831473 0 0.831474 -0.555564 0 0.831474 -0.555564 0 0.980785 -0.195092 0 0.980785 -0.195092 0 0.195092 0.980785 0 0.555565 0.831473 0 0.555565 0.831473 0 0.831474 0.555564 0 0.831474 0.555564 0 0.980785 0.195092 0 0.980785 0.195092 0 0.195092 0.980785 0 -0.195092 0.980785 0 -0.195092 0.980785 0 -0.555565 0.831473 0 -0.555565 0.831473 0 -0.831474 0.555564 0 -0.831474 0.555564 0 -0.980785 0.195092 0 -0.980785 0.195092 0 0 0 1 0 0 1 0 0 1 0 0 1 0 0 1 0 0 1 0 0 1 0 0 1 0 0 1 0 0 1 0 0 1 0 0 1 0 0 1 0 0 1 0 0 1 0 0 1 0 0 1 0 0 1 0 0 1 0 0 1 0 0 1 0 0 1 0 0 1 0 0 1 0 0 1 0 0 1 0 0 1 0 0 1 0 0 1 0 0 1 0 0 1 0 0 1 0 0 1 0 0 1 0 0 1 0 0 1 0 0 1 0 0 1 0 0 1 0 0 1 0 0 1 0 0 1 0 0 1 0 0 1 0 0 1 0 0 1 0 0 1 0 0 1 0.984808 -0.173648 0 0.984808 -0.173648 0 0.866028 -0.499995 0 0.866028 -0.499995 0 0.642787 -0.766045 0 0.642787 -0.766045 0 0.342017 -0.939694 0 0.342017 -0.939694 0 0 -1 0 0 -1 0 -0.342017 -0.939694 0 -0.342017 -0.939694 0 -0.642787 -0.766045 0 -0.642787 -0.766045 0 -0.866028 -0.499995 0 -0.866028 -0.499995 0 -0.984808 -0.173648 0 -0.984808 -0.173648 0 -0.984808 0.173648 0 -0.984808 0.173648 0 -0.866028 0.499995 0 -0.866028 0.499995 0 -0.642787 0.766045 0 -0.642787 0.766045 0 -0.342017 0.939694 0 -0.342017 0.939694 0 0 1 0 0 1 0 0.342017 0.939694 0 0.342017 0.939694 0 0.642787 0.766045 0 0.642787 0.766045 0 0.866028 0.499995 0 0.866028 0.499995 0 0.984808 0.173648 0 0.984808 0.173648 0 -0.195103 -0.980783 0 -0.555566 -0.831472 0 -0.555566 -0.831472 0 -0.831465 -0.555577 0 -0.831465 -0.555577 0 -0.980785 -0.195089 0 -0.980785 -0.195089 0 -0.195103 -0.980783 0 0.195103 -0.980783 0 0.195103 -0.980783 0 0.555567 -0.831472 0 0.555567 -0.831472 0 0.831464 -0.555579 0 0.831464 -0.555579 0 0.980785 -0.195089 0 0.980785 -0.195089 0 0.195103 0.980783 0 0.555567 0.831472 0 0.555567 0.831472 0 0.831464 0.555579 0 0.831464 0.555579 0 0.980786 0.195089 0 0.980786 0.195089 0 0.195103 0.980783 0 -0.195103 0.980783 0 -0.195103 0.980783 0 -0.555566 0.831472 0 -0.555566 0.831472 0 -0.831465 0.555577 0 -0.831465 0.555577 0 -0.980786 0.195089 0 -0.980786 0.195089 0 0 0 1 0 0 1 0 0 1 0 0 1 0 0 1 0 0 1 0 0 1 0 0 1 0 0 1 0 0 1 0 0 1 0 0 1 0 0 1 0 0 1 0 0 1 0 0 1 0 0 1 0 0 1 0 0 1 0 0 1 0 0 1 0 0 1 0 0 1 0 0 1 0 0 1 0 0 1 0 0 1 0 0 1 0 0 1 0 0 1 0 0 1 0 0 1 0 0 1 0 0 1 0 0 1 0 0 1 0 0 1 0 0 1 0 0 1 0 0 1 0 0 1 0 0 1 0 0 1 0 0 1 0 0 1 0 0 1 0 0 1 0 0 1 0 0 1 0 0 1 0 0 1 0 0 1 0 0 1 0 0 1 0 0 1 0 0 1 0 0 1 0 0 1 0 0 1 0 0 1 0 0 1 0 0 1 0 0 1 0 0 1 0 0 1 0 0 1 0 0 1 0 0 1 0 0 1 0 0 1 0.642717 -0.765955 0.0151037 0.0868436 -0.996212 -0.00436243 0 -0.999893 0.0146291 -0.167281 -0.985875 -0.00824049 -0.865926 -0.499937 0.0153693 0.985906 -0.167302 0 0.984805 -0.173648 0.00219389 0.89441 -0.447246 -0.00158633 0.865952 -0.499955 0.0131394 0.752602 -0.658426 -0.00805088 0.342004 -0.939678 0.00625892 0.33536 -0.942052 0.00846969 0.56218 -0.826997 -0.00552831 -0.410519 -0.911561 0.0230293 -0.342007 -0.939683 -0.00514995 -0.627356 -0.778723 0.00386822 -0.642759 -0.766008 0.00958306 -0.803519 -0.595244 -0.00640203 -0.984808 -0.173649 0 -0.991743 -0.127157 0.0166132 -0.927684 -0.373287 -0.00769454 -0.984808 0.173649 0 -0.984808 0.173649 0 -0.866028 0.499996 0 -0.866028 0.499996 0 -0.642789 0.766043 0 -0.642789 0.766043 0 -0.342011 0.939696 0 -0.342011 0.939696 0 0 1 0 0 1 0 0.342011 0.939696 0 0.342011 0.939696 0 0.64279 0.766042 0 0.64279 0.766042 0 0.866027 0.499998 0 0.866027 0.499998 0 0.984808 0.173649 0 0.984808 0.173649 0 0.686347 0.727274 0 0.712284 0.70189 -0.00112101 0.956565 0.291517 0.00129926 0.966559 0.256443 0 1 0 0 1 0 0 0 1 0 0 1 0 0 1 0 0 1 0 -1 0 0 -1 0 0 -0.86544 0.50101 0.0016958 -0.629681 0.776843 -0.00403498 -0.712285 0.701891 0 -0.988545 0.150877 -0.0038366 -0.966559 0.256445 0 0.642759 -0.765996 0.0104858 0.0831781 -0.996531 -0.00275152 0 -0.99995 0.00996212 -0.170347 -0.985368 -0.00566487 -0.34201 -0.939646 0.00974035 -0.804361 -0.594125 -0.00431819 -0.865976 -0.499974 0.010569 0.985384 -0.170347 0 0.984807 -0.17365 0.000800293 0.891743 -0.452541 -0.000578591 0.865992 -0.49998 0.00876481 0.749112 -0.662421 -0.00542713 0.342023 -0.939683 0.00393028 0.331393 -0.943471 0.00639476 0.558203 -0.829695 -0.00401534 -0.642783 -0.766021 0.00646956 -0.628885 -0.777493 0.00289989 -0.412913 -0.910767 -0.0023088 -0.984808 -0.17365 0 -0.99185 -0.12689 0.0115022 -0.928017 -0.372501 -0.00529028 -0.984807 0.17365 0 -0.984807 0.17365 0 -0.866024 0.500002 0 -0.866024 0.500002 0 -0.642796 0.766037 0 -0.642796 0.766037 0 -0.342026 0.939691 0 -0.342026 0.939691 0 0 1 0 0 1 0 0.342026 0.93969 0 0.342026 0.93969 0 0.642795 0.766039 0 0.642795 0.766039 0 0.866026 0.5 0 0.866026 0.5 0 0.984807 0.173651 0 0.984807 0.173651 0 0.686352 0.72727 0 0.712284 0.70189 -0.00112082 0.956563 0.291524 0.00129947 0.966559 0.256445 0 -0.865443 0.501004 0.00169569 -0.629675 0.776848 -0.00403527 -0.712285 0.701891 0 -0.988545 0.150875 -0.00383663 -0.966559 0.256443 0 0 0 1 0 0 1 0 0 1 0 0 1 0 0 1 0 0 1 0 0 1 0 0 1 0 0 1 0 0 1 0 0 1 0 0 1 0 0 1 0 0 1 0 0 1 0 0 1 0 0 1 0 0 1 0 0 1 0 0 1 0 0 1 0 0 1 0 0 1 0 0 1 0 0 1 0 0 1 0 0 1 0 0 1 0 0 1 0 0 1 0 0 1 0 0 1 0 0 1 0 0 1 0 0 1 0 0 1 0 0 1 0 0 1 0 0 1 0 0 1 0 0 1 0 0 1 0 0 1 0.868457 0.49574 0.00492467 0.998287 0.0585022 0 0.586712 0.809795 0 0.64902 0.760753 0.00531353 0.755422 0.655231 -0.00320522 0.985074 0.172033 0.0057827 0.976612 0.215006 0.00145688 0.901384 0.433019 -0.00150822 0.950217 7.89172e-05 -0.311589 0.251156 0.00188933 -0.967945 0.263274 0.00326336 -0.964716 0.361704 0 -0.932293 0.402088 -0.00138044 -0.9156 0.387765 -0.000540216 -0.921758 -0.263275 0 -0.964721 -0.263337 0.00465121 -0.964693 -0.374501 -0.0035622 -0.92722 -0.34777 -0.00134311 -0.937579 -0.419573 0.000134296 -0.907722 0.927721 -0.000384985 -0.373275 0.929226 0.000720367 -0.369513 0.855251 -0.00146795 -0.518212 0.860074 0.00110007 -0.510168 0.716877 -0.00124965 -0.697198 0.751778 0.00918685 -0.659353 0.652419 -0.00178432 -0.757856 0.559996 0.00202979 -0.828493 0.518254 -0.00195516 -0.855225 0.45389 0.000285246 -0.891058 0 -0.0027413 -0.999996 0.0824267 0.0101008 -0.996546 -0.134077 -0.00453262 -0.990961 -0.462709 -0.000236069 -0.88651 -0.533637 -0.00330797 -0.845707 -0.560297 0.000262946 -0.828292 -0.719422 -0.000365809 -0.694573 -0.715148 0.000841719 -0.698973 -0.856883 -0.000744127 -0.51551 -0.854405 0.000537326 -0.519608 -0.928006 -0.000239557 -0.372566 -0.927753 -5.95578e-05 -0.373194 -0.950064 -5.30345e-06 -0.312055 -0.868456 0.49574 0.00501512 -0.902692 0.430284 -0.00159875 -0.976704 0.214583 0.00155808 -0.997927 0.0621717 0.0166059 -0.985091 0.172036 0 -0.649029 0.760764 0 -0.583531 0.81203 0.00989751 -0.757619 0.652689 -0.00324701 0 0 1 0 0 1 0 0 1 0 0 1 0 0 1 0 0 1 0 0 1 0 0 1 0 0 1 0 0 1 0 0 1 0 0 1 0 0 1 0 0 1 0 0 1 0 0 1 0 0 1 0 0 1 0 0 1 0 0 1 0 0 1 0 0 1 0 0 1 0 0 1 0 0 1 0 0 1 0 0 1 0 0 1 0 0 1 0 0 1 0 0 1 0 0 1 0 0 1 0 0 1 0 0 1 0 0 1 0 0 1 0 0 1 0 0 1 0 0 1 0 0 1 0 0 1 0 0 1 0.565188 0.824962 0 0.649021 0.760754 0.00503008 0.713148 0.701012 -0.00152657 0.869464 0.493991 0.00226417 0.868466 0.495745 0.00200719 0.96437 0.264553 -0.00120215 0.996818 0.0797144 0 0.985071 0.172032 0.00637244 -0.136341 -0.00480431 -0.99065 0 0.00455494 -0.99999 0.142626 -0.00522047 -0.989763 0.263273 0.00456223 -0.964711 0.335292 0 -0.942114 0.395154 -0.00389585 -0.918606 0.447115 -0.00871972 -0.894434 0.389781 -0.000662299 -0.920907 -0.263275 0 -0.964721 -0.263337 0.00464495 -0.964693 -0.375952 -0.00330274 -0.926633 -0.351622 -0.00136544 -0.936141 -0.419562 0.000122418 -0.907727 0.929819 0.00919076 -0.367902 0.912027 -0.00638202 -0.41008 0.948689 0.000974484 -0.31621 0.543452 0.000370458 -0.83944 0.5386 -0.000100028 -0.842562 0.662258 0.000145609 -0.749276 0.680188 0.00337 -0.73303 0.804467 -0.00371031 -0.593985 0.829927 0.0048609 -0.557851 0.898812 -0.00259853 -0.438328 -0.462733 -0.00018849 -0.886497 -0.483047 -0.00102604 -0.875594 -0.586596 0.00320607 -0.809873 -0.631692 -0.00386149 -0.77521 -0.762925 0.00418328 -0.646474 -0.776833 0.00050607 -0.629706 -0.881552 -0.000527535 -0.472087 -0.880144 0.000289902 -0.474708 -0.937182 -0.000149093 -0.348841 -0.937036 -4.06563e-05 -0.349234 -0.951921 -1.27925e-05 -0.306345 -0.929062 0.369912 -0.0030179 -0.868453 0.495738 0.00581923 -0.999265 0.0383466 0 -0.985081 0.172034 0.00447826 -0.985926 0.167106 0.00506157 -0.649029 0.760764 0 -0.611738 0.79104 0.00571923 -0.8008 0.598924 -0.00307077 -0.811593 -0.579375 0.0751082 0.68217 -0.730999 0.01688 0.956471 -0.291828 -1.32224e-05 0.0794555 -0.99682 -0.00604381 0 -0.999914 0.013122 -0.938256 -0.345935 -0.00237636 0.984837 -0.173423 -0.00450389 0.997826 -0.0606381 0.0258081 0.994885 -0.101016 0 0.984779 -0.173646 0.0075096 0.978767 -0.204909 0.00515165 0.642786 -0.766031 0.0047122 0.75381 -0.657093 -4.57114e-05 0.835611 -0.549321 0.000259215 0.929327 -0.368045 0.0299163 0.866026 -0.5 3.466e-05 -0.998262 -0.0589412 0 -0.989783 -0.142518 0.00428417 -0.990189 -0.139676 0.00399008 -0.978752 -0.20476 0.0108867 -0.984787 -0.173648 0.00634869 0.979791 -0.199549 -0.0137936 0.970259 -0.242049 -0.00307951 0.903209 -0.429115 0.00858915 0.972288 -0.153533 -0.176305 0.810091 -0.582984 0.0623143 0.803987 -0.594216 -0.022629 0.75331 -0.657665 0.00100526 0.685612 -0.727955 -0.00415111 0.660442 -0.750526 0.0229459 0.553219 -0.83268 -0.0243467 0.532752 -0.846271 -0.000357762 0.406353 -0.913716 0.000260065 0.36355 -0.930478 0.0451829 0.275985 -0.959822 -0.0507392 0.165229 -0.982296 0.08828 0.0920594 -0.994142 -0.0566371 -0.119885 -0.982497 0.142575 -0.0908297 -0.985008 -0.146663 -0.335967 -0.938099 0.0842403 -0.339287 -0.940671 -0.00472558 -0.556476 -0.830849 0.00501256 -0.57374 -0.811469 -0.111092 -0.684206 -0.717449 0.130877 -0.768632 -0.592313 -0.241598 -0.787175 -0.612759 -0.0698651 -0.912965 -0.405243 -0.0476771 -0.936833 -0.349768 0.00258358 -0.977103 -0.2127 -0.0052441 -0.973279 -0.227659 -0.0300047 -0.981063 -0.193498 -0.00863244 0.342015 -0.939665 0.00744939 0.340433 -0.940235 0.00793981 0.525436 -0.850827 -0.00323837 -0.342018 -0.939674 0.00604632 -0.387013 -0.921872 0.0193108 -0.180686 -0.983518 -0.00672927 -0.642785 -0.766032 0.00471229 -0.681487 -0.731641 0.0166645 -0.531986 -0.84675 -0.00233948 -0.866003 -0.499985 0.0073502 -0.843283 -0.53747 0.000290876 -0.75381 -0.657093 -4.56694e-05 0.978896 -0.204292 0.00519835 0.963799 -0.266626 0.0014933 0.912041 -0.41009 -0.0025784 0.865982 -0.499973 0.0100612 0.76621 -0.642533 -0.00857154 0.642747 -0.765987 0.0118259 0.560623 -0.828057 -0.00481929 0.984807 -0.173651 0 0.996828 -0.0782363 0.0145783 0.992637 -0.12048 -0.0124944 0.997459 -0.0617594 0.0355296 0.169397 -0.972462 -0.160072 0.0450783 -0.992029 0.117668 -0.259787 -0.925306 -0.276259 -0.13005 -0.987568 0.0883025 -0.994885 -0.101016 0 -0.983647 -0.179924 0.00816136 -0.96682 -0.254864 0.0174095 -0.984807 -0.173651 0.000966927 -0.989857 -0.139853 -0.024965 -0.994436 -0.0490526 0.0932243 -0.986458 -0.163954 -0.00453851 0.973804 0.116089 -0.195525 0.940261 -0.340217 0.0126901 0.984358 -0.176091 -0.0056497 0.283791 -0.955006 0.0861748 0.443318 -0.890196 -0.104976 0.48021 -0.875895 0.0469771 0.580627 -0.813826 -0.0236282 0.631723 -0.77415 0.0402335 0.71381 -0.69905 -0.0424785 0.774978 -0.629738 0.0532809 0.863696 -0.500814 -0.0566998 0.905604 -0.422859 0.0327308 -0.381981 -0.923191 -0.0425321 -0.385773 -0.92241 -0.0184109 -0.49853 -0.866672 0.018626 -0.49912 -0.865947 0.0318538 -0.683229 -0.728449 -0.0505964 -0.662997 -0.745906 0.063711 -0.83192 -0.553408 -0.0406077 -0.833811 -0.552005 -0.00704325 -0.922974 -0.384619 0.0136702 -0.925819 -0.377086 -0.0257925 -0.962655 -0.270727 0.0013053 0.3235 -0.946193 0.00817727 0.342024 -0.93969 0.00160485 0.0376739 -0.999289 -0.00133769 0 -0.999957 0.00931732 -0.200203 -0.979746 -0.00396166 -0.360523 -0.93262 0.0156187 -0.342004 -0.939634 0.0109749 -0.49635 -0.868115 -0.00366177 -0.679527 -0.733527 0.0134391 -0.642793 -0.766039 0.00119782 -0.795881 -0.605453 -0.00037526 -0.865992 -0.49998 0.0088525 -0.893177 -0.449705 -0.000700022 0.534778 0.00732517 0.844961 0 -0.0385427 0.999257 -0.999917 0 0.0128822 0.984807 0 0.17365 0.997737 -0.035339 0.0572109 0.978724 -0.00688476 0.205068 0.856063 -0.0056969 0.51684 0.865966 -0.0116446 0.499966 0.936511 0.00249356 0.350628 0.710929 -0.0507178 0.701433 0.642789 -0.0043587 0.766031 0.769391 0.000366428 0.638778 0.341975 -0.0167271 0.93956 0.352672 -0.0244792 0.935427 0.0800698 0.0189848 0.996608 -0.390824 -0.00776877 0.920433 -0.34178 -0.0376823 0.939024 -0.182185 0.0199973 0.983061 -0.688592 -0.00275359 0.725144 -0.642562 -0.0268991 0.765761 -0.542045 0.00485174 0.840335 -0.864886 -0.00749813 0.501913 -0.866007 -0.00648372 0.49999 -0.769391 0.000365373 0.638777 -0.995516 -0.00183526 0.0945719 -0.984713 -0.0138798 0.173634 -0.960277 0.0043184 0.279015 0 -0.0385629 -0.999256 0.999587 0 -0.0287559 -0.984808 0 -0.173647 -0.997736 -0.0353361 -0.0572193 -0.970208 0.000395317 -0.242271 -0.772792 -0.586334 0.242909 -0.866019 -0.000640807 -0.50001 -0.874967 -0.00721993 -0.484128 -0.769305 0.000361804 -0.638882 -0.642789 -0.00435959 -0.766031 -0.71085 -0.0506624 -0.701516 -0.534653 0.00732818 -0.84504 -0.341972 -0.0167922 -0.93956 -0.35245 -0.0243828 -0.935513 -0.0800081 0.0189533 -0.996614 0.390973 -0.00775793 -0.92037 0.341776 -0.0377379 -0.939023 0.182345 0.0199443 -0.983032 0.68815 -0.0027686 -0.725563 0.642563 -0.0268384 -0.765763 0.541764 0.00476474 -0.840517 0.865333 -0.00709471 -0.501147 0.866002 -0.00648924 -0.499999 0.769305 0.000362858 -0.638882 0.991457 -0.00513039 -0.130337 0.984715 -0.0137328 -0.17363 0.954545 0.00309823 -0.29805 0.931767 0.00980273 0.362923 0.865885 -0.0179647 0.49992 0.779245 0.0182901 0.626452 0.642612 -0.0238394 0.765821 0.570224 0.0102802 0.821425 0.984807 0 0.17365 0.997758 -0.0354805 0.0567394 0.985207 -0.0135299 0.170835 0.341985 -0.014917 0.939587 0.32965 -0.00591479 0.944085 0 0.00691735 0.999976 0.0397976 -0.0340189 0.998628 -0.202981 0.0115646 0.979114 -0.341785 -0.037319 0.939037 -0.36929 -0.0202787 0.929093 -0.504505 0.00928727 0.863359 -0.642603 -0.0244235 0.76581 -0.685781 0.00271197 0.727803 -0.866019 -0.00363554 0.499997 -0.828532 -0.0371256 0.55871 -0.911414 0.00827161 0.411408 -0.984757 -0.0100814 0.173641 -0.983562 -0.0118716 0.180183 -0.998662 0 0.05171 0 -0.0311557 -0.999515 0.0522373 0.0106243 -0.998578 0.865907 -0.0161111 -0.499945 0.999553 0 -0.0298934 -0.521073 0.00848094 -0.85347 -0.642576 -0.0261077 -0.765777 -0.707945 0.0116442 -0.706171 -0.984808 0 -0.173647 -0.997769 -0.0355513 -0.0565022 -0.985226 -0.0135483 -0.170724 -0.852342 -0.0108385 -0.522872 -0.865889 -0.017408 -0.499934 -0.934032 0.00910101 -0.357074 -0.341943 -0.021146 -0.939483 -0.41035 -0.0696734 -0.909263 -0.211046 0.0177721 -0.977315 0.341993 -0.0124592 -0.93962 0.325784 -0.0279308 -0.945032 0.508539 0.00911658 -0.860991 0.642596 -0.0248802 -0.765801 0.670686 -0.00782007 -0.7417 0.81848 0.00731012 -0.574489 0.99109 -0.00542412 -0.133083 0.984716 -0.01364 -0.17363 0.939875 0.00867407 -0.341408 0 0 1 0 0 1 0 0 1 0 0 1 0 0 1 0 0 1 0 0 1 0 0 1 0 0 1 0 0 1 0 0 1 0 0 1 0 0 1 0 0 1 0 0 1 0 0 1 0 0 1 0 0 1 0 0 1 0 0 1 0 0 1 0 0 1 0 0 1 0 0 1 0 0 1 0 0 1 0 0 1 0 0 1 0 0 1 0 0 1 0 0 1 0 0 1 0 0 1 0 0 1 0 0 1 0 0 1 0 0 1 0 0 1 0 0 1 0 0 1 0 0 1 0 0 1 0 0 1 0 0 1 0 0 1 0 0 1 0 0 1 0 0 1 0 0 -1 0 0 -1 0 0 -1 0 0 -1 0 0 -1 0 0 -1 0 0 -1 0 0 -1 0 0 -1 0 0 -1 0 0 -1 0 0 -1 0 0 -1 0 0 -1 0 0 -1 0 0 -1 0 0 -1 0 0 -1 0 0 -1 0 0 -1 0 0 -1 0 0 -1 0 0 -1 0 0 -1 0 0 -1 0 0 -1 0 0 -1 0 0 -1 0 0 -1 0 0 -1 0 0 -1 0 0 -1 0 0 -1 0 0 -1 0 0 -1 0 0 -1 0 0 -1 0 0 -1 0 0 -1 0 0 -1 0 0 -1 0 0 -1 0 0 -1 0 0 -1 0 0 -1 0 0 -1 0 0 -1 0 0 -1 0 0 -1 0 0 -1 0 0 -1 0 0 -1 0 0 -1 0 0 -1 0 0 -1 0 0 -1 0 0 -1 0 0 -1 0 0 -1 0 0 -1 0 1 0 0 1 0 0 1 0 0 1 0 0 1 0 0 1 0 0 1 0 0 1 0 0 1 0 0 1 0 0 1 0 0 1 0 0 1 0 0 1 0 0 1 0 0 1 0 0 1 0 0 1 0 0 1 0 0 1 0 0 1 0 0 1 0 0 1 0 0 1 0 0 1 0 0 1 0 0 1 0 0 1 0 0 1 0 0 1 0 0 1 0 0 1 0 0 1 0 0 1 0 0 1 0 0 1 0 0 1 0 0 1 0 0 1 0 0 1 0 0 1 0 0 1 0 0 1 0 0 1 0 0 1 0 0 1 0 0 1 0 0 1 0 0 1 0 0 1 0 0 1 0 0 1 0 0 1 0 0 1 0 0 1 0 0 1 0 0 1 0 0 1 0 0 1 0 0 1 0 0.208631 0.838305 0.503704 0.503704 0.838304 0.208636 0.503704 0.838304 -0.208636 0.208631 0.838305 -0.503704 -0.208631 0.838305 -0.503704 -0.503703 0.838304 -0.208636 -0.503703 0.838304 0.208636 -0.208631 0.838305 0.503704 -0.433886 0.900968 0 -0.781832 0.623489 0 -0.781832 0.623489 0 -0.974927 0.222523 0 -0.974927 0.222523 0 -0.433886 0.900968 0 0 1 0 0 1 0 0.433887 0.900967 0 0.433887 0.900967 0 0.781831 0.623491 0 0.781831 0.623491 0 0.974928 0.222521 0 0.974928 0.222521 0 0.433883 -0.900969 0 0.781833 -0.623487 0 0.781833 -0.623487 0 0.974928 -0.222521 0 0.974928 -0.222521 0 0.433883 -0.900969 0 0 -1 0 0 -1 0 -0.433882 -0.90097 0 -0.433882 -0.90097 0 -0.781835 -0.623486 0 -0.781835 -0.623486 0 -0.974927 -0.222523 0 -0.974927 -0.222523 0 -0.433883 0.900969 0 -0.781833 0.623487 0 -0.781833 0.623487 0 -0.974928 0.222521 0 -0.974928 0.222521 0 -0.433883 0.900969 0 0 1 0 0 1 0 0.433882 0.90097 0 0.433882 0.90097 0 0.781835 0.623486 0 0.781835 0.623486 0 0.974927 0.222523 0 0.974927 0.222523 0 0.433886 -0.900968 0 0.781832 -0.623489 0 0.781832 -0.623489 0 0.974927 -0.222523 0 0.974927 -0.222523 0 0.433886 -0.900968 0 0 -1 0 0 -1 0 -0.433887 -0.900967 0 -0.433887 -0.900967 0 -0.781831 -0.623491 0 -0.781831 -0.623491 0 -0.974928 -0.222521 0 -0.974928 -0.222521 0 -0.997669 0.0682432 0 -0.997669 0.0682432 0 -0.979084 0.203456 0 -0.979084 0.203456 0 -0.942261 0.33488 0 -0.942261 0.33488 0 -0.887886 0.460065 0 -0.887886 0.460065 0 -0.81697 0.57668 0 -0.81697 0.57668 0 -0.730836 0.682554 0 -0.730836 0.682554 0 -0.631089 0.775711 0 -0.631089 0.775711 0 -0.519583 0.85442 0 -0.519583 0.85442 0 -0.398401 0.917211 0 -0.398401 0.917211 0 -0.269797 0.962917 0 -0.269797 0.962917 0 -0.136166 0.990686 0 -0.136166 0.990686 0 0 1 0 0 1 0 0.136166 0.990686 0 0.136166 0.990686 0 0.269797 0.962917 0 0.269797 0.962917 0 0.398401 0.917211 0 0.398401 0.917211 0 0.519583 0.85442 0 0.519583 0.85442 0 0.631089 0.775711 0 0.631089 0.775711 0 0.730836 0.682554 0 0.730836 0.682554 0 0.81697 0.57668 0 0.81697 0.57668 0 0.887886 0.460065 0 0.887886 0.460065 0 0.942261 0.33488 0 0.942261 0.33488 0 0.979084 0.203456 0 0.979084 0.203456 0 0.997669 0.0682432 0 0.997669 0.0682432 0 0.978603 -0.203356 -0.0313411 0.957904 -0.286031 0.0246216 0.941619 -0.334652 -0.0369109 0.918214 -0.395165 0.0269877 0.887316 -0.459769 -0.0358207 0.866205 -0.499176 0.0226429 0.816645 -0.576451 -0.0282131 0.802528 -0.596499 0.011765 0.630922 -0.775506 -0.0229637 0.549963 -0.834978 0.018783 0.519294 -0.853944 -0.0333602 0.449209 -0.89305 0.0259251 0.398125 -0.916575 -0.0372435 0.342455 -0.939159 0.0265405 0.269635 -0.96234 -0.0346081 0.231104 -0.97271 0.0206404 0.136122 -0.990365 -0.0254457 0.116602 -0.993145 0.00821557 -0.13612 -0.99035 -0.0260355 -0.230167 -0.972923 0.0210701 -0.269633 -0.962331 -0.0348777 -0.341547 -0.939486 0.0266652 -0.398125 -0.916576 -0.0372008 -0.448345 -0.89349 0.0257325 -0.5193 -0.853954 -0.0330151 -0.549163 -0.835515 0.0182756 -0.816633 -0.576442 -0.0287268 -0.865716 -0.500008 0.0229967 -0.887309 -0.459766 -0.0360226 -0.917831 -0.39605 0.0270325 -0.941623 -0.334653 -0.0367975 -0.957676 -0.286801 0.0245517 -0.978612 -0.203357 -0.0310526 0.997669 -0.0682432 0 0.998066 -0.0579888 -0.0224 0.984761 -0.173205 0.0156794 0.730763 -0.682486 -0.0140865 0.727866 -0.685697 -0.00564073 0.643312 -0.765587 0.00510615 0 -0.999952 -0.00975682 0.000484343 -0.999942 -0.01074 -0.115643 -0.99325 0.00895402 -0.630932 -0.775518 -0.0223042 -0.642577 -0.766209 0.00429192 -0.730826 -0.682545 -0.00506281 -0.72712 -0.686319 -0.0162048 -0.801943 -0.597271 0.0124368 -0.998307 -0.0581637 0 -0.997493 -0.0682311 -0.0187939 -0.984679 -0.173683 0.0155386 -0.433882 0.90097 0 -0.781835 0.623486 0 -0.781835 0.623486 0 -0.974927 0.222523 0 -0.974927 0.222523 0 -0.433882 0.90097 0 0 1 0 0 1 0 0.433883 0.900969 0 0.433883 0.900969 0 0.781833 0.623487 0 0.781833 0.623487 0 0.974928 0.222521 0 0.974928 0.222521 0 0.433887 -0.900967 0 0.781831 -0.623491 0 0.781831 -0.623491 0 0.974928 -0.222521 0 0.974928 -0.222521 0 0.433887 -0.900967 0 0 -1 0 0 -1 0 -0.433886 -0.900968 0 -0.433886 -0.900968 0 -0.781832 -0.623489 0 -0.781832 -0.623489 0 -0.974927 -0.222523 0 -0.974927 -0.222523 0 0.991445 -0.130529 0 0.991445 -0.130529 0 0.92388 -0.382683 0 0.92388 -0.382683 0 0.793353 -0.608762 0 0.793353 -0.608762 0 0.608762 -0.793353 0 0.608762 -0.793353 0 0.382683 -0.92388 0 0.382683 -0.92388 0 0.130529 -0.991445 0 0.130529 -0.991445 0 -0.130529 -0.991445 0 -0.130529 -0.991445 0 -0.382683 -0.92388 0 -0.382683 -0.92388 0 -0.608762 -0.793353 0 -0.608762 -0.793353 0 -0.793353 -0.608762 0 -0.793353 -0.608762 0 -0.92388 -0.382683 0 -0.92388 -0.382683 0 -0.991445 -0.130529 0 -0.991445 -0.130529 0 -0.433887 0.900967 0 -0.781831 0.623491 0 -0.781831 0.623491 0 -0.974928 0.222521 0 -0.974928 0.222521 0 -0.433887 0.900967 0 0 1 0 0 1 0 0.433886 0.900968 0 0.433886 0.900968 0 0.781832 0.623489 0 0.781832 0.623489 0 0.974927 0.222523 0 0.974927 0.222523 0 0.433882 -0.90097 0 0.781835 -0.623486 0 0.781835 -0.623486 0 0.974927 -0.222523 0 0.974927 -0.222523 0 0.433882 -0.90097 0 0 -1 0 0 -1 0 -0.433883 -0.900969 0 -0.433883 -0.900969 0 -0.781833 -0.623487 0 -0.781833 -0.623487 0 -0.974928 -0.222521 0 -0.974928 -0.222521 0 -0.651214 0.758894 0 -0.528431 0.848976 0 -0.528431 0.848976 0 -0.393393 0.91937 0 -0.393393 0.91937 0 -0.651214 0.758894 0 -0.758894 0.651214 0 -0.758894 0.651214 0 -0.848976 0.528431 0 -0.848976 0.528431 0 -0.91937 0.393393 0 -0.91937 0.393393 0 0 1 0 0 1 0 -1 0 0 -1 0 0 -1 0 0 -1 0 0 -1 0 0 -1 0 0 0 -1 0 0 -1 0 -0.758894 -0.651214 0 -0.848976 -0.528431 0 -0.848976 -0.528431 0 -0.91937 -0.393393 0 -0.91937 -0.393393 0 -0.758894 -0.651214 0 -0.651214 -0.758894 0 -0.651214 -0.758894 0 -0.528431 -0.848976 0 -0.528431 -0.848976 0 -0.393393 -0.91937 0 -0.393393 -0.91937 0 -1 0 0 -1 0 0 0 -1 0 0 -1 0 0 -1 0 0 -1 0 0 -1 0 0 -1 0 1 0 0 1 0 0 0.651214 -0.758894 0 0.528431 -0.848976 0 0.528431 -0.848976 0 0.393393 -0.91937 0 0.393393 -0.91937 0 0.651214 -0.758894 0 0.758894 -0.651214 0 0.758894 -0.651214 0 0.848976 -0.528431 0 0.848976 -0.528431 0 0.91937 -0.393393 0 0.91937 -0.393393 0 0 -1 0 0 -1 0 1 0 0 1 0 0 1 0 0 1 0 0 1 0 0 1 0 0 0 1 0 0 1 0 0.758894 0.651214 0 0.848976 0.528431 0 0.848976 0.528431 0 0.91937 0.393393 0 0.91937 0.393393 0 0.758894 0.651214 0 0.651214 0.758894 0 0.651214 0.758894 0 0.528431 0.848976 0 0.528431 0.848976 0 0.393393 0.91937 0 0.393393 0.91937 0 0 0 1 0 0 1 0.382667 0 0.923886 0.382667 0 0.923886 0.923883 0 0.382676 0.923883 0 0.382676 1 0 0 1 0 0 0.923884 0 -0.382673 0.923884 0 -0.382673 0.382661 0 -0.923889 0.382661 0 -0.923889 0 0 -1 0 0 -1 -0.38266 0 -0.923889 -0.38266 0 -0.923889 -0.923884 0 -0.382673 -0.923884 0 -0.382673 -1 0 0 -1 0 0 -0.923883 0 0.382675 -0.923883 0 0.382675 -0.382667 0 0.923886 -0.382667 0 0.923886 0.923883 0 -0.382675 0.382667 0 -0.923886 0.382667 0 -0.923886 0.923883 0 -0.382675 0.923883 0 0.382675 0.923883 0 0.382675 0.382667 0 0.923886 0.382667 0 0.923886 -0.923882 0 0.382677 -0.382667 0 0.923886 -0.382667 0 0.923886 -0.923882 0 0.382677 -0.923882 0 -0.382677 -0.923882 0 -0.382677 -0.382667 0 -0.923886 -0.382667 0 -0.923886 1 0 0 1 0 0 0 0 -1 0 0 -1 0 0 -1 0 0 -1 0 0 -1 0 0 -1 0 0 -1 0 0 -1 0 0 -1 0 0 -1 0 0 -1 0 0 -1 0 0 -1 0 0 -1 0 0 -1 0 0 -1 0 0 -1 0 0 -1 0 0 -1 0 0 -1 0 0 -1 0 0 -1 0 0 -1 0 0 -1 0 0 -1 0 0 -1 0 0 -1 0 0 -1 0 0 -1 0 0 -1 0.130529 0.991445 0 0.130529 0.991445 0 0.382683 0.92388 0 0.382683 0.92388 0 0.608762 0.793353 0 0.608762 0.793353 0 0.793353 0.608762 0 0.793353 0.608762 0 0.92388 0.382683 0 0.92388 0.382683 0 0.991445 0.130529 0 0.991445 0.130529 0 0 0 1 0 0 1 0 0 1 0 0 1 0 0 1 0 0 1 0 0 1 0 0 1 0 0 1 0 0 1 0 0 1 0 0 1 0 0 1 0 0 1 0 0 1 0 0 1 0 0 1 0 0 1 0 0 1 0 0 1 0 0 1 0 0 1 0 0 1 0 0 1 0 0 1 0 0 1 0 0 1 0 0 1 0 0 1 0 0 1 0 0 1 0 0 1 0 0 1 0 0 1 0 0 1 0 0 1 0 0 1 0 0 1 0 0 1 0 0 1 0 0 1 0 0 1 0 0 1 0 0 1 0 0 1 0 0 1 0 0 1 0 0 1 0 0 1 0 0 1 0 0 1 0 0 1 0 0 1 0 0 1 0 0 1 0 0 1 0 0 1 0 0 1 0 0 1 0 0 1 0 0 1 0 0 1 0 0 1 0 0 1 0 0 1 0 0 1 0 0 1 0 0 1 0 0 1 0 0 1 0 0 1 0 0 1 0 0 1 0 0 1 0 0 1 0 0 1 0 0 1 0 0 1 0 0 1 0 0 1 0 0 1 0 0 1 0 0 1 0 0 1 0 0 1 0 0 1 0 0 1 0 0 1 0 0 1 0 0 1 0 0 1 0 0 1 0 0 1 0 0 1 0 0 1 0 0 1 0 0 1 0 0 1 0 0 1 0 0 1 0 0 1 0 0 1 0 0 1 0 0 1 0 0 1 0 0 1 0 0 1 0 0 1 0 0 1 0 0 1 0 0 1 0 0 1 0 0 1 0 0 1 0 0 1 0 0 1 0 0 1 0 0 1 0 0 1 0 0 1 0 0 1 0 0 1 0 0 1 0 0 1 0 0 1 0 0 1 0 0 1 0 0 1 0 0 1 0 0 1 0 0 1 0 0 1 0 0 1 0 0 1 0 0 1 0 0 1 0 0 1 0 0 1 0 0 -1 0 0 -1 0 0 -1 0 0 -1 0 0 -1 0 0 -1 0 0 -1 0 0 -1 0 0 -1 0 0 -1 0 0 -1 0 0 -1 0 0 -1 0 0 -1 0 0 -1 0 0 -1 0 0 -1 0 0 -1 0 0 -1 0 0 -1 0 0 -1 0 0 -1 0 0 -1 0 0 -1 0 0 -1 0 0 -1 0 0 -1 0 0 -1 0 0 -1 0 0 -1 0 0 -1 0 0 -1 0 0 -1 0 0 -1 0 0 -1 0 0 -1 0 0 -1 0 0 -1 0 0 -1 0 0 -1 0 0 -1 0 0 -1 0 0 -1 0 0 -1 0 0 -1 0 0 -1 0 0 -1 0 0 -1 0 0 -1 0 0 -1 0 0 -1 0 0 -1 0 0 -1 0 0 -1 0 0 -1 0 0 -1 0 0 -1 0 0 -1 0 0 -1 0 0 -1 0 0 -1 0 0 -1 0 0 -1 0 0 -1 0 1 0 0 1 0 0 1 0 0 1 0 0 1 0 0 1 0 0 1 0 0 1 0 0 1 0 0 1 0 0 1 0 0 1 0 0 1 0 0 1 0 0 1 0 0 1 0 0 1 0 0 1 0 0 1 0 0 1 0 0 1 0 0 1 0 0 1 0 0 1 0 0 1 0 0 1 0 0 1 0 0 1 0 0 1 0 0 1 0 0 1 0 0 1 0 0 1 0 0 1 0 0 1 0 0 1 0 0 1 0 0 1 0 0 1 0 0 1 0 0 1 0 0 1 0 0 1 0 0 1 0 0 1 0 0 1 0 0 1 0 0 1 0 0 1 0 0 1 0 0 1 0 0 1 0 0 1 0 0 1 0 -0.923881 0 0.382681 -0.382682 0 0.92388 -0.382682 0 0.92388 -0.923881 0 0.382681 -0.923881 0 -0.38268 -0.923881 0 -0.38268 -0.382682 0 -0.92388 -0.382682 0 -0.92388 0.92388 0 -0.382682 0.382682 0 -0.92388 0.382682 0 -0.92388 0.92388 0 -0.382682 0.92388 0 0.382682 0.92388 0 0.382682 0.382682 0 0.92388 0.382682 0 0.92388 -0.208639 0.838304 -0.503703 -0.503703 0.838304 -0.208639 -0.503703 0.838304 0.208639 -0.208639 0.838304 0.503703 0.208639 0.838304 0.503703 0.503703 0.838304 0.20864 0.503703 0.838304 -0.20864 0.208639 0.838304 -0.503703 -0.991445 0.130529 0 -0.991445 0.130529 0 -0.92388 0.382683 0 -0.92388 0.382683 0 -0.793353 0.608762 0 -0.793353 0.608762 0 -0.608762 0.793353 0 -0.608762 0.793353 0 -0.382683 0.92388 0 -0.382683 0.92388 0 -0.130529 0.991445 0 -0.130529 0.991445 0 -1 0 0 -1 0 0 1 0 0 1 0 0 0.382667 0 0.923886 0.382667 0 0.923886 0.923883 0 0.382675 0.923883 0 0.382675 0 0 1 0 0 1 -0.923883 0 0.382676 -0.923883 0 0.382676 -0.382667 0 0.923886 -0.382667 0 0.923886 -1 0 0 -1 0 0 -0.382661 0 -0.923889 -0.382661 0 -0.923889 -0.923884 0 -0.382673 -0.923884 0 -0.382673 0 0 -1 0 0 -1 0.923884 0 -0.382673 0.923884 0 -0.382673 0.38266 0 -0.923889 0.38266 0 -0.923889 -1 0 0 -1 0 0 0 1 0 0 1 0 0 1 0 0 1 0 1 0 0 1 0 0</float_array>
                    <technique_common>
                        <accessor count="1642" source="#shape0-lib-normals-array" stride="3">
                            <param name="X" type="float"/>
                            <param name="Y" type="float"/>
                            <param name="Z" type="float"/>
                        </accessor>
                    </technique_common>
                </source>
                <vertices id="shape0-lib-vertices">
                    <input semantic="POSITION" source="#shape0-lib-positions"/>
                </vertices>
                <triangles count="1642">
                    <input offset="0" semantic="VERTEX" source="#shape0-lib-vertices"/>
                    <input offset="1" semantic="NORMAL" source="#shape0-lib-normals"/>
                    <p>0 0 1 0 2 0 3 1 4 1 5 1 5 2 4 2 6 2 5 3 6 3 7 3 7 4 6 4 8 4 7 5 8 5 9 5 9 6 8 6 10 6 9 7 10 7 11 7 11 8 10 8 12 8 11 9 12 9 13 9 13 10 12 10 14 10 13 11 14 11 15 11 15 12 14 12 2 12 15 13 2 13 1 13 16 14 2 14 17 14 17 15 2 15 14 15 17 16 14 16 18 16 18 17 14 17 12 17 18 18 12 18 19 18 19 19 12 19 10 19 19 20 10 20 20 20 2 21 16 21 0 21 0 22 16 22 21 22 0 23 21 23 1 23 1 24 21 24 22 24 1 25 22 25 15 25 15 26 22 26 23 26 15 27 23 27 13 27 13 28 23 28 24 28 13 29 24 29 11 29 25 30 5 30 26 30 26 31 5 31 7 31 26 32 7 32 27 32 27 33 7 33 9 33 27 34 9 34 28 34 28 35 9 35 11 35 28 36 11 36 24 36 5 37 25 37 3 37 3 38 25 38 29 38 3 39 29 39 4 39 4 40 29 40 30 40 4 41 30 41 6 41 6 42 30 42 31 42 6 43 31 43 8 43 8 44 31 44 20 44 8 45 20 45 10 45 26 46 32 46 25 46 25 47 32 47 33 47 25 48 33 48 34 48 17 49 35 49 16 49 16 50 35 50 36 50 16 51 36 51 37 51 38 52 30 52 39 52 39 53 30 53 29 53 39 54 29 54 40 54 40 55 29 55 25 55 40 56 25 56 34 56 30 57 38 57 31 57 31 58 38 58 41 58 31 59 41 59 20 59 20 60 41 60 42 60 20 61 42 61 19 61 19 62 42 62 43 62 19 63 43 63 18 63 18 64 43 64 35 64 18 65 35 65 17 65 44 66 22 66 45 66 45 67 22 67 21 67 45 68 21 68 46 68 46 69 21 69 16 69 46 70 16 70 37 70 22 71 44 71 23 71 23 72 44 72 47 72 23 73 47 73 24 73 24 74 47 74 48 74 24 75 48 75 28 75 28 76 48 76 49 76 28 77 49 77 27 77 27 78 49 78 32 78 27 79 32 79 26 79 50 80 51 80 52 80 53 81 54 81 55 81 55 82 54 82 56 82 55 83 56 83 57 83 57 84 56 84 58 84 57 85 58 85 59 85 59 86 58 86 60 86 59 87 60 87 61 87 61 88 60 88 62 88 61 89 62 89 63 89 63 90 62 90 64 90 63 91 64 91 65 91 65 92 64 92 52 92 65 93 52 93 51 93 66 94 41 94 67 94 67 95 41 95 38 95 67 96 38 96 68 96 68 97 38 97 39 97 68 98 39 98 69 98 69 99 39 99 40 99 69 100 40 100 70 100 70 101 40 101 34 101 70 102 34 102 71 102 71 103 34 103 33 103 71 104 33 104 72 104 72 105 33 105 32 105 72 106 32 106 73 106 73 107 32 107 49 107 73 108 49 108 74 108 74 109 49 109 48 109 74 110 48 110 75 110 75 111 48 111 47 111 75 112 47 112 76 112 76 113 47 113 44 113 76 114 44 114 77 114 77 115 44 115 45 115 77 116 45 116 78 116 78 117 45 117 46 117 78 118 46 118 79 118 79 119 46 119 37 119 79 120 37 120 80 120 80 121 37 121 36 121 80 122 36 122 81 122 81 123 36 123 35 123 81 124 35 124 82 124 82 125 35 125 43 125 82 126 43 126 83 126 83 127 43 127 42 127 83 128 42 128 66 128 66 129 42 129 41 129 84 130 52 130 85 130 85 131 52 131 64 131 85 132 64 132 86 132 86 133 64 133 62 133 86 134 62 134 87 134 87 135 62 135 60 135 87 136 60 136 88 136 52 137 84 137 50 137 50 138 84 138 89 138 50 139 89 139 51 139 51 140 89 140 90 140 51 141 90 141 65 141 65 142 90 142 91 142 65 143 91 143 63 143 63 144 91 144 92 144 63 145 92 145 61 145 93 146 55 146 94 146 94 147 55 147 57 147 94 148 57 148 95 148 95 149 57 149 59 149 95 150 59 150 96 150 96 151 59 151 61 151 96 152 61 152 92 152 55 153 93 153 53 153 53 154 93 154 97 154 53 155 97 155 54 155 54 156 97 156 98 156 54 157 98 157 56 157 56 158 98 158 99 158 56 159 99 159 58 159 58 160 99 160 88 160 58 161 88 161 60 161 100 162 101 162 80 162 80 163 81 163 100 163 100 164 81 164 82 164 100 165 82 165 102 165 102 166 82 166 83 166 102 167 83 167 103 167 103 168 83 168 66 168 103 169 66 169 104 169 104 170 66 170 67 170 104 171 67 171 105 171 105 172 67 172 68 172 105 173 68 173 106 173 106 174 68 174 69 174 106 175 69 175 107 175 107 176 69 176 70 176 107 177 70 177 108 177 108 178 70 178 71 178 108 179 71 179 109 179 109 180 71 180 72 180 109 181 72 181 110 181 110 182 72 182 73 182 110 183 73 183 111 183 111 184 73 184 74 184 111 185 74 185 112 185 112 186 74 186 75 186 112 187 75 187 113 187 113 188 75 188 76 188 113 189 76 189 114 189 114 190 76 190 77 190 114 191 77 191 115 191 115 192 77 192 78 192 115 193 78 193 116 193 116 194 78 194 79 194 116 195 79 195 117 195 117 196 79 196 80 196 117 197 80 197 101 197 94 198 118 198 93 198 93 199 118 199 119 199 93 200 119 200 120 200 85 201 121 201 84 201 84 202 121 202 122 202 84 203 122 203 123 203 124 204 98 204 125 204 125 205 98 205 97 205 125 206 97 206 126 206 126 207 97 207 93 207 126 208 93 208 120 208 98 209 124 209 99 209 99 210 124 210 127 210 99 211 127 211 88 211 88 212 127 212 128 212 88 213 128 213 87 213 87 214 128 214 129 214 87 215 129 215 86 215 86 216 129 216 121 216 86 217 121 217 85 217 130 218 90 218 131 218 131 219 90 219 89 219 131 220 89 220 132 220 132 221 89 221 84 221 132 222 84 222 123 222 90 223 130 223 91 223 91 224 130 224 133 224 91 225 133 225 92 225 92 226 133 226 134 226 92 227 134 227 96 227 96 228 134 228 135 228 96 229 135 229 95 229 95 230 135 230 118 230 95 231 118 231 94 231 106 232 107 232 136 232 137 233 138 233 108 233 108 234 109 234 137 234 137 235 109 235 139 235 111 236 112 236 140 236 141 237 104 237 142 237 142 238 104 238 105 238 142 239 105 239 143 239 143 240 105 240 106 240 143 241 106 241 136 241 108 242 138 242 107 242 107 243 138 243 144 243 107 244 144 244 136 244 139 245 109 245 145 245 145 246 109 246 110 246 145 247 110 247 146 247 146 248 110 248 111 248 146 249 111 249 140 249 113 250 147 250 112 250 112 251 147 251 148 251 112 252 148 252 140 252 147 253 113 253 149 253 149 254 113 254 114 254 149 255 114 255 150 255 150 256 114 256 115 256 150 257 115 257 151 257 151 258 115 258 116 258 151 259 116 259 152 259 152 260 116 260 117 260 152 261 117 261 153 261 153 262 117 262 101 262 153 263 101 263 154 263 154 264 101 264 100 264 154 265 100 265 155 265 155 266 100 266 102 266 155 267 102 267 156 267 156 268 102 268 103 268 156 269 103 269 141 269 141 270 103 270 104 270 157 271 158 271 159 271 159 272 158 272 160 272 158 273 161 273 160 273 160 274 161 274 162 274 162 275 161 275 163 275 163 276 161 276 164 276 164 277 165 277 163 277 163 278 165 278 166 278 166 279 165 279 167 279 166 280 167 280 168 280 169 281 170 281 168 281 168 282 170 282 166 282 171 283 172 283 173 283 173 284 172 284 174 284 173 285 174 285 175 285 171 286 173 286 169 286 169 287 173 287 170 287 125 288 126 288 176 288 177 289 178 289 120 289 120 290 119 290 177 290 177 291 119 291 179 291 179 292 119 292 118 292 180 293 181 293 135 293 135 294 134 294 180 294 182 295 127 295 183 295 183 296 127 296 124 296 183 297 124 297 184 297 184 298 124 298 125 298 184 299 125 299 176 299 120 300 178 300 126 300 126 301 178 301 185 301 126 302 185 302 176 302 135 303 181 303 118 303 118 304 181 304 186 304 118 305 186 305 179 305 133 306 187 306 134 306 134 307 187 307 188 307 134 308 188 308 180 308 187 309 133 309 189 309 189 310 133 310 130 310 189 311 130 311 190 311 190 312 130 312 131 312 190 313 131 313 191 313 191 314 131 314 132 314 191 315 132 315 192 315 192 316 132 316 123 316 192 317 123 317 193 317 193 318 123 318 122 318 193 319 122 319 194 319 194 320 122 320 121 320 194 321 121 321 195 321 195 322 121 322 129 322 195 323 129 323 196 323 196 324 129 324 128 324 196 325 128 325 182 325 182 326 128 326 127 326 197 327 198 327 199 327 199 328 198 328 200 328 198 329 201 329 200 329 200 330 201 330 202 330 203 331 204 331 205 331 205 332 204 332 206 332 205 333 206 333 207 333 203 334 205 334 208 334 208 335 205 335 209 335 145 336 210 336 139 336 139 337 210 337 211 337 139 338 211 338 137 338 137 339 211 339 212 339 137 340 212 340 138 340 138 341 212 341 213 341 138 342 213 342 144 342 160 343 162 343 153 343 153 344 162 344 163 344 153 345 163 345 152 345 152 346 163 346 166 346 152 347 166 347 170 347 136 348 214 348 143 348 143 349 214 349 215 349 143 350 215 350 142 350 142 351 215 351 216 351 142 352 216 352 141 352 141 353 216 353 217 353 141 354 217 354 156 354 156 355 217 355 218 355 156 356 218 356 155 356 155 357 218 357 159 357 155 358 159 358 154 358 154 359 159 359 160 359 154 360 160 360 153 360 213 361 214 361 144 361 144 362 214 362 136 362 170 363 173 363 152 363 152 364 173 364 175 364 152 365 175 365 151 365 151 366 175 366 219 366 151 367 219 367 150 367 140 368 148 368 220 368 220 369 148 369 147 369 220 370 147 370 221 370 221 371 147 371 149 371 221 372 149 372 222 372 222 373 149 373 150 373 222 374 150 374 219 374 220 375 223 375 140 375 140 376 223 376 146 376 223 377 210 377 146 377 146 378 210 378 145 378 224 379 218 379 217 379 216 380 225 380 226 380 157 381 159 381 227 381 227 382 159 382 218 382 227 383 218 383 224 383 216 384 226 384 217 384 217 385 226 385 228 385 217 386 228 386 224 386 225 387 229 387 226 387 230 388 231 388 165 388 230 389 165 389 164 389 230 390 164 390 161 390 230 391 161 391 158 391 230 392 158 392 232 392 168 393 167 393 169 393 169 394 167 394 233 394 169 395 233 395 171 395 171 396 233 396 234 396 171 397 234 397 172 397 226 398 229 398 228 398 228 399 229 399 235 399 228 400 235 400 224 400 224 401 235 401 236 401 224 402 236 402 227 402 227 403 236 403 237 403 227 404 237 404 238 404 227 405 238 405 157 405 157 406 238 406 232 406 157 407 232 407 158 407 165 408 231 408 167 408 167 409 231 409 239 409 167 410 239 410 233 410 172 411 234 411 174 411 174 412 234 412 240 412 174 413 240 413 241 413 241 414 240 414 242 414 242 415 240 415 243 415 242 416 243 416 244 416 244 417 243 417 245 417 244 418 245 418 246 418 246 419 245 419 247 419 246 420 247 420 248 420 222 421 219 421 242 421 222 422 242 422 244 422 222 423 244 423 246 423 222 424 246 424 248 424 222 425 248 425 221 425 175 426 174 426 219 426 219 427 174 427 241 427 219 428 241 428 242 428 184 429 176 429 249 429 249 430 176 430 185 430 249 431 185 431 250 431 250 432 185 432 178 432 250 433 178 433 251 433 251 434 178 434 177 434 251 435 177 435 252 435 252 436 177 436 179 436 252 437 179 437 253 437 200 438 202 438 193 438 193 439 202 439 254 439 193 440 254 440 192 440 192 441 254 441 255 441 192 442 255 442 209 442 196 443 256 443 195 443 195 444 256 444 199 444 195 445 199 445 194 445 194 446 199 446 200 446 194 447 200 447 193 447 256 448 196 448 257 448 257 449 196 449 182 449 257 450 182 450 258 450 258 451 182 451 183 451 258 452 183 452 259 452 259 453 183 453 184 453 259 454 184 454 249 454 209 455 205 455 192 455 192 456 205 456 207 456 192 457 207 457 191 457 191 458 207 458 260 458 191 459 260 459 190 459 181 460 180 460 261 460 261 461 180 461 188 461 261 462 188 462 262 462 262 463 188 463 187 463 262 464 187 464 263 464 263 465 187 465 189 465 263 466 189 466 264 466 264 467 189 467 190 467 264 468 190 468 260 468 179 469 186 469 253 469 253 470 186 470 181 470 253 471 181 471 261 471 197 472 199 472 265 472 265 473 199 473 256 473 265 474 256 474 266 474 266 475 256 475 267 475 267 476 256 476 257 476 267 477 257 477 268 477 269 478 268 478 258 478 258 479 268 479 257 479 270 480 271 480 272 480 270 481 272 481 273 481 270 482 273 482 274 482 274 483 273 483 275 483 274 484 275 484 201 484 274 485 201 485 198 485 274 486 198 486 197 486 274 487 197 487 276 487 277 488 272 488 208 488 208 489 272 489 271 489 208 490 271 490 203 490 203 491 271 491 278 491 203 492 278 492 204 492 279 493 267 493 280 493 280 494 267 494 268 494 280 495 268 495 269 495 276 496 197 496 281 496 281 497 197 497 265 497 281 498 265 498 282 498 282 499 265 499 266 499 282 500 266 500 283 500 283 501 266 501 267 501 283 502 267 502 279 502 204 503 278 503 206 503 206 504 278 504 284 504 206 505 284 505 285 505 285 506 284 506 286 506 285 507 286 507 287 507 287 508 286 508 288 508 287 509 288 509 289 509 289 510 288 510 290 510 289 511 290 511 291 511 291 512 290 512 292 512 291 513 292 513 293 513 287 514 289 514 264 514 264 515 260 515 287 515 293 516 263 516 291 516 291 517 263 517 264 517 291 518 264 518 289 518 207 519 206 519 260 519 260 520 206 520 285 520 260 521 285 521 287 521 294 522 295 522 243 522 296 523 297 523 213 523 298 524 215 524 299 524 300 525 301 525 212 525 212 526 211 526 300 526 302 527 220 527 303 527 304 528 305 528 229 528 304 529 229 529 225 529 304 530 225 530 216 530 304 531 216 531 215 531 304 532 215 532 298 532 214 533 213 533 297 533 214 534 297 534 306 534 214 535 306 535 307 535 214 536 307 536 299 536 214 537 299 537 215 537 221 538 248 538 247 538 221 539 247 539 308 539 221 540 308 540 309 540 221 541 309 541 303 541 221 542 303 542 220 542 229 543 305 543 235 543 235 544 305 544 310 544 235 545 310 545 236 545 236 546 310 546 311 546 236 547 311 547 312 547 236 548 312 548 237 548 237 549 312 549 313 549 237 550 313 550 238 550 238 551 313 551 314 551 238 552 314 552 232 552 232 553 314 553 315 553 232 554 315 554 230 554 230 555 315 555 316 555 230 556 316 556 231 556 231 557 316 557 317 557 231 558 317 558 239 558 239 559 317 559 233 559 233 560 317 560 318 560 233 561 318 561 234 561 234 562 318 562 319 562 234 563 319 563 240 563 240 564 319 564 320 564 240 565 320 565 243 565 243 566 320 566 321 566 243 567 321 567 294 567 243 568 295 568 245 568 245 569 295 569 322 569 245 570 322 570 247 570 247 571 322 571 323 571 247 572 323 572 308 572 212 573 301 573 213 573 213 574 301 574 324 574 213 575 324 575 296 575 210 576 325 576 211 576 211 577 325 577 326 577 211 578 326 578 300 578 223 579 327 579 210 579 210 580 327 580 328 580 210 581 328 581 325 581 220 582 302 582 223 582 223 583 302 583 329 583 223 584 329 584 327 584 330 585 259 585 331 585 259 586 332 586 331 586 333 587 332 587 259 587 259 588 249 588 333 588 333 589 249 589 334 589 334 590 249 590 250 590 334 591 250 591 335 591 269 592 258 592 259 592 269 593 259 593 330 593 269 594 330 594 336 594 269 595 336 595 280 595 270 596 274 596 337 596 270 597 337 597 338 597 270 598 338 598 339 598 270 599 339 599 271 599 263 600 293 600 340 600 263 601 340 601 341 601 263 602 341 602 342 602 263 603 342 603 262 603 340 604 293 604 343 604 343 605 293 605 292 605 343 606 292 606 290 606 344 607 283 607 336 607 336 608 283 608 279 608 336 609 279 609 280 609 337 610 274 610 345 610 345 611 274 611 276 611 345 612 276 612 346 612 346 613 276 613 281 613 346 614 281 614 347 614 347 615 281 615 282 615 347 616 282 616 348 616 348 617 282 617 283 617 348 618 283 618 344 618 271 619 339 619 278 619 278 620 339 620 349 620 278 621 349 621 284 621 284 622 349 622 350 622 284 623 350 623 286 623 286 624 350 624 351 624 286 625 351 625 288 625 288 626 351 626 352 626 288 627 352 627 290 627 290 628 352 628 353 628 290 629 353 629 343 629 335 630 250 630 354 630 354 631 250 631 251 631 354 632 251 632 355 632 355 633 251 633 252 633 355 634 252 634 356 634 356 635 252 635 357 635 357 636 252 636 253 636 357 637 253 637 358 637 358 638 253 638 359 638 359 639 253 639 261 639 359 640 261 640 360 640 360 641 261 641 262 641 360 642 262 642 342 642 296 643 324 643 361 643 362 644 300 644 363 644 364 645 309 645 308 645 365 646 304 646 366 646 366 647 304 647 298 647 366 648 298 648 299 648 306 649 367 649 307 649 307 650 367 650 366 650 307 651 366 651 299 651 296 652 361 652 297 652 297 653 361 653 367 653 297 654 367 654 306 654 361 655 324 655 362 655 362 656 324 656 301 656 362 657 301 657 300 657 325 658 368 658 326 658 326 659 368 659 363 659 326 660 363 660 300 660 327 661 369 661 328 661 328 662 369 662 368 662 328 663 368 663 325 663 302 664 370 664 329 664 329 665 370 665 369 665 329 666 369 666 327 666 309 667 364 667 303 667 303 668 364 668 370 668 303 669 370 669 302 669 371 670 317 670 372 670 304 671 365 671 305 671 364 672 308 672 373 672 373 673 308 673 323 673 373 674 323 674 295 674 295 675 323 675 322 675 373 676 295 676 374 676 374 677 295 677 294 677 374 678 294 678 321 678 374 679 321 679 375 679 375 680 321 680 320 680 375 681 320 681 319 681 375 682 319 682 371 682 371 683 319 683 318 683 371 684 318 684 317 684 315 685 376 685 316 685 316 686 376 686 372 686 316 687 372 687 317 687 313 688 377 688 314 688 314 689 377 689 376 689 314 690 376 690 315 690 311 691 378 691 312 691 312 692 378 692 377 692 312 693 377 693 313 693 305 694 365 694 310 694 310 695 365 695 378 695 310 696 378 696 311 696 379 697 332 697 333 697 379 698 333 698 380 698 333 699 334 699 380 699 381 700 380 700 334 700 334 701 335 701 381 701 382 702 330 702 379 702 379 703 330 703 331 703 379 704 331 704 332 704 381 705 335 705 383 705 383 706 335 706 354 706 383 707 354 707 384 707 384 708 354 708 355 708 384 709 355 709 356 709 384 710 356 710 385 710 385 711 356 711 357 711 385 712 357 712 358 712 385 713 358 713 386 713 386 714 358 714 359 714 386 715 359 715 387 715 387 716 359 716 360 716 387 717 360 717 342 717 387 718 342 718 388 718 388 719 342 719 341 719 388 720 341 720 340 720 389 721 390 721 338 721 338 722 337 722 389 722 391 723 348 723 392 723 330 724 382 724 336 724 350 725 349 725 393 725 350 726 393 726 394 726 350 727 394 727 351 727 388 728 340 728 395 728 395 729 340 729 343 729 395 730 343 730 353 730 351 731 394 731 352 731 352 732 394 732 395 732 352 733 395 733 353 733 393 734 349 734 390 734 390 735 349 735 339 735 390 736 339 736 338 736 389 737 337 737 396 737 396 738 337 738 345 738 396 739 345 739 346 739 396 740 346 740 391 740 391 741 346 741 347 741 391 742 347 742 348 742 336 743 382 743 344 743 344 744 382 744 392 744 344 745 392 745 348 745 397 746 398 746 399 746 399 747 398 747 400 747 399 748 400 748 401 748 401 749 400 749 402 749 401 750 402 750 403 750 403 751 402 751 404 751 403 752 404 752 405 752 405 753 404 753 406 753 405 754 406 754 407 754 407 755 406 755 408 755 407 756 408 756 409 756 409 757 408 757 410 757 409 758 410 758 411 758 411 759 410 759 412 759 411 760 412 760 413 760 413 761 412 761 414 761 413 762 414 762 415 762 415 763 414 763 416 763 415 764 416 764 417 764 417 765 416 765 418 765 417 766 418 766 419 766 419 767 418 767 420 767 419 768 420 768 421 768 398 769 397 769 422 769 422 770 397 770 423 770 422 771 423 771 424 771 424 772 423 772 425 772 424 773 425 773 426 773 426 774 425 774 427 774 426 775 427 775 428 775 428 776 427 776 429 776 428 777 429 777 430 777 430 778 429 778 431 778 430 779 431 779 432 779 432 780 431 780 433 780 432 781 433 781 434 781 434 782 433 782 435 782 434 783 435 783 436 783 436 784 435 784 437 784 436 785 437 785 438 785 438 786 437 786 439 786 438 787 439 787 440 787 440 788 439 788 441 788 440 789 441 789 442 789 442 790 441 790 443 790 442 791 443 791 444 791 444 792 443 792 445 792 444 793 445 793 446 793 447 794 448 794 449 794 450 795 451 795 452 795 453 796 454 796 455 796 453 797 455 797 449 797 453 798 449 798 448 798 453 799 448 799 456 799 453 800 456 800 457 800 453 801 457 801 458 801 453 802 458 802 459 802 453 803 459 803 460 803 461 804 462 804 463 804 463 805 462 805 464 805 463 806 464 806 465 806 465 807 464 807 450 807 465 808 450 808 466 808 466 809 450 809 452 809 466 810 452 810 467 810 468 811 469 811 470 811 470 812 469 812 447 812 470 813 447 813 471 813 471 814 447 814 449 814 471 815 449 815 472 815 464 816 462 816 473 816 473 817 462 817 460 817 473 818 460 818 459 818 474 819 475 819 476 819 476 820 475 820 452 820 476 821 452 821 451 821 474 822 468 822 475 822 475 823 468 823 470 823 477 824 478 824 479 824 480 825 481 825 482 825 480 826 482 826 483 826 480 827 483 827 484 827 480 828 484 828 485 828 480 829 485 829 486 829 480 830 486 830 487 830 480 831 487 831 488 831 480 832 488 832 489 832 480 833 489 833 490 833 491 834 492 834 493 834 491 835 493 835 494 835 491 836 494 836 495 836 491 837 495 837 496 837 496 838 497 838 491 838 491 839 497 839 478 839 497 840 498 840 478 840 478 841 498 841 479 841 499 842 500 842 501 842 501 843 500 843 502 843 501 844 502 844 503 844 503 845 502 845 487 845 503 846 487 846 486 846 504 847 505 847 506 847 506 848 505 848 477 848 506 849 477 849 479 849 506 850 500 850 504 850 504 851 500 851 499 851 492 852 482 852 493 852 493 853 482 853 481 853 365 854 507 854 378 854 508 855 509 855 364 855 508 856 364 856 373 856 508 857 373 857 374 857 508 858 374 858 375 858 508 859 375 859 371 859 508 860 371 860 372 860 510 861 508 861 372 861 510 862 372 862 376 862 510 863 376 863 377 863 510 864 377 864 378 864 510 865 378 865 507 865 511 866 362 866 363 866 511 867 363 867 368 867 511 868 368 868 369 868 511 869 369 869 370 869 511 870 370 870 364 870 511 871 364 871 512 871 513 872 514 872 366 872 513 873 366 873 367 873 513 874 367 874 361 874 513 875 361 875 362 875 513 876 362 876 511 876 515 877 512 877 516 877 516 878 512 878 364 878 516 879 364 879 509 879 366 880 514 880 365 880 365 881 514 881 517 881 365 882 517 882 507 882 507 883 517 883 518 883 382 884 519 884 392 884 520 885 521 885 388 885 520 886 388 886 395 886 520 887 395 887 394 887 520 888 394 888 393 888 520 889 393 889 390 889 520 890 390 890 389 890 522 891 520 891 389 891 522 892 389 892 396 892 522 893 396 893 391 893 522 894 391 894 392 894 522 895 392 895 519 895 523 896 383 896 384 896 523 897 384 897 385 897 523 898 385 898 386 898 523 899 386 899 387 899 523 900 387 900 388 900 523 901 388 901 524 901 525 902 526 902 379 902 525 903 379 903 380 903 525 904 380 904 381 904 525 905 381 905 383 905 525 906 383 906 523 906 527 907 524 907 528 907 528 908 524 908 388 908 528 909 388 909 521 909 379 910 526 910 382 910 382 911 526 911 529 911 382 912 529 912 519 912 519 913 529 913 530 913 531 914 532 914 533 914 531 915 533 915 534 915 531 916 534 916 535 916 531 917 535 917 536 917 531 918 536 918 537 918 531 919 537 919 538 919 531 920 538 920 539 920 531 921 539 921 532 921 540 922 541 922 542 922 542 923 541 923 543 923 542 924 543 924 544 924 544 925 543 925 545 925 544 926 545 926 546 926 541 927 540 927 547 927 547 928 540 928 548 928 547 929 548 929 549 929 549 930 548 930 550 930 549 931 550 931 551 931 551 932 550 932 552 932 551 933 552 933 553 933 553 934 552 934 554 934 553 935 554 935 555 935 556 936 557 936 558 936 558 937 557 937 559 937 558 938 559 938 560 938 560 939 559 939 555 939 560 940 555 940 554 940 557 941 556 941 561 941 561 942 556 942 562 942 561 943 562 943 563 943 563 944 562 944 564 944 563 945 564 945 565 945 565 946 564 946 566 946 565 947 566 947 567 947 567 948 566 948 546 948 567 949 546 949 545 949 450 950 568 950 451 950 451 951 568 951 569 951 451 952 569 952 476 952 476 953 569 953 570 953 476 954 570 954 474 954 568 955 450 955 571 955 571 956 450 956 464 956 571 957 464 957 572 957 572 958 464 958 473 958 572 959 473 959 573 959 573 960 473 960 459 960 573 961 459 961 574 961 574 962 459 962 458 962 574 963 458 963 575 963 448 964 576 964 456 964 456 965 576 965 577 965 456 966 577 966 457 966 457 967 577 967 575 967 457 968 575 968 458 968 576 969 448 969 578 969 578 970 448 970 447 970 578 971 447 971 579 971 579 972 447 972 469 972 579 973 469 973 580 973 580 974 469 974 468 974 580 975 468 975 581 975 581 976 468 976 474 976 581 977 474 977 570 977 582 978 399 978 583 978 583 979 399 979 401 979 583 980 401 980 584 980 584 981 401 981 403 981 584 982 403 982 585 982 585 983 403 983 405 983 585 984 405 984 586 984 586 985 405 985 407 985 586 986 407 986 587 986 587 987 407 987 409 987 587 988 409 988 588 988 588 989 409 989 411 989 588 990 411 990 589 990 589 991 411 991 413 991 589 992 413 992 590 992 590 993 413 993 415 993 590 994 415 994 591 994 591 995 415 995 417 995 591 996 417 996 592 996 592 997 417 997 419 997 592 998 419 998 593 998 593 999 419 999 421 999 593 1000 421 1000 594 1000 594 1001 421 1001 420 1001 594 1002 420 1002 595 1002 595 1003 420 1003 418 1003 595 1004 418 1004 596 1004 596 1005 418 1005 416 1005 596 1006 416 1006 597 1006 597 1007 416 1007 414 1007 597 1008 414 1008 598 1008 598 1009 414 1009 412 1009 598 1010 412 1010 599 1010 599 1011 412 1011 410 1011 599 1012 410 1012 600 1012 600 1013 410 1013 408 1013 600 1014 408 1014 601 1014 601 1015 408 1015 406 1015 601 1016 406 1016 602 1016 602 1017 406 1017 404 1017 602 1018 404 1018 603 1018 603 1019 404 1019 402 1019 603 1020 402 1020 604 1020 604 1021 402 1021 400 1021 604 1022 400 1022 605 1022 605 1023 400 1023 398 1023 606 1024 424 1024 607 1024 607 1025 424 1025 426 1025 607 1026 426 1026 608 1026 426 1027 428 1027 608 1027 609 1028 608 1028 428 1028 428 1029 430 1029 609 1029 610 1030 609 1030 430 1030 430 1031 432 1031 610 1031 611 1032 436 1032 612 1032 612 1033 436 1033 438 1033 612 1034 438 1034 613 1034 613 1035 438 1035 440 1035 613 1036 440 1036 614 1036 440 1037 442 1037 614 1037 615 1038 614 1038 442 1038 442 1039 444 1039 615 1039 616 1040 615 1040 444 1040 444 1041 446 1041 616 1041 617 1042 443 1042 618 1042 618 1043 443 1043 441 1043 618 1044 441 1044 619 1044 619 1045 441 1045 439 1045 619 1046 439 1046 620 1046 439 1047 437 1047 620 1047 621 1048 620 1048 437 1048 437 1049 435 1049 621 1049 622 1050 429 1050 623 1050 623 1051 429 1051 427 1051 623 1052 427 1052 624 1052 624 1053 427 1053 425 1053 624 1054 425 1054 625 1054 425 1055 423 1055 625 1055 626 1056 625 1056 423 1056 605 1057 398 1057 606 1057 606 1058 398 1058 422 1058 606 1059 422 1059 424 1059 610 1060 432 1060 611 1060 611 1061 432 1061 434 1061 611 1062 434 1062 436 1062 616 1063 446 1063 617 1063 617 1064 446 1064 445 1064 617 1065 445 1065 443 1065 621 1066 435 1066 627 1066 627 1067 435 1067 433 1067 627 1068 433 1068 622 1068 622 1069 433 1069 431 1069 622 1070 431 1070 429 1070 399 1071 582 1071 397 1071 397 1072 582 1072 626 1072 397 1073 626 1073 423 1073 491 1074 628 1074 492 1074 492 1075 628 1075 629 1075 492 1076 629 1076 482 1076 482 1077 629 1077 630 1077 482 1078 630 1078 483 1078 628 1079 491 1079 631 1079 631 1080 491 1080 478 1080 631 1081 478 1081 632 1081 632 1082 478 1082 477 1082 632 1083 477 1083 633 1083 633 1084 477 1084 505 1084 633 1085 505 1085 634 1085 634 1086 505 1086 504 1086 634 1087 504 1087 635 1087 503 1088 636 1088 501 1088 501 1089 636 1089 637 1089 501 1090 637 1090 499 1090 499 1091 637 1091 635 1091 499 1092 635 1092 504 1092 636 1093 503 1093 638 1093 638 1094 503 1094 486 1094 638 1095 486 1095 639 1095 639 1096 486 1096 485 1096 639 1097 485 1097 640 1097 640 1098 485 1098 484 1098 640 1099 484 1099 641 1099 641 1100 484 1100 483 1100 641 1101 483 1101 630 1101 480 1102 642 1102 481 1102 481 1103 642 1103 643 1103 481 1104 643 1104 493 1104 493 1105 643 1105 644 1105 493 1106 644 1106 494 1106 494 1107 644 1107 645 1107 494 1108 645 1108 495 1108 495 1109 645 1109 646 1109 495 1110 646 1110 496 1110 496 1111 646 1111 647 1111 496 1112 647 1112 497 1112 497 1113 647 1113 648 1113 466 1114 649 1114 465 1114 465 1115 649 1115 650 1115 465 1116 650 1116 463 1116 463 1117 650 1117 651 1117 463 1118 651 1118 461 1118 461 1119 651 1119 652 1119 461 1120 652 1120 462 1120 462 1121 652 1121 653 1121 462 1122 653 1122 460 1122 460 1123 653 1123 654 1123 460 1124 654 1124 453 1124 453 1125 654 1125 655 1125 656 1126 657 1126 658 1126 658 1127 657 1127 659 1127 658 1128 659 1128 660 1128 660 1129 659 1129 661 1129 660 1130 661 1130 662 1130 657 1131 656 1131 663 1131 663 1132 656 1132 664 1132 663 1133 664 1133 665 1133 665 1134 664 1134 666 1134 665 1135 666 1135 667 1135 667 1136 666 1136 668 1136 667 1137 668 1137 669 1137 669 1138 668 1138 670 1138 669 1139 670 1139 671 1139 672 1140 673 1140 674 1140 674 1141 673 1141 675 1141 674 1142 675 1142 676 1142 676 1143 675 1143 671 1143 676 1144 671 1144 670 1144 673 1145 672 1145 677 1145 677 1146 672 1146 678 1146 677 1147 678 1147 679 1147 679 1148 678 1148 680 1148 679 1149 680 1149 681 1149 681 1150 680 1150 682 1150 681 1151 682 1151 683 1151 683 1152 682 1152 662 1152 683 1153 662 1153 661 1153 684 1154 685 1154 686 1154 686 1155 685 1155 687 1155 686 1156 687 1156 688 1156 688 1157 687 1157 689 1157 688 1158 689 1158 690 1158 685 1159 684 1159 691 1159 691 1160 684 1160 692 1160 691 1161 692 1161 693 1161 693 1162 692 1162 694 1162 693 1163 694 1163 695 1163 695 1164 694 1164 696 1164 695 1165 696 1165 697 1165 698 1166 699 1166 689 1166 689 1167 699 1167 690 1167 700 1168 701 1168 699 1168 700 1169 699 1169 454 1169 700 1170 454 1170 453 1170 700 1171 453 1171 655 1171 698 1172 702 1172 699 1172 699 1173 702 1173 454 1173 454 1174 702 1174 455 1174 455 1175 702 1175 703 1175 471 1176 704 1176 470 1176 470 1177 704 1177 705 1177 470 1178 705 1178 475 1178 475 1179 705 1179 706 1179 475 1180 706 1180 452 1180 704 1181 471 1181 707 1181 707 1182 471 1182 472 1182 707 1183 472 1183 708 1183 708 1184 472 1184 449 1184 708 1185 449 1185 709 1185 709 1186 449 1186 455 1186 709 1187 455 1187 703 1187 710 1188 467 1188 706 1188 706 1189 467 1189 452 1189 498 1190 497 1190 648 1190 498 1191 648 1191 467 1191 498 1192 467 1192 710 1192 498 1193 710 1193 711 1193 649 1194 466 1194 648 1194 648 1195 466 1195 467 1195 498 1196 711 1196 479 1196 479 1197 711 1197 712 1197 502 1198 713 1198 487 1198 487 1199 713 1199 714 1199 487 1200 714 1200 488 1200 488 1201 714 1201 715 1201 488 1202 715 1202 489 1202 713 1203 502 1203 716 1203 716 1204 502 1204 500 1204 716 1205 500 1205 717 1205 717 1206 500 1206 506 1206 717 1207 506 1207 718 1207 718 1208 506 1208 479 1208 718 1209 479 1209 712 1209 489 1210 715 1210 490 1210 490 1211 715 1211 719 1211 720 1212 721 1212 722 1212 720 1213 722 1213 490 1213 720 1214 490 1214 719 1214 720 1215 719 1215 723 1215 642 1216 480 1216 722 1216 722 1217 480 1217 490 1217 724 1218 725 1218 723 1218 723 1219 725 1219 720 1219 726 1220 727 1220 728 1220 728 1221 727 1221 729 1221 728 1222 729 1222 730 1222 730 1223 729 1223 731 1223 730 1224 731 1224 732 1224 727 1225 726 1225 733 1225 733 1226 726 1226 734 1226 733 1227 734 1227 735 1227 735 1228 734 1228 736 1228 735 1229 736 1229 737 1229 737 1230 736 1230 725 1230 737 1231 725 1231 724 1231 738 1232 739 1232 511 1232 511 1233 739 1233 513 1233 513 1234 739 1234 514 1234 514 1235 739 1235 740 1235 514 1236 740 1236 517 1236 517 1237 740 1237 741 1237 741 1238 742 1238 517 1238 517 1239 742 1239 518 1239 518 1240 742 1240 507 1240 507 1241 742 1241 743 1241 507 1242 743 1242 510 1242 510 1243 743 1243 744 1243 744 1244 745 1244 510 1244 510 1245 745 1245 508 1245 508 1246 745 1246 509 1246 509 1247 745 1247 746 1247 509 1248 746 1248 516 1248 516 1249 746 1249 747 1249 747 1250 748 1250 516 1250 516 1251 748 1251 515 1251 515 1252 748 1252 512 1252 512 1253 748 1253 749 1253 512 1254 749 1254 511 1254 511 1255 749 1255 738 1255 534 1256 750 1256 535 1256 535 1257 750 1257 751 1257 535 1258 751 1258 536 1258 750 1259 534 1259 752 1259 752 1260 534 1260 533 1260 752 1261 533 1261 753 1261 753 1262 533 1262 532 1262 753 1263 532 1263 754 1263 538 1264 755 1264 539 1264 539 1265 755 1265 754 1265 539 1266 754 1266 532 1266 755 1267 538 1267 756 1267 756 1268 538 1268 537 1268 756 1269 537 1269 757 1269 757 1270 537 1270 536 1270 757 1271 536 1271 751 1271 732 1272 731 1272 758 1272 758 1273 731 1273 759 1273 552 1274 728 1274 554 1274 728 1275 560 1275 554 1275 556 1276 730 1276 732 1276 726 1277 728 1277 552 1277 726 1278 552 1278 550 1278 726 1279 550 1279 548 1279 720 1280 540 1280 542 1280 720 1281 542 1281 544 1281 720 1282 544 1282 546 1282 720 1283 546 1283 721 1283 725 1284 736 1284 720 1284 720 1285 736 1285 734 1285 720 1286 734 1286 540 1286 540 1287 734 1287 726 1287 540 1288 726 1288 548 1288 760 1289 562 1289 761 1289 761 1290 562 1290 556 1290 761 1291 556 1291 762 1291 762 1292 556 1292 732 1292 762 1293 732 1293 758 1293 566 1294 564 1294 763 1294 763 1295 564 1295 562 1295 763 1296 562 1296 764 1296 764 1297 562 1297 760 1297 764 1298 760 1298 765 1298 556 1299 558 1299 730 1299 730 1300 558 1300 560 1300 730 1301 560 1301 728 1301 566 1302 763 1302 546 1302 546 1303 763 1303 721 1303 762 1304 766 1304 761 1304 761 1305 766 1305 767 1305 761 1306 767 1306 760 1306 760 1307 767 1307 768 1307 760 1308 768 1308 765 1308 765 1309 768 1309 769 1309 765 1310 769 1310 764 1310 764 1311 769 1311 770 1311 764 1312 770 1312 763 1312 763 1313 770 1313 771 1313 763 1314 771 1314 721 1314 721 1315 771 1315 722 1315 604 1316 547 1316 603 1316 595 1317 559 1317 594 1317 655 1318 654 1318 574 1318 655 1319 574 1319 575 1319 655 1320 575 1320 577 1320 655 1321 577 1321 576 1321 655 1322 576 1322 578 1322 655 1323 578 1323 625 1323 655 1324 625 1324 626 1324 655 1325 626 1325 582 1325 655 1326 582 1326 583 1326 655 1327 583 1327 665 1327 655 1328 665 1328 667 1328 655 1329 667 1329 669 1329 655 1330 669 1330 671 1330 655 1331 671 1331 700 1331 642 1332 722 1332 545 1332 642 1333 545 1333 543 1333 642 1334 543 1334 541 1334 642 1335 541 1335 547 1335 642 1336 547 1336 604 1336 642 1337 604 1337 605 1337 642 1338 605 1338 606 1338 642 1339 606 1339 607 1339 642 1340 607 1340 639 1340 642 1341 639 1341 640 1341 642 1342 640 1342 641 1342 642 1343 641 1343 630 1343 642 1344 630 1344 629 1344 642 1345 629 1345 643 1345 638 1346 639 1346 607 1346 638 1347 607 1347 608 1347 638 1348 608 1348 609 1348 638 1349 609 1349 610 1349 638 1350 610 1350 611 1350 638 1351 611 1351 612 1351 638 1352 612 1352 613 1352 638 1353 613 1353 636 1353 549 1354 551 1354 597 1354 549 1355 597 1355 598 1355 549 1356 598 1356 599 1356 549 1357 599 1357 600 1357 549 1358 600 1358 601 1358 549 1359 601 1359 602 1359 549 1360 602 1360 603 1360 549 1361 603 1361 547 1361 572 1362 573 1362 653 1362 572 1363 653 1363 652 1363 572 1364 652 1364 651 1364 572 1365 651 1365 650 1365 572 1366 650 1366 649 1366 572 1367 649 1367 571 1367 579 1368 580 1368 620 1368 579 1369 620 1369 621 1369 579 1370 621 1370 627 1370 579 1371 627 1371 622 1371 579 1372 622 1372 623 1372 579 1373 623 1373 624 1373 579 1374 624 1374 625 1374 579 1375 625 1375 578 1375 663 1376 665 1376 583 1376 663 1377 583 1377 584 1377 663 1378 584 1378 585 1378 663 1379 585 1379 586 1379 663 1380 586 1380 587 1380 663 1381 587 1381 588 1381 663 1382 588 1382 589 1382 663 1383 589 1383 590 1383 663 1384 590 1384 657 1384 557 1385 561 1385 679 1385 557 1386 679 1386 681 1386 557 1387 681 1387 593 1387 557 1388 593 1388 594 1388 557 1389 594 1389 559 1389 645 1390 644 1390 646 1390 646 1391 644 1391 631 1391 646 1392 631 1392 647 1392 647 1393 631 1393 632 1393 647 1394 632 1394 648 1394 648 1395 632 1395 571 1395 648 1396 571 1396 649 1396 563 1397 770 1397 767 1397 767 1398 770 1398 769 1398 767 1399 769 1399 768 1399 772 1400 677 1400 773 1400 773 1401 677 1401 679 1401 773 1402 679 1402 774 1402 774 1403 679 1403 561 1403 774 1404 561 1404 766 1404 766 1405 561 1405 563 1405 766 1406 563 1406 767 1406 675 1407 673 1407 775 1407 775 1408 673 1408 677 1408 775 1409 677 1409 776 1409 776 1410 677 1410 772 1410 776 1411 772 1411 777 1411 567 1412 771 1412 565 1412 565 1413 771 1413 770 1413 565 1414 770 1414 563 1414 722 1415 771 1415 545 1415 545 1416 771 1416 567 1416 631 1417 644 1417 628 1417 628 1418 644 1418 643 1418 628 1419 643 1419 629 1419 551 1420 553 1420 597 1420 597 1421 553 1421 555 1421 597 1422 555 1422 596 1422 596 1423 555 1423 559 1423 596 1424 559 1424 595 1424 657 1425 590 1425 659 1425 659 1426 590 1426 591 1426 659 1427 591 1427 661 1427 661 1428 591 1428 592 1428 661 1429 592 1429 683 1429 683 1430 592 1430 593 1430 683 1431 593 1431 681 1431 570 1432 619 1432 581 1432 581 1433 619 1433 620 1433 581 1434 620 1434 580 1434 637 1435 614 1435 635 1435 635 1436 614 1436 615 1436 635 1437 615 1437 634 1437 634 1438 615 1438 616 1438 634 1439 616 1439 633 1439 633 1440 616 1440 617 1440 633 1441 617 1441 568 1441 568 1442 617 1442 618 1442 568 1443 618 1443 569 1443 569 1444 618 1444 619 1444 569 1445 619 1445 570 1445 637 1446 636 1446 614 1446 614 1447 636 1447 613 1447 632 1448 633 1448 571 1448 571 1449 633 1449 568 1449 675 1450 775 1450 671 1450 671 1451 775 1451 700 1451 573 1452 574 1452 653 1452 653 1453 574 1453 654 1453 692 1454 660 1454 662 1454 778 1455 696 1455 779 1455 699 1456 688 1456 690 1456 699 1457 701 1457 670 1457 699 1458 670 1458 668 1458 699 1459 668 1459 666 1459 699 1460 666 1460 664 1460 686 1461 688 1461 684 1461 684 1462 688 1462 656 1462 688 1463 699 1463 656 1463 656 1464 699 1464 664 1464 662 1465 682 1465 692 1465 692 1466 682 1466 680 1466 692 1467 680 1467 694 1467 694 1468 680 1468 678 1468 694 1469 678 1469 696 1469 696 1470 678 1470 672 1470 696 1471 672 1471 779 1471 779 1472 672 1472 780 1472 779 1473 780 1473 781 1473 781 1474 780 1474 782 1474 781 1475 782 1475 783 1475 676 1476 784 1476 674 1476 674 1477 784 1477 780 1477 674 1478 780 1478 672 1478 701 1479 784 1479 670 1479 670 1480 784 1480 676 1480 656 1481 658 1481 684 1481 684 1482 658 1482 660 1482 684 1483 660 1483 692 1483 698 1484 719 1484 715 1484 698 1485 715 1485 703 1485 698 1486 703 1486 702 1486 719 1487 698 1487 689 1487 719 1488 689 1488 724 1488 719 1489 724 1489 723 1489 785 1490 759 1490 697 1490 697 1491 759 1491 731 1491 697 1492 731 1492 695 1492 695 1493 731 1493 729 1493 695 1494 729 1494 693 1494 693 1495 729 1495 727 1495 693 1496 727 1496 691 1496 691 1497 727 1497 733 1497 691 1498 733 1498 685 1498 685 1499 733 1499 735 1499 685 1500 735 1500 687 1500 687 1501 735 1501 737 1501 687 1502 737 1502 689 1502 689 1503 737 1503 724 1503 703 1504 715 1504 709 1504 709 1505 715 1505 714 1505 709 1506 714 1506 708 1506 708 1507 714 1507 713 1507 708 1508 713 1508 707 1508 707 1509 713 1509 716 1509 707 1510 716 1510 704 1510 704 1511 716 1511 717 1511 704 1512 717 1512 705 1512 705 1513 717 1513 718 1513 705 1514 718 1514 706 1514 706 1515 718 1515 712 1515 706 1516 712 1516 710 1516 710 1517 712 1517 711 1517 786 1518 752 1518 787 1518 786 1519 788 1519 752 1519 742 1520 789 1520 743 1520 739 1521 738 1521 752 1521 739 1522 752 1522 788 1522 739 1523 788 1523 790 1523 739 1524 790 1524 740 1524 791 1525 789 1525 742 1525 791 1526 742 1526 741 1526 791 1527 741 1527 740 1527 791 1528 740 1528 790 1528 792 1529 787 1529 752 1529 792 1530 752 1530 753 1530 792 1531 753 1531 754 1531 766 1532 762 1532 758 1532 766 1533 758 1533 778 1533 766 1534 778 1534 779 1534 766 1535 779 1535 774 1535 785 1536 778 1536 793 1536 785 1537 793 1537 794 1537 785 1538 794 1538 795 1538 785 1539 795 1539 749 1539 785 1540 749 1540 748 1540 785 1541 748 1541 747 1541 785 1542 747 1542 746 1542 785 1543 746 1543 745 1543 785 1544 745 1544 744 1544 785 1545 744 1545 759 1545 759 1546 744 1546 796 1546 759 1547 796 1547 797 1547 759 1548 797 1548 798 1548 759 1549 798 1549 799 1549 759 1550 799 1550 792 1550 759 1551 792 1551 754 1551 759 1552 754 1552 755 1552 759 1553 755 1553 756 1553 758 1554 759 1554 756 1554 758 1555 756 1555 757 1555 758 1556 757 1556 778 1556 778 1557 757 1557 800 1557 778 1558 800 1558 801 1558 778 1559 801 1559 802 1559 778 1560 802 1560 803 1560 778 1561 803 1561 793 1561 744 1562 743 1562 789 1562 744 1563 789 1563 804 1563 744 1564 804 1564 796 1564 800 1565 757 1565 751 1565 800 1566 751 1566 750 1566 800 1567 750 1567 752 1567 800 1568 752 1568 805 1568 738 1569 749 1569 752 1569 752 1570 749 1570 795 1570 752 1571 795 1571 805 1571 806 1572 805 1572 807 1572 807 1573 805 1573 795 1573 807 1574 795 1574 808 1574 805 1575 806 1575 800 1575 800 1576 806 1576 809 1576 800 1577 809 1577 801 1577 801 1578 809 1578 810 1578 801 1579 810 1579 802 1579 811 1580 803 1580 812 1580 812 1581 803 1581 802 1581 812 1582 802 1582 810 1582 803 1583 811 1583 793 1583 793 1584 811 1584 813 1584 793 1585 813 1585 794 1585 794 1586 813 1586 808 1586 794 1587 808 1587 795 1587 814 1588 810 1588 809 1588 814 1589 809 1589 806 1589 814 1590 806 1590 807 1590 814 1591 807 1591 808 1591 814 1592 808 1592 813 1592 814 1593 813 1593 811 1593 814 1594 811 1594 812 1594 814 1595 812 1595 810 1595 701 1596 700 1596 784 1596 784 1597 700 1597 775 1597 784 1598 775 1598 780 1598 780 1599 775 1599 776 1599 780 1600 776 1600 782 1600 782 1601 776 1601 777 1601 782 1602 777 1602 783 1602 783 1603 777 1603 772 1603 783 1604 772 1604 781 1604 781 1605 772 1605 773 1605 781 1606 773 1606 779 1606 779 1607 773 1607 774 1607 697 1608 696 1608 785 1608 785 1609 696 1609 778 1609 792 1610 799 1610 529 1610 529 1611 799 1611 530 1611 525 1612 786 1612 526 1612 526 1613 786 1613 787 1613 526 1614 787 1614 529 1614 529 1615 787 1615 792 1615 788 1616 786 1616 523 1616 523 1617 786 1617 525 1617 527 1618 791 1618 524 1618 524 1619 791 1619 790 1619 524 1620 790 1620 523 1620 523 1621 790 1621 788 1621 789 1622 791 1622 528 1622 528 1623 791 1623 527 1623 520 1624 796 1624 521 1624 521 1625 796 1625 804 1625 521 1626 804 1626 528 1626 528 1627 804 1627 789 1627 797 1628 796 1628 522 1628 522 1629 796 1629 520 1629 530 1630 799 1630 519 1630 519 1631 799 1631 798 1631 519 1632 798 1632 522 1632 522 1633 798 1633 797 1633 208 1634 209 1634 277 1634 277 1635 209 1635 255 1635 275 1636 273 1636 254 1636 254 1637 273 1637 255 1637 255 1638 273 1638 272 1638 255 1639 272 1639 277 1639 202 1640 201 1640 254 1640 254 1641 201 1641 275 1641</p>
                </triangles>
            </mesh>
        </geometry>
    </library_geometries>
    <library_visual_scenes>
        <visual_scene id="VisualSceneNode" name="VisualScene">
            <node id="node" name="node">
                <instance_geometry url="#shape0-lib"/>
            </node>
        </visual_scene>
    </library_visual_scenes>
    <scene>
        <instance_visual_scene url="#VisualSceneNode"/>
    </scene>
</COLLADA>
