<?xml version="1.0" encoding="UTF-8"?>
<COLLADA xmlns="http://www.collada.org/2005/11/COLLADASchema" version="1.4.1">
    <asset>
        <contributor>
            <author>VCGLab</author>
            <authoring_tool>VCGLib | MeshLab</authoring_tool>
        </contributor>
        <created>Fri May 8 15:35:31 2026 GMT</created>
        <modified>Fri May 8 15:35:31 2026 GMT</modified>
        <up_axis>Y_UP</up_axis>
    </asset>
    <library_geometries>
        <geometry id="shape0-lib" name="shape0">
            <mesh>
                <source id="shape0-lib-positions" name="position">
                    <float_array id="shape0-lib-positions-array" count="2421">-0.025 0.12285 -0.2005 -0.0284824 0.122157 -0.2005 -0.0215176 0.122157 -0.2005 -0.025 0.10465 -0.2005 -0.0215176 0.105343 -0.2005 -0.0284824 0.105343 -0.2005 -0.0185653 0.107315 -0.2005 -0.0314347 0.107315 -0.2005 -0.0165927 0.110268 -0.2005 -0.0334073 0.110268 -0.2005 -0.0159 0.11375 -0.2005 -0.0341 0.11375 -0.2005 -0.0165927 0.117232 -0.2005 -0.0334073 0.117232 -0.2005 -0.0185653 0.120185 -0.2005 -0.0314347 0.120185 -0.2005 -0.025 0.12285 -0.1915 -0.0215176 0.122157 -0.1915 -0.0185653 0.120185 -0.1915 -0.0165927 0.117232 -0.1915 -0.0159 0.11375 -0.1915 -0.0284824 0.122157 -0.1915 -0.0314347 0.120185 -0.1915 -0.0334073 0.117232 -0.1915 -0.0341 0.11375 -0.1915 -0.025 0.10465 -0.1915 -0.0284824 0.105343 -0.1915 -0.0314347 0.107315 -0.1915 -0.0334073 0.110268 -0.1915 -0.0215176 0.105343 -0.1915 -0.0185653 0.107315 -0.1915 -0.0165927 0.110268 -0.1915 -0.030375 0.10444 -0.1915 -0.0268667 0.103163 -0.1915 -0.0231333 0.103163 -0.1915 -0.019625 0.12306 -0.1915 -0.0231333 0.124337 -0.1915 -0.0268667 0.124337 -0.1915 -0.0148983 0.110073 -0.1915 -0.016765 0.10684 -0.1915 -0.019625 0.10444 -0.1915 -0.01425 0.11375 -0.1915 -0.0148983 0.117427 -0.1915 -0.016765 0.12066 -0.1915 -0.0351017 0.117427 -0.1915 -0.033235 0.12066 -0.1915 -0.030375 0.12306 -0.1915 -0.03575 0.11375 -0.1915 -0.0351017 0.110073 -0.1915 -0.033235 0.10684 -0.1915 0.025 0.12335 -0.1999 0.0213262 0.122619 -0.1999 0.0286738 0.122619 -0.1999 0.025 0.10415 -0.1999 0.0286738 0.104881 -0.1999 0.0213262 0.104881 -0.1999 0.0317882 0.106962 -0.1999 0.0182118 0.106962 -0.1999 0.0338692 0.110076 -0.1999 0.0161308 0.110076 -0.1999 0.0346 0.11375 -0.1999 0.0154 0.11375 -0.1999 0.0338692 0.117424 -0.1999 0.0161308 0.117424 -0.1999 0.0317882 0.120538 -0.1999 0.0182118 0.120538 -0.1999 -0.01425 0.11375 -0.197 -0.0148983 0.110073 -0.197 -0.016765 0.10684 -0.197 -0.019625 0.10444 -0.197 -0.0231333 0.103163 -0.197 -0.0268667 0.103163 -0.197 -0.030375 0.10444 -0.197 -0.033235 0.10684 -0.197 -0.0351017 0.110073 -0.197 -0.03575 0.11375 -0.197 -0.0351017 0.117427 -0.197 -0.033235 0.12066 -0.197 -0.030375 0.12306 -0.197 -0.0268667 0.124337 -0.197 -0.0231333 0.124337 -0.197 -0.019625 0.12306 -0.197 -0.016765 0.12066 -0.197 -0.0148983 0.117427 -0.197 0.025 0.12335 -0.1919 0.0286738 0.122619 -0.1919 0.0317882 0.120538 -0.1919 0.0338692 0.117424 -0.1919 0.0346 0.11375 -0.1919 0.0213262 0.122619 -0.1919 0.0182118 0.120538 -0.1919 0.0161308 0.117424 -0.1919 0.0154 0.11375 -0.1919 0.025 0.10415 -0.1919 0.0213262 0.104881 -0.1919 0.0182118 0.106962 -0.1919 0.0161308 0.110076 -0.1919 0.0286738 0.104881 -0.1919 0.0317882 0.106962 -0.1919 0.0338692 0.110076 -0.1919 -0.01935 0.123536 -0.197 -0.0230378 0.124878 -0.197 -0.0163437 0.121013 -0.197 -0.0143815 0.117615 -0.197 -0.0137 0.11375 -0.197 -0.0143815 0.109885 -0.197 -0.0163437 0.106486 -0.197 -0.01935 0.103964 -0.197 -0.0230378 0.102622 -0.197 -0.0269622 0.102622 -0.197 -0.03065 0.103964 -0.197 -0.0336563 0.106486 -0.197 -0.0356185 0.109885 -0.197 -0.0363 0.11375 -0.197 -0.0356185 0.117615 -0.197 -0.0336563 0.121013 -0.197 -0.03065 0.123536 -0.197 -0.0269622 0.124878 -0.197 0.019325 0.103921 -0.1919 0.0230291 0.102572 -0.1919 0.0269709 0.102572 -0.1919 0.030675 0.123579 -0.1919 0.0269709 0.124928 -0.1919 0.0230291 0.124928 -0.1919 0.0356655 0.109868 -0.1919 0.0336946 0.106454 -0.1919 0.030675 0.103921 -0.1919 0.03635 0.11375 -0.1919 0.0356655 0.117632 -0.1919 0.0336946 0.121046 -0.1919 0.0143345 0.117632 -0.1919 0.0163054 0.121046 -0.1919 0.019325 0.123579 -0.1919 0.01365 0.11375 -0.1919 0.0143345 0.109868 -0.1919 0.0163054 0.106454 -0.1919 -0.0150231 0.108444 -0.2081 -0.0175375 0.105265 -0.2081 -0.0210122 0.103177 -0.2081 -0.025 0.10245 -0.2081 -0.0284919 0.103003 -0.2081 -0.031642 0.104608 -0.2081 -0.0341419 0.107108 -0.2081 -0.0137 0.11375 -0.2081 -0.0137926 0.112306 -0.2081 -0.0363 0.11375 -0.2081 -0.0357469 0.110258 -0.2081 -0.0356185 0.117615 -0.2081 -0.0336563 0.121013 -0.2081 -0.03065 0.123536 -0.2081 -0.0269622 0.124878 -0.2081 -0.0230378 0.124878 -0.2081 -0.01935 0.123536 -0.2081 -0.0163437 0.121013 -0.2081 -0.0143815 0.117615 -0.2081 -0.0187712 0.124298 -0.243489 -0.0195755 0.125057 -0.243899 -0.0187712 0.124298 -0.2081 -0.0196712 0.125212 -0.2081 -0.02 0.126451 -0.244087 -0.02 0.126451 -0.2081 -0.02 0.1265 -0.2081 -0.02 0.1265 -0.244087 -0.0232932 0.1265 -0.244986 -0.03 0.1265 -0.2081 -0.0267068 0.1265 -0.244986 -0.03 0.1265 -0.244087 -0.03 0.126451 -0.244087 -0.03 0.126451 -0.2081 -0.0301145 0.125703 -0.244038 -0.0306629 0.124756 -0.243785 -0.0303288 0.125212 -0.2081 -0.0312288 0.124298 -0.243489 -0.0312288 0.124298 -0.2081 0.0350083 0.108397 -0.2081 0.0324819 0.105215 -0.2081 0.028997 0.103127 -0.2081 0.025 0.1024 -0.2081 0.0214927 0.102955 -0.2081 0.0183286 0.104568 -0.2081 0.0158177 0.107079 -0.2081 0.03635 0.11375 -0.2081 0.0362523 0.112264 -0.2081 0.01365 0.11375 -0.2081 0.0142055 0.110243 -0.2081 0.0143345 0.117632 -0.2081 0.0163054 0.121046 -0.2081 0.019325 0.123579 -0.2081 0.0230291 0.124928 -0.2081 0.0269709 0.124928 -0.2081 0.030675 0.123579 -0.2081 0.0336946 0.121046 -0.2081 0.0356655 0.117632 -0.2081 0.0312288 0.124298 -0.243489 0.0304245 0.125057 -0.243899 0.0312288 0.124298 -0.2081 0.0303288 0.125212 -0.2081 0.03 0.126451 -0.244087 0.03 0.126451 -0.2081 0.0198855 0.125703 -0.244038 0.0193371 0.124756 -0.243785 0.0196712 0.125212 -0.2081 0.0187712 0.124298 -0.243489 0.0187712 0.124298 -0.2081 0.02 0.126451 -0.244087 0.02 0.126451 -0.2081 -0.0134888 0.10956 -0.2081 -0.01275 0.11375 -0.2081 -0.0134751 0.117902 -0.2081 -0.0155646 0.121563 -0.2081 -0.0271272 0.101686 -0.2081 -0.0228728 0.101686 -0.2081 -0.018875 0.103141 -0.2081 -0.015616 0.105876 -0.2081 -0.0344354 0.121563 -0.2081 -0.031125 0.103141 -0.2081 -0.034384 0.105876 -0.2081 -0.0365112 0.10956 -0.2081 -0.03725 0.11375 -0.2081 -0.0365249 0.117902 -0.2081 -0.0148221 0.120567 -0.240094 -0.01275 0.11375 -0.236131 -0.0128339 0.115181 -0.236386 -0.0169997 0.123027 -0.242306 -0.0133517 0.117543 -0.237676 -0.0128275 0.112374 -0.236367 -0.0207122 0.102275 -0.244364 -0.0228445 0.101691 -0.244918 -0.019349 0.102881 -0.243791 -0.0283804 0.101976 -0.244648 -0.0305105 0.102809 -0.243859 -0.0133106 0.110087 -0.237587 -0.014694 0.107128 -0.239925 -0.015902 0.105547 -0.241325 -0.0174059 0.104138 -0.242616 -0.02502 0.1015 -0.2451 -0.0330678 0.104532 -0.242252 -0.033111 0.12293 -0.242217 -0.0352498 0.120458 -0.24 -0.0351939 0.106957 -0.240074 -0.0366571 0.117515 -0.237657 -0.0366421 0.109939 -0.237689 -0.0371642 0.115198 -0.236392 -0.0371649 0.112309 -0.23639 -0.03725 0.11375 -0.236131 0.03 0.1265 -0.2081 0.02 0.1265 -0.2081 0.0365112 0.10956 -0.2081 0.03725 0.11375 -0.2081 0.0365249 0.117902 -0.2081 0.0344354 0.121563 -0.2081 0.0228728 0.101686 -0.2081 0.0271272 0.101686 -0.2081 0.031125 0.103141 -0.2081 0.034384 0.105876 -0.2081 0.0155646 0.121563 -0.2081 0.018875 0.103141 -0.2081 0.015616 0.105876 -0.2081 0.0134888 0.10956 -0.2081 0.01275 0.11375 -0.2081 0.0134751 0.117902 -0.2081 0.0325873 0.123368 -0.242621 0.0347448 0.121174 -0.240626 0.0363868 0.118268 -0.238205 0.0370943 0.115697 -0.236592 0.03725 0.11375 -0.236131 0.0250015 0.1015 -0.2451 0.0215436 0.101998 -0.244627 0.0232932 0.1265 -0.244986 0.0267068 0.1265 -0.244986 0.0286063 0.102043 -0.244583 0.03 0.1265 -0.244087 0.0313377 0.103267 -0.243428 0.02 0.1265 -0.244087 0.0194648 0.102822 -0.243847 0.0368757 0.110745 -0.237158 0.0371738 0.112386 -0.236363 0.0326119 0.104152 -0.242603 0.0343408 0.105825 -0.241074 0.0361382 0.108651 -0.238658 0.0181557 0.10359 -0.243126 0.0163013 0.122375 -0.241708 0.0157781 0.105687 -0.241199 0.0142937 0.119703 -0.239356 0.01433 0.107732 -0.239411 0.0131448 0.116835 -0.237208 0.0131526 0.110635 -0.237226 0.012786 0.114689 -0.236243 0.0127857 0.112815 -0.236242 0.01275 0.11375 -0.236131 -0.0344082 0.105905 -0.239699 -0.0362617 0.108929 -0.236394 -0.0176236 0.10397 -0.222785 -0.0159446 0.1055 -0.224376 -0.0131103 0.110802 -0.230627 -0.0134903 0.109556 -0.228855 -0.0258038 0.101526 -0.220277 -0.0222592 0.101811 -0.220567 -0.0360811 0.108528 -0.227645 -0.0368367 0.110596 -0.230277 -0.013 0.111288 -0.23225 -0.0130198 0.111193 -0.23294 -0.0155918 0.105905 -0.224801 -0.0140707 0.108217 -0.227295 -0.037 0.111288 -0.23225 -0.036996 0.111268 -0.231941 -0.0132616 0.110247 -0.234742 -0.0139075 0.108552 -0.236828 -0.0155918 0.105905 -0.239699 -0.0159446 0.1055 -0.240124 -0.0176502 0.10395 -0.241736 -0.0193453 0.102883 -0.242834 -0.0213749 0.102049 -0.24369 -0.0241943 0.101526 -0.244223 -0.0277392 0.10181 -0.243933 -0.0304772 0.102793 -0.242927 -0.0323748 0.103969 -0.241716 -0.0340554 0.1055 -0.240124 -0.0366876 0.110081 -0.23497 -0.0368894 0.110799 -0.233877 -0.0195211 0.102793 -0.221574 -0.0306529 0.102882 -0.221665 -0.0286232 0.102048 -0.22081 -0.0340554 0.1055 -0.224376 -0.032361 0.103958 -0.222773 -0.0344082 0.105905 -0.224801 0.037 0.111288 -0.23225 0.0368913 0.110808 -0.230638 0.0366946 0.110103 -0.22956 0.0355271 0.107486 -0.22649 0.0336057 0.105032 -0.223887 0.025679 0.101519 -0.220269 0.0285017 0.102011 -0.220772 0.0169457 0.10452 -0.223355 0.0194176 0.102846 -0.221628 0.0141076 0.108145 -0.227215 0.0133334 0.110015 -0.229441 0.0369502 0.111056 -0.233342 0.013 0.111288 -0.23225 0.0130655 0.110987 -0.230998 0.0131096 0.110804 -0.233869 0.0368332 0.110582 -0.234245 0.0360681 0.1085 -0.236887 0.0348693 0.106493 -0.239076 0.0338696 0.105301 -0.240333 0.0312484 0.103213 -0.242495 0.0285682 0.102031 -0.243707 0.0250289 0.1015 -0.24425 0.0226756 0.101723 -0.244023 0.0193429 0.102885 -0.242833 0.0168701 0.104587 -0.241076 0.0148332 0.106916 -0.238625 0.013488 0.109562 -0.235637 0.0306639 0.102888 -0.221671 0.0221301 0.101841 -0.220598 0.0153554 0.106197 -0.22511 -0.019 0.0975 -0.221858 -0.0229162 0.0975 -0.220432 -0.0270838 0.0975 -0.220432 -0.037 0.0975 -0.23225 -0.013 0.0975 -0.23225 -0.0137237 0.0975 -0.228146 -0.0158075 0.0975 -0.224537 -0.031 0.0975 -0.221858 -0.0341925 0.0975 -0.224537 -0.0362763 0.0975 -0.228146 -0.0270838 0.0975 -0.244068 -0.0229162 0.0975 -0.244068 -0.0362763 0.0975 -0.236354 -0.0341925 0.0975 -0.239964 -0.031 0.0975 -0.242642 -0.019 0.0975 -0.242642 -0.0158075 0.0975 -0.239964 -0.0137237 0.0975 -0.236354 0.0362763 0.0975 -0.228146 0.0341925 0.0975 -0.224537 0.031 0.0975 -0.221858 0.0270838 0.0975 -0.220432 0.0229162 0.0975 -0.220432 0.019 0.0975 -0.221858 0.0158075 0.0975 -0.224537 0.037 0.0975 -0.23225 0.0137237 0.0975 -0.228146 0.013 0.0975 -0.23225 0.0137237 0.0975 -0.236354 0.0158075 0.0975 -0.239964 0.019 0.0975 -0.242642 0.031 0.0975 -0.242642 0.0270838 0.0975 -0.244068 0.0229162 0.0975 -0.244068 0.0341925 0.0975 -0.239964 0.0362763 0.0975 -0.236354 0 -0.08 0.02075 0.010504 -0.0793074 0.02075 -0.0104421 -0.0793156 0.02075 0.0208261 -0.0772417 0.02075 -0.0207055 -0.0772741 0.02075 0.0307877 -0.0738385 0.02075 -0.0306147 -0.0739104 0.02075 0.0402161 -0.0691568 0.02075 -0.04 -0.069282 0.02075 0.0489483 -0.0632777 0.02075 -0.0487009 -0.0634683 0.02075 0.0568329 -0.056303 0.02075 -0.0565685 -0.0565685 0.02075 0.0637334 -0.0483534 0.02075 -0.0634683 -0.0487009 0.02075 0.0695305 -0.0395666 0.02075 -0.069282 -0.04 0.02075 0.0741236 -0.0300947 0.02075 -0.0739104 -0.0306147 0.02075 0.0774333 -0.0201017 0.02075 -0.0772741 -0.0207055 0.02075 0.0793557 -0.0101324 0.02075 -0.0793156 -0.0104421 0.02075 0.08 0 0.02075 -0.08 0 0.02075 0.0792549 0.0108933 0.02075 -0.0792549 0.0108933 0.02075 0.0770334 0.0215837 0.02075 -0.0770334 0.0215837 0.02075 0.0733769 0.0318721 0.02075 -0.0733769 0.0318721 0.02075 0.0683536 0.0415667 0.02075 -0.0683536 0.0415667 0.02075 0.0620569 0.050487 0.02075 -0.0620569 0.050487 0.02075 0.0546043 0.0584669 0.02075 -0.0546043 0.0584669 0.02075 0.0461344 0.0653576 0.02075 -0.0461344 0.0653576 0.02075 0.0368052 0.0710308 0.02075 -0.0368052 0.0710308 0.02075 0.0267904 0.0753809 0.02075 -0.0267904 0.0753809 0.02075 0.0162765 0.0783267 0.02075 -0.0162765 0.0783267 0.02075 0.00545939 0.0798135 0.02075 -0.00545939 0.0798135 0.02075 -0.0744563 -0.0691895 0.00075 -0.0775716 -0.0691895 0.00075 -0.080642 -0.0572949 0.00075 -0.0744563 -0.0828385 0.00075 -0.0716496 -0.0814868 0.00075 -0.054 -0.0883423 0.00075 -0.095 -0.075 0.00075 -0.095 -0.054 0.00075 -0.0883423 -0.054 0.00075 -0.0803784 -0.0705412 0.00075 -0.0823208 -0.0729768 0.00075 -0.083014 -0.076014 0.00075 -0.0823208 -0.0790512 0.00075 -0.0943185 -0.0801764 0.00075 -0.0891421 -0.0891421 0.00075 -0.0923205 -0.085 0.00075 -0.085 -0.0923205 0.00075 -0.0775716 -0.0828385 0.00075 -0.0801764 -0.0943185 0.00075 -0.075 -0.095 0.00075 -0.054 -0.095 0.00075 -0.0697072 -0.0729768 0.00075 -0.0716496 -0.0705412 0.00075 -0.0617208 -0.0735313 0.00075 -0.0671751 -0.0671751 0.00075 -0.0735313 -0.0617208 0.00075 -0.0803784 -0.0814868 0.00075 -0.069014 -0.076014 0.00075 -0.0572949 -0.080642 0.00075 -0.0697072 -0.0790512 0.00075 0.0716496 -0.0814868 0.00075 0.0744563 -0.0828385 0.00075 0.054 -0.0883423 0.00075 0.095 -0.075 0.00075 0.0943185 -0.0801764 0.00075 0.0823208 -0.0790512 0.00075 0.083014 -0.076014 0.00075 0.0823208 -0.0729768 0.00075 0.0803784 -0.0705412 0.00075 0.0775716 -0.0691895 0.00075 0.0735313 -0.0617208 0.00075 0.080642 -0.0572949 0.00075 0.0883423 -0.054 0.00075 0.095 -0.054 0.00075 0.0775716 -0.0828385 0.00075 0.0803784 -0.0814868 0.00075 0.0923205 -0.085 0.00075 0.0891421 -0.0891421 0.00075 0.085 -0.0923205 0.00075 0.0801764 -0.0943185 0.00075 0.075 -0.095 0.00075 0.054 -0.095 0.00075 0.0697072 -0.0729768 0.00075 0.0617208 -0.0735313 0.00075 0.0716496 -0.0705412 0.00075 0.0671751 -0.0671751 0.00075 0.0744563 -0.0691895 0.00075 0.069014 -0.076014 0.00075 0.0697072 -0.0790512 0.00075 0.0572949 -0.080642 0.00075 -0.0128822 0.0975 -0.244368 -0.03535 0.0975 -0.2451 -0.0371178 0.0975 -0.244368 -0.01465 0.0975 -0.2451 -0.03535 0.0975 -0.2194 -0.0371178 0.0975 -0.220132 -0.01465 0.0975 -0.2194 -0.0128822 0.0975 -0.220132 -0.03785 0.0975 -0.2219 -0.03785 0.0975 -0.2426 -0.01215 0.0975 -0.2219 -0.01215 0.0975 -0.2426 0.0371178 0.0975 -0.244368 0.01465 0.0975 -0.2451 0.0128822 0.0975 -0.244368 0.03535 0.0975 -0.2451 0.01465 0.0975 -0.2194 0.0128822 0.0975 -0.220132 0.03535 0.0975 -0.2194 0.0371178 0.0975 -0.220132 0.01215 0.0975 -0.2219 0.01215 0.0975 -0.2426 0.03785 0.0975 -0.2219 0.03785 0.0975 -0.2426 0.0475 0.0764979 -0.13625 0.0475 0.078 -0.13875 0.0457322 0.078 -0.138018 0.045 0.078 -0.13625 0.0457322 0.078 -0.134482 0.0475 0.078 -0.13375 0.0492678 0.078 -0.134482 0.05 0.078 -0.13625 0.0492678 0.078 -0.138018 0.0775716 0.0691895 0.00075 0.0803784 0.0705412 0.01575 0.0803784 0.0705412 0.00075 0.0823208 0.0729768 0.01575 0.0823208 0.0729768 0.00075 0.083014 0.076014 0.01575 0.083014 0.076014 0.00075 0.0775716 0.0691895 0.01575 0.0744563 0.0691895 0.00075 0.0744563 0.0691895 0.01575 0.0716496 0.0705412 0.00075 0.0716496 0.0705412 0.01575 0.0697072 0.0729768 0.00075 0.0697072 0.0729768 0.01575 0.069014 0.076014 0.00075 0.069014 0.076014 0.01575 0.0744563 0.0828385 0.00075 0.0716496 0.0814868 0.01575 0.0716496 0.0814868 0.00075 0.0697072 0.0790512 0.01575 0.0697072 0.0790512 0.00075 0.0744563 0.0828385 0.01575 0.0775716 0.0828385 0.00075 0.0775716 0.0828385 0.01575 0.0803784 0.0814868 0.00075 0.0803784 0.0814868 0.01575 0.0823208 0.0790512 0.00075 0.0823208 0.0790512 0.01575 -0.0716496 -0.0814868 0.01575 -0.0697072 -0.0790512 0.01575 -0.069014 -0.076014 0.01575 -0.0744563 -0.0828385 0.01575 -0.0775716 -0.0828385 0.01575 -0.0803784 -0.0814868 0.01575 -0.0823208 -0.0790512 0.01575 -0.083014 -0.076014 0.01575 -0.0803784 -0.0705412 0.01575 -0.0823208 -0.0729768 0.01575 -0.0775716 -0.0691895 0.01575 -0.0744563 -0.0691895 0.01575 -0.0716496 -0.0705412 0.01575 -0.0697072 -0.0729768 0.01575 -0.08 0 0.01575 -0.0792549 0.0108933 0.01575 -0.0770334 0.0215837 0.01575 -0.0733769 0.0318721 0.01575 -0.0683536 0.0415667 0.01575 -0.0620569 0.050487 0.01575 -0.0546043 0.0584669 0.01575 -0.0461344 0.0653576 0.01575 -0.0368052 0.0710308 0.01575 -0.0267904 0.0753809 0.01575 -0.0162765 0.0783267 0.01575 -0.00545939 0.0798135 0.01575 0.00545939 0.0798135 0.01575 0.0162765 0.0783267 0.01575 0.0267904 0.0753809 0.01575 0.0368052 0.0710308 0.01575 0.0461344 0.0653576 0.01575 0.0546043 0.0584669 0.01575 0.0620569 0.050487 0.01575 0.0683536 0.0415667 0.01575 0.0733769 0.0318721 0.01575 0.0770334 0.0215837 0.01575 0.0792549 0.0108933 0.01575 0.08 0 0.01575 0.0792549 -0.0108933 0.01575 0.0770334 -0.0215837 0.01575 0.0733769 -0.0318721 0.01575 0.0683536 -0.0415667 0.01575 0.0620569 -0.050487 0.01575 0.0546043 -0.0584669 0.01575 0.0461344 -0.0653576 0.01575 0.0368052 -0.0710308 0.01575 0.0267904 -0.0753809 0.01575 0.0162765 -0.0783267 0.01575 0.00545939 -0.0798135 0.01575 -0.00545939 -0.0798135 0.01575 -0.0162765 -0.0783267 0.01575 -0.0267904 -0.0753809 0.01575 -0.0368052 -0.0710308 0.01575 -0.0461344 -0.0653576 0.01575 -0.0546043 -0.0584669 0.01575 -0.0620569 -0.050487 0.01575 -0.0683536 -0.0415667 0.01575 -0.0733769 -0.0318721 0.01575 -0.0770334 -0.0215837 0.01575 -0.0792549 -0.0108933 0.01575 0.0803784 -0.0814868 0.01575 0.0823208 -0.0790512 0.01575 0.083014 -0.076014 0.01575 0.0775716 -0.0828385 0.01575 0.0744563 -0.0828385 0.01575 0.0716496 -0.0814868 0.01575 0.0697072 -0.0790512 0.01575 0.069014 -0.076014 0.01575 0.0716496 -0.0705412 0.01575 0.0697072 -0.0729768 0.01575 0.0744563 -0.0691895 0.01575 0.0775716 -0.0691895 0.01575 0.0803784 -0.0705412 0.01575 0.0823208 -0.0729768 0.01575 0.095 -0.075 0.01575 0.0943185 -0.0801764 0.01575 0.0923205 -0.085 0.01575 0.0891421 -0.0891421 0.01575 0.085 -0.0923205 0.01575 0.0801764 -0.0943185 0.01575 0.075 -0.095 0.01575 -0.075 -0.095 0.01575 -0.0801764 -0.0943185 0.01575 -0.085 -0.0923205 0.01575 -0.0891421 -0.0891421 0.01575 -0.0923205 -0.085 0.01575 -0.0943185 -0.0801764 0.01575 -0.095 -0.075 0.01575 -0.0744563 0.0691895 0.00075 -0.0716496 0.0705412 0.01575 -0.0716496 0.0705412 0.00075 -0.0697072 0.0729768 0.01575 -0.0697072 0.0729768 0.00075 -0.069014 0.076014 0.01575 -0.069014 0.076014 0.00075 -0.0744563 0.0691895 0.01575 -0.0775716 0.0691895 0.00075 -0.0775716 0.0691895 0.01575 -0.0803784 0.0705412 0.00075 -0.0803784 0.0705412 0.01575 -0.0823208 0.0729768 0.00075 -0.0823208 0.0729768 0.01575 -0.083014 0.076014 0.00075 -0.083014 0.076014 0.01575 -0.0775716 0.0828385 0.00075 -0.0803784 0.0814868 0.01575 -0.0803784 0.0814868 0.00075 -0.0823208 0.0790512 0.01575 -0.0823208 0.0790512 0.00075 -0.0775716 0.0828385 0.01575 -0.0744563 0.0828385 0.00075 -0.0744563 0.0828385 0.01575 -0.0716496 0.0814868 0.00075 -0.0716496 0.0814868 0.01575 -0.0697072 0.0790512 0.00075 -0.0697072 0.0790512 0.01575 -0.0671751 0.0671751 0.00075 -0.0735313 0.0617208 -0.25425 -0.0735313 0.0617208 0.00075 -0.080642 0.0572949 -0.25425 -0.080642 0.0572949 0.00075 -0.0883423 0.054 -0.25425 -0.0883423 0.054 0.00075 -0.0671751 0.0671751 -0.25425 -0.0617208 0.0735313 0.00075 -0.0617208 0.0735313 -0.25425 -0.0572949 0.080642 0.00075 -0.0572949 0.080642 -0.25425 -0.054 0.0883423 0.00075 -0.054 0.0883423 -0.25425 -0.095 0.054 -0.25425 -0.095 0.054 0.00075 -0.095 0.075 0.01575 -0.095 0.075 0.00075 -0.095 -0.054 -0.25425 -0.0883423 -0.054 -0.25425 -0.0617208 -0.0735313 -0.25425 -0.0572949 -0.080642 -0.25425 -0.054 -0.0883423 -0.25425 -0.0671751 -0.0671751 -0.25425 -0.0735313 -0.0617208 -0.25425 -0.080642 -0.0572949 -0.25425 -0.054 -0.095 -0.25425 0.054 -0.095 -0.25425 0.054 -0.0883423 -0.25425 0.0735313 -0.0617208 -0.25425 0.080642 -0.0572949 -0.25425 0.0883423 -0.054 -0.25425 0.0671751 -0.0671751 -0.25425 0.0617208 -0.0735313 -0.25425 0.0572949 -0.080642 -0.25425 0.095 -0.054 -0.25425 0.095 0.054 0.00075 0.095 0.075 0.00075 0.095 0.075 0.01575 0.095 0.054 -0.25425 0.0883423 0.054 -0.25425 0.0883423 0.054 0.00075 0.0671751 0.0671751 0.00075 0.0617208 0.0735313 -0.25425 0.0617208 0.0735313 0.00075 0.0572949 0.080642 -0.25425 0.0572949 0.080642 0.00075 0.054 0.0883423 -0.25425 0.054 0.0883423 0.00075 0.0671751 0.0671751 -0.25425 0.0735313 0.0617208 0.00075 0.0735313 0.0617208 -0.25425 0.080642 0.0572949 0.00075 0.080642 0.0572949 -0.25425 -0.03535 0.095 -0.2194 -0.01465 0.095 -0.2194 -0.0128822 0.095 -0.220132 -0.01215 0.095 -0.2219 -0.01215 0.095 -0.2426 -0.0128822 0.095 -0.244368 -0.01465 0.095 -0.2451 -0.03535 0.095 -0.2451 -0.0371178 0.095 -0.244368 -0.03785 0.095 -0.2426 -0.03785 0.095 -0.2219 -0.0371178 0.095 -0.220132 0.0457322 0.095 -0.134482 0.0475 0.095 -0.13375 0.045 0.095 -0.13625 0.0457322 0.095 -0.138018 0.0475 0.095 -0.13875 0.0492678 0.095 -0.138018 0.05 0.095 -0.13625 0.0492678 0.095 -0.134482 0.054 0.095 0.00075 0.054 0.095 -0.25425 0.085 0.0923205 0.00075 0.0801764 0.0943185 0.00075 0.075 0.095 0.00075 0.0943185 0.0801764 0.00075 0.0923205 0.085 0.00075 0.0891421 0.0891421 0.00075 0.075 0.095 0.01575 0.0801764 0.0943185 0.01575 0.085 0.0923205 0.01575 0.0891421 0.0891421 0.01575 0.0923205 0.085 0.01575 0.0943185 0.0801764 0.01575 -0.085 0.0923205 0.01575 -0.0801764 0.0943185 0.01575 -0.075 0.095 0.01575 -0.0943185 0.0801764 0.01575 -0.0923205 0.085 0.01575 -0.0891421 0.0891421 0.01575 -0.054 0.095 0.00075 -0.075 0.095 0.00075 -0.0923205 0.085 0.00075 -0.0801764 0.0943185 0.00075 -0.0891421 0.0891421 0.00075 -0.085 0.0923205 0.00075 -0.0943185 0.0801764 0.00075 -0.054 0.095 -0.25425 0.03535 0.095 -0.2194 0.0371178 0.095 -0.220132 0.01465 0.095 -0.2194 0.01215 0.095 -0.2426 0.0128822 0.095 -0.220132 0.01215 0.095 -0.2219 0.03785 0.095 -0.2219 -0.05 0.095 -0.02525 -0.0492678 0.095 -0.0270178 -0.0475 0.095 -0.02775 0.01465 0.095 -0.2451 0.03535 0.095 -0.2451 0.0371178 0.095 -0.244368 0.03785 0.095 -0.2426 -0.045 0.095 -0.02525 -0.0457322 0.095 -0.0234822 -0.0475 0.095 -0.02275 -0.0492678 0.095 -0.0234822 0.0128822 0.095 -0.244368 -0.0457322 0.095 -0.0270178 -0.045 0.078 -0.02525 -0.0457322 0.078 -0.0270178 -0.0475 0.078 -0.02775 -0.0457322 0.078 -0.0234822 -0.0475 0.078 -0.02275 -0.05 0.078 -0.02525 -0.0492678 0.078 -0.0234822 -0.0492678 0.078 -0.0270178 -0.0475 0.0764979 -0.02525</float_array>
                    <technique_common>
                        <accessor count="807" source="#shape0-lib-positions-array" stride="3">
                            <param name="X" type="float"/>
                            <param name="Y" type="float"/>
                            <param name="Z" type="float"/>
                        </accessor>
                    </technique_common>
                </source>
                <source id="shape0-lib-normals" name="normal">
                    <float_array id="shape0-lib-normals-array" count="4878">0 0 1 0 0 1 0 0 1 0 0 1 0 0 1 0 0 1 0 0 1 0 0 1 0 0 1 0 0 1 0 0 1 0 0 1 0 0 1 0 0 1 -0.195092 -0.980785 0 -0.555565 -0.831473 0 -0.555565 -0.831473 0 -0.831474 -0.555564 0 -0.831474 -0.555564 0 -0.980785 -0.195092 0 -0.980785 -0.195092 0 -0.195092 -0.980785 0 0.195092 -0.980785 0 0.195092 -0.980785 0 0.555565 -0.831473 0 0.555565 -0.831473 0 0.831474 -0.555564 0 0.831474 -0.555564 0 0.980785 -0.195092 0 0.980785 -0.195092 0 0.195092 0.980785 0 0.555565 0.831473 0 0.555565 0.831473 0 0.831474 0.555564 0 0.831474 0.555564 0 0.980785 0.195092 0 0.980785 0.195092 0 0.195092 0.980785 0 -0.195092 0.980785 0 -0.195092 0.980785 0 -0.555565 0.831473 0 -0.555565 0.831473 0 -0.831474 0.555564 0 -0.831474 0.555564 0 -0.980785 0.195092 0 -0.980785 0.195092 0 0 0 1 0 0 1 0 0 1 0 0 1 0 0 1 0 0 1 0 0 1 0 0 1 0 0 1 0 0 1 0 0 1 0 0 1 0 0 1 0 0 1 0 0 1 0 0 1 0 0 1 0 0 1 0 0 1 0 0 1 0 0 1 0 0 1 0 0 1 0 0 1 0 0 1 0 0 1 0 0 1 0 0 1 0 0 1 0 0 1 0 0 1 0 0 1 0 0 1 0 0 1 0 0 1 0 0 1 0 0 1 0 0 1 0 0 1 0 0 1 0 0 1 0 0 1 0 0 1 0 0 1 0 0 1 0 0 1 0 0 1 0 0 1 0.984808 -0.173648 0 0.984808 -0.173648 0 0.866028 -0.499995 0 0.866028 -0.499995 0 0.642787 -0.766045 0 0.642787 -0.766045 0 0.342017 -0.939694 0 0.342017 -0.939694 0 0 -1 0 0 -1 0 -0.342017 -0.939694 0 -0.342017 -0.939694 0 -0.642787 -0.766045 0 -0.642787 -0.766045 0 -0.866028 -0.499995 0 -0.866028 -0.499995 0 -0.984808 -0.173648 0 -0.984808 -0.173648 0 -0.984808 0.173648 0 -0.984808 0.173648 0 -0.866028 0.499995 0 -0.866028 0.499995 0 -0.642787 0.766045 0 -0.642787 0.766045 0 -0.342017 0.939694 0 -0.342017 0.939694 0 0 1 0 0 1 0 0.342017 0.939694 0 0.342017 0.939694 0 0.642787 0.766045 0 0.642787 0.766045 0 0.866028 0.499995 0 0.866028 0.499995 0 0.984808 0.173648 0 0.984808 0.173648 0 -0.195103 -0.980783 0 -0.555566 -0.831472 0 -0.555566 -0.831472 0 -0.831465 -0.555577 0 -0.831465 -0.555577 0 -0.980785 -0.195089 0 -0.980785 -0.195089 0 -0.195103 -0.980783 0 0.195103 -0.980783 0 0.195103 -0.980783 0 0.555567 -0.831472 0 0.555567 -0.831472 0 0.831464 -0.555579 0 0.831464 -0.555579 0 0.980785 -0.195089 0 0.980785 -0.195089 0 0.195103 0.980783 0 0.555567 0.831472 0 0.555567 0.831472 0 0.831464 0.555579 0 0.831464 0.555579 0 0.980786 0.195089 0 0.980786 0.195089 0 0.195103 0.980783 0 -0.195103 0.980783 0 -0.195103 0.980783 0 -0.555566 0.831472 0 -0.555566 0.831472 0 -0.831465 0.555577 0 -0.831465 0.555577 0 -0.980786 0.195089 0 -0.980786 0.195089 0 0 0 1 0 0 1 0 0 1 0 0 1 0 0 1 0 0 1 0 0 1 0 0 1 0 0 1 0 0 1 0 0 1 0 0 1 0 0 1 0 0 1 0 0 1 0 0 1 0 0 1 0 0 1 0 0 1 0 0 1 0 0 1 0 0 1 0 0 1 0 0 1 0 0 1 0 0 1 0 0 1 0 0 1 0 0 1 0 0 1 0 0 1 0 0 1 0 0 1 0 0 1 0 0 1 0 0 1 0 0 1 0 0 1 0 0 1 0 0 1 0 0 1 0 0 1 0 0 1 0 0 1 0 0 1 0 0 1 0 0 1 0 0 1 0 0 1 0 0 1 0 0 1 0 0 1 0 0 1 0 0 1 0 0 1 0 0 1 0 0 1 0 0 1 0 0 1 0 0 1 0 0 1 0 0 1 0 0 1 0 0 1 0 0 1 0 0 1 0 0 1 0 0 1 0 0 1 0 0 1 0.865931 -0.499943 0.014849 0.784272 -0.620209 -0.0160761 0.642716 -0.765954 0.0151922 0.514917 -0.857084 -0.0163543 0.34197 -0.939585 0.0153915 0.179349 -0.983647 -0.0164893 0 -0.99988 0.0154665 -0.156434 -0.987611 -0.0123772 -0.341974 -0.939592 0.0148415 -0.453952 -0.890957 -0.0111396 -0.642735 -0.765979 0.0129847 -0.707078 -0.707083 -0.0086583 -0.865986 -0.499971 0.00988961 0.997949 -0.0640068 0 0.984706 -0.173631 0.0143675 0.952692 -0.303533 -0.015666 -0.984808 -0.173649 0 -0.98767 -0.156431 0.00617064 -0.890997 -0.453983 -0.00494389 -0.984808 0.173649 0 -0.984808 0.173649 0 -0.866028 0.499996 0 -0.866028 0.499996 0 -0.642789 0.766043 0 -0.642789 0.766043 0 -0.342011 0.939696 0 -0.342011 0.939696 0 0 1 0 0 1 0 0.342011 0.939696 0 0.342011 0.939696 0 0.64279 0.766042 0 0.64279 0.766042 0 0.866027 0.499998 0 0.866027 0.499998 0 0.984808 0.173649 0 0.984808 0.173649 0 0.686347 0.727274 0 0.712284 0.70189 -0.001121 0.956565 0.291517 0.00129925 0.966559 0.256443 0 1 0 0 1 0 0 0 1 0 0 1 0 0 1 0 0 1 0 -1 0 0 -1 0 0 -0.865351 0.501164 0.0016964 -0.629774 0.776768 -0.00403071 -0.712285 0.701891 0 -0.988503 0.151153 -0.00382671 -0.966559 0.256445 0 0.86598 -0.499973 0.0102745 0.783091 -0.621809 -0.011055 0.642759 -0.765997 0.0104793 0.513948 -0.857748 -0.0112203 0.342007 -0.939638 0.0106002 0.178962 -0.983791 -0.0113033 0 -0.999943 0.0106413 -0.156427 -0.987653 -0.00852052 -0.342008 -0.939641 0.0102157 -0.453989 -0.890974 -0.00766739 -0.64277 -0.766007 0.00893509 -0.707083 -0.707106 -0.00595677 -0.866004 -0.49999 0.0068082 0.997846 -0.0655937 0 0.984758 -0.173642 0.00998864 0.951903 -0.30621 -0.0108093 -0.984808 -0.17365 0 -0.987679 -0.156435 0.00424629 -0.891006 -0.453979 -0.00340363 -0.984807 0.17365 0 -0.984807 0.17365 0 -0.866024 0.500002 0 -0.866024 0.500002 0 -0.642796 0.766037 0 -0.642796 0.766037 0 -0.342026 0.939691 0 -0.342026 0.939691 0 0 1 0 0 1 0 0.342026 0.93969 0 0.342026 0.93969 0 0.642795 0.766039 0 0.642795 0.766039 0 0.866026 0.5 0 0.866026 0.5 0 0.984807 0.173651 0 0.984807 0.173651 0 0.686352 0.72727 0 0.712284 0.70189 -0.00112082 0.956563 0.291524 0.00129947 0.966559 0.256445 0 -0.865354 0.501158 0.00169629 -0.629768 0.776773 -0.004031 -0.712285 0.701891 0 -0.988503 0.151151 -0.00382675 -0.966559 0.256443 0 0 0 1 0 0 1 0 0 1 0 0 1 0 0 1 0 0 1 0 0 1 0 0 1 0 0 1 0 0 1 0 0 1 0 0 1 0 0 1 0 0 1 0 0 1 0 0 1 0 0 1 0 0 1 0 0 1 0 0 1 0 0 1 0 0 1 0 0 1 0 0 1 0 0 1 0 0 1 0 0 1 0 0 1 0 0 1 0 0 1 0 0 1 0 0 1 0 0 1 0 0 1 0 0 1 0 0 1 0 0 1 0 0 1 0 0 1 0 0 1 0 0 1 0.868458 0.495741 0.00473119 0.998287 0.0585061 0 0.583096 0.812403 0 0.64902 0.760753 0.00533421 0.750135 0.661277 -0.00316565 0.985074 0.172033 0.00578211 0.976625 0.214947 0.00146209 0.899839 0.436219 -0.00154787 0.950223 7.57348e-05 -0.311572 0.251151 0.00188517 -0.967946 0.263298 0.00326257 -0.964709 0.361704 0 -0.932293 0.401916 -0.00137451 -0.915675 0.387767 -0.000544531 -0.921757 -0.2633 0 -0.964714 -0.263361 0.00464945 -0.964686 -0.374366 -0.00355201 -0.927274 -0.34777 -0.00134374 -0.937579 -0.419667 0.000134527 -0.907678 0.927748 -0.000388437 -0.373206 0.929236 0.000704288 -0.369487 0.853617 -0.00152673 -0.520899 0.859703 0.00176943 -0.510792 0.711385 -0.00206066 -0.7028 0.751236 0.010134 -0.659956 0.652309 -0.00157872 -0.757952 0.556406 0.00168254 -0.830909 0.518254 -0.00195455 -0.855225 0.453992 0.00028236 -0.891006 0 -0.0027455 -0.999996 0.0824405 0.0100987 -0.996545 -0.134082 -0.0045359 -0.99096 -0.462708 -0.000235389 -0.886511 -0.533637 -0.00330737 -0.845707 -0.560297 0.000263614 -0.828291 -0.719422 -0.000365248 -0.694573 -0.715147 0.000842495 -0.698973 -0.856882 -0.000743543 -0.515512 -0.854407 0.000536286 -0.519605 -0.928007 -0.000240303 -0.372563 -0.927753 -5.95578e-05 -0.373194 -0.950064 -5.30345e-06 -0.312055 -0.868456 0.49574 0.00501512 -0.902692 0.430284 -0.00159875 -0.976704 0.214583 0.00155808 -0.997927 0.0621718 0.0166059 -0.985091 0.172036 0 -0.649029 0.760764 0 -0.583531 0.81203 0.00989752 -0.757619 0.652689 -0.00324701 0 0 1 0 0 1 0 0 1 0 0 1 0 0 1 0 0 1 0 0 1 0 0 1 0 0 1 0 0 1 0 0 1 0 0 1 0 0 1 0 0 1 0 0 1 0 0 1 0 0 1 0 0 1 0 0 1 0 0 1 0 0 1 0 0 1 0 0 1 0 0 1 0 0 1 0 0 1 0 0 1 0 0 1 0 0 1 0 0 1 0 0 1 0 0 1 0 0 1 0 0 1 0 0 1 0 0 1 0 0 1 0 0 1 0 0 1 0 0 1 0 0 1 0.565182 0.824967 0 0.649021 0.760754 0.0050305 0.713631 0.70052 -0.00157763 0.869819 0.493366 0.00238269 0.868466 0.495745 0.00203458 0.964346 0.264644 -0.00121106 0.996816 0.0797352 0 0.985071 0.172032 0.00637103 -0.136342 -0.00480729 -0.99065 0 0.00455196 -0.99999 0.142631 -0.00522373 -0.989762 0.263297 0.00456071 -0.964704 0.335292 0 -0.942114 0.394994 -0.00388528 -0.918676 0.447211 -0.00873276 -0.894386 0.389781 -0.000661648 -0.920907 -0.2633 0 -0.964714 -0.263361 0.00464386 -0.964686 -0.375816 -0.00329235 -0.926689 -0.351628 -0.00136601 -0.936139 -0.419656 0.000122776 -0.907683 0.929807 0.0092103 -0.367931 0.912023 -0.0063715 -0.410089 0.948674 0.00098283 -0.316255 0.543459 0.0003711 -0.839436 0.538593 -0.000100667 -0.842566 0.662259 0.000144839 -0.749275 0.680754 0.00347204 -0.732504 0.804534 -0.00383302 -0.593895 0.830258 0.00477161 -0.55736 0.898814 -0.00260268 -0.438323 -0.462732 -0.000187813 -0.886498 -0.483055 -0.00102575 -0.87559 -0.586593 0.00320594 -0.809876 -0.63169 -0.00386165 -0.775212 -0.762925 0.00418328 -0.646474 -0.77683 0.00050688 -0.62971 -0.881551 -0.000526935 -0.472089 -0.880134 0.000295673 -0.474726 -0.937188 -0.00014496 -0.348824 -0.937048 -4.06351e-05 -0.349201 -0.951921 -1.27925e-05 -0.306345 -0.868453 0.495738 0.00581923 -0.929062 0.369912 -0.0030179 -0.985926 0.167106 0.00506156 -0.998975 0.0406989 0.0198137 -0.985091 0.172036 0 -0.649029 0.760764 0 -0.611738 0.79104 0.00571923 -0.8008 0.598924 -0.00307077 -0.811594 -0.579375 0.0751057 0.68217 -0.730999 0.01688 0.956471 -0.291827 -1.32224e-05 0.0794555 -0.99682 -0.00604381 0 -0.999914 0.013122 -0.938256 -0.345935 -0.00237636 0.984837 -0.173423 -0.00450383 0.997826 -0.0606382 0.0258082 0.994885 -0.101016 0 0.984779 -0.173646 0.0075096 0.978767 -0.204909 0.00515163 0.642786 -0.766031 0.0047122 0.75381 -0.657093 -4.57115e-05 0.835611 -0.549321 0.000259215 0.929327 -0.368045 0.0299163 0.866026 -0.5 3.466e-05 -0.998261 -0.0589412 0 -0.989783 -0.142518 0.00428417 -0.990189 -0.139676 0.00399008 -0.978752 -0.20476 0.0108867 -0.984787 -0.173648 0.00634869 0.979791 -0.199549 -0.0137937 0.970259 -0.242049 -0.00307951 0.903209 -0.429115 0.00858915 0.972288 -0.153536 -0.176303 0.810091 -0.582983 0.0623137 0.803987 -0.594216 -0.0226288 0.75331 -0.657665 0.00100524 0.685612 -0.727955 -0.00415106 0.660442 -0.750526 0.0229459 0.553219 -0.83268 -0.0243467 0.532752 -0.846271 -0.000357767 0.406353 -0.913716 0.000260069 0.36355 -0.930478 0.0451831 0.275984 -0.959822 -0.0507395 0.165228 -0.982296 0.0882821 0.0920603 -0.994141 -0.0566379 -0.119885 -0.982497 0.142575 -0.0908306 -0.985008 -0.146659 -0.335968 -0.938099 0.084239 -0.339287 -0.940671 -0.00472558 -0.556476 -0.830849 0.00501256 -0.573739 -0.811469 -0.111089 -0.684207 -0.717449 0.130875 -0.768632 -0.592315 -0.241595 -0.787175 -0.61276 -0.0698644 -0.912964 -0.405245 -0.0476746 -0.936833 -0.349767 0.00258358 -0.977103 -0.2127 -0.00524413 -0.973279 -0.227658 -0.0300045 -0.981063 -0.193498 -0.0086325 0.342015 -0.939665 0.00744939 0.340433 -0.940235 0.00793981 0.525436 -0.850827 -0.00323837 -0.342018 -0.939674 0.00604632 -0.387013 -0.921872 0.0193108 -0.180686 -0.983518 -0.00672927 -0.642785 -0.766032 0.00471229 -0.681487 -0.731641 0.0166645 -0.531986 -0.84675 -0.00233948 -0.866003 -0.499985 0.0073502 -0.843283 -0.53747 0.000290876 -0.75381 -0.657093 -4.56694e-05 0.9789 -0.204276 0.0051996 0.963787 -0.26667 0.00149148 0.912136 -0.409879 -0.00257074 0.865982 -0.499973 0.0100634 0.784468 -0.620145 -0.00552222 0.642764 -0.766008 0.00926231 0.170607 -0.985316 -0.00675793 0 -0.999906 0.0137461 -0.558757 -0.82932 -0.00429641 -0.642746 -0.765984 0.012051 -0.9233 -0.384077 -0.00145236 0.984807 -0.173651 0 0.996828 -0.0782364 0.0145783 0.991494 -0.128912 -0.0179176 0.996929 -0.06349 0.0458461 -0.994885 -0.101016 0 -0.98358 -0.180289 0.00819926 -0.970184 -0.241851 0.0158119 -0.984801 -0.17365 0.00347495 -0.989824 -0.140069 -0.0251041 -0.994352 -0.0491494 0.0940679 -0.986449 -0.164009 -0.00441193 0.984291 -0.176486 -0.00480968 0.970645 -0.240517 0.00068476 0.94425 -0.329196 -0.0046592 0.93564 -0.352885 0.007065 0.848139 -0.52965 -0.0114066 0.895554 -0.435526 -0.0910996 0.756473 -0.653758 0.0187106 0.713272 -0.699676 -0.0411852 0.569558 -0.816164 0.0973641 0.567397 -0.823414 0.00708112 0.413359 -0.91048 -0.0126471 0.401578 -0.91581 0.00524326 0.149858 -0.988685 -0.00667803 0.149141 -0.988804 -0.00479643 -0.141849 -0.989878 0.00456192 -0.113487 -0.967077 -0.22778 -0.312083 -0.936788 0.15822 -0.322898 -0.946231 0.0195953 -0.509593 -0.860377 -0.00815817 -0.524362 -0.84744 0.0830034 -0.70101 -0.706623 -0.0962777 -0.705976 -0.678178 0.204137 -0.799699 -0.591642 -0.102179 -0.889682 -0.44325 0.109524 -0.918577 -0.389185 -0.0689235 -0.955517 -0.294924 0.00255252 0.341996 -0.939612 0.0130034 0.377382 -0.926047 0.00446808 0.586616 -0.809851 -0.00481143 -0.342017 -0.939669 0.00680797 -0.350459 -0.936533 0.00923304 -0.0897169 -0.995943 -0.00699656 -0.865991 -0.49998 0.00898553 -0.84337 -0.537326 0.00276738 -0.724638 -0.689127 -0.0019185 0.534778 0.00732517 0.844961 0 -0.0385427 0.999257 -0.999917 0 0.0128822 0.984807 0 0.17365 0.997737 -0.0353387 0.0572115 0.978724 -0.0068846 0.205066 0.856065 -0.00569795 0.516837 0.865966 -0.0116441 0.499968 0.936511 0.00249401 0.350629 0.710929 -0.0507178 0.701433 0.642789 -0.0043587 0.766031 0.76938 0.000365982 0.638791 0.341975 -0.0167271 0.93956 0.352672 -0.0244792 0.935427 0.0800698 0.0189848 0.996608 -0.390824 -0.00776877 0.920433 -0.34178 -0.0376823 0.939024 -0.182185 0.0199973 0.983061 -0.688592 -0.00275359 0.725144 -0.642562 -0.0268991 0.765761 -0.542045 0.00485174 0.840335 -0.864886 -0.00749813 0.501913 -0.866006 -0.00648453 0.499992 -0.769381 0.000364926 0.63879 -0.995516 -0.00183526 0.0945719 -0.984713 -0.0138797 0.173633 -0.960277 0.00431847 0.279014 0 -0.0385666 -0.999256 0.999587 0 -0.0287552 -0.984808 0 -0.173646 -0.997736 -0.0353358 -0.0572199 -0.970206 0.000398116 -0.242283 -0.772883 -0.586247 0.242831 -0.866024 -0.000634908 -0.500002 -0.874971 -0.00721427 -0.484121 -0.769301 0.000369976 -0.638886 -0.642774 -0.0043501 -0.766044 -0.71085 -0.0506624 -0.701516 -0.534658 0.00732652 -0.845037 -0.341975 -0.0167945 -0.939559 -0.352444 -0.0243786 -0.935515 -0.0800162 0.0189555 -0.996613 0.390969 -0.00776333 -0.920371 0.341779 -0.0377391 -0.939022 0.18235 0.0199424 -0.983031 0.688149 -0.00275919 -0.725564 0.642549 -0.0268354 -0.765775 0.541771 0.0047607 -0.840513 0.865333 -0.00709341 -0.501148 0.866006 -0.0064834 -0.499991 0.769301 0.000371029 -0.638887 0.991456 -0.00513063 -0.130339 0.984715 -0.0137324 -0.17363 0.954545 0.00309901 -0.298051 0.931857 0.00976685 0.362694 0.865885 -0.0179405 0.499922 0.799729 0.0105294 0.600269 0.642713 -0.0159944 0.76594 0.172021 0.0201628 0.984887 0 -0.0405491 0.999178 -0.0903376 0.0216959 0.995675 -0.642598 -0.0247508 0.765804 -0.738149 0.00609653 0.67461 0.984807 0 0.17365 0.997758 -0.0354779 0.0567477 0.985203 -0.013527 0.170857 0.403007 -0.0578306 0.913368 0.342001 -0.0112565 0.939632 0.59726 0.00944326 0.801992 -0.341907 -0.0260141 0.939374 -0.358691 -0.0121712 0.933377 -0.568614 0.00900024 0.822555 -0.865961 -0.0120567 0.499966 -0.865208 -0.0126478 0.501254 -0.943217 0.00496117 0.332139 -0.984728 -0.0127404 0.173636 -0.986526 -0.0103677 0.163278 -0.998634 0 0.0522601 -0.90948 0.0069353 -0.415689 -0.865876 -0.0185106 -0.499916 -0.763032 0.0129327 -0.646232 -0.642596 -0.023909 -0.765832 0.341786 -0.0372184 -0.939041 0.409966 0.00570649 -0.912083 0.147068 0.0305207 -0.988655 0 -0.0455019 -0.998964 -0.0956905 0.00520042 -0.995398 -0.984808 0 -0.173646 -0.99775 -0.0354265 -0.0569179 -0.978818 -0.00696439 -0.204615 -0.33897 -0.00924921 -0.940752 -0.342 -0.0115172 -0.939629 -0.575616 0.00767976 -0.817684 0.642759 -0.00818316 -0.766025 0.640936 -0.00978964 -0.767532 0.781242 0.00280224 -0.624222 0.865916 -0.0158333 -0.49994 0.879573 -0.00636714 -0.475721 0.959535 0.00454023 -0.281553 0.984713 -0.0139306 -0.173629 0.992136 -0.00641895 -0.125 0.99896 0 -0.045588 0 0 1 0 0 1 0 0 1 0 0 1 0 0 1 0 0 1 0 0 1 0 0 1 0 0 1 0 0 1 0 0 1 0 0 1 0 0 1 0 0 1 0 0 1 0 0 1 0 0 1 0 0 1 0 0 1 0 0 1 0 0 1 0 0 1 0 0 1 0 0 1 0 0 1 0 0 1 0 0 1 0 0 1 0 0 1 0 0 1 0 0 1 0 0 1 0 0 1 0 0 1 0 0 1 0 0 1 0 0 1 0 0 1 0 0 1 0 0 1 0 0 1 0 0 1 0 0 1 0 0 1 0 0 1 0 0 -1 0 0 -1 0 0 -1 0 0 -1 0 0 -1 0 0 -1 0 0 -1 0 0 -1 0 0 -1 0 0 -1 0 0 -1 0 0 -1 0 0 -1 0 0 -1 0 0 -1 0 0 -1 0 0 -1 0 0 -1 0 0 -1 0 0 -1 0 0 -1 0 0 -1 0 0 -1 0 0 -1 0 0 -1 0 0 -1 0 0 -1 0 0 -1 0 0 -1 0 0 -1 0 0 -1 0 0 -1 0 0 -1 0 0 -1 0 0 -1 0 0 -1 0 0 -1 0 0 -1 0 0 -1 0 0 -1 0 0 -1 0 0 -1 0 0 -1 0 0 -1 0 0 -1 0 0 -1 0 0 -1 0 0 -1 0 0 -1 0 0 -1 0 0 -1 0 0 -1 0 0 -1 0 0 -1 0 0 -1 0 0 -1 0 0 -1 0 0 -1 0 0 -1 0 0 -1 0 1 0 0 1 0 0 1 0 0 1 0 0 1 0 0 1 0 0 1 0 0 1 0 0 1 0 0 1 0 0 1 0 0 1 0 0 1 0 0 1 0 0 1 0 0 1 0 0 1 0 0 1 0 0 1 0 0 1 0 0 1 0 0 1 0 0 1 0 0 1 0 0 1 0 0 1 0 0 1 0 0 1 0 0 1 0 0 1 0 0 1 0 0 1 0 0 1 0 0 1 0 0 1 0 0 1 0 0 1 0 0 1 0 0 1 0 0 1 0 0 1 0 0 1 0 0 1 0 0 1 0 0 1 0 0 1 0 0 1 0 0 1 0 0 1 0 0 1 0 0 1 0 0 1 0 0 1 0 0 1 0 0 1 0 0 1 0 0 1 0 0 1 0 0 1 0 0 1 0 0.208631 0.838305 0.503704 0.503704 0.838304 0.208636 0.503704 0.838304 -0.208636 0.208631 0.838305 -0.503704 -0.208631 0.838305 -0.503704 -0.503703 0.838304 -0.208636 -0.503703 0.838304 0.208636 -0.208631 0.838305 0.503704 -0.433886 0.900968 0 -0.781832 0.623489 0 -0.781832 0.623489 0 -0.974927 0.222523 0 -0.974927 0.222523 0 -0.433886 0.900968 0 0 1 0 0 1 0 0.433887 0.900967 0 0.433887 0.900967 0 0.781831 0.623491 0 0.781831 0.623491 0 0.974928 0.222521 0 0.974928 0.222521 0 0.433883 -0.900969 0 0.781833 -0.623487 0 0.781833 -0.623487 0 0.974928 -0.222521 0 0.974928 -0.222521 0 0.433883 -0.900969 0 0 -1 0 0 -1 0 -0.433882 -0.90097 0 -0.433882 -0.90097 0 -0.781835 -0.623486 0 -0.781835 -0.623486 0 -0.974927 -0.222523 0 -0.974927 -0.222523 0 -0.433883 0.900969 0 -0.781833 0.623487 0 -0.781833 0.623487 0 -0.974928 0.222521 0 -0.974928 0.222521 0 -0.433883 0.900969 0 0 1 0 0 1 0 0.433882 0.90097 0 0.433882 0.90097 0 0.781835 0.623486 0 0.781835 0.623486 0 0.974927 0.222523 0 0.974927 0.222523 0 0.433886 -0.900968 0 0.781832 -0.623489 0 0.781832 -0.623489 0 0.974927 -0.222523 0 0.974927 -0.222523 0 0.433886 -0.900968 0 0 -1 0 0 -1 0 -0.433887 -0.900967 0 -0.433887 -0.900967 0 -0.781831 -0.623491 0 -0.781831 -0.623491 0 -0.974928 -0.222521 0 -0.974928 -0.222521 0 -0.997669 0.0682432 0 -0.997669 0.0682432 0 -0.979084 0.203456 0 -0.979084 0.203456 0 -0.942261 0.33488 0 -0.942261 0.33488 0 -0.887886 0.460065 0 -0.887886 0.460065 0 -0.81697 0.57668 0 -0.81697 0.57668 0 -0.730836 0.682554 0 -0.730836 0.682554 0 -0.631089 0.775711 0 -0.631089 0.775711 0 -0.519583 0.85442 0 -0.519583 0.85442 0 -0.398401 0.917211 0 -0.398401 0.917211 0 -0.269797 0.962917 0 -0.269797 0.962917 0 -0.136166 0.990686 0 -0.136166 0.990686 0 0 1 0 0 1 0 0.136166 0.990686 0 0.136166 0.990686 0 0.269797 0.962917 0 0.269797 0.962917 0 0.398401 0.917211 0 0.398401 0.917211 0 0.519583 0.85442 0 0.519583 0.85442 0 0.631089 0.775711 0 0.631089 0.775711 0 0.730836 0.682554 0 0.730836 0.682554 0 0.81697 0.57668 0 0.81697 0.57668 0 0.887886 0.460065 0 0.887886 0.460065 0 0.942261 0.33488 0 0.942261 0.33488 0 0.979084 0.203456 0 0.979084 0.203456 0 0.997669 0.0682432 0 0.997669 0.0682432 0 0.978925 -0.203423 -0.0180076 0.949146 -0.314362 0.0172578 0.94204 -0.334801 -0.0216692 0.899595 -0.436234 0.0207271 0.887609 -0.459921 -0.0249457 0.834471 -0.550537 0.0238109 0.816653 -0.576457 -0.0278351 0.75491 -0.655293 0.0265092 0.730499 -0.682239 -0.0303397 0.662293 -0.748691 0.0288203 0.630756 -0.775302 -0.0324581 0.558224 -0.829121 0.0307481 0.519279 -0.85392 -0.0341923 0.444506 -0.895194 0.0322868 0.398149 -0.916632 -0.0355411 0.323106 -0.945772 0.0334421 0.269617 -0.962276 -0.036504 0.196123 -0.979982 0.0342136 0.136073 -0.990005 -0.0370796 0.065755 -0.997236 0.0345975 0 -0.999305 -0.0372762 -0.0653648 -0.997276 0.03417 -0.136073 -0.990007 -0.0370176 -0.194981 -0.980229 0.0336546 -0.26962 -0.962285 -0.036239 -0.321268 -0.946426 0.0326205 -0.398158 -0.916651 -0.0349462 -0.442075 -0.89644 0.0310676 -0.519298 -0.853951 -0.0331356 -0.555337 -0.83112 0.0290002 -0.630789 -0.775343 -0.0308054 -0.659116 -0.751577 0.0264111 -0.73055 -0.682287 -0.0279598 -0.751635 -0.659167 0.0233061 -0.816723 -0.576506 -0.0245948 -0.831308 -0.555463 0.0196809 -0.887695 -0.459966 -0.0207133 -0.896765 -0.442235 0.0155376 -0.942135 -0.334835 -0.0163121 -0.946874 -0.32142 0.0108776 -0.979021 -0.203442 -0.0113919 0.997669 -0.0682432 0 0.99793 -0.0634529 -0.0104754 0.981871 -0.189338 0.00900519 -0.997859 -0.065403 0 -0.997651 -0.068242 -0.00595736 -0.980769 -0.195088 0.00569502 -0.433882 0.90097 0 -0.781835 0.623486 0 -0.781835 0.623486 0 -0.974927 0.222523 0 -0.974927 0.222523 0 -0.433882 0.90097 0 0 1 0 0 1 0 0.433883 0.900969 0 0.433883 0.900969 0 0.781833 0.623487 0 0.781833 0.623487 0 0.974928 0.222521 0 0.974928 0.222521 0 0.433887 -0.900967 0 0.781831 -0.623491 0 0.781831 -0.623491 0 0.974928 -0.222521 0 0.974928 -0.222521 0 0.433887 -0.900967 0 0 -1 0 0 -1 0 -0.433886 -0.900968 0 -0.433886 -0.900968 0 -0.781832 -0.623489 0 -0.781832 -0.623489 0 -0.974927 -0.222523 0 -0.974927 -0.222523 0 0.991445 -0.130529 0 0.991445 -0.130529 0 0.92388 -0.382683 0 0.92388 -0.382683 0 0.793353 -0.608762 0 0.793353 -0.608762 0 0.608762 -0.793353 0 0.608762 -0.793353 0 0.382683 -0.92388 0 0.382683 -0.92388 0 0.130529 -0.991445 0 0.130529 -0.991445 0 -0.130529 -0.991445 0 -0.130529 -0.991445 0 -0.382683 -0.92388 0 -0.382683 -0.92388 0 -0.608762 -0.793353 0 -0.608762 -0.793353 0 -0.793353 -0.608762 0 -0.793353 -0.608762 0 -0.92388 -0.382683 0 -0.92388 -0.382683 0 -0.991445 -0.130529 0 -0.991445 -0.130529 0 -0.433887 0.900967 0 -0.781831 0.623491 0 -0.781831 0.623491 0 -0.974928 0.222521 0 -0.974928 0.222521 0 -0.433887 0.900967 0 0 1 0 0 1 0 0.433886 0.900968 0 0.433886 0.900968 0 0.781832 0.623489 0 0.781832 0.623489 0 0.974927 0.222523 0 0.974927 0.222523 0 0.433882 -0.90097 0 0.781835 -0.623486 0 0.781835 -0.623486 0 0.974927 -0.222523 0 0.974927 -0.222523 0 0.433882 -0.90097 0 0 -1 0 0 -1 0 -0.433883 -0.900969 0 -0.433883 -0.900969 0 -0.781833 -0.623487 0 -0.781833 -0.623487 0 -0.974928 -0.222521 0 -0.974928 -0.222521 0 -0.651214 0.758894 0 -0.528431 0.848976 0 -0.528431 0.848976 0 -0.393393 0.91937 0 -0.393393 0.91937 0 -0.651214 0.758894 0 -0.758894 0.651214 0 -0.758894 0.651214 0 -0.848976 0.528431 0 -0.848976 0.528431 0 -0.91937 0.393393 0 -0.91937 0.393393 0 0 1 0 0 1 0 -1 0 0 -1 0 0 -1 0 0 -1 0 0 -1 0 0 -1 0 0 0 -1 0 0 -1 0 -0.758894 -0.651214 0 -0.848976 -0.528431 0 -0.848976 -0.528431 0 -0.91937 -0.393393 0 -0.91937 -0.393393 0 -0.758894 -0.651214 0 -0.651214 -0.758894 0 -0.651214 -0.758894 0 -0.528431 -0.848976 0 -0.528431 -0.848976 0 -0.393393 -0.91937 0 -0.393393 -0.91937 0 -1 0 0 -1 0 0 0 -1 0 0 -1 0 0 -1 0 0 -1 0 0 -1 0 0 -1 0 1 0 0 1 0 0 0.651214 -0.758894 0 0.528431 -0.848976 0 0.528431 -0.848976 0 0.393393 -0.91937 0 0.393393 -0.91937 0 0.651214 -0.758894 0 0.758894 -0.651214 0 0.758894 -0.651214 0 0.848976 -0.528431 0 0.848976 -0.528431 0 0.91937 -0.393393 0 0.91937 -0.393393 0 0 -1 0 0 -1 0 1 0 0 1 0 0 1 0 0 1 0 0 1 0 0 1 0 0 0 1 0 0 1 0 0.758894 0.651214 0 0.848976 0.528431 0 0.848976 0.528431 0 0.91937 0.393393 0 0.91937 0.393393 0 0.758894 0.651214 0 0.651214 0.758894 0 0.651214 0.758894 0 0.528431 0.848976 0 0.528431 0.848976 0 0.393393 0.91937 0 0.393393 0.91937 0 0 0 1 0 0 1 0.382667 0 0.923886 0.382667 0 0.923886 0.923883 0 0.382676 0.923883 0 0.382676 1 0 0 1 0 0 0.923883 0 -0.382676 0.923883 0 -0.382676 0.382674 0 -0.923883 0.382674 0 -0.923883 0 0 -1 0 0 -1 -0.382673 0 -0.923884 -0.382673 0 -0.923884 -0.923883 0 -0.382675 -0.923883 0 -0.382675 -1 0 0 -1 0 0 -0.923883 0 0.382675 -0.923883 0 0.382675 -0.382667 0 0.923886 -0.382667 0 0.923886 0.923883 0 -0.382675 0.382667 0 -0.923886 0.382667 0 -0.923886 0.923883 0 -0.382675 0.923883 0 0.382675 0.923883 0 0.382675 0.382667 0 0.923886 0.382667 0 0.923886 -0.923882 0 0.382677 -0.382667 0 0.923886 -0.382667 0 0.923886 -0.923882 0 0.382677 -0.923882 0 -0.382677 -0.923882 0 -0.382677 -0.382667 0 -0.923886 -0.382667 0 -0.923886 1 0 0 1 0 0 0 0 -1 0 0 -1 0 0 -1 0 0 -1 0 0 -1 0 0 -1 0 0 -1 0 0 -1 0 0 -1 0 0 -1 0 0 -1 0 0 -1 0 0 -1 0 0 -1 0 0 -1 0 0 -1 0 0 -1 0 0 -1 0 0 -1 0 0 -1 0 0 -1 0 0 -1 0 0 -1 0 0 -1 0 0 -1 0 0 -1 0 0 -1 0 0 -1 0 0 -1 0 0 -1 0.130529 0.991445 0 0.130529 0.991445 0 0.382683 0.92388 0 0.382683 0.92388 0 0.608762 0.793353 0 0.608762 0.793353 0 0.793353 0.608762 0 0.793353 0.608762 0 0.92388 0.382683 0 0.92388 0.382683 0 0.991445 0.130529 0 0.991445 0.130529 0 0 0 1 0 0 1 0 0 1 0 0 1 0 0 1 0 0 1 0 0 1 0 0 1 0 0 1 0 0 1 0 0 1 0 0 1 0 0 1 0 0 1 0 0 1 0 0 1 0 0 1 0 0 1 0 0 1 0 0 1 0 0 1 0 0 1 0 0 1 0 0 1 0 0 1 0 0 1 0 0 1 0 0 1 0 0 1 0 0 1 0 0 1 0 0 1 0 0 1 0 0 1 0 0 1 0 0 1 0 0 1 0 0 1 0 0 1 0 0 1 0 0 1 0 0 1 0 0 1 0 0 1 0 0 1 0 0 1 0 0 1 0 0 1 0 0 1 0 0 1 0 0 1 0 0 1 0 0 1 0 0 1 0 0 1 0 0 1 0 0 1 0 0 1 0 0 1 0 0 1 0 0 1 0 0 1 0 0 1 0 0 1 0 0 1 0 0 1 0 0 1 0 0 1 0 0 1 0 0 1 0 0 1 0 0 1 0 0 1 0 0 1 0 0 1 0 0 1 0 0 1 0 0 1 0 0 1 0 0 1 0 0 1 0 0 1 0 0 1 0 0 1 0 0 1 0 0 1 0 0 1 0 0 1 0 0 1 0 0 1 0 0 1 0 0 1 0 0 1 0 0 1 0 0 1 0 0 1 0 0 1 0 0 1 0 0 1 0 0 1 0 0 1 0 0 1 0 0 1 0 0 1 0 0 1 0 0 1 0 0 1 0 0 1 0 0 1 0 0 1 0 0 1 0 0 1 0 0 1 0 0 1 0 0 1 0 0 1 0 0 1 0 0 1 0 0 1 0 0 1 0 0 1 0 0 1 0 0 1 0 0 1 0 0 1 0 0 1 0 0 1 0 0 1 0 0 1 0 0 1 0 0 1 0 0 1 0 0 1 0 0 1 0 0 1 0 0 1 0 0 1 0 0 1 0 0 -1 0 0 -1 0 0 -1 0 0 -1 0 0 -1 0 0 -1 0 0 -1 0 0 -1 0 0 -1 0 0 -1 0 0 -1 0 0 -1 0 0 -1 0 0 -1 0 0 -1 0 0 -1 0 0 -1 0 0 -1 0 0 -1 0 0 -1 0 0 -1 0 0 -1 0 0 -1 0 0 -1 0 0 -1 0 0 -1 0 0 -1 0 0 -1 0 0 -1 0 0 -1 0 0 -1 0 0 -1 0 0 -1 0 0 -1 0 0 -1 0 0 -1 0 0 -1 0 0 -1 0 0 -1 0 0 -1 0 0 -1 0 0 -1 0 0 -1 0 0 -1 0 0 -1 0 0 -1 0 0 -1 0 0 -1 0 0 -1 0 0 -1 0 0 -1 0 0 -1 0 0 -1 0 0 -1 0 0 -1 0 0 -1 0 0 -1 0 0 -1 0 0 -1 0 0 -1 0 0 -1 0 0 -1 0 0 -1 0 0 -1 0 1 0 0 1 0 0 1 0 0 1 0 0 1 0 0 1 0 0 1 0 0 1 0 0 1 0 0 1 0 0 1 0 0 1 0 0 1 0 0 1 0 0 1 0 0 1 0 0 1 0 0 1 0 0 1 0 0 1 0 0 1 0 0 1 0 0 1 0 0 1 0 0 1 0 0 1 0 0 1 0 0 1 0 0 1 0 0 1 0 0 1 0 0 1 0 0 1 0 0 1 0 0 1 0 0 1 0 0 1 0 0 1 0 0 1 0 0 1 0 0 1 0 0 1 0 0 1 0 0 1 0 0 1 0 0 1 0 0 1 0 0 1 0 0 1 0 0 1 0 0 1 0 0 1 0 0 1 0 0 1 0 -0.923881 0 0.382681 -0.382682 0 0.92388 -0.382682 0 0.92388 -0.923881 0 0.382681 -0.923881 0 -0.38268 -0.923881 0 -0.38268 -0.382682 0 -0.92388 -0.382682 0 -0.92388 0.92388 0 -0.382682 0.382682 0 -0.92388 0.382682 0 -0.92388 0.92388 0 -0.382682 0.92388 0 0.382682 0.92388 0 0.382682 0.382682 0 0.92388 0.382682 0 0.92388 -0.208639 0.838304 -0.503703 -0.503703 0.838304 -0.208639 -0.503703 0.838304 0.208639 -0.208639 0.838304 0.503703 0.208639 0.838304 0.503703 0.503703 0.838304 0.20864 0.503703 0.838304 -0.20864 0.208639 0.838304 -0.503703 1 0 0 1 0 0 0.382667 0 0.923886 0.382667 0 0.923886 0.923883 0 0.382675 0.923883 0 0.382675 0 0 1 0 0 1 -0.923883 0 0.382676 -0.923883 0 0.382676 -0.382667 0 0.923886 -0.382667 0 0.923886 -1 0 0 -1 0 0 -0.382674 0 -0.923883 -0.382674 0 -0.923883 -0.923883 0 -0.382676 -0.923883 0 -0.382676 0 0 -1 0 0 -1 0.923883 0 -0.382675 0.923883 0 -0.382675 0.382673 0 -0.923884 0.382673 0 -0.923884 -1 0 0 -1 0 0 0 1 0 0 1 0 0 1 0 0 1 0 1 0 0 1 0 0 -1 0 0 -1 0 0 -0.991445 0.130529 0 -0.991445 0.130529 0 -0.92388 0.382683 0 -0.92388 0.382683 0 -0.793353 0.608762 0 -0.793353 0.608762 0 -0.608762 0.793353 0 -0.608762 0.793353 0 -0.382683 0.92388 0 -0.382683 0.92388 0 -0.130529 0.991445 0 -0.130529 0.991445 0</float_array>
                    <technique_common>
                        <accessor count="1626" source="#shape0-lib-normals-array" stride="3">
                            <param name="X" type="float"/>
                            <param name="Y" type="float"/>
                            <param name="Z" type="float"/>
                        </accessor>
                    </technique_common>
                </source>
                <vertices id="shape0-lib-vertices">
                    <input semantic="POSITION" source="#shape0-lib-positions"/>
                </vertices>
                <triangles count="1626">
                    <input offset="0" semantic="VERTEX" source="#shape0-lib-vertices"/>
                    <input offset="1" semantic="NORMAL" source="#shape0-lib-normals"/>
                    <p>0 0 1 0 2 0 3 1 4 1 5 1 5 2 4 2 6 2 5 3 6 3 7 3 7 4 6 4 8 4 7 5 8 5 9 5 9 6 8 6 10 6 9 7 10 7 11 7 11 8 10 8 12 8 11 9 12 9 13 9 13 10 12 10 14 10 13 11 14 11 15 11 15 12 14 12 2 12 15 13 2 13 1 13 16 14 2 14 17 14 17 15 2 15 14 15 17 16 14 16 18 16 18 17 14 17 12 17 18 18 12 18 19 18 19 19 12 19 10 19 19 20 10 20 20 20 2 21 16 21 0 21 0 22 16 22 21 22 0 23 21 23 1 23 1 24 21 24 22 24 1 25 22 25 15 25 15 26 22 26 23 26 15 27 23 27 13 27 13 28 23 28 24 28 13 29 24 29 11 29 25 30 5 30 26 30 26 31 5 31 7 31 26 32 7 32 27 32 27 33 7 33 9 33 27 34 9 34 28 34 28 35 9 35 11 35 28 36 11 36 24 36 5 37 25 37 3 37 3 38 25 38 29 38 3 39 29 39 4 39 4 40 29 40 30 40 4 41 30 41 6 41 6 42 30 42 31 42 6 43 31 43 8 43 8 44 31 44 20 44 8 45 20 45 10 45 26 46 32 46 25 46 25 47 32 47 33 47 25 48 33 48 34 48 17 49 35 49 16 49 16 50 35 50 36 50 16 51 36 51 37 51 38 52 30 52 39 52 39 53 30 53 29 53 39 54 29 54 40 54 40 55 29 55 25 55 40 56 25 56 34 56 30 57 38 57 31 57 31 58 38 58 41 58 31 59 41 59 20 59 20 60 41 60 42 60 20 61 42 61 19 61 19 62 42 62 43 62 19 63 43 63 18 63 18 64 43 64 35 64 18 65 35 65 17 65 44 66 22 66 45 66 45 67 22 67 21 67 45 68 21 68 46 68 46 69 21 69 16 69 46 70 16 70 37 70 22 71 44 71 23 71 23 72 44 72 47 72 23 73 47 73 24 73 24 74 47 74 48 74 24 75 48 75 28 75 28 76 48 76 49 76 28 77 49 77 27 77 27 78 49 78 32 78 27 79 32 79 26 79 50 80 51 80 52 80 53 81 54 81 55 81 55 82 54 82 56 82 55 83 56 83 57 83 57 84 56 84 58 84 57 85 58 85 59 85 59 86 58 86 60 86 59 87 60 87 61 87 61 88 60 88 62 88 61 89 62 89 63 89 63 90 62 90 64 90 63 91 64 91 65 91 65 92 64 92 52 92 65 93 52 93 51 93 66 94 41 94 67 94 67 95 41 95 38 95 67 96 38 96 68 96 68 97 38 97 39 97 68 98 39 98 69 98 69 99 39 99 40 99 69 100 40 100 70 100 70 101 40 101 34 101 70 102 34 102 71 102 71 103 34 103 33 103 71 104 33 104 72 104 72 105 33 105 32 105 72 106 32 106 73 106 73 107 32 107 49 107 73 108 49 108 74 108 74 109 49 109 48 109 74 110 48 110 75 110 75 111 48 111 47 111 75 112 47 112 76 112 76 113 47 113 44 113 76 114 44 114 77 114 77 115 44 115 45 115 77 116 45 116 78 116 78 117 45 117 46 117 78 118 46 118 79 118 79 119 46 119 37 119 79 120 37 120 80 120 80 121 37 121 36 121 80 122 36 122 81 122 81 123 36 123 35 123 81 124 35 124 82 124 82 125 35 125 43 125 82 126 43 126 83 126 83 127 43 127 42 127 83 128 42 128 66 128 66 129 42 129 41 129 84 130 52 130 85 130 85 131 52 131 64 131 85 132 64 132 86 132 86 133 64 133 62 133 86 134 62 134 87 134 87 135 62 135 60 135 87 136 60 136 88 136 52 137 84 137 50 137 50 138 84 138 89 138 50 139 89 139 51 139 51 140 89 140 90 140 51 141 90 141 65 141 65 142 90 142 91 142 65 143 91 143 63 143 63 144 91 144 92 144 63 145 92 145 61 145 93 146 55 146 94 146 94 147 55 147 57 147 94 148 57 148 95 148 95 149 57 149 59 149 95 150 59 150 96 150 96 151 59 151 61 151 96 152 61 152 92 152 55 153 93 153 53 153 53 154 93 154 97 154 53 155 97 155 54 155 54 156 97 156 98 156 54 157 98 157 56 157 56 158 98 158 99 158 56 159 99 159 58 159 58 160 99 160 88 160 58 161 88 161 60 161 100 162 101 162 80 162 80 163 81 163 100 163 100 164 81 164 82 164 100 165 82 165 102 165 102 166 82 166 83 166 102 167 83 167 103 167 103 168 83 168 66 168 103 169 66 169 104 169 104 170 66 170 67 170 104 171 67 171 105 171 105 172 67 172 68 172 105 173 68 173 106 173 106 174 68 174 69 174 106 175 69 175 107 175 107 176 69 176 70 176 107 177 70 177 108 177 108 178 70 178 71 178 108 179 71 179 109 179 109 180 71 180 72 180 109 181 72 181 110 181 110 182 72 182 73 182 110 183 73 183 111 183 111 184 73 184 74 184 111 185 74 185 112 185 112 186 74 186 75 186 112 187 75 187 113 187 113 188 75 188 76 188 113 189 76 189 114 189 114 190 76 190 77 190 114 191 77 191 115 191 115 192 77 192 78 192 115 193 78 193 116 193 116 194 78 194 79 194 116 195 79 195 117 195 117 196 79 196 80 196 117 197 80 197 101 197 94 198 118 198 93 198 93 199 118 199 119 199 93 200 119 200 120 200 85 201 121 201 84 201 84 202 121 202 122 202 84 203 122 203 123 203 124 204 98 204 125 204 125 205 98 205 97 205 125 206 97 206 126 206 126 207 97 207 93 207 126 208 93 208 120 208 98 209 124 209 99 209 99 210 124 210 127 210 99 211 127 211 88 211 88 212 127 212 128 212 88 213 128 213 87 213 87 214 128 214 129 214 87 215 129 215 86 215 86 216 129 216 121 216 86 217 121 217 85 217 130 218 90 218 131 218 131 219 90 219 89 219 131 220 89 220 132 220 132 221 89 221 84 221 132 222 84 222 123 222 90 223 130 223 91 223 91 224 130 224 133 224 91 225 133 225 92 225 92 226 133 226 134 226 92 227 134 227 96 227 96 228 134 228 135 228 96 229 135 229 95 229 95 230 135 230 118 230 95 231 118 231 94 231 136 232 105 232 106 232 136 233 106 233 137 233 137 234 106 234 107 234 137 235 107 235 138 235 138 236 107 236 108 236 138 237 108 237 139 237 139 238 108 238 109 238 139 239 109 239 140 239 140 240 109 240 110 240 140 241 110 241 141 241 141 242 110 242 111 242 141 243 111 243 142 243 142 244 111 244 112 244 143 245 104 245 144 245 144 246 104 246 105 246 144 247 105 247 136 247 113 248 145 248 112 248 112 249 145 249 146 249 112 250 146 250 142 250 145 251 113 251 147 251 147 252 113 252 114 252 147 253 114 253 148 253 148 254 114 254 115 254 148 255 115 255 149 255 149 256 115 256 116 256 149 257 116 257 150 257 150 258 116 258 117 258 150 259 117 259 151 259 151 260 117 260 101 260 151 261 101 261 152 261 152 262 101 262 100 262 152 263 100 263 153 263 153 264 100 264 102 264 153 265 102 265 154 265 154 266 102 266 103 266 154 267 103 267 143 267 143 268 103 268 104 268 155 269 156 269 157 269 157 270 156 270 158 270 156 271 159 271 158 271 158 272 159 272 160 272 160 273 159 273 161 273 161 274 159 274 162 274 162 275 163 275 161 275 161 276 163 276 164 276 164 277 163 277 165 277 164 278 165 278 166 278 167 279 168 279 166 279 166 280 168 280 164 280 169 281 170 281 171 281 171 282 170 282 172 282 171 283 172 283 173 283 169 284 171 284 167 284 167 285 171 285 168 285 174 286 124 286 125 286 174 287 125 287 175 287 175 288 125 288 126 288 175 289 126 289 176 289 176 290 126 290 120 290 176 291 120 291 177 291 177 292 120 292 119 292 177 293 119 293 178 293 178 294 119 294 118 294 178 295 118 295 179 295 179 296 118 296 135 296 179 297 135 297 180 297 180 298 135 298 134 298 181 299 127 299 182 299 182 300 127 300 124 300 182 301 124 301 174 301 133 302 183 302 134 302 134 303 183 303 184 303 134 304 184 304 180 304 183 305 133 305 185 305 185 306 133 306 130 306 185 307 130 307 186 307 186 308 130 308 131 308 186 309 131 309 187 309 187 310 131 310 132 310 187 311 132 311 188 311 188 312 132 312 123 312 188 313 123 313 189 313 189 314 123 314 122 314 189 315 122 315 190 315 190 316 122 316 121 316 190 317 121 317 191 317 191 318 121 318 129 318 191 319 129 319 192 319 192 320 129 320 128 320 192 321 128 321 181 321 181 322 128 322 127 322 193 323 194 323 195 323 195 324 194 324 196 324 194 325 197 325 196 325 196 326 197 326 198 326 199 327 200 327 201 327 201 328 200 328 202 328 201 329 202 329 203 329 199 330 201 330 204 330 204 331 201 331 205 331 158 332 160 332 151 332 151 333 160 333 161 333 151 334 161 334 150 334 150 335 161 335 164 335 150 336 164 336 168 336 136 337 206 337 144 337 144 338 206 338 207 338 144 339 207 339 143 339 143 340 207 340 208 340 143 341 208 341 154 341 154 342 208 342 209 342 154 343 209 343 153 343 153 344 209 344 157 344 153 345 157 345 152 345 152 346 157 346 158 346 152 347 158 347 151 347 210 348 211 348 139 348 139 349 211 349 212 349 139 350 212 350 138 350 138 351 212 351 213 351 138 352 213 352 137 352 137 353 213 353 206 353 137 354 206 354 136 354 168 355 171 355 150 355 150 356 171 356 173 356 150 357 173 357 149 357 149 358 173 358 214 358 149 359 214 359 148 359 140 360 141 360 215 360 215 361 141 361 142 361 215 362 142 362 216 362 216 363 142 363 146 363 216 364 146 364 217 364 217 365 146 365 145 365 217 366 145 366 218 366 218 367 145 367 147 367 218 368 147 368 219 368 219 369 147 369 148 369 219 370 148 370 214 370 140 371 215 371 139 371 139 372 215 372 210 372 220 373 209 373 208 373 207 374 221 374 222 374 155 375 157 375 223 375 223 376 157 376 209 376 223 377 209 377 220 377 207 378 222 378 208 378 208 379 222 379 224 379 208 380 224 380 220 380 221 381 225 381 222 381 226 382 227 382 163 382 226 383 163 383 162 383 226 384 162 384 159 384 226 385 159 385 156 385 226 386 156 386 228 386 166 387 165 387 167 387 167 388 165 388 229 388 167 389 229 389 169 389 169 390 229 390 230 390 169 391 230 391 170 391 222 392 225 392 224 392 224 393 225 393 231 393 224 394 231 394 220 394 220 395 231 395 232 395 220 396 232 396 223 396 223 397 232 397 233 397 223 398 233 398 234 398 223 399 234 399 155 399 155 400 234 400 228 400 155 401 228 401 156 401 163 402 227 402 165 402 165 403 227 403 235 403 165 404 235 404 229 404 170 405 230 405 172 405 172 406 230 406 236 406 172 407 236 407 237 407 237 408 236 408 238 408 238 409 236 409 239 409 238 410 239 410 240 410 240 411 239 411 241 411 240 412 241 412 242 412 242 413 241 413 243 413 242 414 243 414 244 414 219 415 214 415 238 415 219 416 238 416 240 416 219 417 240 417 242 417 219 418 242 418 244 418 219 419 244 419 218 419 173 420 172 420 214 420 214 421 172 421 237 421 214 422 237 422 238 422 196 423 198 423 189 423 189 424 198 424 245 424 189 425 245 425 188 425 188 426 245 426 246 426 188 427 246 427 205 427 174 428 247 428 182 428 182 429 247 429 248 429 182 430 248 430 181 430 181 431 248 431 249 431 181 432 249 432 192 432 192 433 249 433 250 433 192 434 250 434 191 434 191 435 250 435 195 435 191 436 195 436 190 436 190 437 195 437 196 437 190 438 196 438 189 438 251 439 252 439 177 439 177 440 252 440 253 440 177 441 253 441 176 441 176 442 253 442 254 442 176 443 254 443 175 443 175 444 254 444 247 444 175 445 247 445 174 445 205 446 201 446 188 446 188 447 201 447 203 447 188 448 203 448 187 448 187 449 203 449 255 449 187 450 255 450 186 450 178 451 179 451 256 451 256 452 179 452 180 452 256 453 180 453 257 453 257 454 180 454 184 454 257 455 184 455 258 455 258 456 184 456 183 456 258 457 183 457 259 457 259 458 183 458 185 458 259 459 185 459 260 459 260 460 185 460 186 460 260 461 186 461 255 461 178 462 256 462 177 462 177 463 256 463 251 463 193 464 195 464 261 464 261 465 195 465 250 465 261 466 250 466 262 466 262 467 250 467 263 467 263 468 250 468 249 468 263 469 249 469 264 469 265 470 264 470 248 470 248 471 264 471 249 471 266 472 267 472 268 472 266 473 268 473 269 473 266 474 269 474 270 474 270 475 269 475 271 475 270 476 271 476 197 476 270 477 197 477 194 477 270 478 194 478 193 478 270 479 193 479 272 479 273 480 268 480 204 480 204 481 268 481 267 481 204 482 267 482 199 482 199 483 267 483 274 483 199 484 274 484 200 484 275 485 263 485 276 485 276 486 263 486 264 486 276 487 264 487 265 487 272 488 193 488 277 488 277 489 193 489 261 489 277 490 261 490 278 490 278 491 261 491 262 491 278 492 262 492 279 492 279 493 262 493 263 493 279 494 263 494 275 494 200 495 274 495 202 495 202 496 274 496 280 496 202 497 280 497 281 497 281 498 280 498 282 498 281 499 282 499 283 499 283 500 282 500 284 500 283 501 284 501 285 501 285 502 284 502 286 502 285 503 286 503 287 503 287 504 286 504 288 504 287 505 288 505 289 505 260 506 255 506 283 506 260 507 283 507 285 507 260 508 285 508 287 508 260 509 287 509 289 509 260 510 289 510 259 510 203 511 202 511 255 511 255 512 202 512 281 512 255 513 281 513 283 513 290 514 291 514 239 514 292 515 293 515 212 515 294 516 206 516 295 516 296 517 297 517 211 517 211 518 210 518 296 518 298 519 217 519 299 519 300 520 301 520 225 520 300 521 225 521 221 521 300 522 221 522 207 522 300 523 207 523 206 523 300 524 206 524 294 524 213 525 212 525 293 525 213 526 293 526 302 526 213 527 302 527 303 527 213 528 303 528 295 528 213 529 295 529 206 529 218 530 244 530 243 530 218 531 243 531 304 531 218 532 304 532 305 532 218 533 305 533 299 533 218 534 299 534 217 534 225 535 301 535 231 535 231 536 301 536 306 536 231 537 306 537 232 537 232 538 306 538 307 538 232 539 307 539 308 539 232 540 308 540 233 540 233 541 308 541 309 541 233 542 309 542 234 542 234 543 309 543 310 543 234 544 310 544 228 544 228 545 310 545 311 545 228 546 311 546 226 546 226 547 311 547 312 547 226 548 312 548 227 548 227 549 312 549 313 549 227 550 313 550 235 550 235 551 313 551 229 551 229 552 313 552 314 552 229 553 314 553 230 553 230 554 314 554 315 554 230 555 315 555 236 555 236 556 315 556 316 556 236 557 316 557 239 557 239 558 316 558 317 558 239 559 317 559 290 559 239 560 291 560 241 560 241 561 291 561 318 561 241 562 318 562 243 562 243 563 318 563 319 563 243 564 319 564 304 564 211 565 297 565 212 565 212 566 297 566 320 566 212 567 320 567 292 567 215 568 321 568 210 568 210 569 321 569 322 569 210 570 322 570 296 570 216 571 323 571 215 571 215 572 323 572 324 572 215 573 324 573 321 573 217 574 298 574 216 574 216 575 298 575 325 575 216 576 325 576 323 576 326 577 247 577 327 577 247 578 328 578 327 578 329 579 328 579 247 579 247 580 254 580 329 580 329 581 254 581 330 581 330 582 254 582 253 582 331 583 332 583 252 583 252 584 251 584 331 584 333 585 334 585 256 585 256 586 257 586 333 586 335 587 258 587 336 587 265 588 248 588 247 588 265 589 247 589 326 589 265 590 326 590 337 590 265 591 337 591 276 591 259 592 289 592 338 592 259 593 338 593 339 593 259 594 339 594 336 594 259 595 336 595 258 595 338 596 289 596 340 596 340 597 289 597 288 597 340 598 288 598 286 598 276 599 337 599 275 599 275 600 337 600 341 600 275 601 341 601 279 601 279 602 341 602 342 602 279 603 342 603 278 603 278 604 342 604 343 604 278 605 343 605 344 605 278 606 344 606 277 606 277 607 344 607 345 607 277 608 345 608 272 608 272 609 345 609 270 609 270 610 345 610 346 610 270 611 346 611 266 611 266 612 346 612 347 612 266 613 347 613 267 613 267 614 347 614 348 614 267 615 348 615 274 615 274 616 348 616 349 616 274 617 349 617 280 617 280 618 349 618 350 618 280 619 350 619 282 619 282 620 350 620 284 620 284 621 350 621 351 621 284 622 351 622 286 622 286 623 351 623 352 623 286 624 352 624 340 624 252 625 332 625 253 625 253 626 332 626 353 626 253 627 353 627 330 627 256 628 334 628 251 628 251 629 334 629 354 629 251 630 354 630 331 630 258 631 335 631 257 631 257 632 335 632 355 632 257 633 355 633 333 633 292 634 320 634 356 634 357 635 296 635 358 635 359 636 305 636 304 636 360 637 300 637 361 637 361 638 300 638 294 638 361 639 294 639 295 639 302 640 362 640 303 640 303 641 362 641 361 641 303 642 361 642 295 642 292 643 356 643 293 643 293 644 356 644 362 644 293 645 362 645 302 645 356 646 320 646 357 646 357 647 320 647 297 647 357 648 297 648 296 648 321 649 363 649 322 649 322 650 363 650 358 650 322 651 358 651 296 651 323 652 364 652 324 652 324 653 364 653 363 653 324 654 363 654 321 654 298 655 365 655 325 655 325 656 365 656 364 656 325 657 364 657 323 657 305 658 359 658 299 658 299 659 359 659 365 659 299 660 365 660 298 660 366 661 313 661 367 661 300 662 360 662 301 662 359 663 304 663 368 663 368 664 304 664 319 664 368 665 319 665 291 665 291 666 319 666 318 666 368 667 291 667 369 667 369 668 291 668 290 668 369 669 290 669 317 669 369 670 317 670 370 670 370 671 317 671 316 671 370 672 316 672 315 672 370 673 315 673 366 673 366 674 315 674 314 674 366 675 314 675 313 675 311 676 371 676 312 676 312 677 371 677 367 677 312 678 367 678 313 678 309 679 372 679 310 679 310 680 372 680 371 680 310 681 371 681 311 681 307 682 373 682 308 682 308 683 373 683 372 683 308 684 372 684 309 684 301 685 360 685 306 685 306 686 360 686 373 686 306 687 373 687 307 687 374 688 328 688 329 688 374 689 329 689 375 689 329 690 330 690 375 690 376 691 375 691 330 691 332 692 331 692 377 692 378 693 377 693 331 693 331 694 354 694 378 694 379 695 333 695 380 695 333 696 355 696 380 696 381 697 326 697 374 697 374 698 326 698 327 698 374 699 327 699 328 699 332 700 377 700 353 700 353 701 377 701 376 701 353 702 376 702 330 702 378 703 354 703 379 703 379 704 354 704 334 704 379 705 334 705 333 705 380 706 355 706 382 706 382 707 355 707 335 707 382 708 335 708 336 708 382 709 336 709 383 709 383 710 336 710 339 710 383 711 339 711 338 711 384 712 352 712 351 712 384 713 351 713 385 713 351 714 350 714 385 714 386 715 385 715 350 715 387 716 388 716 346 716 346 717 345 717 387 717 347 718 346 718 388 718 347 719 388 719 389 719 347 720 389 720 348 720 383 721 338 721 384 721 384 722 338 722 340 722 384 723 340 723 352 723 348 724 389 724 349 724 349 725 389 725 386 725 349 726 386 726 350 726 387 727 345 727 390 727 390 728 345 728 344 728 390 729 344 729 343 729 390 730 343 730 391 730 391 731 343 731 342 731 391 732 342 732 341 732 391 733 341 733 381 733 381 734 341 734 337 734 381 735 337 735 326 735 392 736 393 736 394 736 394 737 393 737 395 737 394 738 395 738 396 738 396 739 395 739 397 739 396 740 397 740 398 740 398 741 397 741 399 741 398 742 399 742 400 742 400 743 399 743 401 743 400 744 401 744 402 744 402 745 401 745 403 745 402 746 403 746 404 746 404 747 403 747 405 747 404 748 405 748 406 748 406 749 405 749 407 749 406 750 407 750 408 750 408 751 407 751 409 751 408 752 409 752 410 752 410 753 409 753 411 753 410 754 411 754 412 754 412 755 411 755 413 755 412 756 413 756 414 756 414 757 413 757 415 757 414 758 415 758 416 758 416 759 415 759 417 759 416 760 417 760 418 760 418 761 417 761 419 761 418 762 419 762 420 762 420 763 419 763 421 763 420 764 421 764 422 764 422 765 421 765 423 765 422 766 423 766 424 766 424 767 423 767 425 767 424 768 425 768 426 768 426 769 425 769 427 769 426 770 427 770 428 770 428 771 427 771 429 771 428 772 429 772 430 772 430 773 429 773 431 773 430 774 431 774 432 774 432 775 431 775 433 775 432 776 433 776 434 776 434 777 433 777 435 777 434 778 435 778 436 778 436 779 435 779 437 779 436 780 437 780 438 780 439 781 440 781 441 781 442 782 443 782 444 782 445 783 446 783 447 783 445 784 447 784 441 784 445 785 441 785 440 785 445 786 440 786 448 786 445 787 448 787 449 787 445 788 449 788 450 788 445 789 450 789 451 789 445 790 451 790 452 790 453 791 454 791 455 791 455 792 454 792 456 792 455 793 456 793 457 793 457 794 456 794 442 794 457 795 442 795 458 795 458 796 442 796 444 796 458 797 444 797 459 797 460 798 461 798 462 798 462 799 461 799 439 799 462 800 439 800 463 800 463 801 439 801 441 801 463 802 441 802 464 802 456 803 454 803 465 803 465 804 454 804 452 804 465 805 452 805 451 805 466 806 467 806 468 806 468 807 467 807 444 807 468 808 444 808 443 808 466 809 460 809 467 809 467 810 460 810 462 810 469 811 470 811 471 811 472 812 473 812 474 812 472 813 474 813 475 813 472 814 475 814 476 814 472 815 476 815 477 815 472 816 477 816 478 816 472 817 478 817 479 817 472 818 479 818 480 818 472 819 480 819 481 819 472 820 481 820 482 820 483 821 484 821 485 821 483 822 485 822 486 822 483 823 486 823 487 823 483 824 487 824 488 824 488 825 489 825 483 825 483 826 489 826 470 826 489 827 490 827 470 827 470 828 490 828 471 828 491 829 492 829 493 829 493 830 492 830 494 830 493 831 494 831 495 831 495 832 494 832 479 832 495 833 479 833 478 833 496 834 497 834 498 834 498 835 497 835 469 835 498 836 469 836 471 836 498 837 492 837 496 837 496 838 492 838 491 838 484 839 474 839 485 839 485 840 474 840 473 840 360 841 499 841 373 841 500 842 501 842 359 842 500 843 359 843 368 843 500 844 368 844 369 844 500 845 369 845 370 845 500 846 370 846 366 846 500 847 366 847 367 847 502 848 500 848 367 848 502 849 367 849 371 849 502 850 371 850 372 850 502 851 372 851 373 851 502 852 373 852 499 852 503 853 357 853 358 853 503 854 358 854 363 854 503 855 363 855 364 855 503 856 364 856 365 856 503 857 365 857 359 857 503 858 359 858 504 858 505 859 506 859 361 859 505 860 361 860 362 860 505 861 362 861 356 861 505 862 356 862 357 862 505 863 357 863 503 863 507 864 504 864 508 864 508 865 504 865 359 865 508 866 359 866 501 866 361 867 506 867 360 867 360 868 506 868 509 868 360 869 509 869 499 869 499 870 509 870 510 870 381 871 511 871 391 871 512 872 513 872 383 872 512 873 383 873 384 873 512 874 384 874 385 874 512 875 385 875 386 875 512 876 386 876 389 876 512 877 389 877 388 877 514 878 512 878 388 878 514 879 388 879 387 879 514 880 387 880 390 880 514 881 390 881 391 881 514 882 391 882 511 882 515 883 377 883 378 883 515 884 378 884 379 884 515 885 379 885 380 885 515 886 380 886 382 886 515 887 382 887 383 887 515 888 383 888 516 888 517 889 518 889 374 889 517 890 374 890 375 890 517 891 375 891 376 891 517 892 376 892 377 892 517 893 377 893 515 893 519 894 516 894 520 894 520 895 516 895 383 895 520 896 383 896 513 896 374 897 518 897 381 897 381 898 518 898 521 898 381 899 521 899 511 899 511 900 521 900 522 900 523 901 524 901 525 901 523 902 525 902 526 902 523 903 526 903 527 903 523 904 527 904 528 904 523 905 528 905 529 905 523 906 529 906 530 906 523 907 530 907 531 907 523 908 531 908 524 908 532 909 533 909 534 909 534 910 533 910 535 910 534 911 535 911 536 911 536 912 535 912 537 912 536 913 537 913 538 913 533 914 532 914 539 914 539 915 532 915 540 915 539 916 540 916 541 916 541 917 540 917 542 917 541 918 542 918 543 918 543 919 542 919 544 919 543 920 544 920 545 920 545 921 544 921 546 921 545 922 546 922 547 922 548 923 549 923 550 923 550 924 549 924 551 924 550 925 551 925 552 925 552 926 551 926 547 926 552 927 547 927 546 927 549 928 548 928 553 928 553 929 548 929 554 929 553 930 554 930 555 930 555 931 554 931 556 931 555 932 556 932 557 932 557 933 556 933 558 933 557 934 558 934 559 934 559 935 558 935 538 935 559 936 538 936 537 936 442 937 560 937 443 937 443 938 560 938 561 938 443 939 561 939 468 939 468 940 561 940 562 940 468 941 562 941 466 941 560 942 442 942 563 942 563 943 442 943 456 943 563 944 456 944 564 944 564 945 456 945 465 945 564 946 465 946 565 946 565 947 465 947 451 947 565 948 451 948 566 948 566 949 451 949 450 949 566 950 450 950 567 950 440 951 568 951 448 951 448 952 568 952 569 952 448 953 569 953 449 953 449 954 569 954 567 954 449 955 567 955 450 955 568 956 440 956 570 956 570 957 440 957 439 957 570 958 439 958 571 958 571 959 439 959 461 959 571 960 461 960 572 960 572 961 461 961 460 961 572 962 460 962 573 962 573 963 460 963 466 963 573 964 466 964 562 964 574 965 416 965 575 965 575 966 416 966 418 966 575 967 418 967 576 967 576 968 418 968 420 968 576 969 420 969 577 969 577 970 420 970 422 970 577 971 422 971 578 971 578 972 422 972 424 972 578 973 424 973 579 973 579 974 424 974 426 974 579 975 426 975 580 975 580 976 426 976 428 976 580 977 428 977 581 977 581 978 428 978 430 978 581 979 430 979 582 979 582 980 430 980 432 980 582 981 432 981 583 981 583 982 432 982 434 982 583 983 434 983 584 983 584 984 434 984 436 984 584 985 436 985 585 985 585 986 436 986 438 986 585 987 438 987 586 987 586 988 438 988 437 988 586 989 437 989 587 989 587 990 437 990 435 990 587 991 435 991 588 991 588 992 435 992 433 992 588 993 433 993 589 993 589 994 433 994 431 994 589 995 431 995 590 995 590 996 431 996 429 996 590 997 429 997 591 997 591 998 429 998 427 998 591 999 427 999 592 999 592 1000 427 1000 425 1000 592 1001 425 1001 593 1001 593 1002 425 1002 423 1002 593 1003 423 1003 594 1003 594 1004 423 1004 421 1004 594 1005 421 1005 595 1005 595 1006 421 1006 419 1006 595 1007 419 1007 596 1007 596 1008 419 1008 417 1008 596 1009 417 1009 597 1009 597 1010 417 1010 415 1010 598 1011 411 1011 599 1011 599 1012 411 1012 409 1012 599 1013 409 1013 600 1013 600 1014 409 1014 407 1014 600 1015 407 1015 601 1015 601 1016 407 1016 405 1016 601 1017 405 1017 602 1017 602 1018 405 1018 403 1018 602 1019 403 1019 603 1019 603 1020 403 1020 401 1020 603 1021 401 1021 604 1021 604 1022 401 1022 399 1022 604 1023 399 1023 605 1023 605 1024 399 1024 397 1024 605 1025 397 1025 606 1025 606 1026 397 1026 395 1026 606 1027 395 1027 607 1027 607 1028 395 1028 393 1028 607 1029 393 1029 608 1029 608 1030 393 1030 392 1030 608 1031 392 1031 609 1031 392 1032 394 1032 609 1032 610 1033 609 1033 394 1033 394 1034 396 1034 610 1034 611 1035 610 1035 396 1035 396 1036 398 1036 611 1036 612 1037 611 1037 398 1037 398 1038 400 1038 612 1038 613 1039 612 1039 400 1039 400 1040 402 1040 613 1040 614 1041 613 1041 402 1041 402 1042 404 1042 614 1042 615 1043 614 1043 404 1043 404 1044 406 1044 615 1044 616 1045 615 1045 406 1045 406 1046 408 1046 616 1046 617 1047 616 1047 408 1047 408 1048 410 1048 617 1048 618 1049 617 1049 410 1049 410 1050 412 1050 618 1050 619 1051 618 1051 412 1051 597 1052 415 1052 598 1052 598 1053 415 1053 413 1053 598 1054 413 1054 411 1054 416 1055 574 1055 414 1055 414 1056 574 1056 619 1056 414 1057 619 1057 412 1057 483 1058 620 1058 484 1058 484 1059 620 1059 621 1059 484 1060 621 1060 474 1060 474 1061 621 1061 622 1061 474 1062 622 1062 475 1062 620 1063 483 1063 623 1063 623 1064 483 1064 470 1064 623 1065 470 1065 624 1065 624 1066 470 1066 469 1066 624 1067 469 1067 625 1067 625 1068 469 1068 497 1068 625 1069 497 1069 626 1069 626 1070 497 1070 496 1070 626 1071 496 1071 627 1071 495 1072 628 1072 493 1072 493 1073 628 1073 629 1073 493 1074 629 1074 491 1074 491 1075 629 1075 627 1075 491 1076 627 1076 496 1076 628 1077 495 1077 630 1077 630 1078 495 1078 478 1078 630 1079 478 1079 631 1079 631 1080 478 1080 477 1080 631 1081 477 1081 632 1081 632 1082 477 1082 476 1082 632 1083 476 1083 633 1083 633 1084 476 1084 475 1084 633 1085 475 1085 622 1085 472 1086 634 1086 473 1086 473 1087 634 1087 635 1087 473 1088 635 1088 485 1088 485 1089 635 1089 636 1089 485 1090 636 1090 486 1090 486 1091 636 1091 637 1091 486 1092 637 1092 487 1092 487 1093 637 1093 638 1093 487 1094 638 1094 488 1094 488 1095 638 1095 639 1095 488 1096 639 1096 489 1096 489 1097 639 1097 640 1097 458 1098 641 1098 457 1098 457 1099 641 1099 642 1099 457 1100 642 1100 455 1100 455 1101 642 1101 643 1101 455 1102 643 1102 453 1102 453 1103 643 1103 644 1103 453 1104 644 1104 454 1104 454 1105 644 1105 645 1105 454 1106 645 1106 452 1106 452 1107 645 1107 646 1107 452 1108 646 1108 445 1108 445 1109 646 1109 647 1109 648 1110 649 1110 650 1110 650 1111 649 1111 651 1111 650 1112 651 1112 652 1112 652 1113 651 1113 653 1113 652 1114 653 1114 654 1114 649 1115 648 1115 655 1115 655 1116 648 1116 656 1116 655 1117 656 1117 657 1117 657 1118 656 1118 658 1118 657 1119 658 1119 659 1119 659 1120 658 1120 660 1120 659 1121 660 1121 661 1121 661 1122 660 1122 662 1122 661 1123 662 1123 663 1123 664 1124 665 1124 666 1124 666 1125 665 1125 667 1125 666 1126 667 1126 668 1126 668 1127 667 1127 663 1127 668 1128 663 1128 662 1128 665 1129 664 1129 669 1129 669 1130 664 1130 670 1130 669 1131 670 1131 671 1131 671 1132 670 1132 672 1132 671 1133 672 1133 673 1133 673 1134 672 1134 674 1134 673 1135 674 1135 675 1135 675 1136 674 1136 654 1136 675 1137 654 1137 653 1137 676 1138 677 1138 678 1138 678 1139 677 1139 679 1139 678 1140 679 1140 680 1140 680 1141 679 1141 681 1141 680 1142 681 1142 682 1142 677 1143 676 1143 683 1143 683 1144 676 1144 684 1144 683 1145 684 1145 685 1145 685 1146 684 1146 686 1146 685 1147 686 1147 687 1147 687 1148 686 1148 688 1148 687 1149 688 1149 689 1149 690 1150 691 1150 681 1150 681 1151 691 1151 682 1151 692 1152 693 1152 691 1152 692 1153 691 1153 446 1153 692 1154 446 1154 445 1154 692 1155 445 1155 647 1155 690 1156 694 1156 691 1156 691 1157 694 1157 446 1157 446 1158 694 1158 447 1158 447 1159 694 1159 695 1159 463 1160 696 1160 462 1160 462 1161 696 1161 697 1161 462 1162 697 1162 467 1162 467 1163 697 1163 698 1163 467 1164 698 1164 444 1164 696 1165 463 1165 699 1165 699 1166 463 1166 464 1166 699 1167 464 1167 700 1167 700 1168 464 1168 441 1168 700 1169 441 1169 701 1169 701 1170 441 1170 447 1170 701 1171 447 1171 695 1171 702 1172 459 1172 698 1172 698 1173 459 1173 444 1173 490 1174 489 1174 640 1174 490 1175 640 1175 459 1175 490 1176 459 1176 702 1176 490 1177 702 1177 703 1177 641 1178 458 1178 640 1178 640 1179 458 1179 459 1179 490 1180 703 1180 471 1180 471 1181 703 1181 704 1181 494 1182 705 1182 479 1182 479 1183 705 1183 706 1183 479 1184 706 1184 480 1184 480 1185 706 1185 707 1185 480 1186 707 1186 481 1186 705 1187 494 1187 708 1187 708 1188 494 1188 492 1188 708 1189 492 1189 709 1189 709 1190 492 1190 498 1190 709 1191 498 1191 710 1191 710 1192 498 1192 471 1192 710 1193 471 1193 704 1193 481 1194 707 1194 482 1194 482 1195 707 1195 711 1195 712 1196 713 1196 714 1196 712 1197 714 1197 482 1197 712 1198 482 1198 711 1198 712 1199 711 1199 715 1199 634 1200 472 1200 714 1200 714 1201 472 1201 482 1201 716 1202 717 1202 715 1202 715 1203 717 1203 712 1203 718 1204 719 1204 720 1204 720 1205 719 1205 721 1205 720 1206 721 1206 722 1206 722 1207 721 1207 723 1207 722 1208 723 1208 724 1208 719 1209 718 1209 725 1209 725 1210 718 1210 726 1210 725 1211 726 1211 727 1211 727 1212 726 1212 728 1212 727 1213 728 1213 729 1213 729 1214 728 1214 717 1214 729 1215 717 1215 716 1215 730 1216 731 1216 503 1216 503 1217 731 1217 505 1217 505 1218 731 1218 506 1218 506 1219 731 1219 732 1219 506 1220 732 1220 509 1220 509 1221 732 1221 733 1221 733 1222 734 1222 509 1222 509 1223 734 1223 510 1223 510 1224 734 1224 499 1224 499 1225 734 1225 735 1225 499 1226 735 1226 502 1226 502 1227 735 1227 736 1227 736 1228 737 1228 502 1228 502 1229 737 1229 500 1229 500 1230 737 1230 501 1230 501 1231 737 1231 738 1231 501 1232 738 1232 508 1232 508 1233 738 1233 739 1233 739 1234 740 1234 508 1234 508 1235 740 1235 507 1235 507 1236 740 1236 504 1236 504 1237 740 1237 741 1237 504 1238 741 1238 503 1238 503 1239 741 1239 730 1239 526 1240 742 1240 527 1240 527 1241 742 1241 743 1241 527 1242 743 1242 528 1242 742 1243 526 1243 744 1243 744 1244 526 1244 525 1244 744 1245 525 1245 745 1245 745 1246 525 1246 524 1246 745 1247 524 1247 746 1247 530 1248 747 1248 531 1248 531 1249 747 1249 746 1249 531 1250 746 1250 524 1250 747 1251 530 1251 748 1251 748 1252 530 1252 529 1252 748 1253 529 1253 749 1253 749 1254 529 1254 528 1254 749 1255 528 1255 743 1255 724 1256 723 1256 750 1256 750 1257 723 1257 751 1257 544 1258 720 1258 546 1258 720 1259 552 1259 546 1259 548 1260 722 1260 724 1260 718 1261 720 1261 544 1261 718 1262 544 1262 542 1262 718 1263 542 1263 540 1263 712 1264 532 1264 534 1264 712 1265 534 1265 536 1265 712 1266 536 1266 538 1266 712 1267 538 1267 713 1267 717 1268 728 1268 712 1268 712 1269 728 1269 726 1269 712 1270 726 1270 532 1270 532 1271 726 1271 718 1271 532 1272 718 1272 540 1272 752 1273 554 1273 753 1273 753 1274 554 1274 548 1274 753 1275 548 1275 754 1275 754 1276 548 1276 724 1276 754 1277 724 1277 750 1277 558 1278 556 1278 755 1278 755 1279 556 1279 554 1279 755 1280 554 1280 756 1280 756 1281 554 1281 752 1281 756 1282 752 1282 757 1282 548 1283 550 1283 722 1283 722 1284 550 1284 552 1284 722 1285 552 1285 720 1285 558 1286 755 1286 538 1286 538 1287 755 1287 713 1287 754 1288 758 1288 753 1288 753 1289 758 1289 759 1289 753 1290 759 1290 752 1290 752 1291 759 1291 760 1291 752 1292 760 1292 757 1292 757 1293 760 1293 761 1293 757 1294 761 1294 756 1294 756 1295 761 1295 762 1295 756 1296 762 1296 755 1296 755 1297 762 1297 763 1297 755 1298 763 1298 713 1298 713 1299 763 1299 714 1299 596 1300 539 1300 595 1300 587 1301 551 1301 586 1301 647 1302 646 1302 566 1302 647 1303 566 1303 567 1303 647 1304 567 1304 569 1304 647 1305 569 1305 568 1305 647 1306 568 1306 570 1306 647 1307 570 1307 618 1307 647 1308 618 1308 619 1308 647 1309 619 1309 574 1309 647 1310 574 1310 575 1310 647 1311 575 1311 657 1311 647 1312 657 1312 659 1312 647 1313 659 1313 661 1313 647 1314 661 1314 663 1314 647 1315 663 1315 692 1315 634 1316 714 1316 537 1316 634 1317 537 1317 535 1317 634 1318 535 1318 533 1318 634 1319 533 1319 539 1319 634 1320 539 1320 596 1320 634 1321 596 1321 597 1321 634 1322 597 1322 598 1322 634 1323 598 1323 599 1323 634 1324 599 1324 631 1324 634 1325 631 1325 632 1325 634 1326 632 1326 633 1326 634 1327 633 1327 622 1327 634 1328 622 1328 621 1328 634 1329 621 1329 635 1329 630 1330 631 1330 599 1330 630 1331 599 1331 600 1331 630 1332 600 1332 601 1332 630 1333 601 1333 602 1333 630 1334 602 1334 603 1334 630 1335 603 1335 604 1335 630 1336 604 1336 605 1336 630 1337 605 1337 628 1337 541 1338 543 1338 589 1338 541 1339 589 1339 590 1339 541 1340 590 1340 591 1340 541 1341 591 1341 592 1341 541 1342 592 1342 593 1342 541 1343 593 1343 594 1343 541 1344 594 1344 595 1344 541 1345 595 1345 539 1345 564 1346 565 1346 645 1346 564 1347 645 1347 644 1347 564 1348 644 1348 643 1348 564 1349 643 1349 642 1349 564 1350 642 1350 641 1350 564 1351 641 1351 563 1351 571 1352 572 1352 612 1352 571 1353 612 1353 613 1353 571 1354 613 1354 614 1354 571 1355 614 1355 615 1355 571 1356 615 1356 616 1356 571 1357 616 1357 617 1357 571 1358 617 1358 618 1358 571 1359 618 1359 570 1359 655 1360 657 1360 575 1360 655 1361 575 1361 576 1361 655 1362 576 1362 577 1362 655 1363 577 1363 578 1363 655 1364 578 1364 579 1364 655 1365 579 1365 580 1365 655 1366 580 1366 581 1366 655 1367 581 1367 582 1367 655 1368 582 1368 649 1368 549 1369 553 1369 671 1369 549 1370 671 1370 673 1370 549 1371 673 1371 585 1371 549 1372 585 1372 586 1372 549 1373 586 1373 551 1373 637 1374 636 1374 638 1374 638 1375 636 1375 623 1375 638 1376 623 1376 639 1376 639 1377 623 1377 624 1377 639 1378 624 1378 640 1378 640 1379 624 1379 563 1379 640 1380 563 1380 641 1380 555 1381 762 1381 759 1381 759 1382 762 1382 761 1382 759 1383 761 1383 760 1383 764 1384 669 1384 765 1384 765 1385 669 1385 671 1385 765 1386 671 1386 766 1386 766 1387 671 1387 553 1387 766 1388 553 1388 758 1388 758 1389 553 1389 555 1389 758 1390 555 1390 759 1390 667 1391 665 1391 767 1391 767 1392 665 1392 669 1392 767 1393 669 1393 768 1393 768 1394 669 1394 764 1394 768 1395 764 1395 769 1395 559 1396 763 1396 557 1396 557 1397 763 1397 762 1397 557 1398 762 1398 555 1398 714 1399 763 1399 537 1399 537 1400 763 1400 559 1400 623 1401 636 1401 620 1401 620 1402 636 1402 635 1402 620 1403 635 1403 621 1403 543 1404 545 1404 589 1404 589 1405 545 1405 547 1405 589 1406 547 1406 588 1406 588 1407 547 1407 551 1407 588 1408 551 1408 587 1408 649 1409 582 1409 651 1409 651 1410 582 1410 583 1410 651 1411 583 1411 653 1411 653 1412 583 1412 584 1412 653 1413 584 1413 675 1413 675 1414 584 1414 585 1414 675 1415 585 1415 673 1415 562 1416 611 1416 573 1416 573 1417 611 1417 612 1417 573 1418 612 1418 572 1418 629 1419 606 1419 627 1419 627 1420 606 1420 607 1420 627 1421 607 1421 626 1421 626 1422 607 1422 608 1422 626 1423 608 1423 625 1423 625 1424 608 1424 609 1424 625 1425 609 1425 560 1425 560 1426 609 1426 610 1426 560 1427 610 1427 561 1427 561 1428 610 1428 611 1428 561 1429 611 1429 562 1429 629 1430 628 1430 606 1430 606 1431 628 1431 605 1431 624 1432 625 1432 563 1432 563 1433 625 1433 560 1433 667 1434 767 1434 663 1434 663 1435 767 1435 692 1435 565 1436 566 1436 645 1436 645 1437 566 1437 646 1437 684 1438 652 1438 654 1438 770 1439 688 1439 771 1439 691 1440 680 1440 682 1440 691 1441 693 1441 662 1441 691 1442 662 1442 660 1442 691 1443 660 1443 658 1443 691 1444 658 1444 656 1444 678 1445 680 1445 676 1445 676 1446 680 1446 648 1446 680 1447 691 1447 648 1447 648 1448 691 1448 656 1448 654 1449 674 1449 684 1449 684 1450 674 1450 672 1450 684 1451 672 1451 686 1451 686 1452 672 1452 670 1452 686 1453 670 1453 688 1453 688 1454 670 1454 664 1454 688 1455 664 1455 771 1455 771 1456 664 1456 772 1456 771 1457 772 1457 773 1457 773 1458 772 1458 774 1458 773 1459 774 1459 775 1459 668 1460 776 1460 666 1460 666 1461 776 1461 772 1461 666 1462 772 1462 664 1462 693 1463 776 1463 662 1463 662 1464 776 1464 668 1464 648 1465 650 1465 676 1465 676 1466 650 1466 652 1466 676 1467 652 1467 684 1467 690 1468 711 1468 707 1468 690 1469 707 1469 695 1469 690 1470 695 1470 694 1470 711 1471 690 1471 681 1471 711 1472 681 1472 716 1472 711 1473 716 1473 715 1473 777 1474 751 1474 689 1474 689 1475 751 1475 723 1475 689 1476 723 1476 687 1476 687 1477 723 1477 721 1477 687 1478 721 1478 685 1478 685 1479 721 1479 719 1479 685 1480 719 1480 683 1480 683 1481 719 1481 725 1481 683 1482 725 1482 677 1482 677 1483 725 1483 727 1483 677 1484 727 1484 679 1484 679 1485 727 1485 729 1485 679 1486 729 1486 681 1486 681 1487 729 1487 716 1487 695 1488 707 1488 701 1488 701 1489 707 1489 706 1489 701 1490 706 1490 700 1490 700 1491 706 1491 705 1491 700 1492 705 1492 699 1492 699 1493 705 1493 708 1493 699 1494 708 1494 696 1494 696 1495 708 1495 709 1495 696 1496 709 1496 697 1496 697 1497 709 1497 710 1497 697 1498 710 1498 698 1498 698 1499 710 1499 704 1499 698 1500 704 1500 702 1500 702 1501 704 1501 703 1501 778 1502 744 1502 779 1502 778 1503 780 1503 744 1503 734 1504 781 1504 735 1504 731 1505 730 1505 744 1505 731 1506 744 1506 780 1506 731 1507 780 1507 782 1507 731 1508 782 1508 732 1508 783 1509 781 1509 734 1509 783 1510 734 1510 733 1510 783 1511 733 1511 732 1511 783 1512 732 1512 782 1512 784 1513 779 1513 744 1513 784 1514 744 1514 745 1514 784 1515 745 1515 746 1515 758 1516 754 1516 750 1516 758 1517 750 1517 770 1517 758 1518 770 1518 771 1518 758 1519 771 1519 766 1519 777 1520 770 1520 785 1520 777 1521 785 1521 786 1521 777 1522 786 1522 787 1522 777 1523 787 1523 741 1523 777 1524 741 1524 740 1524 777 1525 740 1525 739 1525 777 1526 739 1526 738 1526 777 1527 738 1527 737 1527 777 1528 737 1528 736 1528 777 1529 736 1529 751 1529 751 1530 736 1530 788 1530 751 1531 788 1531 789 1531 751 1532 789 1532 790 1532 751 1533 790 1533 791 1533 751 1534 791 1534 784 1534 751 1535 784 1535 746 1535 751 1536 746 1536 747 1536 751 1537 747 1537 748 1537 750 1538 751 1538 748 1538 750 1539 748 1539 749 1539 750 1540 749 1540 770 1540 770 1541 749 1541 792 1541 770 1542 792 1542 793 1542 770 1543 793 1543 794 1543 770 1544 794 1544 795 1544 770 1545 795 1545 785 1545 736 1546 735 1546 781 1546 736 1547 781 1547 796 1547 736 1548 796 1548 788 1548 792 1549 749 1549 743 1549 792 1550 743 1550 742 1550 792 1551 742 1551 744 1551 792 1552 744 1552 797 1552 730 1553 741 1553 744 1553 744 1554 741 1554 787 1554 744 1555 787 1555 797 1555 798 1556 797 1556 799 1556 799 1557 797 1557 787 1557 799 1558 787 1558 800 1558 797 1559 798 1559 792 1559 792 1560 798 1560 801 1560 792 1561 801 1561 793 1561 793 1562 801 1562 802 1562 793 1563 802 1563 794 1563 803 1564 795 1564 804 1564 804 1565 795 1565 794 1565 804 1566 794 1566 802 1566 795 1567 803 1567 785 1567 785 1568 803 1568 805 1568 785 1569 805 1569 786 1569 786 1570 805 1570 800 1570 786 1571 800 1571 787 1571 806 1572 802 1572 801 1572 806 1573 801 1573 798 1573 806 1574 798 1574 799 1574 806 1575 799 1575 800 1575 806 1576 800 1576 805 1576 806 1577 805 1577 803 1577 806 1578 803 1578 804 1578 806 1579 804 1579 802 1579 784 1580 791 1580 521 1580 521 1581 791 1581 522 1581 517 1582 778 1582 518 1582 518 1583 778 1583 779 1583 518 1584 779 1584 521 1584 521 1585 779 1585 784 1585 780 1586 778 1586 515 1586 515 1587 778 1587 517 1587 519 1588 783 1588 516 1588 516 1589 783 1589 782 1589 516 1590 782 1590 515 1590 515 1591 782 1591 780 1591 781 1592 783 1592 520 1592 520 1593 783 1593 519 1593 512 1594 788 1594 513 1594 513 1595 788 1595 796 1595 513 1596 796 1596 520 1596 520 1597 796 1597 781 1597 789 1598 788 1598 514 1598 514 1599 788 1599 512 1599 522 1600 791 1600 511 1600 511 1601 791 1601 790 1601 511 1602 790 1602 514 1602 514 1603 790 1603 789 1603 204 1604 205 1604 273 1604 273 1605 205 1605 246 1605 271 1606 269 1606 245 1606 245 1607 269 1607 246 1607 246 1608 269 1608 268 1608 246 1609 268 1609 273 1609 198 1610 197 1610 245 1610 245 1611 197 1611 271 1611 689 1612 688 1612 777 1612 777 1613 688 1613 770 1613 693 1614 692 1614 776 1614 776 1615 692 1615 767 1615 776 1616 767 1616 772 1616 772 1617 767 1617 768 1617 772 1618 768 1618 774 1618 774 1619 768 1619 769 1619 774 1620 769 1620 775 1620 775 1621 769 1621 764 1621 775 1622 764 1622 773 1622 773 1623 764 1623 765 1623 773 1624 765 1624 771 1624 771 1625 765 1625 766 1625</p>
                </triangles>
            </mesh>
        </geometry>
    </library_geometries>
    <library_visual_scenes>
        <visual_scene id="VisualSceneNode" name="VisualScene">
            <node id="node" name="node">
                <instance_geometry url="#shape0-lib"/>
            </node>
        </visual_scene>
    </library_visual_scenes>
    <scene>
        <instance_visual_scene url="#VisualSceneNode"/>
    </scene>
</COLLADA>
