<?xml version="1.0" encoding="UTF-8"?>
<COLLADA xmlns="http://www.collada.org/2005/11/COLLADASchema" version="1.4.1">
    <asset>
        <contributor>
            <author>VCGLab</author>
            <authoring_tool>VCGLib | MeshLab</authoring_tool>
        </contributor>
        <created>Fri May 8 15:35:59 2026 GMT</created>
        <modified>Fri May 8 15:35:59 2026 GMT</modified>
        <up_axis>Y_UP</up_axis>
    </asset>
    <library_geometries>
        <geometry id="shape0-lib" name="shape0">
            <mesh>
                <source id="shape0-lib-positions" name="position">
                    <float_array id="shape0-lib-positions-array" count="2088">0.07835 -0.1314 0.016 0.0776192 -0.1314 0.0123262 0.0776192 -0.1314 0.0196738 0.05915 -0.1314 0.016 0.0598808 -0.1314 0.0196738 0.0598808 -0.1314 0.0123262 0.0619618 -0.1314 0.0227882 0.0619618 -0.1314 0.00921178 0.0650762 -0.1314 0.0248692 0.0650762 -0.1314 0.00713076 0.06875 -0.1314 0.0256 0.06875 -0.1314 0.0064 0.0724238 -0.1314 0.0248692 0.0724238 -0.1314 0.00713076 0.0755382 -0.1314 0.0227882 0.0755382 -0.1314 0.00921178 0.07835 -0.1234 0.016 0.0776192 -0.1234 0.0196738 0.0755382 -0.1234 0.0227882 0.0724238 -0.1234 0.0248692 0.06875 -0.1234 0.0256 0.0776192 -0.1234 0.0123262 0.0755382 -0.1234 0.00921178 0.0724238 -0.1234 0.00713076 0.06875 -0.1234 0.0064 0.05915 -0.1234 0.016 0.0598808 -0.1234 0.0123262 0.0619618 -0.1234 0.00921178 0.0650762 -0.1234 0.00713076 0.0598808 -0.1234 0.0196738 0.0619618 -0.1234 0.0227882 0.0650762 -0.1234 0.0248692 0.0589206 -0.1234 0.010325 0.0575724 -0.1234 0.0140291 0.0575724 -0.1234 0.0179709 0.0785794 -0.1234 0.021675 0.0799276 -0.1234 0.0179709 0.0799276 -0.1234 0.0140291 0.0648681 -0.1234 0.0266655 0.0614544 -0.1234 0.0246946 0.0589206 -0.1234 0.021675 0.06875 -0.1234 0.02735 0.0726319 -0.1234 0.0266655 0.0760456 -0.1234 0.0246946 0.0726319 -0.1234 0.00533449 0.0760456 -0.1234 0.0073054 0.0785794 -0.1234 0.010325 0.06875 -0.1234 0.00465 0.0648681 -0.1234 0.00533449 0.0614544 -0.1234 0.0073054 0.0602131 -0.1396 0.0234796 0.057411 -0.1396 0.0155014 0.0576506 -0.1396 0.0183719 0.0579017 -0.1396 0.012663 0.0632196 -0.1396 0.00608854 0.0609026 -0.1396 0.00779996 0.06875 -0.1396 0.02735 0.0649396 -0.1396 0.0266913 0.0623709 -0.1396 0.0253878 0.0586052 -0.1396 0.0210897 0.0590911 -0.1396 0.0100395 0.06875 -0.1396 0.00465 0.0658928 -0.1396 0.00501553 0.0726319 -0.1396 0.00533449 0.0760456 -0.1396 0.0073054 0.0785794 -0.1396 0.010325 0.0799276 -0.1396 0.0140291 0.0799276 -0.1396 0.0179709 0.0785794 -0.1396 0.021675 0.0760456 -0.1396 0.0246946 0.0726319 -0.1396 0.0266655 0.0792982 -0.174989 0.0222288 0.0800573 -0.175399 0.0214245 0.0792982 -0.1396 0.0222288 0.0802115 -0.1396 0.0213288 0.0814509 -0.175587 0.021 0.0814509 -0.1396 0.021 0.0815 -0.1396 0.021 0.0815 -0.175587 0.021 0.0815 -0.176486 0.0177068 0.0815 -0.1396 0.011 0.0815 -0.176486 0.0142932 0.0815 -0.175587 0.011 0.0814509 -0.175587 0.011 0.0814509 -0.1396 0.011 0.0807039 -0.175538 0.0108858 0.0797555 -0.175285 0.0103373 0.0802115 -0.1396 0.0106712 0.0792982 -0.174989 0.00977119 0.0792982 -0.1396 0.00977119 0.0608759 -0.1396 0.025384 0.0581412 -0.1396 0.022125 0.0566861 -0.1396 0.0181272 0.0566861 -0.1396 0.0138728 0.0581412 -0.1396 0.009875 0.0765626 -0.1396 0.0254354 0.0729021 -0.1396 0.0275249 0.06875 -0.1396 0.02825 0.0645603 -0.1396 0.0275112 0.0765626 -0.1396 0.00656464 0.0608759 -0.1396 0.00661596 0.0645603 -0.1396 0.00448876 0.06875 -0.1396 0.00375 0.0729021 -0.1396 0.00447512 0.0783675 -0.174121 0.0235873 0.0761904 -0.172141 0.0257316 0.0732633 -0.169702 0.0273883 0.0706969 -0.168092 0.0280943 0.06875 -0.167631 0.02825 0.0565 -0.1766 0.0159731 0.0569974 -0.176127 0.0125446 0.0570344 -0.176091 0.0195787 0.0582514 -0.174943 0.022312 0.0578215 -0.175347 0.0104655 0.0596409 -0.173651 0.0241907 0.0621315 -0.171422 0.0263081 0.0650747 -0.169095 0.0276857 0.0668552 -0.168068 0.0281026 0.0585899 -0.174626 0.00915645 0.0773753 -0.173208 0.00730134 0.0600925 -0.173238 0.0073334 0.0747029 -0.170856 0.0052937 0.062733 -0.17091 0.00532956 0.0718351 -0.168708 0.00414484 0.0656354 -0.168726 0.00415258 0.0696889 -0.167743 0.00378603 0.0678155 -0.167742 0.0037857 0.06875 -0.167631 0.00375 0.04 -0.00025 0 0.0392314 -0.00025 -0.00780361 0.0392314 -0.00025 0.00780361 -0.0399907 -0.00025 -0.00086407 -0.039645 -0.00025 0.00531689 -0.0393784 -0.00025 -0.00702428 -0.0383499 -0.00025 0.0113705 -0.037823 -0.00025 -0.0130162 -0.0361361 -0.00025 0.0171517 -0.0353616 -0.00025 -0.0186965 -0.0330568 -0.00025 0.0225221 -0.0320532 -0.00025 -0.0239289 -0.0291858 -0.00025 0.0273531 -0.0279771 -0.00025 -0.0285881 -0.0246157 -0.00025 0.0315288 -0.0232309 -0.00025 -0.0325626 -0.019456 -0.00025 0.0349495 -0.0179283 -0.00025 -0.0357572 -0.0138303 -0.00025 0.037533 -0.0121962 -0.00025 -0.0380953 -0.00702428 -0.00025 0.0393784 -0.00617199 -0.00025 -0.0395209 0 -0.00025 0.04 0 -0.00025 -0.04 0.00780361 -0.00025 0.0392314 0.00780361 -0.00025 -0.0392314 0.0153073 -0.00025 0.0369552 0.0153073 -0.00025 -0.0369552 0.0222228 -0.00025 0.0332588 0.0222228 -0.00025 -0.0332588 0.0282843 -0.00025 0.0282843 0.0282843 -0.00025 -0.0282843 0.0332588 -0.00025 0.0222228 0.0332588 -0.00025 -0.0222228 0.0369552 -0.00025 0.0153073 0.0369552 -0.00025 -0.0153073 0.0662878 -0.16375 0.028 0.0651028 -0.16106 0.0276945 0.0658076 -0.162138 0.0278912 0.0624805 -0.157984 0.0265238 0.0595912 -0.154928 0.0241351 0.0565004 -0.15175 0.0159139 0.0569967 -0.152258 0.0194533 0.0595498 -0.154886 0.00791173 0.0578681 -0.15315 0.010374 0.0631792 -0.158753 0.00509003 0.065046 -0.160983 0.00432333 0.0660082 -0.162545 0.00406067 0.0662878 -0.16375 0.004 0.0658038 -0.165369 0.00410957 0.065943 -0.165098 0.0279241 0.0656419 -0.165649 0.0278491 0.0637206 -0.168135 0.02717 0.061116 -0.170976 0.0255804 0.0594481 -0.17272 0.023971 0.0577908 -0.174429 0.0214734 0.0568106 -0.175433 0.018741 0.0565004 -0.175749 0.0158979 0.0570495 -0.175189 0.0123723 0.0578844 -0.174333 0.0103431 0.0595874 -0.172576 0.00786927 0.0619159 -0.170125 0.00583347 0.0645624 -0.167137 0.004488 0.0578058 -0.153086 0.0215036 0.0568531 -0.152111 0.0130794 0.0612305 -0.156645 0.00632945 -0.0101391 -0.00325 0.0386937 -0.0163319 -0.00325 0.036514 -0.0220848 -0.00325 0.0333506 -0.0272427 -0.00325 0.0292888 -0.0316667 -0.00325 0.024438 -0.0352377 -0.00325 0.0189289 -0.0378594 -0.00325 0.0129099 -0.0392314 -0.00325 -0.00780361 -0.0369552 -0.00325 -0.0153073 -0.0332588 -0.00325 -0.0222228 -0.0282843 -0.00325 -0.0282843 -0.0222228 -0.00325 -0.0332588 -0.0153073 -0.00325 -0.0369552 -0.00780361 -0.00325 -0.0392314 0 -0.00325 0.04 -0.00511146 -0.00325 0.0396721 -0.0394612 -0.00325 0.00654308 -0.04 -0.00325 0 0 -0.00325 -0.04 0.00780361 -0.00325 -0.0392314 0.0153073 -0.00325 -0.0369552 0.0222228 -0.00325 -0.0332588 0.0282843 -0.00325 -0.0282843 0.0332588 -0.00325 -0.0222228 0.0369552 -0.00325 -0.0153073 0.0392314 -0.00325 -0.00780361 0.04 -0.00325 0 0.0392314 -0.00325 0.00780361 0.0369552 -0.00325 0.0153073 0.0332588 -0.00325 0.0222228 0.0282843 -0.00325 0.0282843 0.0222228 -0.00325 0.0332588 0.0153073 -0.00325 0.0369552 0.00780361 -0.00325 0.0392314 0.0525 -0.159646 0.0272763 0.0525 -0.156037 0.0251925 0.0525 -0.153358 0.022 0.0525 -0.151932 0.0180838 0.0525 -0.151932 0.0139162 0.0525 -0.153358 0.01 0.0525 -0.156037 0.00680747 0.0525 -0.16375 0.028 0.0525 -0.159646 0.00472369 0.0525 -0.16375 0.004 0.0525 -0.167854 0.00472369 0.0525 -0.171464 0.00680747 0.0525 -0.174142 0.01 0.0525 -0.175568 0.0139162 0.0525 -0.175568 0.0180838 0.0525 -0.174142 0.022 0.0525 -0.171464 0.0251925 0.0525 -0.167854 0.0272763 -0.0437119 -0.00325 0.0420648 -0.0459619 -0.00325 0.0414619 -0.0420648 -0.00325 0.0437119 -0.0420648 -0.00325 -0.0437119 -0.0437119 -0.00325 -0.0420648 -0.0459619 -0.00325 -0.0414619 0.0437119 -0.00325 0.0498591 0.0435 -0.00325 0.0575 0.0459619 -0.00325 0.0504619 -0.0482119 -0.00325 0.0498591 -0.0478262 -0.00325 0.0568148 -0.0459619 -0.00325 0.0504619 -0.0478262 -0.00325 -0.0568148 -0.0482119 -0.00325 -0.0498591 -0.0459619 -0.00325 -0.0504619 -0.0575 -0.00325 0.0435 -0.0498591 -0.00325 0.0437119 -0.0482119 -0.00325 0.0420648 -0.0482119 -0.00325 -0.0420648 -0.0498591 -0.00325 -0.0437119 -0.0575 -0.00325 -0.0435 0.0478262 -0.00325 0.0568148 0.051729 -0.00325 0.0548262 0.0504619 -0.00325 0.0459619 0.0498591 -0.00325 0.0482119 0.0482119 -0.00325 0.0498591 -0.0435 -0.00325 0.0575 0.0420648 -0.00325 0.0482119 0.0414619 -0.00325 0.0459619 -0.0414619 -0.00325 0.0459619 -0.0420648 -0.00325 0.0482119 -0.0437119 -0.00325 0.0498591 -0.051729 -0.00325 0.0548262 -0.0498591 -0.00325 0.0482119 -0.0504619 -0.00325 0.0459619 0.0420648 -0.00325 0.0437119 0.0437119 -0.00325 0.0420648 0.0459619 -0.00325 0.0414619 0.0482119 -0.00325 0.0420648 0.0498591 -0.00325 0.0437119 0.0568148 -0.00325 0.0478262 0.0575 -0.00325 0.0435 0.0575 -0.00325 -0.0435 0.0568148 -0.00325 -0.0478262 0.0504619 -0.00325 -0.0459619 0.0498591 -0.00325 -0.0437119 0.0482119 -0.00325 -0.0420648 0.0459619 -0.00325 -0.0414619 0.0437119 -0.00325 -0.0420648 0.0420648 -0.00325 -0.0437119 0.0414619 -0.00325 -0.0459619 -0.0414619 -0.00325 -0.0459619 -0.0435 -0.00325 -0.0575 -0.0437119 -0.00325 -0.0498591 -0.0420648 -0.00325 -0.0482119 0.0420648 -0.00325 -0.0482119 0.0437119 -0.00325 -0.0498591 0.0435 -0.00325 -0.0575 -0.0568148 -0.00325 0.0478262 -0.0548262 -0.00325 0.051729 -0.0548262 -0.00325 -0.051729 -0.0568148 -0.00325 -0.0478262 -0.051729 -0.00325 -0.0548262 -0.0504619 -0.00325 -0.0459619 0.0548262 -0.00325 0.051729 0.0482119 -0.00325 -0.0498591 0.0498591 -0.00325 -0.0482119 0.0478262 -0.00325 -0.0568148 0.051729 -0.00325 -0.0548262 0.0548262 -0.00325 -0.051729 0.0459619 -0.00325 -0.0504619 -0.0498591 -0.00325 -0.0482119 0.0525 -0.175868 0.0281178 0.0525 -0.1766 0.00565 0.0525 -0.175868 0.00388223 0.0525 -0.1766 0.02635 0.0525 -0.1509 0.00565 0.0525 -0.151632 0.00388223 0.0525 -0.1509 0.02635 0.0525 -0.151632 0.0281178 0.0525 -0.1534 0.00315 0.0525 -0.1741 0.00315 0.0525 -0.1534 0.02885 0.0525 -0.1741 0.02885 -0.033 -0.01425 0.0381911 -0.033 -0.19575 0.0381911 -0.033 -0.01425 0.05 -0.033 -0.19575 0.05 -0.0353553 -0.01425 0.0353553 -0.0353553 -0.19575 0.0353553 -0.0381911 -0.01425 0.033 -0.0381911 -0.19575 0.033 -0.05 -0.01425 0.033 -0.05 -0.19575 0.033 -0.05 -0.01425 -0.033 -0.05 -0.19575 -0.033 -0.0381911 -0.19575 -0.033 -0.0381911 -0.01425 -0.033 -0.0353553 -0.01425 -0.0353553 -0.0353553 -0.19575 -0.0353553 -0.033 -0.01425 -0.0381911 -0.033 -0.19575 -0.0381911 -0.033 -0.01425 -0.05 -0.033 -0.19575 -0.05 0.033 -0.19575 -0.05 0.033 -0.01425 -0.05 0.033 -0.19575 -0.0381911 0.033 -0.01425 -0.0381911 0.0353553 -0.01425 -0.0353553 0.0353553 -0.19575 -0.0353553 0.0381911 -0.01425 -0.033 0.0381911 -0.19575 -0.033 0.0381911 -0.01425 0.033 0.0353553 -0.01425 0.0353553 0.0381911 -0.19575 0.033 0.0353553 -0.19575 0.0353553 0.033 -0.01425 0.0381911 0.033 -0.19575 0.0381911 0.033 -0.19575 0.05 0.033 -0.01425 0.05 0.0414619 -0.01425 -0.0459619 0.0420648 -0.01425 -0.0437119 0.0437119 -0.01425 -0.0420648 0.0459619 -0.01425 -0.0414619 0.0420648 -0.01425 -0.0482119 0.0437119 -0.01425 -0.0498591 0.0459619 -0.01425 -0.0504619 0.0504619 -0.01425 -0.0459619 0.0498591 -0.01425 -0.0482119 0.0482119 -0.01425 -0.0498591 0.0498591 -0.01425 -0.0437119 0.0482119 -0.01425 -0.0420648 -0.0504619 -0.01425 -0.0459619 -0.0498591 -0.01425 -0.0437119 -0.0482119 -0.01425 -0.0420648 -0.0459619 -0.01425 -0.0414619 -0.0498591 -0.01425 -0.0482119 -0.0482119 -0.01425 -0.0498591 -0.0459619 -0.01425 -0.0504619 -0.0414619 -0.01425 -0.0459619 -0.0420648 -0.01425 -0.0482119 -0.0437119 -0.01425 -0.0498591 -0.0420648 -0.01425 -0.0437119 -0.0437119 -0.01425 -0.0420648 -0.0504619 -0.01425 0.0459619 -0.0498591 -0.01425 0.0482119 -0.0482119 -0.01425 0.0498591 -0.0459619 -0.01425 0.0504619 -0.0498591 -0.01425 0.0437119 -0.0482119 -0.01425 0.0420648 -0.0459619 -0.01425 0.0414619 -0.0414619 -0.01425 0.0459619 -0.0420648 -0.01425 0.0437119 -0.0437119 -0.01425 0.0420648 -0.0420648 -0.01425 0.0482119 -0.0437119 -0.01425 0.0498591 0.0414619 -0.01425 0.0459619 0.0420648 -0.01425 0.0482119 0.0437119 -0.01425 0.0498591 0.0459619 -0.01425 0.0504619 0.0420648 -0.01425 0.0437119 0.0437119 -0.01425 0.0420648 0.0459619 -0.01425 0.0414619 0.0504619 -0.01425 0.0459619 0.0498591 -0.01425 0.0437119 0.0482119 -0.01425 0.0420648 0.0498591 -0.01425 0.0482119 0.0482119 -0.01425 0.0498591 0.0575 -0.01425 0.0435 0.0568148 -0.01425 0.0478262 0.0548262 -0.01425 0.051729 0.051729 -0.01425 0.0548262 0.0478262 -0.01425 0.0568148 0.0435 -0.01425 0.0575 0.0575 -0.01425 -0.0435 0.0435 -0.01425 -0.0575 0.0478262 -0.01425 -0.0568148 0.051729 -0.01425 -0.0548262 0.0548262 -0.01425 -0.051729 0.0568148 -0.01425 -0.0478262 -0.0435 -0.01425 -0.0575 -0.0575 -0.01425 -0.0435 -0.0568148 -0.01425 -0.0478262 -0.0548262 -0.01425 -0.051729 -0.051729 -0.01425 -0.0548262 -0.0478262 -0.01425 -0.0568148 -0.0575 -0.01425 0.0435 -0.0435 -0.01425 0.0575 -0.0478262 -0.01425 0.0568148 -0.051729 -0.01425 0.0548262 -0.0548262 -0.01425 0.051729 -0.0568148 -0.01425 0.0478262 0.05 -0.1741 0.02885 0.05 -0.175868 0.0281178 0.05 -0.1766 0.02635 0.05 -0.1766 0.00565 0.05 -0.175868 0.00388223 0.05 -0.1741 0.00315 0.05 -0.1534 0.00315 0.05 -0.151632 0.00388223 0.05 -0.1509 0.00565 0.05 -0.1509 0.02635 0.05 -0.151632 0.0281178 0.05 -0.1534 0.02885 0.05 -0.19575 -0.033 0.05 -0.01425 -0.033 0.05 -0.19575 0.033 0.05 -0.01425 0.033 0.05 -0.175868 -0.00388223 0.05 -0.1741 -0.00315 0.05 -0.1509 -0.00565 0.05 -0.1509 -0.02635 0.05 -0.151632 -0.0281178 0.05 -0.1534 -0.02885 0.05 -0.1741 -0.02885 0.05 -0.175868 -0.0281178 0.05 -0.1766 -0.02635 0.05 -0.1766 -0.00565 0.05 -0.151632 -0.00388223 0.05 -0.1534 -0.00315 0.07785 -0.132 -0.016 0.0771573 -0.132 -0.0194824 0.0771573 -0.132 -0.0125176 0.05965 -0.132 -0.016 0.0603427 -0.132 -0.0125176 0.0603427 -0.132 -0.0194824 0.0623153 -0.132 -0.00956533 0.0623153 -0.132 -0.0224347 0.0652676 -0.132 -0.0075927 0.0652676 -0.132 -0.0244073 0.06875 -0.132 -0.0069 0.06875 -0.132 -0.0251 0.0722324 -0.132 -0.0075927 0.0722324 -0.132 -0.0244073 0.0751847 -0.132 -0.00956533 0.0751847 -0.132 -0.0224347 0.0525 -0.1534 -0.00315 0.0525 -0.1741 -0.00315 0.0525 -0.1509 -0.00565 0.0525 -0.151632 -0.00388223 0.0525 -0.1509 -0.02635 0.0525 -0.1534 -0.02885 0.0525 -0.151632 -0.0281178 0.0525 -0.1741 -0.02885 0.0525 -0.1766 -0.02635 0.0525 -0.175868 -0.0281178 0.0525 -0.1766 -0.00565 0.0525 -0.175868 -0.00388223 0.07785 -0.123 -0.016 0.0771573 -0.123 -0.0125176 0.0751847 -0.123 -0.00956533 0.0722324 -0.123 -0.0075927 0.06875 -0.123 -0.0069 0.0771573 -0.123 -0.0194824 0.0751847 -0.123 -0.0224347 0.0722324 -0.123 -0.0244073 0.06875 -0.123 -0.0251 0.05965 -0.123 -0.016 0.0603427 -0.123 -0.0194824 0.0623153 -0.123 -0.0224347 0.0652676 -0.123 -0.0244073 0.0603427 -0.123 -0.0125176 0.0623153 -0.123 -0.00956533 0.0652676 -0.123 -0.0075927 0.0525 -0.16375 -0.004 0.0525 -0.167854 -0.00472369 0.0525 -0.16375 -0.028 0.0525 -0.167854 -0.0272763 0.0525 -0.171464 -0.0251925 0.0525 -0.174142 -0.022 0.0525 -0.175568 -0.0180838 0.0525 -0.175568 -0.0139162 0.0525 -0.174142 -0.01 0.0525 -0.171464 -0.00680747 0.0525 -0.151932 -0.0139162 0.0525 -0.151932 -0.0180838 0.0525 -0.153358 -0.022 0.0525 -0.156037 -0.0251925 0.0525 -0.159646 -0.0272763 0.0525 -0.159646 -0.00472369 0.0525 -0.156037 -0.00680747 0.0525 -0.153358 -0.01 0.0594402 -0.123 -0.021375 0.0581633 -0.123 -0.0178667 0.0581633 -0.123 -0.0141333 0.0780598 -0.123 -0.010625 0.0793367 -0.123 -0.0141333 0.0793367 -0.123 -0.0178667 0.0650733 -0.123 -0.0058983 0.06184 -0.123 -0.00776502 0.0594402 -0.123 -0.010625 0.06875 -0.123 -0.00525 0.0724267 -0.123 -0.0058983 0.07566 -0.123 -0.00776502 0.0724267 -0.123 -0.0261017 0.07566 -0.123 -0.024235 0.0780598 -0.123 -0.021375 0.06875 -0.123 -0.02675 0.0650733 -0.123 -0.0261017 0.06184 -0.123 -0.024235 0.0589699 -0.154285 -0.00862361 0.0577935 -0.153074 -0.0105211 0.0565263 -0.151777 -0.0168038 0.0662684 -0.163441 -0.027996 0.0662878 -0.16375 -0.028 0.0662878 -0.16375 -0.004 0.0658018 -0.162127 -0.00411029 0.0645562 -0.160355 -0.00449031 0.0609048 -0.156301 -0.00659178 0.0632174 -0.158795 -0.00507073 0.0605 -0.155876 -0.00694462 0.0568106 -0.152067 -0.0132592 0.0578821 -0.153165 -0.0216529 0.0570479 -0.15231 -0.0196232 0.0605 -0.155876 -0.0250554 0.0589583 -0.154273 -0.023361 0.0635281 -0.159145 -0.0270811 0.0609048 -0.156301 -0.0254082 0.0655955 -0.161777 -0.0278367 0.0565265 -0.175723 -0.0151943 0.066193 -0.16444 -0.00401985 0.0657995 -0.165377 -0.0278894 0.0639295 -0.167894 -0.0272617 0.0650808 -0.16647 -0.0276876 0.0609048 -0.171199 -0.0254082 0.0605 -0.171624 -0.0250554 0.0589686 -0.173216 -0.0233748 0.0577927 -0.174427 -0.0214772 0.0568102 -0.175433 -0.0187392 0.0578832 -0.174334 -0.0103453 0.0570487 -0.175189 -0.0123749 0.0605 -0.171624 -0.00694462 0.0589499 -0.173236 -0.00865016 0.0635519 -0.168328 -0.00490754 0.0609048 -0.171199 -0.00659178 0.0652467 -0.166242 -0.00426164 0.0570275 -0.176098 -0.0124439 0.0565001 -0.1766 -0.0160501 0.0815 -0.176486 -0.0142932 0.0815 -0.175587 -0.011 0.0814509 -0.175587 -0.011 0.0800573 -0.175399 -0.0105755 0.0792982 -0.174989 -0.00977119 0.0582389 -0.174954 -0.00970887 0.0585895 -0.174626 -0.022843 0.0600922 -0.173238 -0.0246663 0.0773753 -0.173208 -0.0246987 0.0792982 -0.174989 -0.0222288 0.0797555 -0.175285 -0.0216627 0.0807039 -0.175538 -0.0211142 0.0814509 -0.175587 -0.021 0.0572268 -0.175909 -0.0201568 0.0596242 -0.173667 -0.007828 0.0779549 -0.173739 -0.00791713 0.0621137 -0.171438 -0.00570332 0.075495 -0.171532 -0.00577421 0.0650598 -0.169105 -0.00431904 0.0725424 -0.169176 -0.00435181 0.067355 -0.167874 -0.00382969 0.070181 -0.167886 -0.00383386 0.06875 -0.167631 -0.00375 0.0815 -0.176486 -0.0177068 0.05657 -0.176533 -0.017308 0.0815 -0.175587 -0.021 0.0747029 -0.170856 -0.0267063 0.0627331 -0.17091 -0.0266705 0.0718351 -0.168708 -0.0278552 0.0656353 -0.168726 -0.0278474 0.0696889 -0.167743 -0.028214 0.0678155 -0.167742 -0.0282143 0.06875 -0.167631 -0.02825 0.06875 -0.1285 -0.00525 0.0650733 -0.1285 -0.0058983 0.06184 -0.1285 -0.00776502 0.0594402 -0.1285 -0.010625 0.0581633 -0.1285 -0.0141333 0.0581633 -0.1285 -0.0178667 0.0594402 -0.1285 -0.021375 0.06184 -0.1285 -0.024235 0.0650733 -0.1285 -0.0261017 0.06875 -0.1285 -0.02675 0.0724267 -0.1285 -0.0261017 0.07566 -0.1285 -0.024235 0.0780598 -0.1285 -0.021375 0.0793367 -0.1285 -0.0178667 0.0793367 -0.1285 -0.0141333 0.0780598 -0.1285 -0.010625 0.07566 -0.1285 -0.00776502 0.0724267 -0.1285 -0.0058983 0.0792982 -0.1396 -0.00977119 0.0802115 -0.1396 -0.0106712 0.0814509 -0.1396 -0.011 0.0765626 -0.1396 -0.00656464 0.0729021 -0.1396 -0.00447512 0.06875 -0.1396 -0.00375 0.0581412 -0.1396 -0.009875 0.0566861 -0.1396 -0.0138728 0.0566861 -0.1396 -0.0181272 0.0645603 -0.1396 -0.0275112 0.0608759 -0.1396 -0.00661596 0.0645603 -0.1396 -0.00448876 0.06875 -0.1396 -0.02825 0.0581412 -0.1396 -0.022125 0.0608759 -0.1396 -0.025384 0.0729021 -0.1396 -0.0275249 0.0765626 -0.1396 -0.0254354 0.0792982 -0.1396 -0.0222288 0.0802115 -0.1396 -0.0213288 0.0814509 -0.1396 -0.021 0.0815 -0.1396 -0.021 0.0815 -0.1396 -0.011 0.0785361 -0.1285 -0.01035 0.0798783 -0.1285 -0.0140378 0.0760135 -0.1285 -0.0073437 0.0726148 -0.1285 -0.00538147 0.06875 -0.1285 -0.0047 0.0648852 -0.1285 -0.00538147 0.0614865 -0.1285 -0.0073437 0.0589639 -0.1285 -0.01035 0.0576217 -0.1285 -0.0140378 0.0576217 -0.1285 -0.0179622 0.0589639 -0.1285 -0.02165 0.0614865 -0.1285 -0.0246563 0.0648852 -0.1285 -0.0266185 0.06875 -0.1285 -0.0273 0.0726148 -0.1285 -0.0266185 0.0760135 -0.1285 -0.0246563 0.0785361 -0.1285 -0.02165 0.0798783 -0.1285 -0.0179622 0.0602885 -0.1396 -0.00851044 0.0574593 -0.1396 -0.0164583 0.0577089 -0.1396 -0.0135951 0.0579401 -0.1396 -0.0192919 0.0632328 -0.1396 -0.0258616 0.06875 -0.1396 -0.0047 0.0650223 -0.1396 -0.00533255 0.0624517 -0.1396 -0.00661802 0.0586727 -0.1396 -0.0108874 0.0591203 -0.1396 -0.0219126 0.0609234 -0.1396 -0.0241507 0.06875 -0.1396 -0.0273 0.0658992 -0.1396 -0.0269345 0.0798783 -0.1396 -0.0140378 0.0798783 -0.1396 -0.0179622 0.0726148 -0.1396 -0.00538147 0.0760135 -0.1396 -0.0073437 0.0785361 -0.1396 -0.01035 0.0785361 -0.1396 -0.02165 0.0760135 -0.1396 -0.0246563 0.0726148 -0.1396 -0.0266185</float_array>
                    <technique_common>
                        <accessor count="696" source="#shape0-lib-positions-array" stride="3">
                            <param name="X" type="float"/>
                            <param name="Y" type="float"/>
                            <param name="Z" type="float"/>
                        </accessor>
                    </technique_common>
                </source>
                <source id="shape0-lib-normals" name="normal">
                    <float_array id="shape0-lib-normals-array" count="4212">0 1 0 0 1 0 0 1 0 0 1 0 0 1 0 0 1 0 0 1 0 0 1 0 0 1 0 0 1 0 0 1 0 0 1 0 0 1 0 0 1 0 -0.980785 0 -0.19509 -0.831471 0 -0.555569 -0.831471 0 -0.555569 -0.555568 0 -0.831471 -0.555568 0 -0.831471 -0.195091 0 -0.980785 -0.195091 0 -0.980785 -0.980785 0 -0.19509 -0.980785 0 0.195089 -0.980785 0 0.195089 -0.83147 0 0.55557 -0.83147 0 0.55557 -0.55557 0 0.83147 -0.55557 0 0.83147 -0.195091 0 0.980785 -0.195091 0 0.980785 0.980785 0 0.195091 0.831469 0 0.555571 0.831469 0 0.555571 0.55557 0 0.83147 0.55557 0 0.83147 0.195092 0 0.980785 0.195092 0 0.980785 0.980785 0 0.195091 0.980785 0 -0.195091 0.980785 0 -0.195091 0.83147 0 -0.55557 0.83147 0 -0.55557 0.555569 0 -0.831471 0.555569 0 -0.831471 0.195091 0 -0.980785 0.195091 0 -0.980785 0 1 0 0 1 0 0 1 0 0 1 0 0 1 0 0 1 0 0 1 0 0 1 0 0 1 0 0 1 0 0 1 0 0 1 0 0 1 0 0 1 0 0 1 0 0 1 0 0 1 0 0 1 0 0 1 0 0 1 0 0 1 0 0 1 0 0 1 0 0 1 0 0 1 0 0 1 0 0 1 0 0 1 0 0 1 0 0 1 0 0 1 0 0 1 0 0 1 0 0 1 0 -0.766003 0.0104828 0.642752 -0.996529 -0.00274962 0.0831997 -0.99995 0.00996742 0 -0.985368 -0.0056595 -0.170347 -0.939649 0.00974484 -0.342002 -0.594132 -0.00432045 -0.804356 -0.499972 0.0105683 -0.865977 -0.170349 0 0.985384 -0.173648 0.000799391 0.984807 -0.452527 -0.000580701 0.89175 -0.499979 0.0087652 0.865993 -0.662437 -0.00542834 0.749098 -0.939686 0.00393135 0.342016 -0.943478 0.00639861 0.331373 -0.829681 -0.00401374 0.558224 -0.766028 0.00646694 -0.642775 -0.777484 0.00290215 -0.628896 -0.910765 -0.0023064 -0.412918 -0.173649 0 -0.984808 -0.126889 0.0115023 -0.99185 -0.372503 -0.0052904 -0.928016 0.173648 0 -0.984808 0.173648 0 -0.984808 0.500001 0 -0.866025 0.500001 0 -0.866025 0.766042 0 -0.64279 0.766042 0 -0.64279 0.939694 0 -0.342018 0.939694 0 -0.342018 1 0 0 1 0 0 0.939694 0 0.342018 0.939694 0 0.342018 0.766043 0 0.642789 0.766043 0 0.642789 0.499999 0 0.866026 0.499999 0 0.866026 0.173648 0 0.984808 0.173648 0 0.984808 0.72727 0 0.686352 0.701882 -0.0011212 0.712293 0.291525 0.00129928 0.956562 0.256449 0 0.966558 0 0 1 0 0 1 1 0 0 1 0 0 1 0 0 1 0 0 0 0 -1 0 0 -1 0.500983 0.00169536 -0.865455 0.776868 -0.00403686 -0.629651 0.701882 0 -0.712293 0.150882 -0.0038365 -0.988544 0.256449 0 -0.966558 0 1 0 0 1 0 0 1 0 0 1 0 0 1 0 0 1 0 0 1 0 0 1 0 0 1 0 0 1 0 0 1 0 0 1 0 0 1 0 0 1 0 0 1 0 0 1 0 0 1 0 0 1 0 0 1 0 0 1 0 0 1 0 0 1 0 0 1 0 0 1 0 0 1 0 0 1 0 0 1 0 0 1 0 0 1 0 0 1 0 0 1 0 0 1 0 0 1 0 0 1 0 0 1 0 0 1 0 0 1 0 0 1 0 0 1 0 0 1 0 0 1 0 0 1 0 0 1 0 0.824955 0 0.565199 0.760753 0.00502956 0.649022 0.701011 -0.00152704 0.713149 0.493996 0.00226376 0.869461 0.495745 0.00200754 0.868466 0.264549 -0.00120201 0.964372 0.0797153 0 0.996818 0.172033 0.0063723 0.985071 -0.00472191 -0.990508 -0.137372 0.00455196 -0.99999 0 -0.00523044 -0.99008 0.140407 0.00457888 -0.964712 0.263268 0 -0.942501 0.334203 -0.00401837 -0.918751 0.394818 -0.00892884 -0.894504 0.44697 -0.000513953 -0.921814 0.387633 0 -0.964722 -0.263271 0.00464553 -0.964694 -0.263333 -0.00330618 -0.926642 -0.375931 -0.00136561 -0.936159 -0.351574 0.000120623 -0.907728 -0.419559 0.000408436 -0.824208 0.566288 -0.00386704 -0.843725 0.536762 0.00589142 -0.692209 0.721673 -0.0102391 -0.739862 0.67268 0.00864255 -0.517376 0.855715 -0.012635 -0.572143 0.820057 0.00507594 -0.383864 0.923376 -0.00046051 -0.402168 0.915566 0.000107175 -0.319562 0.947565 -0.00019216 -0.886489 -0.462749 -0.00102573 -0.875649 -0.482947 0.00320497 -0.809876 -0.586592 0.000234506 -0.79563 -0.605783 -0.00030194 -0.64943 -0.760421 0.000664594 -0.652848 -0.757489 -0.000519455 -0.472082 -0.881554 0.000295376 -0.474694 -0.880151 -0.000145508 -0.34883 -0.937186 -4.05244e-05 -0.34921 -0.937045 -1.26737e-05 -0.306344 -0.951921 0.495737 0.00581831 -0.868453 0.369919 -0.00301812 -0.929059 0.167106 0.00506161 -0.985926 0.0406995 0.0198136 -0.998975 0.172036 0 -0.985091 0.760763 0 -0.64903 0.79104 0.0057194 -0.611738 0.598914 -0.00307103 -0.800807 0 1 0 0 1 0 0 1 0 0 1 0 0 1 0 0 1 0 0 1 0 0 1 0 0 1 0 0 1 0 0 1 0 0 1 0 0 1 0 0 1 0 0 1 0 0 1 0 0 1 0 0 1 0 0 1 0 0 1 0 0 1 0 0 1 0 0 1 0 0 1 0 0 1 0 0 1 0 0 1 0 0 1 0 0 1 0 0 1 0 0 1 0 0 1 0 0 1 0 0 1 0 -0.0805715 0.0130854 0.996663 -0.266671 0.00149023 0.963787 -0.410183 -0.00258017 0.912 -0.499975 0.0100497 0.865981 -0.642537 -0.00857996 0.766207 -0.765991 0.0118267 0.642743 -0.990456 -0.00990145 0.137476 -0.999883 0.015285 0 -0.82709 -0.00403039 -0.562055 -0.765989 0.011964 -0.642743 -0.381463 -0.00151412 -0.924383 -0.261009 0.00153903 -0.965335 -0.184423 0.00669846 -0.982824 -0.173642 0.00750923 -0.98478 -0.101016 0 -0.994885 -0.0425684 0.0373095 -0.998397 -0.161982 -0.00901869 -0.986753 -0.215349 -0.00170779 -0.976536 -0.101015 0 0.994885 -0.173642 0.00750926 0.98478 -0.204313 0.00519605 0.978892 -0.224506 -0.00635367 0.974452 0.0846279 -0.0776294 0.993384 -0.225855 -0.00903698 0.974119 -0.443374 0.030478 0.895818 -0.0366916 -0.236813 0.970862 -0.564809 0.0572227 0.823235 -0.603485 -0.0794172 0.79341 -0.705517 0.0210142 0.708381 -0.796373 -0.0223477 0.604393 -0.853844 0.075283 0.515057 -0.895194 -0.0901565 0.436463 -0.947063 0.0751763 0.312123 -0.978649 -0.125541 0.162743 -0.994171 0.00995705 0.107353 -0.989319 -0.0123668 -0.145241 -0.988373 0.0273555 -0.14957 -0.927267 -0.0172662 -0.374002 -0.92649 0.0120417 -0.376126 -0.86042 -0.00816797 -0.50952 -0.847445 0.0831145 -0.524337 -0.753917 -0.0446939 -0.655448 -0.657265 0.102864 -0.746607 -0.591526 -0.102322 -0.799767 -0.443312 0.109686 -0.889631 -0.389193 -0.0689301 -0.918573 -0.294919 0.00255431 -0.955519 -0.939616 0.0127726 0.341991 -0.929333 0.00610128 0.369193 -0.829166 -0.00513383 0.558978 -0.939674 0.00634256 -0.342012 -0.934961 0.0100059 -0.354608 -0.992414 -0.00546086 -0.122817 -0.499982 0.00886486 -0.86599 -0.534276 0.00309256 -0.845305 -0.686618 -0.0020654 -0.727016 -0.261353 0.0513493 0.963876 -0.331692 -0.04351 0.942384 -0.417008 0.0392959 0.908053 -0.481352 -0.0447441 0.875385 -0.552111 0.0399489 0.832813 -0.61806 -0.044812 0.784853 -0.674016 0.0394223 0.737664 -0.738154 -0.043705 0.673216 -0.779818 0.0377286 0.624868 -0.838416 -0.0414185 0.543454 -0.866987 0.0348585 0.49711 -0.916145 -0.0379598 0.399045 -0.933431 0.0308076 0.357432 -0.95549 -0.0550336 -0.289844 -0.916888 0.0382053 -0.397311 -0.880117 -0.0639333 -0.470432 -0.844681 0.0357155 -0.534077 -0.77204 -0.0500721 -0.633598 -0.752594 0.0103701 -0.658403 -0.47056 -0.0595494 -0.880356 -0.37739 0.0397555 -0.925201 -0.289716 -0.0625162 -0.955069 -0.0640242 0 0.997948 -0.0880722 0.0412675 0.995259 -0.190961 -0.0257053 0.981261 -0.96924 -0.0333308 0.24385 -0.977549 0.0255872 0.209148 -0.99625 -0.0275144 0.0820332 -0.998257 0.0191845 0.0558178 -0.994871 -0.0251253 -0.0979865 -0.994833 -0.0230657 -0.0988727 -0.967765 0.0178375 -0.251222 -0.634337 -0.013338 -0.772941 -0.641566 -0.0378001 -0.766136 -0.515872 0.0253568 -0.856291 -0.077384 0 -0.997001 -0.097928 -0.0427008 -0.994277 -0.230179 0.0313147 -0.972644 0.0980174 0 -0.995185 0.0980174 0 -0.995185 0.290284 0 -0.956941 0.290284 0 -0.956941 0.471397 0 -0.881921 0.471397 0 -0.881921 0.634394 0 -0.77301 0.634394 0 -0.77301 0.77301 0 -0.634394 0.77301 0 -0.634394 0.881921 0 -0.471397 0.881921 0 -0.471397 0.956941 0 -0.290284 0.956941 0 -0.290284 0.995185 0 -0.0980174 0.995185 0 -0.0980174 0.995185 0 0.0980174 0.995185 0 0.0980174 0.956941 0 0.290284 0.956941 0 0.290284 0.881921 0 0.471397 0.881921 0 0.471397 0.77301 0 0.634394 0.77301 0 0.634394 0.634394 0 0.77301 0.634394 0 0.77301 0.471397 0 0.881921 0.471397 0 0.881921 0.290284 0 0.956941 0.290284 0 0.956941 0.0980174 0 0.995185 0.0980174 0 0.995185 0.00980112 0.362989 0.931742 -0.0179667 0.499921 0.865885 0.0182896 0.626496 0.77921 -0.0238537 0.765821 0.642612 0.0111159 0.822725 0.568331 -0.0454494 0.998967 0 0.0168284 0.992128 -0.124088 -0.0243869 0.765811 -0.642604 0.00627935 0.671965 -0.740557 0 0.173651 0.984807 -0.0354746 0.0567597 0.997757 -0.0135254 0.170868 0.985201 -0.0160323 0.939571 0.341979 -0.0530053 0.918359 0.392182 0.0296711 0.990024 0.137742 -0.027206 0.939344 -0.341896 -0.0107356 0.932031 -0.362218 0.00821913 0.82006 -0.572218 -0.0125729 0.499962 -0.865956 -0.0119603 0.498604 -0.866748 0.00490714 0.328746 -0.944406 -0.0129143 0.173636 -0.984725 -0.00983848 0.159963 -0.987074 0 0.0502766 -0.998735 0.0069331 -0.415709 -0.909471 -0.0185104 -0.499905 -0.865882 0.012917 -0.646185 -0.763072 -0.0239079 -0.765832 -0.642596 0.00768541 -0.817676 -0.575627 -0.0453968 -0.998969 0 0.0144645 -0.993922 0.109134 -0.0255375 -0.765801 0.64257 0.00556288 -0.681019 0.732245 0 -0.17365 -0.984807 -0.0354264 -0.0569194 -0.99775 -0.00696583 -0.20462 -0.978817 -0.0115236 -0.939629 -0.342 -0.0631819 -0.910062 -0.409629 0.0305985 -0.987847 -0.152391 -0.0227365 -0.939449 0.341934 -0.0159739 -0.936693 0.349788 0.0107928 -0.828567 0.559786 -0.0106996 -0.499962 0.865981 -0.00388758 -0.485609 0.874168 0.00248958 -0.265257 0.964175 -0.0137822 -0.173634 0.984714 -0.00749904 -0.130676 0.991397 0 -0.0562596 0.998416 0 1 0 0 1 0 0 1 0 0 1 0 0 1 0 0 1 0 0 1 0 0 1 0 0 1 0 0 1 0 0 1 0 0 1 0 0 1 0 0 1 0 0 1 0 0 1 0 0 1 0 0 1 0 0 1 0 0 1 0 0 1 0 0 1 0 0 1 0 0 1 0 0 1 0 0 1 0 0 1 0 0 1 0 0 1 0 0 1 0 0 1 0 0 1 0 0 1 0 0 1 0 0 1 0 0 1 0 0 1 0 0 1 0 0 1 0 0 1 0 0 1 0 0 1 0 0 1 0 0 1 0 0 1 0 0 1 0 0 1 0 0 1 0 0 1 0 0 1 0 0 1 0 0 1 0 0 1 0 0 1 0 0 1 0 0 1 0 0 1 0 0 1 0 0 1 0 0 1 0 0 1 0 0 1 0 0 1 0 0 1 0 0 1 0 0 1 0 0 1 0 0 1 0 0 1 0 0 1 0 0 1 0 0 1 0 0 1 0 0 1 0 0 1 0 0 1 0 0 1 0 0 1 0 0 1 0 0 1 0 0 1 0 0 1 0 0 1 0 0 1 0 0 1 0 0 1 0 0 1 0 0 1 0 0 1 0 0 1 0 0 1 0 0 1 0 0 1 0 0 1 0 0 1 0 0 1 0 0 1 0 0 1 0 0 1 0 0 1 0 0 1 0 0 1 0 0 1 0 0 1 0 0 1 0 0 1 0 0 1 0 0 1 0 0 1 0 0 1 0 0 1 0 0 1 0 0 1 0 0 1 0 1 0 0 1 0 0 1 0 0 1 0 0 1 0 0 1 0 0 1 0 0 1 0 0 1 0 0 1 0 0 1 0 0 1 0 0 1 0 0 1 0 0 1 0 0 1 0 0 1 0 0 1 0 0 1 0 0 1 0 0 1 0 0 1 0 0 1 0 0 1 0 0 1 0 0 1 0 0 1 0 0 1 0 0 1 0 0 1 0 0 -1 0 0 -1 0 0 -0.769264 0 0.638931 -0.769264 0 0.638931 -0.638931 0 0.769264 -0.638931 0 0.769264 0 0 1 0 0 1 -1 0 0 -1 0 0 0 0 -1 0 0 -1 -0.638931 0 -0.769264 -0.638931 0 -0.769264 -0.769264 0 -0.638931 -0.769264 0 -0.638931 -1 0 0 -1 0 0 0 0 -1 0 0 -1 1 0 0 1 0 0 0.769264 0 -0.638931 0.769264 0 -0.638931 0.638931 0 -0.769264 0.638931 0 -0.769264 0.638931 0 0.769264 0.638931 0 0.769264 0.769264 0 0.638931 0.769264 0 0.638931 1 0 0 1 0 0 0 0 1 0 0 1 0.965925 0 -0.258821 0.707107 0 -0.707107 0.707107 0 -0.707107 0.258821 0 -0.965925 0.258821 0 -0.965925 0.965925 0 -0.258821 0.965925 0 0.258821 0.965925 0 0.258821 0.707109 0 0.707104 0.707109 0 0.707104 0.258817 0 0.965927 0.258817 0 0.965927 -0.965927 0 0.258816 -0.707107 0 0.707107 -0.707107 0 0.707107 -0.258816 0 0.965927 -0.258816 0 0.965927 -0.965927 0 0.258816 -0.965927 0 -0.258817 -0.965927 0 -0.258817 -0.707104 0 -0.707109 -0.707104 0 -0.707109 -0.258821 0 -0.965925 -0.258821 0 -0.965925 0.965927 0 -0.258817 0.707104 0 -0.707109 0.707104 0 -0.707109 0.258821 0 -0.965925 0.258821 0 -0.965925 0.965927 0 -0.258817 0.965927 0 0.258816 0.965927 0 0.258816 0.707107 0 0.707107 0.707107 0 0.707107 0.258816 0 0.965927 0.258816 0 0.965927 -0.965925 0 0.258821 -0.707109 0 0.707104 -0.707109 0 0.707104 -0.258817 0 0.965927 -0.258817 0 0.965927 -0.965925 0 0.258821 -0.965925 0 -0.258821 -0.965925 0 -0.258821 -0.707107 0 -0.707107 -0.707107 0 -0.707107 -0.258821 0 -0.965925 -0.258821 0 -0.965925 0.965927 0 -0.258816 0.707107 0 -0.707107 0.707107 0 -0.707107 0.258816 0 -0.965927 0.258816 0 -0.965927 0.965927 0 -0.258816 0.965927 0 0.258817 0.965927 0 0.258817 0.707104 0 0.707109 0.707104 0 0.707109 0.258821 0 0.965925 0.258821 0 0.965925 -0.965925 0 0.258821 -0.707107 0 0.707107 -0.707107 0 0.707107 -0.258821 0 0.965925 -0.258821 0 0.965925 -0.965925 0 0.258821 -0.965925 0 -0.258821 -0.965925 0 -0.258821 -0.707109 0 -0.707104 -0.707109 0 -0.707104 -0.258817 0 -0.965927 -0.258817 0 -0.965927 0.965925 0 -0.258821 0.707109 0 -0.707104 0.707109 0 -0.707104 0.258817 0 -0.965927 0.258817 0 -0.965927 0.965925 0 -0.258821 0.965925 0 0.258821 0.965925 0 0.258821 0.707107 0 0.707107 0.707107 0 0.707107 0.258821 0 0.965925 0.258821 0 0.965925 -0.965927 0 0.258817 -0.707104 0 0.707109 -0.707104 0 0.707109 -0.258821 0 0.965925 -0.258821 0 0.965925 -0.965927 0 0.258817 -0.965927 0 -0.258816 -0.965927 0 -0.258816 -0.707107 0 -0.707107 -0.707107 0 -0.707107 -0.258816 0 -0.965927 -0.258816 0 -0.965927 0.987688 0 0.156435 0.987688 0 0.156435 0.891007 0 0.45399 0.891007 0 0.45399 0.707107 0 0.707107 0.707107 0 0.707107 0.45399 0 0.891007 0.45399 0 0.891007 0.156435 0 0.987688 0.156435 0 0.987688 1 0 0 1 0 0 0.156435 0 -0.987688 0.156435 0 -0.987688 0.45399 0 -0.891007 0.45399 0 -0.891007 0.707107 0 -0.707107 0.707107 0 -0.707107 0.891007 0 -0.45399 0.891007 0 -0.45399 0.987688 0 -0.156435 0.987688 0 -0.156435 0 0 -1 0 0 -1 -0.987688 0 -0.156435 -0.987688 0 -0.156435 -0.891007 0 -0.45399 -0.891007 0 -0.45399 -0.707107 0 -0.707107 -0.707107 0 -0.707107 -0.45399 0 -0.891007 -0.45399 0 -0.891007 -0.156435 0 -0.987688 -0.156435 0 -0.987688 -1 0 0 -1 0 0 -0.156435 0 0.987688 -0.156435 0 0.987688 -0.45399 0 0.891007 -0.45399 0 0.891007 -0.707107 0 0.707107 -0.707107 0 0.707107 -0.891007 0 0.45399 -0.891007 0 0.45399 -0.987688 0 0.156435 -0.987688 0 0.156435 0 0 1 0 0 1 0 -0.382676 0.923883 0 -0.382676 0.923883 0 -0.923886 0.382667 0 -0.923886 0.382667 0 -1 0 0 -1 0 0 -0.923886 -0.382667 0 -0.923886 -0.382667 0 -0.382676 -0.923883 0 -0.382676 -0.923883 0 0 -1 0 0 -1 0 0.382676 -0.923883 0 0.382676 -0.923883 0 0.923886 -0.382667 0 0.923886 -0.382667 0 1 0 0 1 0 0 0.923886 0.382667 0 0.923886 0.382667 0 0.382676 0.923883 0 0.382676 0.923883 0 0 1 0 0 1 0 0 -1 0 0 -1 0 -1 0 0 -1 0 0 -1 0 0 -1 0 0 -1 0 0 -1 0 0 -1 0 0 -1 0 0 -1 0 0 -1 0 0 -1 0 0 -1 0 0 -1 0 0 -1 0 0 -1 0 0 -1 0 0 -1 0 0 -1 0 0 0 1 0 0 1 0 -1 0 0 -1 0 0 -1 0 0 -1 0 0 -1 0 0 -1 0 0 -1 0 0 -1 0 0 -1 0 0 -1 0 0 -1 0 0 -1 0 0 -1 0 0 -1 0 0 -1 0 0 -1 0 0 -1 0 0 -1 0 0 -1 0 0 -1 0 0 -1 0 0 -1 0 0 -1 0 0 -1 0 0 -1 0 0 -1 0 0 -1 0 0 -1 0 0 -1 0 0 -1 0 0 -1 0 0 -1 0 0 -1 0 0 -1 0 0 -1 0 0 -1 0 0 -1 0 0 -1 0 0 -1 0 0 -1 0 0 -1 0 0 -1 0 0 -1 0 0 -1 0 0 -1 0 0 -1 0 0 -1 0 0 -1 0 0 -1 0 0 -1 0 0 -1 0 0 -1 0 0 -1 0 0 -1 0 0 -1 0 0 -1 0 0 -1 0 0 -1 0 0 -1 0 0 -1 0 0 -1 0 0 -1 0 0 -1 0 0 -1 0 0 -1 0 0 -1 0 0 -1 0 0 -1 0 0 -1 0 0 -1 0 0 -1 0 0 -1 0 0 -1 0 0 -1 0 0 -1 0 0 -1 0 0 -1 0 0 -1 0 0 -1 0 0 -1 0 0 -1 0 0 -1 0 0 -1 0 0 -1 0 0 -1 0 0 -1 0 0 -1 0 0 -1 0 0 -1 0 0 -1 0 0 -1 0 0 -1 0 0 -1 0 0 -1 0 0 -1 0 0 -1 0 0 -1 0 0 -1 0 0 -1 0 0 -1 0 1 0 0 1 0 0 1 0 0 1 0 0 1 0 0 1 0 0 1 0 0 1 0 0 1 0 0 1 0 0 1 0 0 1 0 0 1 0 0 1 0 0 1 0 0 1 0 0 1 0 0 1 0 0 1 0 0 1 0 0 1 0 0 1 0 0 1 0 0 1 0 0 1 0 0 1 0 0 1 0 0 1 0 0 1 0 0 1 0 0 0 1 0 0 1 0 0 1 0 0 1 0 0 1 0 0 1 0 0 1 0 0 1 0 0 1 0 0 1 0 0 1 0 0 1 0 0 1 0 0 1 0 0 0 1 0 0 1 0 0.923886 0.382667 0 0.923886 0.382667 0 0.382676 0.923883 0 0.382676 0.923883 0 1 0 0 1 0 0 0.382676 -0.923883 0 0.382676 -0.923883 0 0.923886 -0.382667 0 0.923886 -0.382667 0 0 -1 0 0 -1 0 -0.923886 -0.382667 0 -0.923886 -0.382667 0 -0.382676 -0.923883 0 -0.382676 -0.923883 0 -1 0 0 -1 0 0 -0.382676 0.923883 0 -0.382676 0.923883 0 -0.923886 0.382667 0 -0.923886 0.382667 -0.980785 0 -0.19509 -0.83147 0 -0.55557 -0.83147 0 -0.55557 -0.555571 0 -0.831469 -0.555571 0 -0.831469 -0.195091 0 -0.980785 -0.195091 0 -0.980785 -0.980785 0 -0.19509 -0.980785 0 0.19509 -0.980785 0 0.19509 -0.83147 0 0.55557 -0.83147 0 0.55557 -0.555571 0 0.831469 -0.555571 0 0.831469 -0.195091 0 0.980785 -0.195091 0 0.980785 0.980785 0 0.195091 0.83147 0 0.55557 0.83147 0 0.55557 0.55557 0 0.83147 0.55557 0 0.83147 0.195091 0 0.980785 0.195091 0 0.980785 0.980785 0 0.195091 0.980785 0 -0.195091 0.980785 0 -0.195091 0.83147 0 -0.55557 0.83147 0 -0.55557 0.55557 0 -0.831469 0.55557 0 -0.831469 0.195091 0 -0.980785 0.195091 0 -0.980785 1 0 0 1 0 0 1 0 0 1 0 0 1 0 0 1 0 0 1 0 0 1 0 0 1 0 0 1 0 0 1 0 0 1 0 0 1 0 0 1 0 0 1 0 0 1 0 0 1 0 0 1 0 0 1 0 0 1 0 0 1 0 0 1 0 0 1 0 0 1 0 0 1 0 0 1 0 0 1 0 0 1 0 0 1 0 0 1 0 0 0 1 0 0 1 0 0 1 0 0 1 0 0 1 0 0 1 0 0 1 0 0 1 0 0 1 0 0 1 0 0 1 0 0 1 0 0 1 0 0 1 0 0 1 0 0 1 0 0 1 0 0 1 0 0 1 0 0 1 0 0 1 0 0 1 0 0 1 0 0 1 0 0 1 0 0 1 0 0 1 0 0 1 0 0 1 0 0 1 0 0 1 0 0 1 0 0 1 0 0 1 0 0.00732452 0.844964 0.534774 -0.0385428 0.999257 0 0 0.0128768 -0.999917 0 0.17365 0.984807 -0.0353389 0.0572112 0.997737 -0.00688451 0.205068 0.978724 -0.00569794 0.516837 0.856065 -0.011644 0.499968 0.865966 0.00249403 0.350629 0.936511 -0.0507213 0.701428 0.710934 -0.00435873 0.766031 0.642789 0.000365972 0.63879 0.769381 -0.0167272 0.93956 0.341975 -0.024478 0.935428 0.35267 0.018985 0.996608 0.08007 -0.00776857 0.920418 -0.390858 -0.0377039 0.939023 -0.34178 0.0199864 0.983067 -0.182152 -0.00275345 0.725145 -0.688591 -0.0268988 0.765761 -0.642562 0.00484996 0.840331 -0.542052 -0.00749823 0.501913 -0.864886 -0.00648441 0.499991 -0.866006 0.000365104 0.638791 -0.769381 -0.00183519 0.0945676 -0.995517 -0.0138803 0.173634 -0.984712 0.00431814 0.279017 -0.960277 -0.0385663 -0.999256 0 0 -0.0287553 0.999587 0 -0.17365 -0.984807 -0.0353364 -0.0572197 -0.997736 0.000396531 -0.242285 -0.970205 -0.586294 0.242891 -0.772828 -0.00063886 -0.499991 -0.866031 -0.0072142 -0.484119 -0.874972 0.000370153 -0.638886 -0.769301 -0.00434996 -0.766044 -0.642774 -0.0506395 -0.70155 -0.710818 0.00733065 -0.845017 -0.534689 -0.0167946 -0.939559 -0.341975 -0.0243787 -0.935515 -0.352444 0.0189555 -0.996613 -0.0800166 -0.00776375 -0.920374 0.390963 -0.0377363 -0.939022 0.341779 0.019944 -0.98303 0.182355 -0.00275924 -0.725564 0.688149 -0.0268353 -0.765775 0.642549 0.00476071 -0.840513 0.541771 -0.00709797 -0.501145 0.865334 -0.00648389 -0.499981 0.866012 0.000371021 -0.638886 0.769302 -0.00513073 -0.130338 0.991456 -0.0137335 -0.173633 0.984715 0.00309633 -0.298049 0.954545 -0.00523205 -0.990335 0.138597 0.00459535 -0.964712 0.263268 0 -0.942783 0.333406 -0.00411554 -0.918862 0.394557 -0.00909461 -0.894567 0.44684 -0.000391326 -0.922533 0.385918 0.000236437 -0.795649 -0.605758 0.00320394 -0.809877 -0.586592 -0.00185198 -0.887033 -0.461702 -0.0053973 -0.911317 -0.41167 -0.014974 -0.950648 -0.309911 -0.00306862 -0.901807 -0.432128 0.000299631 -0.825249 0.564769 -0.000576875 -0.82937 0.5587 0.000775788 -0.690418 0.72341 -0.00109373 -0.697097 0.716976 0.000965022 -0.511266 0.859422 -0.00114052 -0.517924 0.855426 0.000574742 -0.370253 0.928931 -0.000239985 -0.37305 0.927811 5.77399e-05 -0.311679 0.950187 0.00455198 -0.99999 0 0.00104522 -0.998603 -0.0528211 -0.00238604 -0.964719 -0.26327 0.00555226 -0.977073 -0.212833 0 -0.934343 -0.356376 -0.000305616 -0.649434 -0.760418 0.00066608 -0.65287 -0.75747 -0.000517944 -0.472077 -0.881557 0.000293867 -0.47468 -0.880158 -0.000147043 -0.348833 -0.937185 -3.59996e-05 -0.349235 -0.937035 -8.03235e-06 -0.306302 -0.951934 -0.173647 0 0.984808 -0.173647 0 0.984808 -0.500001 0 0.866025 -0.500001 0 0.866025 -0.766044 0 0.642788 -0.766044 0 0.642788 -0.939693 0 0.34202 -0.939693 0 0.34202 -1 0 0 -1 0 0 -0.939693 0 -0.34202 -0.939693 0 -0.34202 -0.766044 0 -0.642788 -0.766044 0 -0.642788 -0.500001 0 -0.866025 -0.500001 0 -0.866025 -0.173647 0 -0.984808 -0.173647 0 -0.984808 0.173647 0 -0.984808 0.173647 0 -0.984808 0.500001 0 -0.866025 0.500001 0 -0.866025 0.766044 0 -0.642788 0.766044 0 -0.642788 0.939693 0 -0.34202 0.939693 0 -0.34202 1 0 0 1 0 0 0.939693 0 0.34202 0.939693 0 0.34202 0.766044 0 0.642788 0.766044 0 0.642788 0.500001 0 0.866025 0.500001 0 0.866025 0.173647 0 0.984808 0.173647 0 0.984808 0.727274 0 0.686347 0.701882 -0.00112139 0.712292 0.291519 0.00129907 0.956564 0.256449 0 0.966558 0.49574 0.00492402 0.868457 0.058504 0 0.998287 0.809791 0 0.586719 0.760752 0.00531311 0.649021 0.655226 -0.00320589 0.755426 0.172033 0.00578246 0.985074 0.215004 0.00145685 0.976612 0.433022 -0.00150838 0.901382 -0.730998 0.0168797 0.682171 -0.174135 -0.0043954 0.984712 -0.99682 -0.00604231 0.0794569 -0.999914 0.0131238 0 -0.345944 -0.00237798 -0.938252 -0.766035 0.0047103 0.642782 -0.657133 -4.58321e-05 0.753775 -0.549312 0.00025924 0.835617 -0.368059 0.0299131 0.929321 -0.500002 3.38771e-05 0.866024 -0.0381643 0 -0.999272 -0.130991 0.00309246 -0.991379 -0.13968 0.00399071 -0.990189 -0.204757 0.0108864 -0.978752 -0.173643 0.00634832 -0.984788 -0.0614113 0.0253152 0.997791 -0.101016 0 0.994885 -0.191458 0.00936003 0.981456 -0.173643 0.00697525 0.984784 -0.291827 -1.39046e-05 0.956471 -0.201361 -0.0139016 0.979418 -0.24087 -0.00373604 0.97055 -0.431781 0.0101002 0.901922 -0.149232 -0.179809 0.972316 -0.583016 0.0623573 0.810064 -0.600989 -0.0861807 0.794598 -0.602698 -0.0847239 0.793459 -0.760459 0.0459267 0.647761 -0.785855 -0.0543578 0.616017 -0.856484 0.0371901 0.514833 -0.899793 -0.0749068 0.429839 -0.923711 -0.00758644 0.383016 -0.989641 0.012168 0.143045 -0.961096 -0.177549 0.211591 -0.995494 0.0798747 -0.0511059 -0.989581 0.126453 -0.0688387 -0.962982 -0.10997 -0.246114 -0.947412 0.0874916 -0.307825 -0.865552 -0.105685 -0.489541 -0.860526 0.0398486 -0.507846 -0.754089 -0.044364 -0.655273 -0.753804 0.0322511 -0.656307 -0.574315 -0.0518505 -0.816991 -0.542073 -0.167378 -0.823493 -0.57407 0.0677828 -0.815996 -0.344821 -0.0469824 -0.937492 -0.331064 -0.0145323 -0.943497 -0.272131 0.00128629 -0.962259 -0.215707 -0.00165872 -0.976457 -0.161986 -0.00901895 -0.986752 -0.939667 0.00745023 0.34201 -0.940237 0.00794068 0.340427 -0.850823 -0.00323822 0.525442 -0.939676 0.006045 -0.342013 -0.92187 0.0193123 -0.387017 -0.983517 -0.00672793 -0.18069 -0.766036 0.00471034 -0.642781 -0.731649 0.0166612 -0.681479 -0.846746 -0.00234116 -0.531992 -0.499987 0.00734744 -0.866002 -0.537457 0.000290912 -0.843291 -0.657134 -4.5793e-05 -0.753774 0.369916 -0.003018 -0.92906 0.495737 0.00581859 -0.868453 0.0383462 0 -0.999265 0.172035 0.00447822 -0.985081 0.167106 0.00506161 -0.985926 0.760763 0 -0.64903 0.79104 0.00571939 -0.611738 0.598916 -0.00307096 -0.800806 0.500989 0.00169549 -0.865452 0.776862 -0.00403653 -0.629659 0.701882 0 -0.712293 0.150883 -0.00383646 -0.988544 0.256449 0 -0.966558 0 0 -1 0 0 -1 1 0 0 1 0 0 1 0 0 1 0 0 0 0 1 0 0 1 0 1 0 0 1 0 0 1 0 0 1 0 0 1 0 0 1 0 0 1 0 0 1 0 0 1 0 0 1 0 0 1 0 0 1 0 0 1 0 0 1 0 0 1 0 0 1 0 0 1 0 0 1 0 0 1 0 0 1 0 0 1 0 0 1 0 0 1 0 0 1 0 0 1 0 0 1 0 0 1 0 0 1 0 0 1 0 0 1 0 0 1 0 0 1 0 0 1 0 0 1 0 0 1 0 0 1 0 -0.765958 0.0151088 0.642713 -0.996212 -0.00436411 0.0868436 -0.999893 0.0146274 0 -0.985872 -0.00824407 -0.167295 -0.499942 0.0153718 -0.865923 -0.1673 0 0.985906 -0.173647 0.00219433 0.984806 -0.447256 -0.00158532 0.894404 -0.499958 0.0131382 0.86595 -0.658412 -0.00804993 0.752615 -0.939674 0.00625775 0.342013 -0.942058 0.00847731 0.335343 -0.826998 -0.00552239 0.562178 -0.911568 0.0230224 -0.410504 -0.93968 -0.00514685 -0.342016 -0.778718 0.0038708 -0.627362 -0.76601 0.0095826 -0.642757 -0.595257 -0.00640115 -0.80351 -0.173648 0 -0.984808 -0.127159 0.0166124 -0.991743 -0.373277 -0.00769517 -0.927688 0 1 0 0 1 0 0 1 0 0 1 0 0 1 0 0 1 0 0 1 0 0 1 0 0 1 0 0 1 0 0 1 0 0 1 0 0 1 0 0 1 0 0 1 0 0 1 0 0 1 0 0 1 0 0 1 0 0 1 0 0 1 0 0 1 0 0 1 0 0 1 0 0 1 0 0 1 0 0 1 0 0 1 0 0 1 0 0 1 0 0 1 0 0 1 0 0 1 0 0 1 0 0 1 0 0 1 0 0 1 0 0 1 0 0 1 0 0 1 0 0 1 0 0 1 0 0 1 0 0.173647 0 -0.984808 0.173647 0 -0.984808 0.500002 0 -0.866024 0.500002 0 -0.866024 0.766043 0 -0.642789 0.766043 0 -0.642789 0.939693 0 -0.34202 0.939693 0 -0.34202 1 0 0 1 0 0 0.939693 0 0.342019 0.939693 0 0.342019 0.766043 0 0.642789 0.766043 0 0.642789 0.500002 0 0.866024 0.500002 0 0.866024 0.173647 0 0.984808 0.173647 0 0.984808</float_array>
                    <technique_common>
                        <accessor count="1404" source="#shape0-lib-normals-array" stride="3">
                            <param name="X" type="float"/>
                            <param name="Y" type="float"/>
                            <param name="Z" type="float"/>
                        </accessor>
                    </technique_common>
                </source>
                <vertices id="shape0-lib-vertices">
                    <input semantic="POSITION" source="#shape0-lib-positions"/>
                </vertices>
                <triangles count="1404">
                    <input offset="0" semantic="VERTEX" source="#shape0-lib-vertices"/>
                    <input offset="1" semantic="NORMAL" source="#shape0-lib-normals"/>
                    <p>0 0 1 0 2 0 3 1 4 1 5 1 5 2 4 2 6 2 5 3 6 3 7 3 7 4 6 4 8 4 7 5 8 5 9 5 9 6 8 6 10 6 9 7 10 7 11 7 11 8 10 8 12 8 11 9 12 9 13 9 13 10 12 10 14 10 13 11 14 11 15 11 15 12 14 12 2 12 15 13 2 13 1 13 16 14 2 14 17 14 17 15 2 15 14 15 17 16 14 16 18 16 18 17 14 17 12 17 18 18 12 18 19 18 19 19 12 19 10 19 19 20 10 20 20 20 2 21 16 21 0 21 0 22 16 22 21 22 0 23 21 23 1 23 1 24 21 24 22 24 1 25 22 25 15 25 15 26 22 26 23 26 15 27 23 27 13 27 13 28 23 28 24 28 13 29 24 29 11 29 25 30 5 30 26 30 26 31 5 31 7 31 26 32 7 32 27 32 27 33 7 33 9 33 27 34 9 34 28 34 28 35 9 35 11 35 28 36 11 36 24 36 5 37 25 37 3 37 3 38 25 38 29 38 3 39 29 39 4 39 4 40 29 40 30 40 4 41 30 41 6 41 6 42 30 42 31 42 6 43 31 43 8 43 8 44 31 44 20 44 8 45 20 45 10 45 26 46 32 46 25 46 25 47 32 47 33 47 25 48 33 48 34 48 17 49 35 49 16 49 16 50 35 50 36 50 16 51 36 51 37 51 38 52 30 52 39 52 39 53 30 53 29 53 39 54 29 54 40 54 40 55 29 55 25 55 40 56 25 56 34 56 30 57 38 57 31 57 31 58 38 58 41 58 31 59 41 59 20 59 20 60 41 60 42 60 20 61 42 61 19 61 19 62 42 62 43 62 19 63 43 63 18 63 18 64 43 64 35 64 18 65 35 65 17 65 44 66 22 66 45 66 45 67 22 67 21 67 45 68 21 68 46 68 46 69 21 69 16 69 46 70 16 70 37 70 22 71 44 71 23 71 23 72 44 72 47 72 23 73 47 73 24 73 24 74 47 74 48 74 24 75 48 75 28 75 28 76 48 76 49 76 28 77 49 77 27 77 27 78 49 78 32 78 27 79 32 79 26 79 39 80 40 80 50 80 51 81 52 81 34 81 34 82 33 82 51 82 51 83 33 83 53 83 53 84 33 84 32 84 54 85 55 85 49 85 49 86 48 86 54 86 56 87 41 87 57 87 57 88 41 88 38 88 57 89 38 89 58 89 58 90 38 90 39 90 58 91 39 91 50 91 34 92 52 92 40 92 40 93 52 93 59 93 40 94 59 94 50 94 49 95 55 95 32 95 32 96 55 96 60 96 32 97 60 97 53 97 47 98 61 98 48 98 48 99 61 99 62 99 48 100 62 100 54 100 61 101 47 101 63 101 63 102 47 102 44 102 63 103 44 103 64 103 64 104 44 104 45 104 64 105 45 105 65 105 65 106 45 106 46 106 65 107 46 107 66 107 66 108 46 108 37 108 66 109 37 109 67 109 67 110 37 110 36 110 67 111 36 111 68 111 68 112 36 112 35 112 68 113 35 113 69 113 69 114 35 114 43 114 69 115 43 115 70 115 70 116 43 116 42 116 70 117 42 117 56 117 56 118 42 118 41 118 71 119 72 119 73 119 73 120 72 120 74 120 72 121 75 121 74 121 74 122 75 122 76 122 76 123 75 123 77 123 77 124 75 124 78 124 78 125 79 125 77 125 77 126 79 126 80 126 80 127 79 127 81 127 80 128 81 128 82 128 83 129 84 129 82 129 82 130 84 130 80 130 85 131 86 131 87 131 87 132 86 132 88 132 87 133 88 133 89 133 85 134 87 134 83 134 83 135 87 135 84 135 58 136 50 136 90 136 90 137 50 137 59 137 90 138 59 138 91 138 91 139 59 139 52 139 91 140 52 140 92 140 92 141 52 141 51 141 92 142 51 142 93 142 93 143 51 143 53 143 93 144 53 144 94 144 74 145 76 145 67 145 67 146 76 146 77 146 67 147 77 147 66 147 66 148 77 148 80 148 66 149 80 149 84 149 70 150 95 150 69 150 69 151 95 151 73 151 69 152 73 152 68 152 68 153 73 153 74 153 68 154 74 154 67 154 95 155 70 155 96 155 96 156 70 156 56 156 96 157 56 157 97 157 97 158 56 158 57 158 97 159 57 159 98 159 98 160 57 160 58 160 98 161 58 161 90 161 84 162 87 162 66 162 66 163 87 163 89 163 66 164 89 164 65 164 65 165 89 165 99 165 65 166 99 166 64 166 55 167 54 167 100 167 100 168 54 168 62 168 100 169 62 169 101 169 101 170 62 170 61 170 101 171 61 171 102 171 102 172 61 172 63 172 102 173 63 173 103 173 103 174 63 174 64 174 103 175 64 175 99 175 53 176 60 176 94 176 94 177 60 177 55 177 94 178 55 178 100 178 71 179 73 179 104 179 104 180 73 180 95 180 104 181 95 181 105 181 105 182 95 182 106 182 106 183 95 183 96 183 106 184 96 184 107 184 108 185 107 185 97 185 97 186 107 186 96 186 109 187 110 187 81 187 109 188 81 188 79 188 109 189 79 189 111 189 111 190 79 190 78 190 111 191 78 191 75 191 111 192 75 192 72 192 111 193 72 193 71 193 111 194 71 194 112 194 82 195 81 195 83 195 83 196 81 196 110 196 83 197 110 197 85 197 85 198 110 198 113 198 85 199 113 199 86 199 112 200 71 200 114 200 114 201 71 201 104 201 114 202 104 202 115 202 115 203 104 203 105 203 115 204 105 204 116 204 116 205 105 205 106 205 116 206 106 206 117 206 117 207 106 207 107 207 117 208 107 208 108 208 86 209 113 209 88 209 88 210 113 210 118 210 88 211 118 211 119 211 119 212 118 212 120 212 119 213 120 213 121 213 121 214 120 214 122 214 121 215 122 215 123 215 123 216 122 216 124 216 123 217 124 217 125 217 125 218 124 218 126 218 125 219 126 219 127 219 103 220 99 220 121 220 103 221 121 221 123 221 103 222 123 222 125 222 103 223 125 223 127 223 103 224 127 224 102 224 89 225 88 225 99 225 99 226 88 226 119 226 99 227 119 227 121 227 128 228 129 228 130 228 131 229 132 229 133 229 133 230 132 230 134 230 133 231 134 231 135 231 135 232 134 232 136 232 135 233 136 233 137 233 137 234 136 234 138 234 137 235 138 235 139 235 139 236 138 236 140 236 139 237 140 237 141 237 141 238 140 238 142 238 141 239 142 239 143 239 143 240 142 240 144 240 143 241 144 241 145 241 145 242 144 242 146 242 145 243 146 243 147 243 147 244 146 244 148 244 147 245 148 245 149 245 149 246 148 246 150 246 149 247 150 247 151 247 151 248 150 248 152 248 151 249 152 249 153 249 153 250 152 250 154 250 153 251 154 251 155 251 155 252 154 252 156 252 155 253 156 253 157 253 157 254 156 254 158 254 157 255 158 255 159 255 159 256 158 256 160 256 159 257 160 257 161 257 161 258 160 258 162 258 161 259 162 259 163 259 163 260 162 260 130 260 163 261 130 261 129 261 164 262 117 262 108 262 98 263 165 263 166 263 167 264 165 264 98 264 98 265 90 265 167 265 167 266 90 266 168 266 168 267 90 267 91 267 169 268 170 268 92 268 92 269 93 269 169 269 171 270 172 270 94 270 94 271 100 271 171 271 173 272 101 272 174 272 175 273 174 273 101 273 176 274 175 274 101 274 176 275 101 275 102 275 176 276 102 276 127 276 176 277 127 277 126 277 176 278 126 278 124 278 176 279 124 279 177 279 108 280 97 280 164 280 164 281 97 281 98 281 164 282 98 282 166 282 117 283 164 283 116 283 116 284 164 284 178 284 116 285 178 285 179 285 116 286 179 286 115 286 115 287 179 287 180 287 115 288 180 288 181 288 115 289 181 289 114 289 114 290 181 290 182 290 114 291 182 291 112 291 112 292 182 292 183 292 112 293 183 293 111 293 111 294 183 294 184 294 111 295 184 295 109 295 109 296 184 296 185 296 109 297 185 297 110 297 110 298 185 298 186 298 110 299 186 299 113 299 113 300 186 300 187 300 113 301 187 301 118 301 118 302 187 302 188 302 118 303 188 303 120 303 120 304 188 304 122 304 122 305 188 305 189 305 122 306 189 306 124 306 124 307 189 307 190 307 124 308 190 308 177 308 92 309 170 309 91 309 91 310 170 310 191 310 91 311 191 311 168 311 94 312 172 312 93 312 93 313 172 313 192 313 93 314 192 314 169 314 101 315 173 315 100 315 100 316 173 316 193 316 100 317 193 317 171 317 148 318 146 318 194 318 194 319 146 319 195 319 195 320 146 320 144 320 195 321 144 321 196 321 196 322 144 322 142 322 196 323 142 323 197 323 142 324 140 324 197 324 198 325 197 325 140 325 140 326 138 326 198 326 199 327 198 327 138 327 138 328 136 328 199 328 200 329 199 329 136 329 136 330 134 330 200 330 201 331 135 331 202 331 202 332 135 332 137 332 202 333 137 333 203 333 137 334 139 334 203 334 204 335 203 335 139 335 139 336 141 336 204 336 205 337 145 337 206 337 206 338 145 338 147 338 206 339 147 339 207 339 208 340 150 340 209 340 209 341 150 341 148 341 209 342 148 342 194 342 200 343 134 343 210 343 210 344 134 344 132 344 210 345 132 345 211 345 211 346 132 346 131 346 211 347 131 347 201 347 201 348 131 348 133 348 201 349 133 349 135 349 204 350 141 350 205 350 205 351 141 351 143 351 205 352 143 352 145 352 151 353 212 353 149 353 149 354 212 354 207 354 149 355 207 355 147 355 212 356 151 356 213 356 213 357 151 357 153 357 213 358 153 358 214 358 214 359 153 359 155 359 214 360 155 360 215 360 215 361 155 361 157 361 215 362 157 362 216 362 216 363 157 363 159 363 216 364 159 364 217 364 217 365 159 365 161 365 217 366 161 366 218 366 218 367 161 367 163 367 218 368 163 368 219 368 219 369 163 369 129 369 219 370 129 370 220 370 220 371 129 371 128 371 220 372 128 372 221 372 221 373 128 373 130 373 221 374 130 374 222 374 222 375 130 375 162 375 222 376 162 376 223 376 223 377 162 377 160 377 223 378 160 378 224 378 224 379 160 379 158 379 224 380 158 380 225 380 225 381 158 381 156 381 225 382 156 382 226 382 226 383 156 383 154 383 226 384 154 384 227 384 227 385 154 385 152 385 227 386 152 386 208 386 208 387 152 387 150 387 228 388 165 388 167 388 228 389 167 389 229 389 167 390 168 390 229 390 230 391 229 391 168 391 168 392 191 392 230 392 231 393 169 393 232 393 169 394 192 394 232 394 233 395 171 395 234 395 171 396 193 396 234 396 235 397 164 397 228 397 228 398 164 398 166 398 228 399 166 399 165 399 230 400 191 400 231 400 231 401 191 401 170 401 231 402 170 402 169 402 232 403 192 403 233 403 233 404 192 404 172 404 233 405 172 405 171 405 234 406 193 406 236 406 236 407 193 407 173 407 236 408 173 408 174 408 236 409 174 409 237 409 237 410 174 410 175 410 237 411 175 411 176 411 238 412 190 412 189 412 238 413 189 413 239 413 189 414 188 414 239 414 240 415 239 415 188 415 188 416 187 416 240 416 241 417 185 417 242 417 185 418 184 418 242 418 243 419 182 419 244 419 182 420 181 420 244 420 237 421 176 421 238 421 238 422 176 422 177 422 238 423 177 423 190 423 240 424 187 424 241 424 241 425 187 425 186 425 241 426 186 426 185 426 242 427 184 427 243 427 243 428 184 428 183 428 243 429 183 429 182 429 244 430 181 430 245 430 245 431 181 431 180 431 245 432 180 432 179 432 245 433 179 433 235 433 235 434 179 434 178 434 235 435 178 435 164 435 246 436 211 436 247 436 246 437 248 437 211 437 211 438 249 438 250 438 211 439 250 439 251 439 252 440 253 440 254 440 255 441 256 441 257 441 258 442 259 442 260 442 261 443 262 443 263 443 261 444 263 444 247 444 261 445 247 445 211 445 261 446 211 446 251 446 261 447 251 447 264 447 261 448 264 448 265 448 261 449 265 449 266 449 267 450 268 450 269 450 267 451 269 451 270 451 267 452 270 452 271 452 267 453 271 453 254 453 267 454 254 454 253 454 272 455 253 455 252 455 272 456 252 456 273 456 272 457 273 457 274 457 272 458 274 458 275 458 272 459 275 459 276 459 272 460 276 460 277 460 272 461 277 461 257 461 272 462 257 462 256 462 278 463 256 463 255 463 278 464 255 464 279 464 278 465 279 465 280 465 220 466 274 466 281 466 220 467 281 467 282 467 220 468 282 468 283 468 220 469 283 469 284 469 220 470 284 470 285 470 220 471 285 471 269 471 220 472 269 472 286 472 220 473 286 473 287 473 220 474 287 474 288 474 220 475 288 475 289 475 220 476 289 476 290 476 220 477 290 477 291 477 220 478 291 478 292 478 220 479 292 479 293 479 220 480 293 480 294 480 220 481 294 481 295 481 220 482 295 482 296 482 220 483 296 483 219 483 275 484 227 484 208 484 275 485 208 485 209 485 275 486 209 486 194 486 275 487 194 487 195 487 275 488 195 488 196 488 275 489 196 489 197 489 275 490 197 490 198 490 275 491 198 491 199 491 275 492 199 492 200 492 275 493 200 493 210 493 275 494 210 494 211 494 275 495 211 495 248 495 274 496 220 496 221 496 274 497 221 497 222 497 274 498 222 498 223 498 274 499 223 499 224 499 274 500 224 500 225 500 274 501 225 501 226 501 274 502 226 502 227 502 274 503 227 503 275 503 297 504 249 504 211 504 297 505 211 505 201 505 297 506 201 506 202 506 297 507 202 507 203 507 297 508 203 508 204 508 297 509 204 509 205 509 297 510 205 510 206 510 297 511 206 511 207 511 297 512 207 512 212 512 297 513 212 513 213 513 296 514 297 514 213 514 296 515 213 515 214 515 296 516 214 516 215 516 296 517 215 517 216 517 296 518 216 518 217 518 296 519 217 519 218 519 296 520 218 520 219 520 298 521 258 521 260 521 298 522 260 522 299 522 298 523 299 523 300 523 298 524 300 524 297 524 298 525 297 525 296 525 298 526 296 526 301 526 298 527 301 527 302 527 298 528 302 528 303 528 261 529 304 529 262 529 262 530 304 530 280 530 304 531 305 531 280 531 280 532 305 532 278 532 306 533 307 533 308 533 308 534 307 534 309 534 307 535 266 535 309 535 309 536 266 536 265 536 310 537 286 537 268 537 268 538 286 538 269 538 311 539 312 539 313 539 313 540 312 540 290 540 313 541 290 541 314 541 314 542 290 542 289 542 314 543 289 543 315 543 302 544 316 544 303 544 303 545 316 545 311 545 303 546 311 546 313 546 309 547 317 547 308 547 308 548 317 548 259 548 308 549 259 549 258 549 235 550 318 550 245 550 319 551 320 551 237 551 319 552 237 552 238 552 319 553 238 553 239 553 319 554 239 554 240 554 319 555 240 555 241 555 319 556 241 556 242 556 321 557 319 557 242 557 321 558 242 558 243 558 321 559 243 559 244 559 321 560 244 560 245 560 321 561 245 561 318 561 322 562 231 562 232 562 322 563 232 563 233 563 322 564 233 564 234 564 322 565 234 565 236 565 322 566 236 566 237 566 322 567 237 567 323 567 324 568 325 568 228 568 324 569 228 569 229 569 324 570 229 570 230 570 324 571 230 571 231 571 324 572 231 572 322 572 326 573 323 573 327 573 327 574 323 574 237 574 327 575 237 575 320 575 228 576 325 576 235 576 235 577 325 577 328 577 235 578 328 578 318 578 318 579 328 579 329 579 330 580 331 580 332 580 332 581 331 581 333 581 330 582 334 582 331 582 331 583 334 583 335 583 334 584 336 584 335 584 335 585 336 585 337 585 338 586 339 586 336 586 336 587 339 587 337 587 340 588 341 588 338 588 338 589 341 589 339 589 341 590 340 590 342 590 342 591 340 591 343 591 343 592 344 592 342 592 342 593 344 593 345 593 344 594 346 594 345 594 345 595 346 595 347 595 348 596 349 596 346 596 346 597 349 597 347 597 349 598 348 598 350 598 350 599 348 599 351 599 350 600 351 600 352 600 352 601 351 601 353 601 353 602 354 602 352 602 352 603 354 603 355 603 354 604 356 604 355 604 355 605 356 605 357 605 358 606 359 606 360 606 360 607 359 607 361 607 359 608 362 608 361 608 361 609 362 609 363 609 363 610 362 610 364 610 364 611 362 611 365 611 332 612 333 612 365 612 365 613 333 613 364 613 366 614 295 614 367 614 367 615 295 615 294 615 367 616 294 616 368 616 368 617 294 617 293 617 368 618 293 618 369 618 295 619 366 619 296 619 296 620 366 620 370 620 296 621 370 621 301 621 301 622 370 622 371 622 301 623 371 623 302 623 302 624 371 624 372 624 302 625 372 625 316 625 373 626 312 626 374 626 374 627 312 627 311 627 374 628 311 628 375 628 375 629 311 629 316 629 375 630 316 630 372 630 312 631 373 631 290 631 290 632 373 632 376 632 290 633 376 633 291 633 291 634 376 634 377 634 291 635 377 635 292 635 292 636 377 636 369 636 292 637 369 637 293 637 378 638 265 638 379 638 379 639 265 639 264 639 379 640 264 640 380 640 380 641 264 641 251 641 380 642 251 642 381 642 265 643 378 643 309 643 309 644 378 644 382 644 309 645 382 645 317 645 317 646 382 646 383 646 317 647 383 647 259 647 259 648 383 648 384 648 259 649 384 649 260 649 385 650 300 650 386 650 386 651 300 651 299 651 386 652 299 652 387 652 387 653 299 653 260 653 387 654 260 654 384 654 300 655 385 655 297 655 297 656 385 656 388 656 297 657 388 657 249 657 249 658 388 658 389 658 249 659 389 659 250 659 250 660 389 660 381 660 250 661 381 661 251 661 390 662 279 662 391 662 391 663 279 663 255 663 391 664 255 664 392 664 392 665 255 665 257 665 392 666 257 666 393 666 279 667 390 667 280 667 280 668 390 668 394 668 280 669 394 669 262 669 262 670 394 670 395 670 262 671 395 671 263 671 263 672 395 672 396 672 263 673 396 673 247 673 397 674 248 674 398 674 398 675 248 675 246 675 398 676 246 676 399 676 399 677 246 677 247 677 399 678 247 678 396 678 248 679 397 679 275 679 275 680 397 680 400 680 275 681 400 681 276 681 276 682 400 682 401 682 276 683 401 683 277 683 277 684 401 684 393 684 277 685 393 685 257 685 402 686 273 686 403 686 403 687 273 687 252 687 403 688 252 688 404 688 404 689 252 689 254 689 404 690 254 690 405 690 273 691 402 691 274 691 274 692 402 692 406 692 274 693 406 693 281 693 281 694 406 694 407 694 281 695 407 695 282 695 282 696 407 696 408 696 282 697 408 697 283 697 409 698 285 698 410 698 410 699 285 699 284 699 410 700 284 700 411 700 411 701 284 701 283 701 411 702 283 702 408 702 285 703 409 703 269 703 269 704 409 704 412 704 269 705 412 705 270 705 270 706 412 706 413 706 270 707 413 707 271 707 271 708 413 708 405 708 271 709 405 709 254 709 414 710 287 710 415 710 415 711 287 711 286 711 415 712 286 712 416 712 416 713 286 713 310 713 416 714 310 714 417 714 417 715 310 715 268 715 417 716 268 716 418 716 418 717 268 717 267 717 418 718 267 718 419 718 419 719 267 719 253 719 420 720 288 720 414 720 414 721 288 721 287 721 421 722 303 722 422 722 422 723 303 723 313 723 422 724 313 724 423 724 423 725 313 725 314 725 423 726 314 726 424 726 424 727 314 727 315 727 424 728 315 728 425 728 425 729 315 729 289 729 425 730 289 730 420 730 420 731 289 731 288 731 426 732 298 732 421 732 421 733 298 733 303 733 427 734 266 734 428 734 428 735 266 735 307 735 428 736 307 736 429 736 429 737 307 737 306 737 429 738 306 738 430 738 430 739 306 739 308 739 430 740 308 740 431 740 431 741 308 741 258 741 431 742 258 742 426 742 426 743 258 743 298 743 266 744 427 744 261 744 261 745 427 745 432 745 433 746 272 746 434 746 434 747 272 747 256 747 434 748 256 748 435 748 435 749 256 749 278 749 435 750 278 750 436 750 436 751 278 751 305 751 436 752 305 752 437 752 437 753 305 753 304 753 437 754 304 754 432 754 432 755 304 755 261 755 272 756 433 756 253 756 253 757 433 757 419 757 329 758 438 758 318 758 318 759 438 759 439 759 318 760 439 760 321 760 321 761 439 761 440 761 440 762 441 762 321 762 321 763 441 763 319 763 319 764 441 764 320 764 320 765 441 765 442 765 320 766 442 766 327 766 327 767 442 767 443 767 443 768 444 768 327 768 327 769 444 769 326 769 326 770 444 770 323 770 323 771 444 771 445 771 323 772 445 772 322 772 322 773 445 773 446 773 446 774 447 774 322 774 322 775 447 775 324 775 324 776 447 776 325 776 325 777 447 777 448 777 325 778 448 778 328 778 328 779 448 779 449 779 449 780 438 780 328 780 328 781 438 781 329 781 357 782 356 782 450 782 450 783 356 783 451 783 350 784 333 784 331 784 350 785 331 785 347 785 350 786 347 786 349 786 333 787 350 787 352 787 333 788 352 788 363 788 333 789 363 789 364 789 450 790 452 790 357 790 357 791 452 791 360 791 357 792 360 792 355 792 355 793 360 793 361 793 355 794 361 794 352 794 352 795 361 795 363 795 347 796 331 796 345 796 345 797 331 797 335 797 345 798 335 798 342 798 342 799 335 799 337 799 342 800 337 800 341 800 341 801 337 801 339 801 358 802 360 802 453 802 453 803 360 803 452 803 397 804 334 804 330 804 383 805 431 805 384 805 453 806 409 806 410 806 453 807 410 807 411 807 453 808 411 808 358 808 451 809 356 809 377 809 451 810 377 810 376 810 451 811 376 811 373 811 343 812 340 812 388 812 343 813 388 813 385 813 343 814 385 814 346 814 343 815 346 815 344 815 336 816 334 816 397 816 336 817 397 817 398 817 336 818 398 818 338 818 433 819 434 819 393 819 433 820 393 820 401 820 433 821 401 821 400 821 433 822 400 822 397 822 433 823 397 823 330 823 433 824 330 824 332 824 433 825 332 825 365 825 433 826 365 826 419 826 426 827 351 827 348 827 426 828 348 828 346 828 426 829 346 829 385 829 426 830 385 830 386 830 426 831 386 831 387 831 426 832 387 832 384 832 426 833 384 833 431 833 340 834 378 834 379 834 340 835 379 835 380 835 340 836 380 836 381 836 340 837 381 837 389 837 340 838 389 838 388 838 422 839 423 839 373 839 422 840 373 840 374 840 422 841 374 841 375 841 422 842 375 842 372 842 422 843 372 843 421 843 421 844 372 844 371 844 421 845 371 845 370 845 421 846 370 846 351 846 421 847 351 847 426 847 430 848 431 848 383 848 430 849 383 849 382 849 430 850 382 850 378 850 430 851 378 851 427 851 430 852 427 852 428 852 430 853 428 853 429 853 356 854 366 854 367 854 356 855 367 855 368 855 356 856 368 856 369 856 356 857 369 857 377 857 358 858 411 858 408 858 358 859 408 859 407 859 358 860 407 860 406 860 358 861 406 861 402 861 338 862 398 862 399 862 338 863 399 863 396 863 338 864 396 864 395 864 338 865 395 865 394 865 338 866 394 866 390 866 437 867 432 867 390 867 390 868 432 868 427 868 390 869 427 869 338 869 338 870 427 870 378 870 338 871 378 871 340 871 415 872 409 872 414 872 414 873 409 873 453 873 414 874 453 874 420 874 420 875 453 875 451 875 420 876 451 876 373 876 391 877 435 877 390 877 390 878 435 878 436 878 390 879 436 879 437 879 405 880 419 880 404 880 404 881 419 881 365 881 404 882 365 882 403 882 403 883 365 883 362 883 403 884 362 884 402 884 402 885 362 885 359 885 402 886 359 886 358 886 354 887 353 887 356 887 356 888 353 888 366 888 353 889 351 889 366 889 366 890 351 890 370 890 420 891 373 891 425 891 425 892 373 892 423 892 425 893 423 893 424 893 413 894 412 894 418 894 418 895 412 895 409 895 418 896 409 896 417 896 417 897 409 897 415 897 417 898 415 898 416 898 405 899 413 899 419 899 419 900 413 900 418 900 393 901 434 901 392 901 392 902 434 902 435 902 392 903 435 903 391 903 443 904 454 904 455 904 451 905 453 905 456 905 451 906 456 906 457 906 451 907 457 907 458 907 451 908 458 908 459 908 451 909 459 909 460 909 451 910 460 910 450 910 450 911 460 911 461 911 450 912 461 912 462 912 450 913 462 913 463 913 450 914 463 914 452 914 463 915 454 915 443 915 463 916 443 916 442 916 463 917 442 917 441 917 452 918 463 918 441 918 452 919 441 919 440 919 452 920 440 920 439 920 452 921 439 921 438 921 452 922 438 922 449 922 452 923 449 923 453 923 456 924 446 924 445 924 456 925 445 925 444 925 456 926 444 926 464 926 453 927 449 927 448 927 453 928 448 928 447 928 453 929 447 929 446 929 453 930 446 930 456 930 443 931 455 931 444 931 444 932 455 932 465 932 444 933 465 933 464 933 466 934 467 934 468 934 469 935 470 935 471 935 471 936 470 936 472 936 471 937 472 937 473 937 473 938 472 938 474 938 473 939 474 939 475 939 475 940 474 940 476 940 475 941 476 941 477 941 477 942 476 942 478 942 477 943 478 943 479 943 479 944 478 944 480 944 479 945 480 945 481 945 481 946 480 946 468 946 481 947 468 947 467 947 465 948 455 948 482 948 482 949 455 949 483 949 484 950 456 950 485 950 485 951 456 951 464 951 485 952 464 952 482 952 482 953 464 953 465 953 457 954 456 954 486 954 486 955 456 955 484 955 487 956 459 956 488 956 488 957 459 957 458 957 488 958 458 958 486 958 486 959 458 959 457 959 460 960 459 960 489 960 489 961 459 961 487 961 490 962 462 962 491 962 491 963 462 963 461 963 491 964 461 964 489 964 489 965 461 965 460 965 463 966 462 966 492 966 492 967 462 967 490 967 483 968 455 968 493 968 493 969 455 969 454 969 493 970 454 970 492 970 492 971 454 971 463 971 494 972 468 972 495 972 495 973 468 973 480 973 495 974 480 974 496 974 496 975 480 975 478 975 496 976 478 976 497 976 497 977 478 977 476 977 497 978 476 978 498 978 468 979 494 979 466 979 466 980 494 980 499 980 466 981 499 981 467 981 467 982 499 982 500 982 467 983 500 983 481 983 481 984 500 984 501 984 481 985 501 985 479 985 479 986 501 986 502 986 479 987 502 987 477 987 503 988 471 988 504 988 504 989 471 989 473 989 504 990 473 990 505 990 505 991 473 991 475 991 505 992 475 992 506 992 506 993 475 993 477 993 506 994 477 994 502 994 471 995 503 995 469 995 469 996 503 996 507 996 469 997 507 997 470 997 470 998 507 998 508 998 470 999 508 999 472 999 472 1000 508 1000 509 1000 472 1001 509 1001 474 1001 474 1002 509 1002 498 1002 474 1003 498 1003 476 1003 510 1004 493 1004 511 1004 490 1005 491 1005 512 1005 490 1006 512 1006 513 1006 490 1007 513 1007 514 1007 490 1008 514 1008 515 1008 490 1009 515 1009 516 1009 490 1010 516 1010 517 1010 492 1011 490 1011 517 1011 492 1012 517 1012 518 1012 492 1013 518 1013 519 1013 492 1014 519 1014 511 1014 492 1015 511 1015 493 1015 486 1016 520 1016 521 1016 486 1017 521 1017 522 1017 486 1018 522 1018 523 1018 486 1019 523 1019 524 1019 486 1020 524 1020 512 1020 486 1021 512 1021 488 1021 484 1022 485 1022 525 1022 484 1023 525 1023 526 1023 484 1024 526 1024 527 1024 484 1025 527 1025 520 1025 484 1026 520 1026 486 1026 487 1027 488 1027 489 1027 489 1028 488 1028 512 1028 489 1029 512 1029 491 1029 525 1030 485 1030 510 1030 510 1031 485 1031 482 1031 510 1032 482 1032 493 1032 493 1033 482 1033 483 1033 504 1034 528 1034 503 1034 503 1035 528 1035 529 1035 503 1036 529 1036 530 1036 495 1037 531 1037 494 1037 494 1038 531 1038 532 1038 494 1039 532 1039 533 1039 534 1040 508 1040 535 1040 535 1041 508 1041 507 1041 535 1042 507 1042 536 1042 536 1043 507 1043 503 1043 536 1044 503 1044 530 1044 508 1045 534 1045 509 1045 509 1046 534 1046 537 1046 509 1047 537 1047 498 1047 498 1048 537 1048 538 1048 498 1049 538 1049 497 1049 497 1050 538 1050 539 1050 497 1051 539 1051 496 1051 496 1052 539 1052 531 1052 496 1053 531 1053 495 1053 540 1054 500 1054 541 1054 541 1055 500 1055 499 1055 541 1056 499 1056 542 1056 542 1057 499 1057 494 1057 542 1058 494 1058 533 1058 500 1059 540 1059 501 1059 501 1060 540 1060 543 1060 501 1061 543 1061 502 1061 502 1062 543 1062 544 1062 502 1063 544 1063 506 1063 506 1064 544 1064 545 1064 506 1065 545 1065 505 1065 505 1066 545 1066 528 1066 505 1067 528 1067 504 1067 546 1068 547 1068 527 1068 520 1069 548 1069 521 1069 512 1070 549 1070 550 1070 510 1071 551 1071 525 1071 525 1072 551 1072 552 1072 525 1073 552 1073 553 1073 554 1074 526 1074 555 1074 555 1075 526 1075 525 1075 555 1076 525 1076 553 1076 546 1077 527 1077 556 1077 556 1078 527 1078 526 1078 556 1079 526 1079 554 1079 527 1080 547 1080 520 1080 520 1081 547 1081 557 1081 520 1082 557 1082 548 1082 558 1083 522 1083 559 1083 559 1084 522 1084 521 1084 559 1085 521 1085 548 1085 560 1086 523 1086 561 1086 561 1087 523 1087 522 1087 561 1088 522 1088 558 1088 562 1089 524 1089 563 1089 563 1090 524 1090 523 1090 563 1091 523 1091 560 1091 549 1092 512 1092 564 1092 564 1093 512 1093 524 1093 564 1094 524 1094 562 1094 516 1095 565 1095 517 1095 551 1096 510 1096 566 1096 512 1097 550 1097 513 1097 513 1098 550 1098 567 1098 513 1099 567 1099 568 1099 568 1100 567 1100 569 1100 513 1101 568 1101 514 1101 514 1102 568 1102 570 1102 514 1103 570 1103 571 1103 514 1104 571 1104 515 1104 515 1105 571 1105 572 1105 515 1106 572 1106 573 1106 515 1107 573 1107 516 1107 516 1108 573 1108 574 1108 516 1109 574 1109 565 1109 575 1110 518 1110 576 1110 576 1111 518 1111 517 1111 576 1112 517 1112 565 1112 577 1113 519 1113 578 1113 578 1114 519 1114 518 1114 578 1115 518 1115 575 1115 579 1116 511 1116 580 1116 580 1117 511 1117 519 1117 580 1118 519 1118 577 1118 566 1119 510 1119 581 1119 581 1120 510 1120 511 1120 581 1121 511 1121 579 1121 582 1122 583 1122 584 1122 582 1123 584 1123 585 1123 582 1124 585 1124 586 1124 582 1125 586 1125 587 1125 582 1126 587 1126 588 1126 582 1127 588 1127 589 1127 590 1128 591 1128 592 1128 590 1129 592 1129 593 1129 590 1130 593 1130 594 1130 590 1131 594 1131 595 1131 590 1132 595 1132 596 1132 590 1133 596 1133 597 1133 589 1134 588 1134 598 1134 598 1135 588 1135 599 1135 598 1136 599 1136 600 1136 600 1137 599 1137 601 1137 600 1138 601 1138 602 1138 602 1139 601 1139 603 1139 602 1140 603 1140 604 1140 604 1141 603 1141 605 1141 604 1142 605 1142 606 1142 584 1143 583 1143 607 1143 607 1144 583 1144 608 1144 607 1145 608 1145 609 1145 609 1146 608 1146 597 1146 609 1147 597 1147 596 1147 592 1148 591 1148 610 1148 610 1149 591 1149 611 1149 610 1150 611 1150 612 1150 612 1151 611 1151 613 1151 612 1152 613 1152 614 1152 614 1153 613 1153 615 1153 614 1154 615 1154 616 1154 617 1155 537 1155 618 1155 618 1156 537 1156 534 1156 618 1157 534 1157 619 1157 619 1158 534 1158 535 1158 619 1159 535 1159 620 1159 620 1160 535 1160 536 1160 620 1161 536 1161 621 1161 621 1162 536 1162 530 1162 621 1163 530 1163 622 1163 622 1164 530 1164 529 1164 622 1165 529 1165 623 1165 623 1166 529 1166 528 1166 623 1167 528 1167 624 1167 624 1168 528 1168 545 1168 624 1169 545 1169 625 1169 625 1170 545 1170 544 1170 625 1171 544 1171 626 1171 626 1172 544 1172 543 1172 626 1173 543 1173 627 1173 627 1174 543 1174 540 1174 627 1175 540 1175 628 1175 628 1176 540 1176 541 1176 628 1177 541 1177 629 1177 629 1178 541 1178 542 1178 629 1179 542 1179 630 1179 630 1180 542 1180 533 1180 630 1181 533 1181 631 1181 631 1182 533 1182 532 1182 631 1183 532 1183 632 1183 632 1184 532 1184 531 1184 632 1185 531 1185 633 1185 633 1186 531 1186 539 1186 633 1187 539 1187 634 1187 634 1188 539 1188 538 1188 634 1189 538 1189 617 1189 617 1190 538 1190 537 1190 588 1191 587 1191 635 1191 635 1192 587 1192 636 1192 587 1193 586 1193 636 1193 636 1194 586 1194 637 1194 601 1195 638 1195 639 1195 640 1196 606 1196 605 1196 588 1197 635 1197 599 1197 599 1198 635 1198 638 1198 599 1199 638 1199 601 1199 640 1200 605 1200 639 1200 639 1201 605 1201 603 1201 639 1202 603 1202 601 1202 546 1203 556 1203 641 1203 551 1204 566 1204 604 1204 548 1205 557 1205 642 1205 642 1206 643 1206 548 1206 562 1207 644 1207 564 1207 645 1208 641 1208 556 1208 645 1209 556 1209 554 1209 645 1210 554 1210 555 1210 645 1211 555 1211 553 1211 645 1212 553 1212 646 1212 647 1213 616 1213 615 1213 647 1214 615 1214 550 1214 647 1215 550 1215 549 1215 647 1216 549 1216 564 1216 647 1217 564 1217 644 1217 604 1218 606 1218 551 1218 551 1219 606 1219 640 1219 551 1220 640 1220 552 1220 552 1221 640 1221 646 1221 552 1222 646 1222 553 1222 604 1223 566 1223 602 1223 602 1224 566 1224 581 1224 602 1225 581 1225 600 1225 600 1226 581 1226 579 1226 600 1227 579 1227 580 1227 600 1228 580 1228 598 1228 598 1229 580 1229 577 1229 598 1230 577 1230 578 1230 598 1231 578 1231 589 1231 589 1232 578 1232 575 1232 589 1233 575 1233 582 1233 582 1234 575 1234 576 1234 582 1235 576 1235 583 1235 583 1236 576 1236 565 1236 583 1237 565 1237 608 1237 608 1238 565 1238 574 1238 608 1239 574 1239 597 1239 597 1240 574 1240 573 1240 597 1241 573 1241 590 1241 590 1242 573 1242 572 1242 590 1243 572 1243 591 1243 591 1244 572 1244 571 1244 591 1245 571 1245 611 1245 611 1246 571 1246 570 1246 611 1247 570 1247 568 1247 611 1248 568 1248 613 1248 613 1249 568 1249 569 1249 613 1250 569 1250 567 1250 567 1251 550 1251 613 1251 613 1252 550 1252 615 1252 642 1253 557 1253 641 1253 641 1254 557 1254 547 1254 641 1255 547 1255 546 1255 648 1256 558 1256 643 1256 643 1257 558 1257 559 1257 643 1258 559 1258 548 1258 649 1259 560 1259 648 1259 648 1260 560 1260 561 1260 648 1261 561 1261 558 1261 644 1262 562 1262 649 1262 649 1263 562 1263 563 1263 649 1264 563 1264 560 1264 610 1265 612 1265 650 1265 650 1266 651 1266 610 1266 616 1267 647 1267 614 1267 614 1268 647 1268 650 1268 614 1269 650 1269 612 1269 652 1270 593 1270 651 1270 651 1271 593 1271 592 1271 651 1272 592 1272 610 1272 595 1273 594 1273 653 1273 653 1274 594 1274 593 1274 653 1275 593 1275 652 1275 595 1276 653 1276 596 1276 596 1277 653 1277 654 1277 596 1278 654 1278 609 1278 609 1279 654 1279 655 1279 585 1280 584 1280 656 1280 656 1281 584 1281 655 1281 655 1282 584 1282 607 1282 655 1283 607 1283 609 1283 637 1284 586 1284 656 1284 656 1285 586 1285 585 1285 657 1286 658 1286 631 1286 631 1287 632 1287 657 1287 657 1288 632 1288 633 1288 657 1289 633 1289 659 1289 659 1290 633 1290 634 1290 659 1291 634 1291 660 1291 660 1292 634 1292 617 1292 660 1293 617 1293 661 1293 661 1294 617 1294 618 1294 661 1295 618 1295 662 1295 662 1296 618 1296 619 1296 662 1297 619 1297 663 1297 663 1298 619 1298 620 1298 663 1299 620 1299 664 1299 664 1300 620 1300 621 1300 664 1301 621 1301 665 1301 665 1302 621 1302 622 1302 665 1303 622 1303 666 1303 666 1304 622 1304 623 1304 666 1305 623 1305 667 1305 667 1306 623 1306 624 1306 667 1307 624 1307 668 1307 668 1308 624 1308 625 1308 668 1309 625 1309 669 1309 669 1310 625 1310 626 1310 669 1311 626 1311 670 1311 670 1312 626 1312 627 1312 670 1313 627 1313 671 1313 671 1314 627 1314 628 1314 671 1315 628 1315 672 1315 672 1316 628 1316 629 1316 672 1317 629 1317 673 1317 673 1318 629 1318 630 1318 673 1319 630 1319 674 1319 674 1320 630 1320 631 1320 674 1321 631 1321 658 1321 663 1322 664 1322 675 1322 676 1323 677 1323 665 1323 665 1324 666 1324 676 1324 676 1325 666 1325 678 1325 668 1326 669 1326 679 1326 680 1327 661 1327 681 1327 681 1328 661 1328 662 1328 681 1329 662 1329 682 1329 682 1330 662 1330 663 1330 682 1331 663 1331 675 1331 665 1332 677 1332 664 1332 664 1333 677 1333 683 1333 664 1334 683 1334 675 1334 678 1335 666 1335 684 1335 684 1336 666 1336 667 1336 684 1337 667 1337 685 1337 685 1338 667 1338 668 1338 685 1339 668 1339 679 1339 670 1340 686 1340 669 1340 669 1341 686 1341 687 1341 669 1342 687 1342 679 1342 684 1343 648 1343 678 1343 678 1344 648 1344 643 1344 678 1345 643 1345 676 1345 676 1346 643 1346 642 1346 676 1347 642 1347 677 1347 677 1348 642 1348 641 1348 677 1349 641 1349 683 1349 636 1350 637 1350 688 1350 688 1351 637 1351 656 1351 688 1352 656 1352 689 1352 689 1353 656 1353 655 1353 689 1354 655 1354 654 1354 675 1355 645 1355 682 1355 682 1356 645 1356 646 1356 682 1357 646 1357 681 1357 681 1358 646 1358 640 1358 681 1359 640 1359 680 1359 680 1360 640 1360 639 1360 680 1361 639 1361 690 1361 690 1362 639 1362 638 1362 690 1363 638 1363 691 1363 691 1364 638 1364 635 1364 691 1365 635 1365 692 1365 692 1366 635 1366 636 1366 692 1367 636 1367 688 1367 641 1368 645 1368 683 1368 683 1369 645 1369 675 1369 654 1370 653 1370 689 1370 689 1371 653 1371 652 1371 689 1372 652 1372 693 1372 693 1373 652 1373 651 1373 693 1374 651 1374 694 1374 679 1375 687 1375 644 1375 644 1376 687 1376 686 1376 644 1377 686 1377 647 1377 647 1378 686 1378 695 1378 647 1379 695 1379 650 1379 650 1380 695 1380 694 1380 650 1381 694 1381 651 1381 644 1382 649 1382 679 1382 679 1383 649 1383 685 1383 649 1384 648 1384 685 1384 685 1385 648 1385 684 1385 686 1386 670 1386 695 1386 695 1387 670 1387 671 1387 695 1388 671 1388 694 1388 694 1389 671 1389 672 1389 694 1390 672 1390 693 1390 693 1391 672 1391 673 1391 693 1392 673 1392 689 1392 689 1393 673 1393 674 1393 689 1394 674 1394 688 1394 688 1395 674 1395 658 1395 688 1396 658 1396 692 1396 692 1397 658 1397 657 1397 692 1398 657 1398 691 1398 691 1399 657 1399 659 1399 691 1400 659 1400 690 1400 690 1401 659 1401 660 1401 690 1402 660 1402 680 1402 680 1403 660 1403 661 1403</p>
                </triangles>
            </mesh>
        </geometry>
    </library_geometries>
    <library_visual_scenes>
        <visual_scene id="VisualSceneNode" name="VisualScene">
            <node id="node" name="node">
                <instance_geometry url="#shape0-lib"/>
            </node>
        </visual_scene>
    </library_visual_scenes>
    <scene>
        <instance_visual_scene url="#VisualSceneNode"/>
    </scene>
</COLLADA>
